G75*
G70*
%OFA0B0*%
%FSLAX24Y24*%
%IPPOS*%
%LPD*%
%AMOC8*
5,1,8,0,0,1.08239X$1,22.5*
%
%ADD10C,0.0000*%
%ADD11R,0.0400X0.0400*%
%ADD12R,0.0906X0.0630*%
%ADD13R,0.0394X0.0433*%
%ADD14R,0.0240X0.0870*%
%ADD15R,0.0433X0.0394*%
D10*
X000100Y000100D02*
X000100Y019721D01*
X019595Y019721D01*
X019595Y000100D01*
X000100Y000100D01*
D11*
X002625Y009375D03*
X003325Y009375D03*
X008425Y009375D03*
X009125Y009375D03*
X012375Y009375D03*
X013075Y009375D03*
X018175Y009375D03*
X018875Y009375D03*
X018875Y019250D03*
X018175Y019250D03*
X013075Y019250D03*
X012375Y019250D03*
X009125Y019250D03*
X008425Y019250D03*
X003325Y019250D03*
X002625Y019250D03*
D12*
X003835Y012550D03*
X006315Y012550D03*
X013585Y012550D03*
X016065Y012550D03*
X016065Y002675D03*
X013585Y002675D03*
X006315Y002675D03*
X003835Y002675D03*
D13*
X002875Y007640D03*
X002875Y008310D03*
X007675Y008310D03*
X007675Y007640D03*
X012625Y007640D03*
X012625Y008310D03*
X017425Y008310D03*
X017425Y007640D03*
X017425Y017515D03*
X017425Y018185D03*
X012625Y018185D03*
X012625Y017515D03*
X007675Y017515D03*
X007675Y018185D03*
X002875Y018185D03*
X002875Y017515D03*
D14*
X004325Y016770D03*
X004825Y016770D03*
X005325Y016770D03*
X005825Y016770D03*
X005825Y014120D03*
X005325Y014120D03*
X004825Y014120D03*
X004325Y014120D03*
X004325Y006895D03*
X004825Y006895D03*
X005325Y006895D03*
X005825Y006895D03*
X005825Y004245D03*
X005325Y004245D03*
X004825Y004245D03*
X004325Y004245D03*
X014075Y004245D03*
X014575Y004245D03*
X015075Y004245D03*
X015575Y004245D03*
X015575Y006895D03*
X015075Y006895D03*
X014575Y006895D03*
X014075Y006895D03*
X014075Y014120D03*
X014575Y014120D03*
X015075Y014120D03*
X015575Y014120D03*
X015575Y016770D03*
X015075Y016770D03*
X014575Y016770D03*
X014075Y016770D03*
D15*
X011360Y015950D03*
X010690Y015950D03*
X001610Y015950D03*
X000940Y015950D03*
X000940Y006075D03*
X001610Y006075D03*
X010690Y006075D03*
X011360Y006075D03*
M02*
