G75*
G70*
%OFA0B0*%
%FSLAX24Y24*%
%IPPOS*%
%LPD*%
%AMOC8*
5,1,8,0,0,1.08239X$1,22.5*
%
%ADD10C,0.0000*%
%ADD11OC8,0.0760*%
%ADD12OC8,0.0680*%
%ADD13R,0.0474X0.0513*%
%ADD14C,0.0820*%
%ADD15R,0.0560X0.0960*%
%ADD16R,0.1497X0.0946*%
%ADD17R,0.0820X0.0820*%
%ADD18C,0.0820*%
%ADD19C,0.0680*%
D10*
X000100Y000100D02*
X000100Y019721D01*
X019595Y019721D01*
X019595Y000100D01*
X000100Y000100D01*
D11*
X003523Y004020D03*
X003523Y005020D03*
X003523Y006020D03*
X003523Y007020D03*
X006523Y007020D03*
X006523Y006020D03*
X006523Y005020D03*
X006523Y004020D03*
X013273Y004020D03*
X013273Y005020D03*
X013273Y006020D03*
X013273Y007020D03*
X016273Y007020D03*
X016273Y006020D03*
X016273Y005020D03*
X016273Y004020D03*
X016273Y013895D03*
X016273Y014895D03*
X016273Y015895D03*
X016273Y016895D03*
X013273Y016895D03*
X013273Y015895D03*
X013273Y014895D03*
X013273Y013895D03*
X006523Y013895D03*
X006523Y014895D03*
X006523Y015895D03*
X006523Y016895D03*
X003523Y016895D03*
X003523Y015895D03*
X003523Y014895D03*
X003523Y013895D03*
D12*
X001775Y013850D03*
X001775Y012850D03*
X001775Y011850D03*
X001775Y010850D03*
X000775Y010850D03*
X000775Y011850D03*
X000775Y012850D03*
X000775Y013850D03*
X000775Y014850D03*
X001775Y014850D03*
X001775Y017050D03*
X001775Y018050D03*
X001775Y019050D03*
X000775Y019050D03*
X000775Y018050D03*
X000775Y017050D03*
X000775Y009175D03*
X000775Y008175D03*
X000775Y007175D03*
X001775Y007175D03*
X001775Y008175D03*
X001775Y009175D03*
X001775Y004975D03*
X001775Y003975D03*
X001775Y002975D03*
X001775Y001975D03*
X001775Y000975D03*
X000775Y000975D03*
X000775Y001975D03*
X000775Y002975D03*
X000775Y003975D03*
X000775Y004975D03*
X010525Y004975D03*
X010525Y003975D03*
X010525Y002975D03*
X011525Y002975D03*
X011525Y003975D03*
X011525Y004975D03*
X011525Y007175D03*
X011525Y008175D03*
X011525Y009175D03*
X010525Y009175D03*
X010525Y008175D03*
X010525Y007175D03*
X010525Y010850D03*
X010525Y011850D03*
X010525Y012850D03*
X010525Y013850D03*
X010525Y014850D03*
X011525Y014850D03*
X011525Y013850D03*
X011525Y012850D03*
X011525Y011850D03*
X011525Y010850D03*
X011525Y017050D03*
X011525Y018050D03*
X011525Y019050D03*
X010525Y019050D03*
X010525Y018050D03*
X010525Y017050D03*
X010525Y001975D03*
X010525Y000975D03*
X011525Y000975D03*
X011525Y001975D03*
D13*
X013125Y002340D03*
X013125Y003010D03*
X016525Y003010D03*
X016525Y002340D03*
X015125Y007740D03*
X015125Y008410D03*
X014125Y008410D03*
X014125Y007740D03*
X013125Y012215D03*
X013125Y012885D03*
X016525Y012885D03*
X016525Y012215D03*
X015125Y017615D03*
X015125Y018285D03*
X014125Y018285D03*
X014125Y017615D03*
X006775Y012885D03*
X006775Y012215D03*
X003375Y012215D03*
X003375Y012885D03*
X004375Y008410D03*
X004375Y007740D03*
X005375Y007740D03*
X005375Y008410D03*
X006775Y003010D03*
X006775Y002340D03*
X003375Y002340D03*
X003375Y003010D03*
X004375Y017615D03*
X004375Y018285D03*
X005375Y018285D03*
X005375Y017615D03*
D14*
X004975Y011220D02*
X004975Y010480D01*
X003975Y010480D02*
X003975Y011220D01*
X005975Y011220D02*
X005975Y010480D01*
X013725Y010480D02*
X013725Y011220D01*
X014725Y011220D02*
X014725Y010480D01*
X015725Y010480D02*
X015725Y011220D01*
X015725Y001345D02*
X015725Y000605D01*
X014725Y000605D02*
X014725Y001345D01*
X013725Y001345D02*
X013725Y000605D01*
X005975Y000605D02*
X005975Y001345D01*
X004975Y001345D02*
X004975Y000605D01*
X003975Y000605D02*
X003975Y001345D01*
D15*
X004165Y002555D03*
X005075Y002555D03*
X005985Y002555D03*
X013915Y002555D03*
X014825Y002555D03*
X015735Y002555D03*
X015735Y012430D03*
X014825Y012430D03*
X013915Y012430D03*
X005985Y012430D03*
X005075Y012430D03*
X004165Y012430D03*
D16*
X005075Y014870D03*
X014825Y014870D03*
X014825Y004995D03*
X005075Y004995D03*
D17*
X007375Y009175D03*
X017125Y009175D03*
X017125Y019050D03*
X007375Y019050D03*
D18*
X006375Y019050D03*
X005375Y019050D03*
X004375Y019050D03*
X014125Y019050D03*
X015125Y019050D03*
X016125Y019050D03*
X016125Y009175D03*
X015125Y009175D03*
X014125Y009175D03*
X006375Y009175D03*
X005375Y009175D03*
X004375Y009175D03*
D19*
X008625Y010850D02*
X009225Y010850D01*
X009325Y011850D02*
X008725Y011850D01*
X008625Y012850D02*
X009225Y012850D01*
X009325Y013850D02*
X008725Y013850D01*
X008625Y014850D02*
X009225Y014850D01*
X009325Y015850D02*
X008725Y015850D01*
X008625Y016850D02*
X009225Y016850D01*
X009325Y017850D02*
X008725Y017850D01*
X018375Y016850D02*
X018975Y016850D01*
X019075Y017850D02*
X018475Y017850D01*
X018475Y015850D02*
X019075Y015850D01*
X018975Y014850D02*
X018375Y014850D01*
X018475Y013850D02*
X019075Y013850D01*
X018975Y012850D02*
X018375Y012850D01*
X018475Y011850D02*
X019075Y011850D01*
X018975Y010850D02*
X018375Y010850D01*
X018475Y007975D02*
X019075Y007975D01*
X018975Y006975D02*
X018375Y006975D01*
X018475Y005975D02*
X019075Y005975D01*
X018975Y004975D02*
X018375Y004975D01*
X018475Y003975D02*
X019075Y003975D01*
X018975Y002975D02*
X018375Y002975D01*
X018475Y001975D02*
X019075Y001975D01*
X018975Y000975D02*
X018375Y000975D01*
X009325Y001975D02*
X008725Y001975D01*
X008625Y000975D02*
X009225Y000975D01*
X009225Y002975D02*
X008625Y002975D01*
X008725Y003975D02*
X009325Y003975D01*
X009225Y004975D02*
X008625Y004975D01*
X008725Y005975D02*
X009325Y005975D01*
X009225Y006975D02*
X008625Y006975D01*
X008725Y007975D02*
X009325Y007975D01*
M02*
