G75*
G70*
%OFA0B0*%
%FSLAX24Y24*%
%IPPOS*%
%LPD*%
%AMOC8*
5,1,8,0,0,1.08239X$1,22.5*
%
%ADD10C,0.0000*%
%ADD11OC8,0.0760*%
%ADD12R,0.0480X0.0480*%
%ADD13R,0.0986X0.0710*%
%ADD14OC8,0.0680*%
%ADD15R,0.0474X0.0513*%
%ADD16R,0.0320X0.0950*%
%ADD17C,0.0820*%
%ADD18R,0.0513X0.0474*%
%ADD19R,0.0820X0.0820*%
%ADD20C,0.0820*%
%ADD21C,0.0680*%
D10*
X000100Y000100D02*
X000100Y019721D01*
X019595Y019721D01*
X019595Y000100D01*
X000100Y000100D01*
D11*
X003523Y004020D03*
X003523Y005020D03*
X003523Y006020D03*
X003523Y007020D03*
X006523Y007020D03*
X006523Y006020D03*
X006523Y005020D03*
X006523Y004020D03*
X013273Y004020D03*
X013273Y005020D03*
X013273Y006020D03*
X013273Y007020D03*
X016273Y007020D03*
X016273Y006020D03*
X016273Y005020D03*
X016273Y004020D03*
X016273Y013895D03*
X016273Y014895D03*
X016273Y015895D03*
X016273Y016895D03*
X013273Y016895D03*
X013273Y015895D03*
X013273Y014895D03*
X013273Y013895D03*
X006523Y013895D03*
X006523Y014895D03*
X006523Y015895D03*
X006523Y016895D03*
X003523Y016895D03*
X003523Y015895D03*
X003523Y014895D03*
X003523Y013895D03*
D12*
X003325Y009375D03*
X002625Y009375D03*
X008425Y009375D03*
X009125Y009375D03*
X012375Y009375D03*
X013075Y009375D03*
X018175Y009375D03*
X018875Y009375D03*
X018875Y019250D03*
X018175Y019250D03*
X013075Y019250D03*
X012375Y019250D03*
X009125Y019250D03*
X008425Y019250D03*
X003325Y019250D03*
X002625Y019250D03*
D13*
X003835Y012550D03*
X006315Y012550D03*
X013585Y012550D03*
X016065Y012550D03*
X016065Y002675D03*
X013585Y002675D03*
X006315Y002675D03*
X003835Y002675D03*
D14*
X001775Y002975D03*
X001775Y003975D03*
X001775Y004975D03*
X000775Y004975D03*
X000775Y003975D03*
X000775Y002975D03*
X000775Y001975D03*
X000775Y000975D03*
X001775Y000975D03*
X001775Y001975D03*
X001775Y007175D03*
X001775Y008175D03*
X001775Y009175D03*
X000775Y009175D03*
X000775Y008175D03*
X000775Y007175D03*
X000775Y010850D03*
X000775Y011850D03*
X000775Y012850D03*
X000775Y013850D03*
X000775Y014850D03*
X001775Y014850D03*
X001775Y013850D03*
X001775Y012850D03*
X001775Y011850D03*
X001775Y010850D03*
X001775Y017050D03*
X001775Y018050D03*
X001775Y019050D03*
X000775Y019050D03*
X000775Y018050D03*
X000775Y017050D03*
X010525Y017050D03*
X010525Y018050D03*
X010525Y019050D03*
X011525Y019050D03*
X011525Y018050D03*
X011525Y017050D03*
X011525Y014850D03*
X011525Y013850D03*
X011525Y012850D03*
X011525Y011850D03*
X011525Y010850D03*
X010525Y010850D03*
X010525Y011850D03*
X010525Y012850D03*
X010525Y013850D03*
X010525Y014850D03*
X010525Y009175D03*
X010525Y008175D03*
X010525Y007175D03*
X011525Y007175D03*
X011525Y008175D03*
X011525Y009175D03*
X011525Y004975D03*
X011525Y003975D03*
X011525Y002975D03*
X010525Y002975D03*
X010525Y003975D03*
X010525Y004975D03*
X010525Y001975D03*
X010525Y000975D03*
X011525Y000975D03*
X011525Y001975D03*
D15*
X012625Y007640D03*
X012625Y008310D03*
X017425Y008310D03*
X017425Y007640D03*
X007675Y007640D03*
X007675Y008310D03*
X002875Y008310D03*
X002875Y007640D03*
X002875Y017515D03*
X002875Y018185D03*
X007675Y018185D03*
X007675Y017515D03*
X012625Y017515D03*
X012625Y018185D03*
X017425Y018185D03*
X017425Y017515D03*
D16*
X015575Y016770D03*
X015075Y016770D03*
X014575Y016770D03*
X014075Y016770D03*
X014075Y014120D03*
X014575Y014120D03*
X015075Y014120D03*
X015575Y014120D03*
X015575Y006895D03*
X015075Y006895D03*
X014575Y006895D03*
X014075Y006895D03*
X014075Y004245D03*
X014575Y004245D03*
X015075Y004245D03*
X015575Y004245D03*
X005825Y004245D03*
X005325Y004245D03*
X004825Y004245D03*
X004325Y004245D03*
X004325Y006895D03*
X004825Y006895D03*
X005325Y006895D03*
X005825Y006895D03*
X005825Y014120D03*
X005325Y014120D03*
X004825Y014120D03*
X004325Y014120D03*
X004325Y016770D03*
X004825Y016770D03*
X005325Y016770D03*
X005825Y016770D03*
D17*
X005975Y011220D02*
X005975Y010480D01*
X004975Y010480D02*
X004975Y011220D01*
X003975Y011220D02*
X003975Y010480D01*
X003975Y001345D02*
X003975Y000605D01*
X004975Y000605D02*
X004975Y001345D01*
X005975Y001345D02*
X005975Y000605D01*
X013725Y000605D02*
X013725Y001345D01*
X014725Y001345D02*
X014725Y000605D01*
X015725Y000605D02*
X015725Y001345D01*
X015725Y010480D02*
X015725Y011220D01*
X014725Y011220D02*
X014725Y010480D01*
X013725Y010480D02*
X013725Y011220D01*
D18*
X011360Y015950D03*
X010690Y015950D03*
X001610Y015950D03*
X000940Y015950D03*
X000940Y006075D03*
X001610Y006075D03*
X010690Y006075D03*
X011360Y006075D03*
D19*
X007375Y009175D03*
X017125Y009175D03*
X017125Y019050D03*
X007375Y019050D03*
D20*
X006375Y019050D03*
X005375Y019050D03*
X004375Y019050D03*
X014125Y019050D03*
X015125Y019050D03*
X016125Y019050D03*
X016125Y009175D03*
X015125Y009175D03*
X014125Y009175D03*
X006375Y009175D03*
X005375Y009175D03*
X004375Y009175D03*
D21*
X008625Y010850D02*
X009225Y010850D01*
X009325Y011850D02*
X008725Y011850D01*
X008625Y012850D02*
X009225Y012850D01*
X009325Y013850D02*
X008725Y013850D01*
X008625Y014850D02*
X009225Y014850D01*
X009325Y015850D02*
X008725Y015850D01*
X008625Y016850D02*
X009225Y016850D01*
X009325Y017850D02*
X008725Y017850D01*
X018375Y016850D02*
X018975Y016850D01*
X019075Y017850D02*
X018475Y017850D01*
X018475Y015850D02*
X019075Y015850D01*
X018975Y014850D02*
X018375Y014850D01*
X018475Y013850D02*
X019075Y013850D01*
X018975Y012850D02*
X018375Y012850D01*
X018475Y011850D02*
X019075Y011850D01*
X018975Y010850D02*
X018375Y010850D01*
X018475Y007975D02*
X019075Y007975D01*
X018975Y006975D02*
X018375Y006975D01*
X018475Y005975D02*
X019075Y005975D01*
X018975Y004975D02*
X018375Y004975D01*
X018475Y003975D02*
X019075Y003975D01*
X018975Y002975D02*
X018375Y002975D01*
X018475Y001975D02*
X019075Y001975D01*
X018975Y000975D02*
X018375Y000975D01*
X009325Y001975D02*
X008725Y001975D01*
X008625Y000975D02*
X009225Y000975D01*
X009225Y002975D02*
X008625Y002975D01*
X008725Y003975D02*
X009325Y003975D01*
X009225Y004975D02*
X008625Y004975D01*
X008725Y005975D02*
X009325Y005975D01*
X009225Y006975D02*
X008625Y006975D01*
X008725Y007975D02*
X009325Y007975D01*
M02*
