G75*
G70*
%OFA0B0*%
%FSLAX24Y24*%
%IPPOS*%
%LPD*%
%AMOC8*
5,1,8,0,0,1.08239X$1,22.5*
%
%ADD10C,0.0000*%
%ADD11C,0.0040*%
%ADD12C,0.0050*%
%ADD13C,0.0030*%
%ADD14C,0.0160*%
%ADD15C,0.0120*%
%ADD16C,0.0100*%
%ADD17C,0.0080*%
%ADD18C,0.0060*%
%ADD19C,0.0220*%
D10*
X000100Y000100D02*
X000100Y019721D01*
X019595Y019721D01*
X019595Y000100D01*
X000100Y000100D01*
D11*
X003131Y000854D02*
X003318Y000854D01*
X003224Y000761D02*
X003224Y000947D01*
X003224Y001055D02*
X003084Y001055D01*
X003084Y001242D01*
X003178Y001195D02*
X003178Y001149D01*
X003224Y001055D01*
X003318Y001055D02*
X003364Y001102D01*
X003364Y001195D01*
X003318Y001242D01*
X003224Y001242D01*
X003178Y001195D01*
X006578Y001016D02*
X006624Y001016D01*
X006718Y001016D02*
X006718Y000969D01*
X006718Y001016D02*
X006905Y001016D01*
X006905Y000969D02*
X006905Y001063D01*
X006905Y001166D02*
X006718Y001166D01*
X006718Y001306D01*
X006764Y001353D01*
X006905Y001353D01*
X006811Y000861D02*
X006624Y000861D01*
X006624Y000675D02*
X006811Y000675D01*
X006905Y000768D01*
X006811Y000861D01*
X006884Y002161D02*
X006884Y002301D01*
X006931Y002347D01*
X007024Y002347D01*
X007071Y002301D01*
X007071Y002161D01*
X007071Y002254D02*
X007164Y002347D01*
X007118Y002455D02*
X007024Y002455D01*
X006978Y002502D01*
X006978Y002595D01*
X007024Y002642D01*
X007071Y002642D01*
X007071Y002455D01*
X007118Y002455D02*
X007164Y002502D01*
X007164Y002595D01*
X007164Y002750D02*
X007164Y002890D01*
X007118Y002937D01*
X007071Y002890D01*
X007071Y002797D01*
X007024Y002750D01*
X006978Y002797D01*
X006978Y002937D01*
X007024Y003045D02*
X006978Y003091D01*
X006978Y003185D01*
X007024Y003231D01*
X007071Y003231D01*
X007071Y003045D01*
X007118Y003045D02*
X007024Y003045D01*
X007118Y003045D02*
X007164Y003091D01*
X007164Y003185D01*
X007118Y003386D02*
X006931Y003386D01*
X006978Y003339D02*
X006978Y003433D01*
X007118Y003386D02*
X007164Y003433D01*
X007164Y002161D02*
X006884Y002161D01*
X005664Y004854D02*
X005384Y004854D01*
X005384Y004761D02*
X005384Y004947D01*
X005478Y005055D02*
X005478Y005102D01*
X005664Y005102D01*
X005664Y005055D02*
X005664Y005149D01*
X005664Y005252D02*
X005478Y005252D01*
X005478Y005392D01*
X005524Y005438D01*
X005664Y005438D01*
X005618Y005546D02*
X005664Y005593D01*
X005664Y005733D01*
X005711Y005733D02*
X005758Y005686D01*
X005758Y005640D01*
X005711Y005733D02*
X005478Y005733D01*
X005478Y005841D02*
X005431Y005841D01*
X005384Y005888D01*
X005384Y005981D01*
X005431Y006028D01*
X005478Y006028D01*
X005524Y005981D01*
X005524Y005888D01*
X005478Y005841D01*
X005524Y005888D02*
X005571Y005841D01*
X005618Y005841D01*
X005664Y005888D01*
X005664Y005981D01*
X005618Y006028D01*
X005571Y006028D01*
X005524Y005981D01*
X005524Y006136D02*
X005478Y006229D01*
X005478Y006276D01*
X005524Y006322D01*
X005618Y006322D01*
X005664Y006276D01*
X005664Y006182D01*
X005618Y006136D01*
X005524Y006136D02*
X005384Y006136D01*
X005384Y006322D01*
X005478Y005546D02*
X005618Y005546D01*
X005384Y005102D02*
X005338Y005102D01*
X006624Y010550D02*
X006811Y010550D01*
X006905Y010643D01*
X006811Y010736D01*
X006624Y010736D01*
X006718Y010844D02*
X006718Y010891D01*
X006905Y010891D01*
X006905Y010844D02*
X006905Y010938D01*
X006905Y011041D02*
X006718Y011041D01*
X006718Y011181D01*
X006764Y011228D01*
X006905Y011228D01*
X006624Y010891D02*
X006578Y010891D01*
X006884Y012036D02*
X006884Y012176D01*
X006931Y012222D01*
X007024Y012222D01*
X007071Y012176D01*
X007071Y012036D01*
X007071Y012129D02*
X007164Y012222D01*
X007118Y012330D02*
X007024Y012330D01*
X006978Y012377D01*
X006978Y012470D01*
X007024Y012517D01*
X007071Y012517D01*
X007071Y012330D01*
X007118Y012330D02*
X007164Y012377D01*
X007164Y012470D01*
X007164Y012625D02*
X007164Y012765D01*
X007118Y012812D01*
X007071Y012765D01*
X007071Y012672D01*
X007024Y012625D01*
X006978Y012672D01*
X006978Y012812D01*
X007024Y012920D02*
X006978Y012966D01*
X006978Y013060D01*
X007024Y013106D01*
X007071Y013106D01*
X007071Y012920D01*
X007118Y012920D02*
X007024Y012920D01*
X007118Y012920D02*
X007164Y012966D01*
X007164Y013060D01*
X007118Y013261D02*
X006931Y013261D01*
X006978Y013214D02*
X006978Y013308D01*
X007118Y013261D02*
X007164Y013308D01*
X007164Y012036D02*
X006884Y012036D01*
X005384Y014636D02*
X005384Y014822D01*
X005384Y014729D02*
X005664Y014729D01*
X005664Y014930D02*
X005664Y015024D01*
X005664Y014977D02*
X005478Y014977D01*
X005478Y014930D01*
X005384Y014977D02*
X005338Y014977D01*
X005478Y015127D02*
X005478Y015267D01*
X005524Y015313D01*
X005664Y015313D01*
X005618Y015421D02*
X005664Y015468D01*
X005664Y015608D01*
X005711Y015608D02*
X005758Y015561D01*
X005758Y015515D01*
X005711Y015608D02*
X005478Y015608D01*
X005478Y015716D02*
X005431Y015716D01*
X005384Y015763D01*
X005384Y015856D01*
X005431Y015903D01*
X005478Y015903D01*
X005524Y015856D01*
X005524Y015763D01*
X005478Y015716D01*
X005524Y015763D02*
X005571Y015716D01*
X005618Y015716D01*
X005664Y015763D01*
X005664Y015856D01*
X005618Y015903D01*
X005571Y015903D01*
X005524Y015856D01*
X005524Y016011D02*
X005384Y016011D01*
X005384Y016197D01*
X005478Y016151D02*
X005524Y016197D01*
X005618Y016197D01*
X005664Y016151D01*
X005664Y016057D01*
X005618Y016011D01*
X005524Y016011D02*
X005478Y016104D01*
X005478Y016151D01*
X005478Y015421D02*
X005618Y015421D01*
X005664Y015127D02*
X005478Y015127D01*
X003318Y011117D02*
X003364Y011070D01*
X003364Y010977D01*
X003318Y010930D01*
X003224Y010930D02*
X003178Y011024D01*
X003178Y011070D01*
X003224Y011117D01*
X003318Y011117D01*
X003224Y010930D02*
X003084Y010930D01*
X003084Y011117D01*
X003224Y010822D02*
X003224Y010636D01*
X003131Y010729D02*
X003318Y010729D01*
X012834Y010930D02*
X012974Y010930D01*
X012928Y011024D01*
X012928Y011070D01*
X012974Y011117D01*
X013068Y011117D01*
X013114Y011070D01*
X013114Y010977D01*
X013068Y010930D01*
X012974Y010822D02*
X012974Y010636D01*
X012881Y010729D02*
X013068Y010729D01*
X012834Y010930D02*
X012834Y011117D01*
X016328Y010891D02*
X016374Y010891D01*
X016468Y010891D02*
X016655Y010891D01*
X016655Y010844D02*
X016655Y010938D01*
X016655Y011041D02*
X016468Y011041D01*
X016468Y011181D01*
X016514Y011228D01*
X016655Y011228D01*
X016468Y010891D02*
X016468Y010844D01*
X016561Y010736D02*
X016374Y010736D01*
X016374Y010550D02*
X016561Y010550D01*
X016655Y010643D01*
X016561Y010736D01*
X016634Y012036D02*
X016634Y012176D01*
X016681Y012222D01*
X016774Y012222D01*
X016821Y012176D01*
X016821Y012036D01*
X016821Y012129D02*
X016914Y012222D01*
X016868Y012330D02*
X016774Y012330D01*
X016728Y012377D01*
X016728Y012470D01*
X016774Y012517D01*
X016821Y012517D01*
X016821Y012330D01*
X016868Y012330D02*
X016914Y012377D01*
X016914Y012470D01*
X016914Y012625D02*
X016914Y012765D01*
X016868Y012812D01*
X016821Y012765D01*
X016821Y012672D01*
X016774Y012625D01*
X016728Y012672D01*
X016728Y012812D01*
X016774Y012920D02*
X016728Y012966D01*
X016728Y013060D01*
X016774Y013106D01*
X016821Y013106D01*
X016821Y012920D01*
X016868Y012920D02*
X016774Y012920D01*
X016868Y012920D02*
X016914Y012966D01*
X016914Y013060D01*
X016868Y013261D02*
X016681Y013261D01*
X016728Y013214D02*
X016728Y013308D01*
X016868Y013261D02*
X016914Y013308D01*
X016914Y012036D02*
X016634Y012036D01*
X015134Y014636D02*
X015134Y014822D01*
X015134Y014729D02*
X015414Y014729D01*
X015414Y014930D02*
X015414Y015024D01*
X015414Y014977D02*
X015228Y014977D01*
X015228Y014930D01*
X015134Y014977D02*
X015088Y014977D01*
X015228Y015127D02*
X015228Y015267D01*
X015274Y015313D01*
X015414Y015313D01*
X015368Y015421D02*
X015414Y015468D01*
X015414Y015608D01*
X015461Y015608D02*
X015508Y015561D01*
X015508Y015515D01*
X015461Y015608D02*
X015228Y015608D01*
X015228Y015716D02*
X015181Y015716D01*
X015134Y015763D01*
X015134Y015856D01*
X015181Y015903D01*
X015228Y015903D01*
X015274Y015856D01*
X015274Y015763D01*
X015228Y015716D01*
X015274Y015763D02*
X015321Y015716D01*
X015368Y015716D01*
X015414Y015763D01*
X015414Y015856D01*
X015368Y015903D01*
X015321Y015903D01*
X015274Y015856D01*
X015274Y016011D02*
X015134Y016011D01*
X015134Y016197D01*
X015228Y016151D02*
X015274Y016197D01*
X015368Y016197D01*
X015414Y016151D01*
X015414Y016057D01*
X015368Y016011D01*
X015274Y016011D02*
X015228Y016104D01*
X015228Y016151D01*
X015228Y015421D02*
X015368Y015421D01*
X015414Y015127D02*
X015228Y015127D01*
X015274Y006322D02*
X015368Y006322D01*
X015414Y006276D01*
X015414Y006182D01*
X015368Y006136D01*
X015274Y006136D02*
X015228Y006229D01*
X015228Y006276D01*
X015274Y006322D01*
X015134Y006322D02*
X015134Y006136D01*
X015274Y006136D01*
X015228Y006028D02*
X015274Y005981D01*
X015274Y005888D01*
X015228Y005841D01*
X015181Y005841D01*
X015134Y005888D01*
X015134Y005981D01*
X015181Y006028D01*
X015228Y006028D01*
X015274Y005981D02*
X015321Y006028D01*
X015368Y006028D01*
X015414Y005981D01*
X015414Y005888D01*
X015368Y005841D01*
X015321Y005841D01*
X015274Y005888D01*
X015228Y005733D02*
X015461Y005733D01*
X015508Y005686D01*
X015508Y005640D01*
X015414Y005593D02*
X015414Y005733D01*
X015414Y005593D02*
X015368Y005546D01*
X015228Y005546D01*
X015274Y005438D02*
X015414Y005438D01*
X015274Y005438D02*
X015228Y005392D01*
X015228Y005252D01*
X015414Y005252D01*
X015414Y005149D02*
X015414Y005055D01*
X015414Y005102D02*
X015228Y005102D01*
X015228Y005055D01*
X015134Y005102D02*
X015088Y005102D01*
X015134Y004947D02*
X015134Y004761D01*
X015134Y004854D02*
X015414Y004854D01*
X016728Y003433D02*
X016728Y003339D01*
X016681Y003386D02*
X016868Y003386D01*
X016914Y003433D01*
X016821Y003231D02*
X016821Y003045D01*
X016774Y003045D02*
X016728Y003091D01*
X016728Y003185D01*
X016774Y003231D01*
X016821Y003231D01*
X016914Y003185D02*
X016914Y003091D01*
X016868Y003045D01*
X016774Y003045D01*
X016728Y002937D02*
X016728Y002797D01*
X016774Y002750D01*
X016821Y002797D01*
X016821Y002890D01*
X016868Y002937D01*
X016914Y002890D01*
X016914Y002750D01*
X016821Y002642D02*
X016821Y002455D01*
X016774Y002455D02*
X016728Y002502D01*
X016728Y002595D01*
X016774Y002642D01*
X016821Y002642D01*
X016914Y002595D02*
X016914Y002502D01*
X016868Y002455D01*
X016774Y002455D01*
X016774Y002347D02*
X016681Y002347D01*
X016634Y002301D01*
X016634Y002161D01*
X016914Y002161D01*
X016821Y002161D02*
X016821Y002301D01*
X016774Y002347D01*
X016821Y002254D02*
X016914Y002347D01*
X016655Y001353D02*
X016514Y001353D01*
X016468Y001306D01*
X016468Y001166D01*
X016655Y001166D01*
X016655Y001063D02*
X016655Y000969D01*
X016655Y001016D02*
X016468Y001016D01*
X016468Y000969D01*
X016374Y001016D02*
X016328Y001016D01*
X016374Y000861D02*
X016561Y000861D01*
X016655Y000768D01*
X016561Y000675D01*
X016374Y000675D01*
X013114Y001102D02*
X013068Y001055D01*
X013114Y001102D02*
X013114Y001195D01*
X013068Y001242D01*
X012974Y001242D01*
X012928Y001195D01*
X012928Y001149D01*
X012974Y001055D01*
X012834Y001055D01*
X012834Y001242D01*
X012974Y000947D02*
X012974Y000761D01*
X012881Y000854D02*
X013068Y000854D01*
D12*
X013742Y001986D02*
X015908Y001986D01*
X015925Y001987D01*
X015942Y001992D01*
X015957Y001999D01*
X015971Y002009D01*
X015983Y002021D01*
X015993Y002035D01*
X016000Y002050D01*
X016005Y002067D01*
X016006Y002084D01*
X016006Y002242D01*
X015416Y002380D02*
X015416Y002970D01*
X014234Y002970D01*
X014234Y002380D01*
X015416Y002380D01*
X016006Y003108D02*
X016006Y003266D01*
X016005Y003283D01*
X016000Y003300D01*
X015993Y003315D01*
X015983Y003329D01*
X015971Y003341D01*
X015957Y003351D01*
X015942Y003358D01*
X015925Y003363D01*
X015908Y003364D01*
X013782Y003364D01*
X013761Y003366D01*
X013740Y003364D01*
X013720Y003358D01*
X013701Y003349D01*
X013684Y003337D01*
X013669Y003322D01*
X013658Y003305D01*
X013649Y003286D01*
X013644Y003266D01*
X013644Y003108D01*
X013644Y002242D02*
X013644Y002084D01*
X013645Y002067D01*
X013650Y002050D01*
X013657Y002035D01*
X013667Y002021D01*
X013679Y002009D01*
X013693Y001999D01*
X013708Y001992D01*
X013725Y001987D01*
X013742Y001986D01*
X017759Y001436D02*
X017993Y001436D01*
X018109Y001319D01*
X017993Y001202D01*
X017759Y001202D01*
X017759Y001067D02*
X017759Y000834D01*
X017934Y000834D01*
X017876Y000951D01*
X017876Y001009D01*
X017934Y001067D01*
X018051Y001067D01*
X018109Y001009D01*
X018109Y000892D01*
X018051Y000834D01*
X017934Y000699D02*
X017934Y000466D01*
X017818Y000582D02*
X018051Y000582D01*
X017991Y001891D02*
X017874Y001891D01*
X017816Y001949D01*
X018049Y002182D01*
X018049Y001949D01*
X017991Y001891D01*
X017816Y001949D02*
X017816Y002182D01*
X017874Y002241D01*
X017991Y002241D01*
X018049Y002182D01*
X018049Y002791D02*
X017816Y002791D01*
X017932Y002791D02*
X017932Y003141D01*
X017816Y003024D01*
X017816Y003891D02*
X018049Y004124D01*
X018049Y004182D01*
X017991Y004241D01*
X017874Y004241D01*
X017816Y004182D01*
X017816Y003891D02*
X018049Y003891D01*
X017991Y004791D02*
X017874Y004791D01*
X017816Y004849D01*
X017932Y004966D02*
X017991Y004966D01*
X018049Y004907D01*
X018049Y004849D01*
X017991Y004791D01*
X017991Y004966D02*
X018049Y005024D01*
X018049Y005082D01*
X017991Y005141D01*
X017874Y005141D01*
X017816Y005082D01*
X017991Y005791D02*
X017991Y006141D01*
X017816Y005966D01*
X018049Y005966D01*
X017991Y006791D02*
X017874Y006791D01*
X017816Y006849D01*
X017816Y006966D02*
X017932Y007024D01*
X017991Y007024D01*
X018049Y006966D01*
X018049Y006849D01*
X017991Y006791D01*
X017816Y006966D02*
X017816Y007141D01*
X018049Y007141D01*
X017991Y007480D02*
X017758Y007480D01*
X017699Y007538D01*
X017699Y007655D01*
X017758Y007713D01*
X017874Y007713D02*
X017874Y007596D01*
X017874Y007713D02*
X017991Y007713D01*
X018050Y007655D01*
X018050Y007538D01*
X017991Y007480D01*
X018050Y007848D02*
X017699Y007848D01*
X018050Y008081D01*
X017699Y008081D01*
X017699Y008216D02*
X017699Y008391D01*
X017758Y008450D01*
X017991Y008450D01*
X018050Y008391D01*
X018050Y008216D01*
X017699Y008216D01*
X017934Y010341D02*
X017934Y010574D01*
X017934Y010709D02*
X017876Y010826D01*
X017876Y010884D01*
X017934Y010942D01*
X018051Y010942D01*
X018109Y010884D01*
X018109Y010767D01*
X018051Y010709D01*
X017934Y010709D02*
X017759Y010709D01*
X017759Y010942D01*
X017759Y011077D02*
X017993Y011077D01*
X018109Y011194D01*
X017993Y011311D01*
X017759Y011311D01*
X017874Y011766D02*
X017816Y011824D01*
X018049Y012057D01*
X018049Y011824D01*
X017991Y011766D01*
X017874Y011766D01*
X017816Y011824D02*
X017816Y012057D01*
X017874Y012116D01*
X017991Y012116D01*
X018049Y012057D01*
X018049Y012666D02*
X017816Y012666D01*
X017932Y012666D02*
X017932Y013016D01*
X017816Y012899D01*
X017816Y013766D02*
X018049Y013999D01*
X018049Y014057D01*
X017991Y014116D01*
X017874Y014116D01*
X017816Y014057D01*
X017816Y013766D02*
X018049Y013766D01*
X017991Y014666D02*
X017874Y014666D01*
X017816Y014724D01*
X017932Y014841D02*
X017991Y014841D01*
X018049Y014782D01*
X018049Y014724D01*
X017991Y014666D01*
X017991Y014841D02*
X018049Y014899D01*
X018049Y014957D01*
X017991Y015016D01*
X017874Y015016D01*
X017816Y014957D01*
X017991Y015666D02*
X017991Y016016D01*
X017816Y015841D01*
X018049Y015841D01*
X017991Y016666D02*
X017874Y016666D01*
X017816Y016724D01*
X017816Y016841D02*
X017932Y016899D01*
X017991Y016899D01*
X018049Y016841D01*
X018049Y016724D01*
X017991Y016666D01*
X017816Y016841D02*
X017816Y017016D01*
X018049Y017016D01*
X017991Y017355D02*
X017758Y017355D01*
X017699Y017413D01*
X017699Y017530D01*
X017758Y017588D01*
X017874Y017588D02*
X017874Y017471D01*
X017874Y017588D02*
X017991Y017588D01*
X018050Y017530D01*
X018050Y017413D01*
X017991Y017355D01*
X018050Y017723D02*
X017699Y017723D01*
X018050Y017956D01*
X017699Y017956D01*
X017699Y018091D02*
X017699Y018266D01*
X017758Y018325D01*
X017991Y018325D01*
X018050Y018266D01*
X018050Y018091D01*
X017699Y018091D01*
X015908Y013239D02*
X013782Y013239D01*
X013761Y013241D01*
X013740Y013239D01*
X013720Y013233D01*
X013701Y013224D01*
X013684Y013212D01*
X013669Y013197D01*
X013658Y013180D01*
X013649Y013161D01*
X013644Y013141D01*
X013644Y012983D01*
X014234Y012845D02*
X014234Y012255D01*
X015416Y012255D01*
X015416Y012845D01*
X014234Y012845D01*
X013644Y012117D02*
X013644Y011959D01*
X013645Y011942D01*
X013650Y011925D01*
X013657Y011910D01*
X013667Y011896D01*
X013679Y011884D01*
X013693Y011874D01*
X013708Y011867D01*
X013725Y011862D01*
X013742Y011861D01*
X015908Y011861D01*
X015925Y011862D01*
X015942Y011867D01*
X015957Y011874D01*
X015971Y011884D01*
X015983Y011896D01*
X015993Y011910D01*
X016000Y011925D01*
X016005Y011942D01*
X016006Y011959D01*
X016006Y012117D01*
X016006Y012983D02*
X016006Y013141D01*
X016005Y013158D01*
X016000Y013175D01*
X015993Y013190D01*
X015983Y013204D01*
X015971Y013216D01*
X015957Y013226D01*
X015942Y013233D01*
X015925Y013238D01*
X015908Y013239D01*
X017818Y010457D02*
X018051Y010457D01*
X008359Y010767D02*
X008301Y010709D01*
X008359Y010767D02*
X008359Y010884D01*
X008301Y010942D01*
X008184Y010942D01*
X008126Y010884D01*
X008126Y010826D01*
X008184Y010709D01*
X008009Y010709D01*
X008009Y010942D01*
X008009Y011077D02*
X008243Y011077D01*
X008359Y011194D01*
X008243Y011311D01*
X008009Y011311D01*
X008124Y011766D02*
X008066Y011824D01*
X008299Y012057D01*
X008299Y011824D01*
X008241Y011766D01*
X008124Y011766D01*
X008066Y011824D02*
X008066Y012057D01*
X008124Y012116D01*
X008241Y012116D01*
X008299Y012057D01*
X008299Y012666D02*
X008066Y012666D01*
X008182Y012666D02*
X008182Y013016D01*
X008066Y012899D01*
X008066Y013766D02*
X008299Y013999D01*
X008299Y014057D01*
X008241Y014116D01*
X008124Y014116D01*
X008066Y014057D01*
X008066Y013766D02*
X008299Y013766D01*
X008241Y014666D02*
X008124Y014666D01*
X008066Y014724D01*
X008182Y014841D02*
X008241Y014841D01*
X008299Y014782D01*
X008299Y014724D01*
X008241Y014666D01*
X008241Y014841D02*
X008299Y014899D01*
X008299Y014957D01*
X008241Y015016D01*
X008124Y015016D01*
X008066Y014957D01*
X008241Y015666D02*
X008241Y016016D01*
X008066Y015841D01*
X008299Y015841D01*
X008241Y016666D02*
X008124Y016666D01*
X008066Y016724D01*
X008066Y016841D02*
X008182Y016899D01*
X008241Y016899D01*
X008299Y016841D01*
X008299Y016724D01*
X008241Y016666D01*
X008066Y016841D02*
X008066Y017016D01*
X008299Y017016D01*
X008241Y017355D02*
X008008Y017355D01*
X007949Y017413D01*
X007949Y017530D01*
X008008Y017588D01*
X008124Y017588D02*
X008124Y017471D01*
X008124Y017588D02*
X008241Y017588D01*
X008300Y017530D01*
X008300Y017413D01*
X008241Y017355D01*
X008300Y017723D02*
X007949Y017723D01*
X008300Y017956D01*
X007949Y017956D01*
X007949Y018091D02*
X007949Y018266D01*
X008008Y018325D01*
X008241Y018325D01*
X008300Y018266D01*
X008300Y018091D01*
X007949Y018091D01*
X006158Y013239D02*
X004032Y013239D01*
X004011Y013241D01*
X003990Y013239D01*
X003970Y013233D01*
X003951Y013224D01*
X003934Y013212D01*
X003919Y013197D01*
X003908Y013180D01*
X003899Y013161D01*
X003894Y013141D01*
X003894Y012983D01*
X004484Y012845D02*
X004484Y012255D01*
X005666Y012255D01*
X005666Y012845D01*
X004484Y012845D01*
X003894Y012117D02*
X003894Y011959D01*
X003895Y011942D01*
X003900Y011925D01*
X003907Y011910D01*
X003917Y011896D01*
X003929Y011884D01*
X003943Y011874D01*
X003958Y011867D01*
X003975Y011862D01*
X003992Y011861D01*
X006158Y011861D01*
X006175Y011862D01*
X006192Y011867D01*
X006207Y011874D01*
X006221Y011884D01*
X006233Y011896D01*
X006243Y011910D01*
X006250Y011925D01*
X006255Y011942D01*
X006256Y011959D01*
X006256Y012117D01*
X006256Y012983D02*
X006256Y013141D01*
X006255Y013158D01*
X006250Y013175D01*
X006243Y013190D01*
X006233Y013204D01*
X006221Y013216D01*
X006207Y013226D01*
X006192Y013233D01*
X006175Y013238D01*
X006158Y013239D01*
X008184Y010574D02*
X008184Y010341D01*
X008068Y010457D02*
X008301Y010457D01*
X008241Y008450D02*
X008008Y008450D01*
X007949Y008391D01*
X007949Y008216D01*
X008300Y008216D01*
X008300Y008391D01*
X008241Y008450D01*
X008300Y008081D02*
X007949Y008081D01*
X007949Y007848D02*
X008300Y008081D01*
X008300Y007848D02*
X007949Y007848D01*
X008008Y007713D02*
X007949Y007655D01*
X007949Y007538D01*
X008008Y007480D01*
X008241Y007480D01*
X008300Y007538D01*
X008300Y007655D01*
X008241Y007713D01*
X008124Y007713D01*
X008124Y007596D01*
X008066Y007141D02*
X008066Y006966D01*
X008182Y007024D01*
X008241Y007024D01*
X008299Y006966D01*
X008299Y006849D01*
X008241Y006791D01*
X008124Y006791D01*
X008066Y006849D01*
X008066Y007141D02*
X008299Y007141D01*
X008241Y006141D02*
X008066Y005966D01*
X008299Y005966D01*
X008241Y005791D02*
X008241Y006141D01*
X008241Y005141D02*
X008299Y005082D01*
X008299Y005024D01*
X008241Y004966D01*
X008299Y004907D01*
X008299Y004849D01*
X008241Y004791D01*
X008124Y004791D01*
X008066Y004849D01*
X008182Y004966D02*
X008241Y004966D01*
X008241Y005141D02*
X008124Y005141D01*
X008066Y005082D01*
X008124Y004241D02*
X008066Y004182D01*
X008124Y004241D02*
X008241Y004241D01*
X008299Y004182D01*
X008299Y004124D01*
X008066Y003891D01*
X008299Y003891D01*
X008182Y003141D02*
X008066Y003024D01*
X008182Y003141D02*
X008182Y002791D01*
X008066Y002791D02*
X008299Y002791D01*
X008241Y002241D02*
X008299Y002182D01*
X008066Y001949D01*
X008124Y001891D01*
X008241Y001891D01*
X008299Y001949D01*
X008299Y002182D01*
X008241Y002241D02*
X008124Y002241D01*
X008066Y002182D01*
X008066Y001949D01*
X008009Y001436D02*
X008243Y001436D01*
X008359Y001319D01*
X008243Y001202D01*
X008009Y001202D01*
X008009Y001067D02*
X008009Y000834D01*
X008184Y000834D01*
X008126Y000951D01*
X008126Y001009D01*
X008184Y001067D01*
X008301Y001067D01*
X008359Y001009D01*
X008359Y000892D01*
X008301Y000834D01*
X008184Y000699D02*
X008184Y000466D01*
X008068Y000582D02*
X008301Y000582D01*
X006256Y002084D02*
X006256Y002242D01*
X006256Y002084D02*
X006255Y002067D01*
X006250Y002050D01*
X006243Y002035D01*
X006233Y002021D01*
X006221Y002009D01*
X006207Y001999D01*
X006192Y001992D01*
X006175Y001987D01*
X006158Y001986D01*
X003992Y001986D01*
X003975Y001987D01*
X003958Y001992D01*
X003943Y001999D01*
X003929Y002009D01*
X003917Y002021D01*
X003907Y002035D01*
X003900Y002050D01*
X003895Y002067D01*
X003894Y002084D01*
X003894Y002242D01*
X004484Y002380D02*
X004484Y002970D01*
X005666Y002970D01*
X005666Y002380D01*
X004484Y002380D01*
X003894Y003108D02*
X003894Y003266D01*
X003899Y003286D01*
X003908Y003305D01*
X003919Y003322D01*
X003934Y003337D01*
X003951Y003349D01*
X003970Y003358D01*
X003990Y003364D01*
X004011Y003366D01*
X004032Y003364D01*
X006158Y003364D01*
X006175Y003363D01*
X006192Y003358D01*
X006207Y003351D01*
X006221Y003341D01*
X006233Y003329D01*
X006243Y003315D01*
X006250Y003300D01*
X006255Y003283D01*
X006256Y003266D01*
X006256Y003108D01*
D13*
X002917Y006475D02*
X002917Y006572D01*
X002869Y006620D01*
X002772Y006620D01*
X002772Y006523D01*
X002869Y006426D02*
X002917Y006475D01*
X002869Y006426D02*
X002675Y006426D01*
X002627Y006475D01*
X002627Y006572D01*
X002675Y006620D01*
X002627Y006721D02*
X002917Y006915D01*
X002627Y006915D01*
X002627Y007016D02*
X002627Y007161D01*
X002675Y007209D01*
X002869Y007209D01*
X002917Y007161D01*
X002917Y007016D01*
X002627Y007016D01*
X002627Y006721D02*
X002917Y006721D01*
X002675Y005474D02*
X002481Y005474D01*
X002433Y005425D01*
X002433Y005329D01*
X002481Y005280D01*
X002675Y005280D01*
X002723Y005329D01*
X002723Y005425D01*
X002675Y005474D01*
X002675Y005179D02*
X002723Y005131D01*
X002723Y005034D01*
X002675Y004986D01*
X002578Y005034D02*
X002578Y005131D01*
X002626Y005179D01*
X002675Y005179D01*
X002578Y005034D02*
X002529Y004986D01*
X002481Y004986D01*
X002433Y005034D01*
X002433Y005131D01*
X002481Y005179D01*
X002433Y004886D02*
X002433Y004789D01*
X002433Y004838D02*
X002723Y004838D01*
X002723Y004886D02*
X002723Y004789D01*
X002723Y004688D02*
X002433Y004688D01*
X002529Y004591D01*
X002433Y004495D01*
X002723Y004495D01*
X002723Y004277D02*
X002578Y004132D01*
X002626Y004084D02*
X002433Y004277D01*
X002433Y004084D02*
X002723Y004084D01*
X002675Y003983D02*
X002723Y003934D01*
X002723Y003838D01*
X002675Y003789D01*
X002481Y003789D01*
X002433Y003838D01*
X002433Y003934D01*
X002481Y003983D01*
X002481Y003688D02*
X002433Y003640D01*
X002433Y003543D01*
X002481Y003495D01*
X002529Y003495D01*
X002578Y003543D01*
X002578Y003640D01*
X002626Y003688D01*
X002675Y003688D01*
X002723Y003640D01*
X002723Y003543D01*
X002675Y003495D01*
X002723Y003181D02*
X002433Y003181D01*
X002433Y003277D02*
X002433Y003084D01*
X002481Y002983D02*
X002433Y002934D01*
X002433Y002838D01*
X002481Y002789D01*
X002529Y002789D01*
X002578Y002838D01*
X002578Y002934D01*
X002626Y002983D01*
X002675Y002983D01*
X002723Y002934D01*
X002723Y002838D01*
X002675Y002789D01*
X002723Y002688D02*
X002626Y002591D01*
X002626Y002640D02*
X002626Y002495D01*
X002723Y002495D02*
X002433Y002495D01*
X002433Y002640D01*
X002481Y002688D01*
X002578Y002688D01*
X002626Y002640D01*
X002688Y002117D02*
X002495Y001827D01*
X002688Y001827D02*
X002495Y002117D01*
X002433Y001475D02*
X002433Y001379D01*
X002433Y001427D02*
X002723Y001427D01*
X002723Y001379D02*
X002723Y001475D01*
X002675Y001277D02*
X002723Y001229D01*
X002723Y001132D01*
X002675Y001084D01*
X002675Y000983D02*
X002481Y000983D01*
X002433Y000934D01*
X002433Y000838D01*
X002481Y000789D01*
X002675Y000789D01*
X002723Y000838D01*
X002723Y000934D01*
X002675Y000983D01*
X002529Y001084D02*
X002578Y001132D01*
X002578Y001229D01*
X002626Y001277D01*
X002675Y001277D01*
X002481Y001277D02*
X002433Y001229D01*
X002433Y001132D01*
X002481Y001084D01*
X002529Y001084D01*
X002433Y000688D02*
X002723Y000688D01*
X002723Y000495D02*
X002433Y000495D01*
X002529Y000591D01*
X002433Y000688D01*
X001417Y001077D02*
X001369Y001028D01*
X001417Y001077D02*
X001417Y001173D01*
X001369Y001222D01*
X001272Y001222D01*
X001224Y001173D01*
X001224Y001125D01*
X001272Y001028D01*
X001127Y001028D01*
X001127Y001222D01*
X001272Y000927D02*
X001272Y000734D01*
X001175Y000830D02*
X001369Y000830D01*
X000569Y005626D02*
X000375Y005626D01*
X000327Y005675D01*
X000327Y005772D01*
X000375Y005820D01*
X000472Y005820D02*
X000472Y005723D01*
X000472Y005820D02*
X000569Y005820D01*
X000617Y005772D01*
X000617Y005675D01*
X000569Y005626D01*
X000617Y005921D02*
X000327Y005921D01*
X000617Y006115D01*
X000327Y006115D01*
X000327Y006216D02*
X000327Y006361D01*
X000375Y006409D01*
X000569Y006409D01*
X000617Y006361D01*
X000617Y006216D01*
X000327Y006216D01*
X003256Y008481D02*
X003256Y008691D01*
X003361Y008691D01*
X003396Y008656D01*
X003396Y008586D01*
X003361Y008551D01*
X003256Y008551D01*
X003477Y008586D02*
X003582Y008586D01*
X003617Y008551D01*
X003617Y008516D01*
X003582Y008481D01*
X003477Y008481D01*
X003477Y008691D01*
X003582Y008691D01*
X003617Y008656D01*
X003617Y008621D01*
X003582Y008586D01*
X003698Y008621D02*
X003768Y008691D01*
X003768Y008481D01*
X003698Y008481D02*
X003838Y008481D01*
X004327Y008291D02*
X004617Y008291D01*
X004617Y008484D01*
X004569Y008190D02*
X004617Y008141D01*
X004617Y008044D01*
X004569Y007996D01*
X004375Y007996D01*
X004327Y008044D01*
X004327Y008141D01*
X004375Y008190D01*
X004375Y007895D02*
X004327Y007847D01*
X004327Y007750D01*
X004375Y007701D01*
X004424Y007701D01*
X004472Y007750D01*
X004472Y007847D01*
X004520Y007895D01*
X004569Y007895D01*
X004617Y007847D01*
X004617Y007750D01*
X004569Y007701D01*
X005327Y007775D02*
X005375Y007726D01*
X005424Y007726D01*
X005472Y007775D01*
X005472Y007872D01*
X005520Y007920D01*
X005569Y007920D01*
X005617Y007872D01*
X005617Y007775D01*
X005569Y007726D01*
X005327Y007775D02*
X005327Y007872D01*
X005375Y007920D01*
X005327Y008021D02*
X005327Y008166D01*
X005375Y008215D01*
X005569Y008215D01*
X005617Y008166D01*
X005617Y008021D01*
X005327Y008021D01*
X005424Y008316D02*
X005327Y008412D01*
X005424Y008509D01*
X005617Y008509D01*
X005472Y008509D02*
X005472Y008316D01*
X005424Y008316D02*
X005617Y008316D01*
X006327Y008228D02*
X006472Y008228D01*
X006424Y008325D01*
X006424Y008373D01*
X006472Y008422D01*
X006569Y008422D01*
X006617Y008373D01*
X006617Y008277D01*
X006569Y008228D01*
X006472Y008127D02*
X006472Y007934D01*
X006375Y008030D02*
X006569Y008030D01*
X006327Y008228D02*
X006327Y008422D01*
X007127Y008361D02*
X007127Y008216D01*
X007417Y008216D01*
X007417Y008361D01*
X007369Y008409D01*
X007175Y008409D01*
X007127Y008361D01*
X007127Y008115D02*
X007417Y008115D01*
X007127Y007921D01*
X007417Y007921D01*
X007369Y007820D02*
X007272Y007820D01*
X007272Y007723D01*
X007175Y007626D02*
X007369Y007626D01*
X007417Y007675D01*
X007417Y007772D01*
X007369Y007820D01*
X007175Y007820D02*
X007127Y007772D01*
X007127Y007675D01*
X007175Y007626D01*
X008056Y008581D02*
X008056Y008791D01*
X008161Y008791D01*
X008196Y008756D01*
X008196Y008686D01*
X008161Y008651D01*
X008056Y008651D01*
X008277Y008616D02*
X008312Y008581D01*
X008347Y008616D01*
X008382Y008581D01*
X008417Y008616D01*
X008417Y008721D01*
X008498Y008721D02*
X008498Y008581D01*
X008498Y008651D02*
X008568Y008721D01*
X008603Y008721D01*
X008277Y008721D02*
X008277Y008616D01*
X010125Y006409D02*
X010077Y006361D01*
X010077Y006216D01*
X010367Y006216D01*
X010367Y006361D01*
X010319Y006409D01*
X010125Y006409D01*
X010077Y006115D02*
X010367Y006115D01*
X010077Y005921D01*
X010367Y005921D01*
X010319Y005820D02*
X010222Y005820D01*
X010222Y005723D01*
X010125Y005626D02*
X010319Y005626D01*
X010367Y005675D01*
X010367Y005772D01*
X010319Y005820D01*
X010125Y005820D02*
X010077Y005772D01*
X010077Y005675D01*
X010125Y005626D01*
X012183Y005425D02*
X012183Y005329D01*
X012231Y005280D01*
X012425Y005280D01*
X012473Y005329D01*
X012473Y005425D01*
X012425Y005474D01*
X012231Y005474D01*
X012183Y005425D01*
X012231Y005179D02*
X012183Y005131D01*
X012183Y005034D01*
X012231Y004986D01*
X012279Y004986D01*
X012328Y005034D01*
X012328Y005131D01*
X012376Y005179D01*
X012425Y005179D01*
X012473Y005131D01*
X012473Y005034D01*
X012425Y004986D01*
X012473Y004886D02*
X012473Y004789D01*
X012473Y004838D02*
X012183Y004838D01*
X012183Y004886D02*
X012183Y004789D01*
X012183Y004688D02*
X012473Y004688D01*
X012473Y004495D02*
X012183Y004495D01*
X012279Y004591D01*
X012183Y004688D01*
X012183Y004277D02*
X012376Y004084D01*
X012328Y004132D02*
X012473Y004277D01*
X012473Y004084D02*
X012183Y004084D01*
X012231Y003983D02*
X012183Y003934D01*
X012183Y003838D01*
X012231Y003789D01*
X012425Y003789D01*
X012473Y003838D01*
X012473Y003934D01*
X012425Y003983D01*
X012425Y003688D02*
X012376Y003688D01*
X012328Y003640D01*
X012328Y003543D01*
X012279Y003495D01*
X012231Y003495D01*
X012183Y003543D01*
X012183Y003640D01*
X012231Y003688D01*
X012425Y003688D02*
X012473Y003640D01*
X012473Y003543D01*
X012425Y003495D01*
X012473Y003181D02*
X012183Y003181D01*
X012183Y003277D02*
X012183Y003084D01*
X012231Y002983D02*
X012183Y002934D01*
X012183Y002838D01*
X012231Y002789D01*
X012279Y002789D01*
X012328Y002838D01*
X012328Y002934D01*
X012376Y002983D01*
X012425Y002983D01*
X012473Y002934D01*
X012473Y002838D01*
X012425Y002789D01*
X012473Y002688D02*
X012376Y002591D01*
X012376Y002640D02*
X012376Y002495D01*
X012473Y002495D02*
X012183Y002495D01*
X012183Y002640D01*
X012231Y002688D01*
X012328Y002688D01*
X012376Y002640D01*
X012438Y002117D02*
X012245Y001827D01*
X012438Y001827D02*
X012245Y002117D01*
X012183Y001475D02*
X012183Y001379D01*
X012183Y001427D02*
X012473Y001427D01*
X012473Y001379D02*
X012473Y001475D01*
X012425Y001277D02*
X012376Y001277D01*
X012328Y001229D01*
X012328Y001132D01*
X012279Y001084D01*
X012231Y001084D01*
X012183Y001132D01*
X012183Y001229D01*
X012231Y001277D01*
X012425Y001277D02*
X012473Y001229D01*
X012473Y001132D01*
X012425Y001084D01*
X012425Y000983D02*
X012231Y000983D01*
X012183Y000934D01*
X012183Y000838D01*
X012231Y000789D01*
X012425Y000789D01*
X012473Y000838D01*
X012473Y000934D01*
X012425Y000983D01*
X012473Y000688D02*
X012183Y000688D01*
X012279Y000591D01*
X012183Y000495D01*
X012473Y000495D01*
X011119Y000830D02*
X010925Y000830D01*
X011022Y000734D02*
X011022Y000927D01*
X011022Y001028D02*
X010974Y001125D01*
X010974Y001173D01*
X011022Y001222D01*
X011119Y001222D01*
X011167Y001173D01*
X011167Y001077D01*
X011119Y001028D01*
X011022Y001028D02*
X010877Y001028D01*
X010877Y001222D01*
X012425Y006426D02*
X012377Y006475D01*
X012377Y006572D01*
X012425Y006620D01*
X012522Y006620D02*
X012522Y006523D01*
X012522Y006620D02*
X012619Y006620D01*
X012667Y006572D01*
X012667Y006475D01*
X012619Y006426D01*
X012425Y006426D01*
X012377Y006721D02*
X012667Y006915D01*
X012377Y006915D01*
X012377Y007016D02*
X012377Y007161D01*
X012425Y007209D01*
X012619Y007209D01*
X012667Y007161D01*
X012667Y007016D01*
X012377Y007016D01*
X012377Y006721D02*
X012667Y006721D01*
X014077Y007750D02*
X014125Y007701D01*
X014174Y007701D01*
X014222Y007750D01*
X014222Y007847D01*
X014270Y007895D01*
X014319Y007895D01*
X014367Y007847D01*
X014367Y007750D01*
X014319Y007701D01*
X014077Y007750D02*
X014077Y007847D01*
X014125Y007895D01*
X014125Y007996D02*
X014319Y007996D01*
X014367Y008044D01*
X014367Y008141D01*
X014319Y008190D01*
X014367Y008291D02*
X014367Y008484D01*
X014367Y008291D02*
X014077Y008291D01*
X014125Y008190D02*
X014077Y008141D01*
X014077Y008044D01*
X014125Y007996D01*
X013588Y008481D02*
X013448Y008481D01*
X013518Y008481D02*
X013518Y008691D01*
X013448Y008621D01*
X013367Y008621D02*
X013332Y008586D01*
X013227Y008586D01*
X013146Y008586D02*
X013111Y008551D01*
X013006Y008551D01*
X013006Y008481D02*
X013006Y008691D01*
X013111Y008691D01*
X013146Y008656D01*
X013146Y008586D01*
X013227Y008481D02*
X013227Y008691D01*
X013332Y008691D01*
X013367Y008656D01*
X013367Y008621D01*
X013332Y008586D02*
X013367Y008551D01*
X013367Y008516D01*
X013332Y008481D01*
X013227Y008481D01*
X015077Y008412D02*
X015174Y008509D01*
X015367Y008509D01*
X015222Y008509D02*
X015222Y008316D01*
X015174Y008316D02*
X015077Y008412D01*
X015174Y008316D02*
X015367Y008316D01*
X015319Y008215D02*
X015367Y008166D01*
X015367Y008021D01*
X015077Y008021D01*
X015077Y008166D01*
X015125Y008215D01*
X015319Y008215D01*
X015319Y007920D02*
X015367Y007872D01*
X015367Y007775D01*
X015319Y007726D01*
X015222Y007775D02*
X015174Y007726D01*
X015125Y007726D01*
X015077Y007775D01*
X015077Y007872D01*
X015125Y007920D01*
X015222Y007872D02*
X015270Y007920D01*
X015319Y007920D01*
X015222Y007872D02*
X015222Y007775D01*
X016125Y008030D02*
X016319Y008030D01*
X016222Y007934D02*
X016222Y008127D01*
X016222Y008228D02*
X016174Y008325D01*
X016174Y008373D01*
X016222Y008422D01*
X016319Y008422D01*
X016367Y008373D01*
X016367Y008277D01*
X016319Y008228D01*
X016222Y008228D02*
X016077Y008228D01*
X016077Y008422D01*
X016877Y008361D02*
X016877Y008216D01*
X017167Y008216D01*
X017167Y008361D01*
X017119Y008409D01*
X016925Y008409D01*
X016877Y008361D01*
X016877Y008115D02*
X017167Y008115D01*
X016877Y007921D01*
X017167Y007921D01*
X017119Y007820D02*
X017167Y007772D01*
X017167Y007675D01*
X017119Y007626D01*
X016925Y007626D01*
X016877Y007675D01*
X016877Y007772D01*
X016925Y007820D01*
X017022Y007820D02*
X017022Y007723D01*
X017022Y007820D02*
X017119Y007820D01*
X017806Y008581D02*
X017806Y008791D01*
X017911Y008791D01*
X017946Y008756D01*
X017946Y008686D01*
X017911Y008651D01*
X017806Y008651D01*
X018027Y008616D02*
X018062Y008581D01*
X018097Y008616D01*
X018132Y008581D01*
X018167Y008616D01*
X018167Y008721D01*
X018248Y008721D02*
X018248Y008581D01*
X018248Y008651D02*
X018318Y008721D01*
X018353Y008721D01*
X018027Y008721D02*
X018027Y008616D01*
X012473Y010370D02*
X012183Y010370D01*
X012279Y010466D01*
X012183Y010563D01*
X012473Y010563D01*
X012425Y010664D02*
X012473Y010713D01*
X012473Y010809D01*
X012425Y010858D01*
X012231Y010858D01*
X012183Y010809D01*
X012183Y010713D01*
X012231Y010664D01*
X012425Y010664D01*
X012425Y010959D02*
X012473Y011007D01*
X012473Y011104D01*
X012425Y011152D01*
X012376Y011152D01*
X012328Y011104D01*
X012328Y011007D01*
X012279Y010959D01*
X012231Y010959D01*
X012183Y011007D01*
X012183Y011104D01*
X012231Y011152D01*
X012183Y011254D02*
X012183Y011350D01*
X012183Y011302D02*
X012473Y011302D01*
X012473Y011254D02*
X012473Y011350D01*
X012438Y011702D02*
X012245Y011992D01*
X012438Y011992D02*
X012245Y011702D01*
X012183Y012370D02*
X012183Y012515D01*
X012231Y012563D01*
X012328Y012563D01*
X012376Y012515D01*
X012376Y012370D01*
X012376Y012466D02*
X012473Y012563D01*
X012425Y012664D02*
X012473Y012713D01*
X012473Y012809D01*
X012425Y012858D01*
X012376Y012858D01*
X012328Y012809D01*
X012328Y012713D01*
X012279Y012664D01*
X012231Y012664D01*
X012183Y012713D01*
X012183Y012809D01*
X012231Y012858D01*
X012183Y012959D02*
X012183Y013152D01*
X012183Y013056D02*
X012473Y013056D01*
X012425Y013370D02*
X012473Y013418D01*
X012473Y013515D01*
X012425Y013563D01*
X012376Y013563D01*
X012328Y013515D01*
X012328Y013418D01*
X012279Y013370D01*
X012231Y013370D01*
X012183Y013418D01*
X012183Y013515D01*
X012231Y013563D01*
X012231Y013664D02*
X012425Y013664D01*
X012473Y013713D01*
X012473Y013809D01*
X012425Y013858D01*
X012473Y013959D02*
X012183Y013959D01*
X012231Y013858D02*
X012183Y013809D01*
X012183Y013713D01*
X012231Y013664D01*
X012376Y013959D02*
X012183Y014152D01*
X012328Y014007D02*
X012473Y014152D01*
X012473Y014370D02*
X012183Y014370D01*
X012279Y014466D01*
X012183Y014563D01*
X012473Y014563D01*
X012473Y014664D02*
X012473Y014761D01*
X012473Y014713D02*
X012183Y014713D01*
X012183Y014761D02*
X012183Y014664D01*
X012231Y014861D02*
X012279Y014861D01*
X012328Y014909D01*
X012328Y015006D01*
X012376Y015054D01*
X012425Y015054D01*
X012473Y015006D01*
X012473Y014909D01*
X012425Y014861D01*
X012231Y014861D02*
X012183Y014909D01*
X012183Y015006D01*
X012231Y015054D01*
X012231Y015155D02*
X012183Y015204D01*
X012183Y015300D01*
X012231Y015349D01*
X012425Y015349D01*
X012473Y015300D01*
X012473Y015204D01*
X012425Y015155D01*
X012231Y015155D01*
X012425Y016301D02*
X012377Y016350D01*
X012377Y016447D01*
X012425Y016495D01*
X012522Y016495D02*
X012522Y016398D01*
X012522Y016495D02*
X012619Y016495D01*
X012667Y016447D01*
X012667Y016350D01*
X012619Y016301D01*
X012425Y016301D01*
X012377Y016596D02*
X012667Y016790D01*
X012377Y016790D01*
X012377Y016891D02*
X012377Y017036D01*
X012425Y017084D01*
X012619Y017084D01*
X012667Y017036D01*
X012667Y016891D01*
X012377Y016891D01*
X012377Y016596D02*
X012667Y016596D01*
X014077Y017625D02*
X014125Y017576D01*
X014174Y017576D01*
X014222Y017625D01*
X014222Y017722D01*
X014270Y017770D01*
X014319Y017770D01*
X014367Y017722D01*
X014367Y017625D01*
X014319Y017576D01*
X014077Y017625D02*
X014077Y017722D01*
X014125Y017770D01*
X014125Y017871D02*
X014319Y017871D01*
X014367Y017919D01*
X014367Y018016D01*
X014319Y018065D01*
X014367Y018166D02*
X014367Y018359D01*
X014367Y018166D02*
X014077Y018166D01*
X014125Y018065D02*
X014077Y018016D01*
X014077Y017919D01*
X014125Y017871D01*
X013588Y018356D02*
X013448Y018356D01*
X013518Y018356D02*
X013518Y018566D01*
X013448Y018496D01*
X013367Y018496D02*
X013332Y018461D01*
X013227Y018461D01*
X013146Y018461D02*
X013111Y018426D01*
X013006Y018426D01*
X013006Y018356D02*
X013006Y018566D01*
X013111Y018566D01*
X013146Y018531D01*
X013146Y018461D01*
X013227Y018356D02*
X013227Y018566D01*
X013332Y018566D01*
X013367Y018531D01*
X013367Y018496D01*
X013332Y018461D02*
X013367Y018426D01*
X013367Y018391D01*
X013332Y018356D01*
X013227Y018356D01*
X015077Y018287D02*
X015174Y018384D01*
X015367Y018384D01*
X015222Y018384D02*
X015222Y018191D01*
X015174Y018191D02*
X015077Y018287D01*
X015174Y018191D02*
X015367Y018191D01*
X015319Y018090D02*
X015367Y018041D01*
X015367Y017896D01*
X015077Y017896D01*
X015077Y018041D01*
X015125Y018090D01*
X015319Y018090D01*
X015319Y017795D02*
X015367Y017747D01*
X015367Y017650D01*
X015319Y017601D01*
X015222Y017650D02*
X015174Y017601D01*
X015125Y017601D01*
X015077Y017650D01*
X015077Y017747D01*
X015125Y017795D01*
X015222Y017747D02*
X015270Y017795D01*
X015319Y017795D01*
X015222Y017747D02*
X015222Y017650D01*
X016125Y017905D02*
X016319Y017905D01*
X016222Y017809D02*
X016222Y018002D01*
X016222Y018103D02*
X016077Y018103D01*
X016077Y018297D01*
X016174Y018248D02*
X016174Y018200D01*
X016222Y018103D01*
X016319Y018103D02*
X016367Y018152D01*
X016367Y018248D01*
X016319Y018297D01*
X016222Y018297D01*
X016174Y018248D01*
X016877Y018236D02*
X016877Y018091D01*
X017167Y018091D01*
X017167Y018236D01*
X017119Y018284D01*
X016925Y018284D01*
X016877Y018236D01*
X016877Y017990D02*
X017167Y017990D01*
X016877Y017796D01*
X017167Y017796D01*
X017119Y017695D02*
X017167Y017647D01*
X017167Y017550D01*
X017119Y017501D01*
X016925Y017501D01*
X016877Y017550D01*
X016877Y017647D01*
X016925Y017695D01*
X017022Y017695D02*
X017022Y017598D01*
X017022Y017695D02*
X017119Y017695D01*
X017806Y018456D02*
X017806Y018666D01*
X017911Y018666D01*
X017946Y018631D01*
X017946Y018561D01*
X017911Y018526D01*
X017806Y018526D01*
X018027Y018491D02*
X018062Y018456D01*
X018097Y018491D01*
X018132Y018456D01*
X018167Y018491D01*
X018167Y018596D01*
X018248Y018596D02*
X018248Y018456D01*
X018248Y018526D02*
X018318Y018596D01*
X018353Y018596D01*
X018027Y018596D02*
X018027Y018491D01*
X012473Y012370D02*
X012183Y012370D01*
X011119Y011097D02*
X011022Y011097D01*
X010974Y011048D01*
X010974Y011000D01*
X011022Y010903D01*
X010877Y010903D01*
X010877Y011097D01*
X011119Y011097D02*
X011167Y011048D01*
X011167Y010952D01*
X011119Y010903D01*
X011022Y010802D02*
X011022Y010609D01*
X010925Y010705D02*
X011119Y010705D01*
X010319Y015501D02*
X010125Y015501D01*
X010077Y015550D01*
X010077Y015647D01*
X010125Y015695D01*
X010222Y015695D02*
X010222Y015598D01*
X010222Y015695D02*
X010319Y015695D01*
X010367Y015647D01*
X010367Y015550D01*
X010319Y015501D01*
X010367Y015796D02*
X010077Y015796D01*
X010367Y015990D01*
X010077Y015990D01*
X010077Y016091D02*
X010077Y016236D01*
X010125Y016284D01*
X010319Y016284D01*
X010367Y016236D01*
X010367Y016091D01*
X010077Y016091D01*
X008498Y018456D02*
X008498Y018596D01*
X008568Y018596D02*
X008603Y018596D01*
X008568Y018596D02*
X008498Y018526D01*
X008417Y018491D02*
X008417Y018596D01*
X008417Y018491D02*
X008382Y018456D01*
X008347Y018491D01*
X008312Y018456D01*
X008277Y018491D01*
X008277Y018596D01*
X008196Y018631D02*
X008161Y018666D01*
X008056Y018666D01*
X008056Y018456D01*
X008056Y018526D02*
X008161Y018526D01*
X008196Y018561D01*
X008196Y018631D01*
X007417Y018236D02*
X007417Y018091D01*
X007127Y018091D01*
X007127Y018236D01*
X007175Y018284D01*
X007369Y018284D01*
X007417Y018236D01*
X007417Y017990D02*
X007127Y017990D01*
X007127Y017796D02*
X007417Y017990D01*
X007417Y017796D02*
X007127Y017796D01*
X007175Y017695D02*
X007127Y017647D01*
X007127Y017550D01*
X007175Y017501D01*
X007369Y017501D01*
X007417Y017550D01*
X007417Y017647D01*
X007369Y017695D01*
X007272Y017695D01*
X007272Y017598D01*
X006569Y017905D02*
X006375Y017905D01*
X006472Y017809D02*
X006472Y018002D01*
X006472Y018103D02*
X006424Y018200D01*
X006424Y018248D01*
X006472Y018297D01*
X006569Y018297D01*
X006617Y018248D01*
X006617Y018152D01*
X006569Y018103D01*
X006472Y018103D02*
X006327Y018103D01*
X006327Y018297D01*
X005617Y018384D02*
X005424Y018384D01*
X005327Y018287D01*
X005424Y018191D01*
X005617Y018191D01*
X005569Y018090D02*
X005375Y018090D01*
X005327Y018041D01*
X005327Y017896D01*
X005617Y017896D01*
X005617Y018041D01*
X005569Y018090D01*
X005472Y018191D02*
X005472Y018384D01*
X005520Y017795D02*
X005472Y017747D01*
X005472Y017650D01*
X005424Y017601D01*
X005375Y017601D01*
X005327Y017650D01*
X005327Y017747D01*
X005375Y017795D01*
X005520Y017795D02*
X005569Y017795D01*
X005617Y017747D01*
X005617Y017650D01*
X005569Y017601D01*
X004617Y017625D02*
X004569Y017576D01*
X004617Y017625D02*
X004617Y017722D01*
X004569Y017770D01*
X004520Y017770D01*
X004472Y017722D01*
X004472Y017625D01*
X004424Y017576D01*
X004375Y017576D01*
X004327Y017625D01*
X004327Y017722D01*
X004375Y017770D01*
X004375Y017871D02*
X004327Y017919D01*
X004327Y018016D01*
X004375Y018065D01*
X004327Y018166D02*
X004617Y018166D01*
X004617Y018359D01*
X004569Y018065D02*
X004617Y018016D01*
X004617Y017919D01*
X004569Y017871D01*
X004375Y017871D01*
X003838Y018356D02*
X003698Y018356D01*
X003768Y018356D02*
X003768Y018566D01*
X003698Y018496D01*
X003617Y018496D02*
X003582Y018461D01*
X003477Y018461D01*
X003396Y018461D02*
X003361Y018426D01*
X003256Y018426D01*
X003256Y018356D02*
X003256Y018566D01*
X003361Y018566D01*
X003396Y018531D01*
X003396Y018461D01*
X003477Y018566D02*
X003582Y018566D01*
X003617Y018531D01*
X003617Y018496D01*
X003582Y018461D02*
X003617Y018426D01*
X003617Y018391D01*
X003582Y018356D01*
X003477Y018356D01*
X003477Y018566D01*
X002869Y017084D02*
X002675Y017084D01*
X002627Y017036D01*
X002627Y016891D01*
X002917Y016891D01*
X002917Y017036D01*
X002869Y017084D01*
X002917Y016790D02*
X002627Y016790D01*
X002627Y016596D02*
X002917Y016790D01*
X002917Y016596D02*
X002627Y016596D01*
X002675Y016495D02*
X002627Y016447D01*
X002627Y016350D01*
X002675Y016301D01*
X002869Y016301D01*
X002917Y016350D01*
X002917Y016447D01*
X002869Y016495D01*
X002772Y016495D01*
X002772Y016398D01*
X002675Y015349D02*
X002481Y015349D01*
X002433Y015300D01*
X002433Y015204D01*
X002481Y015155D01*
X002675Y015155D01*
X002723Y015204D01*
X002723Y015300D01*
X002675Y015349D01*
X002675Y015054D02*
X002723Y015006D01*
X002723Y014909D01*
X002675Y014861D01*
X002578Y014909D02*
X002578Y015006D01*
X002626Y015054D01*
X002675Y015054D01*
X002578Y014909D02*
X002529Y014861D01*
X002481Y014861D01*
X002433Y014909D01*
X002433Y015006D01*
X002481Y015054D01*
X002433Y014761D02*
X002433Y014664D01*
X002433Y014713D02*
X002723Y014713D01*
X002723Y014761D02*
X002723Y014664D01*
X002723Y014563D02*
X002433Y014563D01*
X002529Y014466D01*
X002433Y014370D01*
X002723Y014370D01*
X002723Y014152D02*
X002578Y014007D01*
X002626Y013959D02*
X002433Y014152D01*
X002433Y013959D02*
X002723Y013959D01*
X002675Y013858D02*
X002723Y013809D01*
X002723Y013713D01*
X002675Y013664D01*
X002481Y013664D01*
X002433Y013713D01*
X002433Y013809D01*
X002481Y013858D01*
X002481Y013563D02*
X002433Y013515D01*
X002433Y013418D01*
X002481Y013370D01*
X002529Y013370D01*
X002578Y013418D01*
X002578Y013515D01*
X002626Y013563D01*
X002675Y013563D01*
X002723Y013515D01*
X002723Y013418D01*
X002675Y013370D01*
X002433Y013152D02*
X002433Y012959D01*
X002433Y013056D02*
X002723Y013056D01*
X002675Y012858D02*
X002723Y012809D01*
X002723Y012713D01*
X002675Y012664D01*
X002578Y012713D02*
X002578Y012809D01*
X002626Y012858D01*
X002675Y012858D01*
X002578Y012713D02*
X002529Y012664D01*
X002481Y012664D01*
X002433Y012713D01*
X002433Y012809D01*
X002481Y012858D01*
X002481Y012563D02*
X002578Y012563D01*
X002626Y012515D01*
X002626Y012370D01*
X002626Y012466D02*
X002723Y012563D01*
X002723Y012370D02*
X002433Y012370D01*
X002433Y012515D01*
X002481Y012563D01*
X002495Y011992D02*
X002688Y011702D01*
X002495Y011702D02*
X002688Y011992D01*
X002723Y011350D02*
X002723Y011254D01*
X002723Y011302D02*
X002433Y011302D01*
X002433Y011254D02*
X002433Y011350D01*
X002481Y011152D02*
X002433Y011104D01*
X002433Y011007D01*
X002481Y010959D01*
X002529Y010959D01*
X002578Y011007D01*
X002578Y011104D01*
X002626Y011152D01*
X002675Y011152D01*
X002723Y011104D01*
X002723Y011007D01*
X002675Y010959D01*
X002675Y010858D02*
X002481Y010858D01*
X002433Y010809D01*
X002433Y010713D01*
X002481Y010664D01*
X002675Y010664D01*
X002723Y010713D01*
X002723Y010809D01*
X002675Y010858D01*
X002723Y010563D02*
X002433Y010563D01*
X002529Y010466D01*
X002433Y010370D01*
X002723Y010370D01*
X001417Y010952D02*
X001369Y010903D01*
X001417Y010952D02*
X001417Y011048D01*
X001369Y011097D01*
X001272Y011097D01*
X001224Y011048D01*
X001224Y011000D01*
X001272Y010903D01*
X001127Y010903D01*
X001127Y011097D01*
X001272Y010802D02*
X001272Y010609D01*
X001175Y010705D02*
X001369Y010705D01*
X000569Y015501D02*
X000375Y015501D01*
X000327Y015550D01*
X000327Y015647D01*
X000375Y015695D01*
X000472Y015695D02*
X000472Y015598D01*
X000472Y015695D02*
X000569Y015695D01*
X000617Y015647D01*
X000617Y015550D01*
X000569Y015501D01*
X000617Y015796D02*
X000327Y015796D01*
X000617Y015990D01*
X000327Y015990D01*
X000327Y016091D02*
X000327Y016236D01*
X000375Y016284D01*
X000569Y016284D01*
X000617Y016236D01*
X000617Y016091D01*
X000327Y016091D01*
D14*
X000328Y019050D02*
X000330Y019092D01*
X000336Y019133D01*
X000346Y019174D01*
X000359Y019214D01*
X000376Y019252D01*
X000397Y019288D01*
X000421Y019323D01*
X000448Y019355D01*
X000478Y019384D01*
X000511Y019410D01*
X000545Y019434D01*
X000582Y019453D01*
X000621Y019470D01*
X000661Y019482D01*
X000702Y019491D01*
X000744Y019496D01*
X000785Y019497D01*
X000827Y019494D01*
X000869Y019487D01*
X000909Y019476D01*
X000948Y019462D01*
X000986Y019444D01*
X001022Y019422D01*
X001056Y019398D01*
X001087Y019370D01*
X001116Y019339D01*
X001141Y019306D01*
X001164Y019270D01*
X001183Y019233D01*
X001198Y019194D01*
X001210Y019154D01*
X001218Y019113D01*
X001222Y019071D01*
X001222Y019029D01*
X001218Y018987D01*
X001210Y018946D01*
X001198Y018906D01*
X001183Y018867D01*
X001164Y018830D01*
X001141Y018794D01*
X001116Y018761D01*
X001087Y018730D01*
X001056Y018702D01*
X001022Y018678D01*
X000986Y018656D01*
X000948Y018638D01*
X000909Y018624D01*
X000869Y018613D01*
X000827Y018606D01*
X000785Y018603D01*
X000744Y018604D01*
X000702Y018609D01*
X000661Y018618D01*
X000621Y018630D01*
X000582Y018647D01*
X000545Y018666D01*
X000511Y018690D01*
X000478Y018716D01*
X000448Y018745D01*
X000421Y018777D01*
X000397Y018812D01*
X000376Y018848D01*
X000359Y018886D01*
X000346Y018926D01*
X000336Y018967D01*
X000330Y019008D01*
X000328Y019050D01*
X008528Y015850D02*
X008530Y015892D01*
X008536Y015933D01*
X008546Y015974D01*
X008559Y016014D01*
X008576Y016052D01*
X008597Y016088D01*
X008621Y016123D01*
X008648Y016155D01*
X008678Y016184D01*
X008711Y016210D01*
X008745Y016234D01*
X008782Y016253D01*
X008821Y016270D01*
X008861Y016282D01*
X008902Y016291D01*
X008944Y016296D01*
X008985Y016297D01*
X009027Y016294D01*
X009069Y016287D01*
X009109Y016276D01*
X009148Y016262D01*
X009186Y016244D01*
X009222Y016222D01*
X009256Y016198D01*
X009287Y016170D01*
X009316Y016139D01*
X009341Y016106D01*
X009364Y016070D01*
X009383Y016033D01*
X009398Y015994D01*
X009410Y015954D01*
X009418Y015913D01*
X009422Y015871D01*
X009422Y015829D01*
X009418Y015787D01*
X009410Y015746D01*
X009398Y015706D01*
X009383Y015667D01*
X009364Y015630D01*
X009341Y015594D01*
X009316Y015561D01*
X009287Y015530D01*
X009256Y015502D01*
X009222Y015478D01*
X009186Y015456D01*
X009148Y015438D01*
X009109Y015424D01*
X009069Y015413D01*
X009027Y015406D01*
X008985Y015403D01*
X008944Y015404D01*
X008902Y015409D01*
X008861Y015418D01*
X008821Y015430D01*
X008782Y015447D01*
X008745Y015466D01*
X008711Y015490D01*
X008678Y015516D01*
X008648Y015545D01*
X008621Y015577D01*
X008597Y015612D01*
X008576Y015648D01*
X008559Y015686D01*
X008546Y015726D01*
X008536Y015767D01*
X008530Y015808D01*
X008528Y015850D01*
X008528Y014850D02*
X008530Y014892D01*
X008536Y014933D01*
X008546Y014974D01*
X008559Y015014D01*
X008576Y015052D01*
X008597Y015088D01*
X008621Y015123D01*
X008648Y015155D01*
X008678Y015184D01*
X008711Y015210D01*
X008745Y015234D01*
X008782Y015253D01*
X008821Y015270D01*
X008861Y015282D01*
X008902Y015291D01*
X008944Y015296D01*
X008985Y015297D01*
X009027Y015294D01*
X009069Y015287D01*
X009109Y015276D01*
X009148Y015262D01*
X009186Y015244D01*
X009222Y015222D01*
X009256Y015198D01*
X009287Y015170D01*
X009316Y015139D01*
X009341Y015106D01*
X009364Y015070D01*
X009383Y015033D01*
X009398Y014994D01*
X009410Y014954D01*
X009418Y014913D01*
X009422Y014871D01*
X009422Y014829D01*
X009418Y014787D01*
X009410Y014746D01*
X009398Y014706D01*
X009383Y014667D01*
X009364Y014630D01*
X009341Y014594D01*
X009316Y014561D01*
X009287Y014530D01*
X009256Y014502D01*
X009222Y014478D01*
X009186Y014456D01*
X009148Y014438D01*
X009109Y014424D01*
X009069Y014413D01*
X009027Y014406D01*
X008985Y014403D01*
X008944Y014404D01*
X008902Y014409D01*
X008861Y014418D01*
X008821Y014430D01*
X008782Y014447D01*
X008745Y014466D01*
X008711Y014490D01*
X008678Y014516D01*
X008648Y014545D01*
X008621Y014577D01*
X008597Y014612D01*
X008576Y014648D01*
X008559Y014686D01*
X008546Y014726D01*
X008536Y014767D01*
X008530Y014808D01*
X008528Y014850D01*
X008528Y012850D02*
X008530Y012892D01*
X008536Y012933D01*
X008546Y012974D01*
X008559Y013014D01*
X008576Y013052D01*
X008597Y013088D01*
X008621Y013123D01*
X008648Y013155D01*
X008678Y013184D01*
X008711Y013210D01*
X008745Y013234D01*
X008782Y013253D01*
X008821Y013270D01*
X008861Y013282D01*
X008902Y013291D01*
X008944Y013296D01*
X008985Y013297D01*
X009027Y013294D01*
X009069Y013287D01*
X009109Y013276D01*
X009148Y013262D01*
X009186Y013244D01*
X009222Y013222D01*
X009256Y013198D01*
X009287Y013170D01*
X009316Y013139D01*
X009341Y013106D01*
X009364Y013070D01*
X009383Y013033D01*
X009398Y012994D01*
X009410Y012954D01*
X009418Y012913D01*
X009422Y012871D01*
X009422Y012829D01*
X009418Y012787D01*
X009410Y012746D01*
X009398Y012706D01*
X009383Y012667D01*
X009364Y012630D01*
X009341Y012594D01*
X009316Y012561D01*
X009287Y012530D01*
X009256Y012502D01*
X009222Y012478D01*
X009186Y012456D01*
X009148Y012438D01*
X009109Y012424D01*
X009069Y012413D01*
X009027Y012406D01*
X008985Y012403D01*
X008944Y012404D01*
X008902Y012409D01*
X008861Y012418D01*
X008821Y012430D01*
X008782Y012447D01*
X008745Y012466D01*
X008711Y012490D01*
X008678Y012516D01*
X008648Y012545D01*
X008621Y012577D01*
X008597Y012612D01*
X008576Y012648D01*
X008559Y012686D01*
X008546Y012726D01*
X008536Y012767D01*
X008530Y012808D01*
X008528Y012850D01*
X008528Y011850D02*
X008530Y011892D01*
X008536Y011933D01*
X008546Y011974D01*
X008559Y012014D01*
X008576Y012052D01*
X008597Y012088D01*
X008621Y012123D01*
X008648Y012155D01*
X008678Y012184D01*
X008711Y012210D01*
X008745Y012234D01*
X008782Y012253D01*
X008821Y012270D01*
X008861Y012282D01*
X008902Y012291D01*
X008944Y012296D01*
X008985Y012297D01*
X009027Y012294D01*
X009069Y012287D01*
X009109Y012276D01*
X009148Y012262D01*
X009186Y012244D01*
X009222Y012222D01*
X009256Y012198D01*
X009287Y012170D01*
X009316Y012139D01*
X009341Y012106D01*
X009364Y012070D01*
X009383Y012033D01*
X009398Y011994D01*
X009410Y011954D01*
X009418Y011913D01*
X009422Y011871D01*
X009422Y011829D01*
X009418Y011787D01*
X009410Y011746D01*
X009398Y011706D01*
X009383Y011667D01*
X009364Y011630D01*
X009341Y011594D01*
X009316Y011561D01*
X009287Y011530D01*
X009256Y011502D01*
X009222Y011478D01*
X009186Y011456D01*
X009148Y011438D01*
X009109Y011424D01*
X009069Y011413D01*
X009027Y011406D01*
X008985Y011403D01*
X008944Y011404D01*
X008902Y011409D01*
X008861Y011418D01*
X008821Y011430D01*
X008782Y011447D01*
X008745Y011466D01*
X008711Y011490D01*
X008678Y011516D01*
X008648Y011545D01*
X008621Y011577D01*
X008597Y011612D01*
X008576Y011648D01*
X008559Y011686D01*
X008546Y011726D01*
X008536Y011767D01*
X008530Y011808D01*
X008528Y011850D01*
X010078Y009175D02*
X010080Y009217D01*
X010086Y009258D01*
X010096Y009299D01*
X010109Y009339D01*
X010126Y009377D01*
X010147Y009413D01*
X010171Y009448D01*
X010198Y009480D01*
X010228Y009509D01*
X010261Y009535D01*
X010295Y009559D01*
X010332Y009578D01*
X010371Y009595D01*
X010411Y009607D01*
X010452Y009616D01*
X010494Y009621D01*
X010535Y009622D01*
X010577Y009619D01*
X010619Y009612D01*
X010659Y009601D01*
X010698Y009587D01*
X010736Y009569D01*
X010772Y009547D01*
X010806Y009523D01*
X010837Y009495D01*
X010866Y009464D01*
X010891Y009431D01*
X010914Y009395D01*
X010933Y009358D01*
X010948Y009319D01*
X010960Y009279D01*
X010968Y009238D01*
X010972Y009196D01*
X010972Y009154D01*
X010968Y009112D01*
X010960Y009071D01*
X010948Y009031D01*
X010933Y008992D01*
X010914Y008955D01*
X010891Y008919D01*
X010866Y008886D01*
X010837Y008855D01*
X010806Y008827D01*
X010772Y008803D01*
X010736Y008781D01*
X010698Y008763D01*
X010659Y008749D01*
X010619Y008738D01*
X010577Y008731D01*
X010535Y008728D01*
X010494Y008729D01*
X010452Y008734D01*
X010411Y008743D01*
X010371Y008755D01*
X010332Y008772D01*
X010295Y008791D01*
X010261Y008815D01*
X010228Y008841D01*
X010198Y008870D01*
X010171Y008902D01*
X010147Y008937D01*
X010126Y008973D01*
X010109Y009011D01*
X010096Y009051D01*
X010086Y009092D01*
X010080Y009133D01*
X010078Y009175D01*
X008528Y005975D02*
X008530Y006017D01*
X008536Y006058D01*
X008546Y006099D01*
X008559Y006139D01*
X008576Y006177D01*
X008597Y006213D01*
X008621Y006248D01*
X008648Y006280D01*
X008678Y006309D01*
X008711Y006335D01*
X008745Y006359D01*
X008782Y006378D01*
X008821Y006395D01*
X008861Y006407D01*
X008902Y006416D01*
X008944Y006421D01*
X008985Y006422D01*
X009027Y006419D01*
X009069Y006412D01*
X009109Y006401D01*
X009148Y006387D01*
X009186Y006369D01*
X009222Y006347D01*
X009256Y006323D01*
X009287Y006295D01*
X009316Y006264D01*
X009341Y006231D01*
X009364Y006195D01*
X009383Y006158D01*
X009398Y006119D01*
X009410Y006079D01*
X009418Y006038D01*
X009422Y005996D01*
X009422Y005954D01*
X009418Y005912D01*
X009410Y005871D01*
X009398Y005831D01*
X009383Y005792D01*
X009364Y005755D01*
X009341Y005719D01*
X009316Y005686D01*
X009287Y005655D01*
X009256Y005627D01*
X009222Y005603D01*
X009186Y005581D01*
X009148Y005563D01*
X009109Y005549D01*
X009069Y005538D01*
X009027Y005531D01*
X008985Y005528D01*
X008944Y005529D01*
X008902Y005534D01*
X008861Y005543D01*
X008821Y005555D01*
X008782Y005572D01*
X008745Y005591D01*
X008711Y005615D01*
X008678Y005641D01*
X008648Y005670D01*
X008621Y005702D01*
X008597Y005737D01*
X008576Y005773D01*
X008559Y005811D01*
X008546Y005851D01*
X008536Y005892D01*
X008530Y005933D01*
X008528Y005975D01*
X008528Y004975D02*
X008530Y005017D01*
X008536Y005058D01*
X008546Y005099D01*
X008559Y005139D01*
X008576Y005177D01*
X008597Y005213D01*
X008621Y005248D01*
X008648Y005280D01*
X008678Y005309D01*
X008711Y005335D01*
X008745Y005359D01*
X008782Y005378D01*
X008821Y005395D01*
X008861Y005407D01*
X008902Y005416D01*
X008944Y005421D01*
X008985Y005422D01*
X009027Y005419D01*
X009069Y005412D01*
X009109Y005401D01*
X009148Y005387D01*
X009186Y005369D01*
X009222Y005347D01*
X009256Y005323D01*
X009287Y005295D01*
X009316Y005264D01*
X009341Y005231D01*
X009364Y005195D01*
X009383Y005158D01*
X009398Y005119D01*
X009410Y005079D01*
X009418Y005038D01*
X009422Y004996D01*
X009422Y004954D01*
X009418Y004912D01*
X009410Y004871D01*
X009398Y004831D01*
X009383Y004792D01*
X009364Y004755D01*
X009341Y004719D01*
X009316Y004686D01*
X009287Y004655D01*
X009256Y004627D01*
X009222Y004603D01*
X009186Y004581D01*
X009148Y004563D01*
X009109Y004549D01*
X009069Y004538D01*
X009027Y004531D01*
X008985Y004528D01*
X008944Y004529D01*
X008902Y004534D01*
X008861Y004543D01*
X008821Y004555D01*
X008782Y004572D01*
X008745Y004591D01*
X008711Y004615D01*
X008678Y004641D01*
X008648Y004670D01*
X008621Y004702D01*
X008597Y004737D01*
X008576Y004773D01*
X008559Y004811D01*
X008546Y004851D01*
X008536Y004892D01*
X008530Y004933D01*
X008528Y004975D01*
X008528Y002975D02*
X008530Y003017D01*
X008536Y003058D01*
X008546Y003099D01*
X008559Y003139D01*
X008576Y003177D01*
X008597Y003213D01*
X008621Y003248D01*
X008648Y003280D01*
X008678Y003309D01*
X008711Y003335D01*
X008745Y003359D01*
X008782Y003378D01*
X008821Y003395D01*
X008861Y003407D01*
X008902Y003416D01*
X008944Y003421D01*
X008985Y003422D01*
X009027Y003419D01*
X009069Y003412D01*
X009109Y003401D01*
X009148Y003387D01*
X009186Y003369D01*
X009222Y003347D01*
X009256Y003323D01*
X009287Y003295D01*
X009316Y003264D01*
X009341Y003231D01*
X009364Y003195D01*
X009383Y003158D01*
X009398Y003119D01*
X009410Y003079D01*
X009418Y003038D01*
X009422Y002996D01*
X009422Y002954D01*
X009418Y002912D01*
X009410Y002871D01*
X009398Y002831D01*
X009383Y002792D01*
X009364Y002755D01*
X009341Y002719D01*
X009316Y002686D01*
X009287Y002655D01*
X009256Y002627D01*
X009222Y002603D01*
X009186Y002581D01*
X009148Y002563D01*
X009109Y002549D01*
X009069Y002538D01*
X009027Y002531D01*
X008985Y002528D01*
X008944Y002529D01*
X008902Y002534D01*
X008861Y002543D01*
X008821Y002555D01*
X008782Y002572D01*
X008745Y002591D01*
X008711Y002615D01*
X008678Y002641D01*
X008648Y002670D01*
X008621Y002702D01*
X008597Y002737D01*
X008576Y002773D01*
X008559Y002811D01*
X008546Y002851D01*
X008536Y002892D01*
X008530Y002933D01*
X008528Y002975D01*
X008528Y001975D02*
X008530Y002017D01*
X008536Y002058D01*
X008546Y002099D01*
X008559Y002139D01*
X008576Y002177D01*
X008597Y002213D01*
X008621Y002248D01*
X008648Y002280D01*
X008678Y002309D01*
X008711Y002335D01*
X008745Y002359D01*
X008782Y002378D01*
X008821Y002395D01*
X008861Y002407D01*
X008902Y002416D01*
X008944Y002421D01*
X008985Y002422D01*
X009027Y002419D01*
X009069Y002412D01*
X009109Y002401D01*
X009148Y002387D01*
X009186Y002369D01*
X009222Y002347D01*
X009256Y002323D01*
X009287Y002295D01*
X009316Y002264D01*
X009341Y002231D01*
X009364Y002195D01*
X009383Y002158D01*
X009398Y002119D01*
X009410Y002079D01*
X009418Y002038D01*
X009422Y001996D01*
X009422Y001954D01*
X009418Y001912D01*
X009410Y001871D01*
X009398Y001831D01*
X009383Y001792D01*
X009364Y001755D01*
X009341Y001719D01*
X009316Y001686D01*
X009287Y001655D01*
X009256Y001627D01*
X009222Y001603D01*
X009186Y001581D01*
X009148Y001563D01*
X009109Y001549D01*
X009069Y001538D01*
X009027Y001531D01*
X008985Y001528D01*
X008944Y001529D01*
X008902Y001534D01*
X008861Y001543D01*
X008821Y001555D01*
X008782Y001572D01*
X008745Y001591D01*
X008711Y001615D01*
X008678Y001641D01*
X008648Y001670D01*
X008621Y001702D01*
X008597Y001737D01*
X008576Y001773D01*
X008559Y001811D01*
X008546Y001851D01*
X008536Y001892D01*
X008530Y001933D01*
X008528Y001975D01*
X000328Y009175D02*
X000330Y009217D01*
X000336Y009258D01*
X000346Y009299D01*
X000359Y009339D01*
X000376Y009377D01*
X000397Y009413D01*
X000421Y009448D01*
X000448Y009480D01*
X000478Y009509D01*
X000511Y009535D01*
X000545Y009559D01*
X000582Y009578D01*
X000621Y009595D01*
X000661Y009607D01*
X000702Y009616D01*
X000744Y009621D01*
X000785Y009622D01*
X000827Y009619D01*
X000869Y009612D01*
X000909Y009601D01*
X000948Y009587D01*
X000986Y009569D01*
X001022Y009547D01*
X001056Y009523D01*
X001087Y009495D01*
X001116Y009464D01*
X001141Y009431D01*
X001164Y009395D01*
X001183Y009358D01*
X001198Y009319D01*
X001210Y009279D01*
X001218Y009238D01*
X001222Y009196D01*
X001222Y009154D01*
X001218Y009112D01*
X001210Y009071D01*
X001198Y009031D01*
X001183Y008992D01*
X001164Y008955D01*
X001141Y008919D01*
X001116Y008886D01*
X001087Y008855D01*
X001056Y008827D01*
X001022Y008803D01*
X000986Y008781D01*
X000948Y008763D01*
X000909Y008749D01*
X000869Y008738D01*
X000827Y008731D01*
X000785Y008728D01*
X000744Y008729D01*
X000702Y008734D01*
X000661Y008743D01*
X000621Y008755D01*
X000582Y008772D01*
X000545Y008791D01*
X000511Y008815D01*
X000478Y008841D01*
X000448Y008870D01*
X000421Y008902D01*
X000397Y008937D01*
X000376Y008973D01*
X000359Y009011D01*
X000346Y009051D01*
X000336Y009092D01*
X000330Y009133D01*
X000328Y009175D01*
X010078Y019050D02*
X010080Y019092D01*
X010086Y019133D01*
X010096Y019174D01*
X010109Y019214D01*
X010126Y019252D01*
X010147Y019288D01*
X010171Y019323D01*
X010198Y019355D01*
X010228Y019384D01*
X010261Y019410D01*
X010295Y019434D01*
X010332Y019453D01*
X010371Y019470D01*
X010411Y019482D01*
X010452Y019491D01*
X010494Y019496D01*
X010535Y019497D01*
X010577Y019494D01*
X010619Y019487D01*
X010659Y019476D01*
X010698Y019462D01*
X010736Y019444D01*
X010772Y019422D01*
X010806Y019398D01*
X010837Y019370D01*
X010866Y019339D01*
X010891Y019306D01*
X010914Y019270D01*
X010933Y019233D01*
X010948Y019194D01*
X010960Y019154D01*
X010968Y019113D01*
X010972Y019071D01*
X010972Y019029D01*
X010968Y018987D01*
X010960Y018946D01*
X010948Y018906D01*
X010933Y018867D01*
X010914Y018830D01*
X010891Y018794D01*
X010866Y018761D01*
X010837Y018730D01*
X010806Y018702D01*
X010772Y018678D01*
X010736Y018656D01*
X010698Y018638D01*
X010659Y018624D01*
X010619Y018613D01*
X010577Y018606D01*
X010535Y018603D01*
X010494Y018604D01*
X010452Y018609D01*
X010411Y018618D01*
X010371Y018630D01*
X010332Y018647D01*
X010295Y018666D01*
X010261Y018690D01*
X010228Y018716D01*
X010198Y018745D01*
X010171Y018777D01*
X010147Y018812D01*
X010126Y018848D01*
X010109Y018886D01*
X010096Y018926D01*
X010086Y018967D01*
X010080Y019008D01*
X010078Y019050D01*
X018278Y015850D02*
X018280Y015892D01*
X018286Y015933D01*
X018296Y015974D01*
X018309Y016014D01*
X018326Y016052D01*
X018347Y016088D01*
X018371Y016123D01*
X018398Y016155D01*
X018428Y016184D01*
X018461Y016210D01*
X018495Y016234D01*
X018532Y016253D01*
X018571Y016270D01*
X018611Y016282D01*
X018652Y016291D01*
X018694Y016296D01*
X018735Y016297D01*
X018777Y016294D01*
X018819Y016287D01*
X018859Y016276D01*
X018898Y016262D01*
X018936Y016244D01*
X018972Y016222D01*
X019006Y016198D01*
X019037Y016170D01*
X019066Y016139D01*
X019091Y016106D01*
X019114Y016070D01*
X019133Y016033D01*
X019148Y015994D01*
X019160Y015954D01*
X019168Y015913D01*
X019172Y015871D01*
X019172Y015829D01*
X019168Y015787D01*
X019160Y015746D01*
X019148Y015706D01*
X019133Y015667D01*
X019114Y015630D01*
X019091Y015594D01*
X019066Y015561D01*
X019037Y015530D01*
X019006Y015502D01*
X018972Y015478D01*
X018936Y015456D01*
X018898Y015438D01*
X018859Y015424D01*
X018819Y015413D01*
X018777Y015406D01*
X018735Y015403D01*
X018694Y015404D01*
X018652Y015409D01*
X018611Y015418D01*
X018571Y015430D01*
X018532Y015447D01*
X018495Y015466D01*
X018461Y015490D01*
X018428Y015516D01*
X018398Y015545D01*
X018371Y015577D01*
X018347Y015612D01*
X018326Y015648D01*
X018309Y015686D01*
X018296Y015726D01*
X018286Y015767D01*
X018280Y015808D01*
X018278Y015850D01*
X018278Y014850D02*
X018280Y014892D01*
X018286Y014933D01*
X018296Y014974D01*
X018309Y015014D01*
X018326Y015052D01*
X018347Y015088D01*
X018371Y015123D01*
X018398Y015155D01*
X018428Y015184D01*
X018461Y015210D01*
X018495Y015234D01*
X018532Y015253D01*
X018571Y015270D01*
X018611Y015282D01*
X018652Y015291D01*
X018694Y015296D01*
X018735Y015297D01*
X018777Y015294D01*
X018819Y015287D01*
X018859Y015276D01*
X018898Y015262D01*
X018936Y015244D01*
X018972Y015222D01*
X019006Y015198D01*
X019037Y015170D01*
X019066Y015139D01*
X019091Y015106D01*
X019114Y015070D01*
X019133Y015033D01*
X019148Y014994D01*
X019160Y014954D01*
X019168Y014913D01*
X019172Y014871D01*
X019172Y014829D01*
X019168Y014787D01*
X019160Y014746D01*
X019148Y014706D01*
X019133Y014667D01*
X019114Y014630D01*
X019091Y014594D01*
X019066Y014561D01*
X019037Y014530D01*
X019006Y014502D01*
X018972Y014478D01*
X018936Y014456D01*
X018898Y014438D01*
X018859Y014424D01*
X018819Y014413D01*
X018777Y014406D01*
X018735Y014403D01*
X018694Y014404D01*
X018652Y014409D01*
X018611Y014418D01*
X018571Y014430D01*
X018532Y014447D01*
X018495Y014466D01*
X018461Y014490D01*
X018428Y014516D01*
X018398Y014545D01*
X018371Y014577D01*
X018347Y014612D01*
X018326Y014648D01*
X018309Y014686D01*
X018296Y014726D01*
X018286Y014767D01*
X018280Y014808D01*
X018278Y014850D01*
X018278Y012850D02*
X018280Y012892D01*
X018286Y012933D01*
X018296Y012974D01*
X018309Y013014D01*
X018326Y013052D01*
X018347Y013088D01*
X018371Y013123D01*
X018398Y013155D01*
X018428Y013184D01*
X018461Y013210D01*
X018495Y013234D01*
X018532Y013253D01*
X018571Y013270D01*
X018611Y013282D01*
X018652Y013291D01*
X018694Y013296D01*
X018735Y013297D01*
X018777Y013294D01*
X018819Y013287D01*
X018859Y013276D01*
X018898Y013262D01*
X018936Y013244D01*
X018972Y013222D01*
X019006Y013198D01*
X019037Y013170D01*
X019066Y013139D01*
X019091Y013106D01*
X019114Y013070D01*
X019133Y013033D01*
X019148Y012994D01*
X019160Y012954D01*
X019168Y012913D01*
X019172Y012871D01*
X019172Y012829D01*
X019168Y012787D01*
X019160Y012746D01*
X019148Y012706D01*
X019133Y012667D01*
X019114Y012630D01*
X019091Y012594D01*
X019066Y012561D01*
X019037Y012530D01*
X019006Y012502D01*
X018972Y012478D01*
X018936Y012456D01*
X018898Y012438D01*
X018859Y012424D01*
X018819Y012413D01*
X018777Y012406D01*
X018735Y012403D01*
X018694Y012404D01*
X018652Y012409D01*
X018611Y012418D01*
X018571Y012430D01*
X018532Y012447D01*
X018495Y012466D01*
X018461Y012490D01*
X018428Y012516D01*
X018398Y012545D01*
X018371Y012577D01*
X018347Y012612D01*
X018326Y012648D01*
X018309Y012686D01*
X018296Y012726D01*
X018286Y012767D01*
X018280Y012808D01*
X018278Y012850D01*
X018278Y011850D02*
X018280Y011892D01*
X018286Y011933D01*
X018296Y011974D01*
X018309Y012014D01*
X018326Y012052D01*
X018347Y012088D01*
X018371Y012123D01*
X018398Y012155D01*
X018428Y012184D01*
X018461Y012210D01*
X018495Y012234D01*
X018532Y012253D01*
X018571Y012270D01*
X018611Y012282D01*
X018652Y012291D01*
X018694Y012296D01*
X018735Y012297D01*
X018777Y012294D01*
X018819Y012287D01*
X018859Y012276D01*
X018898Y012262D01*
X018936Y012244D01*
X018972Y012222D01*
X019006Y012198D01*
X019037Y012170D01*
X019066Y012139D01*
X019091Y012106D01*
X019114Y012070D01*
X019133Y012033D01*
X019148Y011994D01*
X019160Y011954D01*
X019168Y011913D01*
X019172Y011871D01*
X019172Y011829D01*
X019168Y011787D01*
X019160Y011746D01*
X019148Y011706D01*
X019133Y011667D01*
X019114Y011630D01*
X019091Y011594D01*
X019066Y011561D01*
X019037Y011530D01*
X019006Y011502D01*
X018972Y011478D01*
X018936Y011456D01*
X018898Y011438D01*
X018859Y011424D01*
X018819Y011413D01*
X018777Y011406D01*
X018735Y011403D01*
X018694Y011404D01*
X018652Y011409D01*
X018611Y011418D01*
X018571Y011430D01*
X018532Y011447D01*
X018495Y011466D01*
X018461Y011490D01*
X018428Y011516D01*
X018398Y011545D01*
X018371Y011577D01*
X018347Y011612D01*
X018326Y011648D01*
X018309Y011686D01*
X018296Y011726D01*
X018286Y011767D01*
X018280Y011808D01*
X018278Y011850D01*
X018278Y005975D02*
X018280Y006017D01*
X018286Y006058D01*
X018296Y006099D01*
X018309Y006139D01*
X018326Y006177D01*
X018347Y006213D01*
X018371Y006248D01*
X018398Y006280D01*
X018428Y006309D01*
X018461Y006335D01*
X018495Y006359D01*
X018532Y006378D01*
X018571Y006395D01*
X018611Y006407D01*
X018652Y006416D01*
X018694Y006421D01*
X018735Y006422D01*
X018777Y006419D01*
X018819Y006412D01*
X018859Y006401D01*
X018898Y006387D01*
X018936Y006369D01*
X018972Y006347D01*
X019006Y006323D01*
X019037Y006295D01*
X019066Y006264D01*
X019091Y006231D01*
X019114Y006195D01*
X019133Y006158D01*
X019148Y006119D01*
X019160Y006079D01*
X019168Y006038D01*
X019172Y005996D01*
X019172Y005954D01*
X019168Y005912D01*
X019160Y005871D01*
X019148Y005831D01*
X019133Y005792D01*
X019114Y005755D01*
X019091Y005719D01*
X019066Y005686D01*
X019037Y005655D01*
X019006Y005627D01*
X018972Y005603D01*
X018936Y005581D01*
X018898Y005563D01*
X018859Y005549D01*
X018819Y005538D01*
X018777Y005531D01*
X018735Y005528D01*
X018694Y005529D01*
X018652Y005534D01*
X018611Y005543D01*
X018571Y005555D01*
X018532Y005572D01*
X018495Y005591D01*
X018461Y005615D01*
X018428Y005641D01*
X018398Y005670D01*
X018371Y005702D01*
X018347Y005737D01*
X018326Y005773D01*
X018309Y005811D01*
X018296Y005851D01*
X018286Y005892D01*
X018280Y005933D01*
X018278Y005975D01*
X018278Y004975D02*
X018280Y005017D01*
X018286Y005058D01*
X018296Y005099D01*
X018309Y005139D01*
X018326Y005177D01*
X018347Y005213D01*
X018371Y005248D01*
X018398Y005280D01*
X018428Y005309D01*
X018461Y005335D01*
X018495Y005359D01*
X018532Y005378D01*
X018571Y005395D01*
X018611Y005407D01*
X018652Y005416D01*
X018694Y005421D01*
X018735Y005422D01*
X018777Y005419D01*
X018819Y005412D01*
X018859Y005401D01*
X018898Y005387D01*
X018936Y005369D01*
X018972Y005347D01*
X019006Y005323D01*
X019037Y005295D01*
X019066Y005264D01*
X019091Y005231D01*
X019114Y005195D01*
X019133Y005158D01*
X019148Y005119D01*
X019160Y005079D01*
X019168Y005038D01*
X019172Y004996D01*
X019172Y004954D01*
X019168Y004912D01*
X019160Y004871D01*
X019148Y004831D01*
X019133Y004792D01*
X019114Y004755D01*
X019091Y004719D01*
X019066Y004686D01*
X019037Y004655D01*
X019006Y004627D01*
X018972Y004603D01*
X018936Y004581D01*
X018898Y004563D01*
X018859Y004549D01*
X018819Y004538D01*
X018777Y004531D01*
X018735Y004528D01*
X018694Y004529D01*
X018652Y004534D01*
X018611Y004543D01*
X018571Y004555D01*
X018532Y004572D01*
X018495Y004591D01*
X018461Y004615D01*
X018428Y004641D01*
X018398Y004670D01*
X018371Y004702D01*
X018347Y004737D01*
X018326Y004773D01*
X018309Y004811D01*
X018296Y004851D01*
X018286Y004892D01*
X018280Y004933D01*
X018278Y004975D01*
X018278Y002975D02*
X018280Y003017D01*
X018286Y003058D01*
X018296Y003099D01*
X018309Y003139D01*
X018326Y003177D01*
X018347Y003213D01*
X018371Y003248D01*
X018398Y003280D01*
X018428Y003309D01*
X018461Y003335D01*
X018495Y003359D01*
X018532Y003378D01*
X018571Y003395D01*
X018611Y003407D01*
X018652Y003416D01*
X018694Y003421D01*
X018735Y003422D01*
X018777Y003419D01*
X018819Y003412D01*
X018859Y003401D01*
X018898Y003387D01*
X018936Y003369D01*
X018972Y003347D01*
X019006Y003323D01*
X019037Y003295D01*
X019066Y003264D01*
X019091Y003231D01*
X019114Y003195D01*
X019133Y003158D01*
X019148Y003119D01*
X019160Y003079D01*
X019168Y003038D01*
X019172Y002996D01*
X019172Y002954D01*
X019168Y002912D01*
X019160Y002871D01*
X019148Y002831D01*
X019133Y002792D01*
X019114Y002755D01*
X019091Y002719D01*
X019066Y002686D01*
X019037Y002655D01*
X019006Y002627D01*
X018972Y002603D01*
X018936Y002581D01*
X018898Y002563D01*
X018859Y002549D01*
X018819Y002538D01*
X018777Y002531D01*
X018735Y002528D01*
X018694Y002529D01*
X018652Y002534D01*
X018611Y002543D01*
X018571Y002555D01*
X018532Y002572D01*
X018495Y002591D01*
X018461Y002615D01*
X018428Y002641D01*
X018398Y002670D01*
X018371Y002702D01*
X018347Y002737D01*
X018326Y002773D01*
X018309Y002811D01*
X018296Y002851D01*
X018286Y002892D01*
X018280Y002933D01*
X018278Y002975D01*
X018278Y001975D02*
X018280Y002017D01*
X018286Y002058D01*
X018296Y002099D01*
X018309Y002139D01*
X018326Y002177D01*
X018347Y002213D01*
X018371Y002248D01*
X018398Y002280D01*
X018428Y002309D01*
X018461Y002335D01*
X018495Y002359D01*
X018532Y002378D01*
X018571Y002395D01*
X018611Y002407D01*
X018652Y002416D01*
X018694Y002421D01*
X018735Y002422D01*
X018777Y002419D01*
X018819Y002412D01*
X018859Y002401D01*
X018898Y002387D01*
X018936Y002369D01*
X018972Y002347D01*
X019006Y002323D01*
X019037Y002295D01*
X019066Y002264D01*
X019091Y002231D01*
X019114Y002195D01*
X019133Y002158D01*
X019148Y002119D01*
X019160Y002079D01*
X019168Y002038D01*
X019172Y001996D01*
X019172Y001954D01*
X019168Y001912D01*
X019160Y001871D01*
X019148Y001831D01*
X019133Y001792D01*
X019114Y001755D01*
X019091Y001719D01*
X019066Y001686D01*
X019037Y001655D01*
X019006Y001627D01*
X018972Y001603D01*
X018936Y001581D01*
X018898Y001563D01*
X018859Y001549D01*
X018819Y001538D01*
X018777Y001531D01*
X018735Y001528D01*
X018694Y001529D01*
X018652Y001534D01*
X018611Y001543D01*
X018571Y001555D01*
X018532Y001572D01*
X018495Y001591D01*
X018461Y001615D01*
X018428Y001641D01*
X018398Y001670D01*
X018371Y001702D01*
X018347Y001737D01*
X018326Y001773D01*
X018309Y001811D01*
X018296Y001851D01*
X018286Y001892D01*
X018280Y001933D01*
X018278Y001975D01*
D15*
X018325Y007575D02*
X018325Y008375D01*
X019225Y008375D01*
X019225Y007575D01*
X018325Y007575D01*
X011025Y008675D02*
X010025Y008675D01*
X010025Y009675D01*
X011025Y009675D01*
X011025Y008675D01*
X009475Y008375D02*
X009475Y007575D01*
X008575Y007575D01*
X008575Y008375D01*
X009475Y008375D01*
X010125Y005375D02*
X010125Y004575D01*
X010925Y004575D01*
X010925Y004375D01*
X010125Y004375D01*
X010125Y003575D01*
X010925Y003575D01*
X010925Y003375D01*
X010125Y003375D01*
X010125Y002575D01*
X010125Y002375D01*
X010925Y002375D01*
X010925Y002575D01*
X010125Y002575D01*
X010125Y002375D02*
X010125Y001575D01*
X010925Y001575D01*
X010925Y002375D01*
X010925Y002575D02*
X010925Y003375D01*
X010925Y003575D02*
X010925Y004375D01*
X010925Y004575D02*
X010925Y005375D01*
X010125Y005375D01*
X010125Y004575D02*
X010125Y004375D01*
X010125Y003575D02*
X010125Y003375D01*
X010125Y011450D02*
X010125Y012250D01*
X010125Y012450D01*
X010925Y012450D01*
X010925Y012250D01*
X010125Y012250D01*
X010125Y012450D02*
X010125Y013250D01*
X010925Y013250D01*
X010925Y013450D01*
X010125Y013450D01*
X010125Y014250D01*
X010925Y014250D01*
X010925Y014450D01*
X010125Y014450D01*
X010125Y015250D01*
X010925Y015250D01*
X010925Y014450D01*
X010925Y014250D02*
X010925Y013450D01*
X010925Y013250D02*
X010925Y012450D01*
X010925Y012250D02*
X010925Y011450D01*
X010125Y011450D01*
X010125Y013250D02*
X010125Y013450D01*
X010125Y014250D02*
X010125Y014450D01*
X009475Y017450D02*
X008575Y017450D01*
X008575Y018250D01*
X009475Y018250D01*
X009475Y017450D01*
X010025Y018550D02*
X010025Y019550D01*
X011025Y019550D01*
X011025Y018550D01*
X010025Y018550D01*
X018325Y018250D02*
X018325Y017450D01*
X019225Y017450D01*
X019225Y018250D01*
X018325Y018250D01*
X001275Y018550D02*
X000275Y018550D01*
X000275Y019550D01*
X001275Y019550D01*
X001275Y018550D01*
X001175Y015250D02*
X000375Y015250D01*
X000375Y014450D01*
X001175Y014450D01*
X001175Y014250D01*
X000375Y014250D01*
X000375Y013450D01*
X001175Y013450D01*
X001175Y013250D01*
X000375Y013250D01*
X000375Y012450D01*
X000375Y012250D01*
X001175Y012250D01*
X001175Y012450D01*
X000375Y012450D01*
X000375Y012250D02*
X000375Y011450D01*
X001175Y011450D01*
X001175Y012250D01*
X001175Y012450D02*
X001175Y013250D01*
X001175Y013450D02*
X001175Y014250D01*
X001175Y014450D02*
X001175Y015250D01*
X000375Y014450D02*
X000375Y014250D01*
X000375Y013450D02*
X000375Y013250D01*
X000275Y009675D02*
X000275Y008675D01*
X001275Y008675D01*
X001275Y009675D01*
X000275Y009675D01*
X000375Y005375D02*
X000375Y004575D01*
X001175Y004575D01*
X001175Y004375D01*
X000375Y004375D01*
X000375Y003575D01*
X001175Y003575D01*
X001175Y003375D01*
X000375Y003375D01*
X000375Y002575D01*
X000375Y002375D01*
X001175Y002375D01*
X001175Y002575D01*
X000375Y002575D01*
X000375Y002375D02*
X000375Y001575D01*
X001175Y001575D01*
X001175Y002375D01*
X001175Y002575D02*
X001175Y003375D01*
X001175Y003575D02*
X001175Y004375D01*
X001175Y004575D02*
X001175Y005375D01*
X000375Y005375D01*
X000375Y004575D02*
X000375Y004375D01*
X000375Y003575D02*
X000375Y003375D01*
D16*
X004240Y007020D02*
X004242Y007053D01*
X004248Y007086D01*
X004258Y007119D01*
X004271Y007149D01*
X004288Y007178D01*
X004309Y007205D01*
X004332Y007229D01*
X004358Y007250D01*
X004386Y007268D01*
X004417Y007282D01*
X004448Y007293D01*
X004481Y007300D01*
X004515Y007303D01*
X004548Y007302D01*
X004581Y007297D01*
X004614Y007288D01*
X004645Y007275D01*
X004674Y007259D01*
X004701Y007240D01*
X004726Y007217D01*
X004748Y007192D01*
X004767Y007164D01*
X004782Y007134D01*
X004794Y007103D01*
X004802Y007070D01*
X004806Y007037D01*
X004806Y007003D01*
X004802Y006970D01*
X004794Y006937D01*
X004782Y006906D01*
X004767Y006876D01*
X004748Y006848D01*
X004726Y006823D01*
X004701Y006800D01*
X004674Y006781D01*
X004645Y006765D01*
X004614Y006752D01*
X004581Y006743D01*
X004548Y006738D01*
X004515Y006737D01*
X004481Y006740D01*
X004448Y006747D01*
X004417Y006758D01*
X004386Y006772D01*
X004358Y006790D01*
X004332Y006811D01*
X004309Y006835D01*
X004288Y006862D01*
X004271Y006891D01*
X004258Y006921D01*
X004248Y006954D01*
X004242Y006987D01*
X004240Y007020D01*
X003575Y009075D02*
X003125Y009075D01*
X002825Y009075D02*
X002325Y009075D01*
X002325Y009675D01*
X002825Y009675D01*
X003125Y009675D02*
X003575Y009675D01*
X003575Y009075D01*
X003625Y009125D01*
X003675Y009175D01*
X003675Y009575D01*
X003625Y009625D01*
X003575Y009675D01*
X003625Y009625D02*
X003625Y009125D01*
X000350Y009975D02*
X019350Y009975D01*
X019125Y009675D02*
X019125Y009075D01*
X019175Y009125D01*
X019225Y009175D01*
X019225Y009575D01*
X019175Y009625D01*
X019125Y009675D01*
X018675Y009675D01*
X018375Y009675D02*
X017875Y009675D01*
X017875Y009075D01*
X018375Y009075D01*
X018675Y009075D02*
X019125Y009075D01*
X019175Y009125D02*
X019175Y009625D01*
X013990Y007020D02*
X013992Y007053D01*
X013998Y007086D01*
X014008Y007119D01*
X014021Y007149D01*
X014038Y007178D01*
X014059Y007205D01*
X014082Y007229D01*
X014108Y007250D01*
X014136Y007268D01*
X014167Y007282D01*
X014198Y007293D01*
X014231Y007300D01*
X014265Y007303D01*
X014298Y007302D01*
X014331Y007297D01*
X014364Y007288D01*
X014395Y007275D01*
X014424Y007259D01*
X014451Y007240D01*
X014476Y007217D01*
X014498Y007192D01*
X014517Y007164D01*
X014532Y007134D01*
X014544Y007103D01*
X014552Y007070D01*
X014556Y007037D01*
X014556Y007003D01*
X014552Y006970D01*
X014544Y006937D01*
X014532Y006906D01*
X014517Y006876D01*
X014498Y006848D01*
X014476Y006823D01*
X014451Y006800D01*
X014424Y006781D01*
X014395Y006765D01*
X014364Y006752D01*
X014331Y006743D01*
X014298Y006738D01*
X014265Y006737D01*
X014231Y006740D01*
X014198Y006747D01*
X014167Y006758D01*
X014136Y006772D01*
X014108Y006790D01*
X014082Y006811D01*
X014059Y006835D01*
X014038Y006862D01*
X014021Y006891D01*
X014008Y006921D01*
X013998Y006954D01*
X013992Y006987D01*
X013990Y007020D01*
X013325Y009075D02*
X012875Y009075D01*
X012575Y009075D02*
X012075Y009075D01*
X012075Y009675D01*
X012575Y009675D01*
X012875Y009675D02*
X013325Y009675D01*
X013325Y009075D01*
X013375Y009125D01*
X013425Y009175D01*
X013425Y009575D01*
X013375Y009625D01*
X013325Y009675D01*
X013375Y009625D02*
X013375Y009125D01*
X009475Y009175D02*
X009475Y009575D01*
X009425Y009625D01*
X009375Y009675D01*
X009375Y009075D01*
X009425Y009125D01*
X009475Y009175D01*
X009425Y009125D02*
X009425Y009625D01*
X009375Y009675D02*
X008925Y009675D01*
X008625Y009675D02*
X008125Y009675D01*
X008125Y009075D01*
X008625Y009075D01*
X008925Y009075D02*
X009375Y009075D01*
X004240Y016895D02*
X004242Y016928D01*
X004248Y016961D01*
X004258Y016994D01*
X004271Y017024D01*
X004288Y017053D01*
X004309Y017080D01*
X004332Y017104D01*
X004358Y017125D01*
X004386Y017143D01*
X004417Y017157D01*
X004448Y017168D01*
X004481Y017175D01*
X004515Y017178D01*
X004548Y017177D01*
X004581Y017172D01*
X004614Y017163D01*
X004645Y017150D01*
X004674Y017134D01*
X004701Y017115D01*
X004726Y017092D01*
X004748Y017067D01*
X004767Y017039D01*
X004782Y017009D01*
X004794Y016978D01*
X004802Y016945D01*
X004806Y016912D01*
X004806Y016878D01*
X004802Y016845D01*
X004794Y016812D01*
X004782Y016781D01*
X004767Y016751D01*
X004748Y016723D01*
X004726Y016698D01*
X004701Y016675D01*
X004674Y016656D01*
X004645Y016640D01*
X004614Y016627D01*
X004581Y016618D01*
X004548Y016613D01*
X004515Y016612D01*
X004481Y016615D01*
X004448Y016622D01*
X004417Y016633D01*
X004386Y016647D01*
X004358Y016665D01*
X004332Y016686D01*
X004309Y016710D01*
X004288Y016737D01*
X004271Y016766D01*
X004258Y016796D01*
X004248Y016829D01*
X004242Y016862D01*
X004240Y016895D01*
X003575Y018950D02*
X003125Y018950D01*
X002825Y018950D02*
X002325Y018950D01*
X002325Y019550D01*
X002825Y019550D01*
X003125Y019550D02*
X003575Y019550D01*
X003575Y018950D01*
X003625Y019000D01*
X003675Y019050D01*
X003675Y019450D01*
X003625Y019500D01*
X003575Y019550D01*
X003625Y019500D02*
X003625Y019000D01*
X008125Y018950D02*
X008625Y018950D01*
X008925Y018950D02*
X009375Y018950D01*
X009375Y019550D01*
X008925Y019550D01*
X008625Y019550D02*
X008125Y019550D01*
X008125Y018950D01*
X009375Y018950D02*
X009425Y019000D01*
X009475Y019050D01*
X009475Y019450D01*
X009425Y019500D01*
X009375Y019550D01*
X009425Y019500D02*
X009425Y019000D01*
X009850Y019475D02*
X009850Y000225D01*
X013990Y016895D02*
X013992Y016928D01*
X013998Y016961D01*
X014008Y016994D01*
X014021Y017024D01*
X014038Y017053D01*
X014059Y017080D01*
X014082Y017104D01*
X014108Y017125D01*
X014136Y017143D01*
X014167Y017157D01*
X014198Y017168D01*
X014231Y017175D01*
X014265Y017178D01*
X014298Y017177D01*
X014331Y017172D01*
X014364Y017163D01*
X014395Y017150D01*
X014424Y017134D01*
X014451Y017115D01*
X014476Y017092D01*
X014498Y017067D01*
X014517Y017039D01*
X014532Y017009D01*
X014544Y016978D01*
X014552Y016945D01*
X014556Y016912D01*
X014556Y016878D01*
X014552Y016845D01*
X014544Y016812D01*
X014532Y016781D01*
X014517Y016751D01*
X014498Y016723D01*
X014476Y016698D01*
X014451Y016675D01*
X014424Y016656D01*
X014395Y016640D01*
X014364Y016627D01*
X014331Y016618D01*
X014298Y016613D01*
X014265Y016612D01*
X014231Y016615D01*
X014198Y016622D01*
X014167Y016633D01*
X014136Y016647D01*
X014108Y016665D01*
X014082Y016686D01*
X014059Y016710D01*
X014038Y016737D01*
X014021Y016766D01*
X014008Y016796D01*
X013998Y016829D01*
X013992Y016862D01*
X013990Y016895D01*
X013325Y018950D02*
X012875Y018950D01*
X012575Y018950D02*
X012075Y018950D01*
X012075Y019550D01*
X012575Y019550D01*
X012875Y019550D02*
X013325Y019550D01*
X013325Y018950D01*
X013375Y019000D01*
X013425Y019050D01*
X013425Y019450D01*
X013375Y019500D01*
X013325Y019550D01*
X013375Y019500D02*
X013375Y019000D01*
X017875Y018950D02*
X018375Y018950D01*
X018675Y018950D02*
X019125Y018950D01*
X019125Y019550D01*
X018675Y019550D01*
X018375Y019550D02*
X017875Y019550D01*
X017875Y018950D01*
X019125Y018950D02*
X019175Y019000D01*
X019225Y019050D01*
X019225Y019450D01*
X019175Y019500D01*
X019125Y019550D01*
X019175Y019500D02*
X019175Y019000D01*
D17*
X018705Y018800D02*
X018775Y018660D01*
X018635Y018730D01*
X018525Y018660D02*
X018385Y018730D01*
X018455Y018800D02*
X018525Y018660D01*
X018305Y018880D01*
X018425Y019100D02*
X018425Y019400D01*
X018625Y019250D01*
X018425Y019100D01*
X018625Y019100D02*
X018625Y019250D01*
X018625Y019400D01*
X018555Y018880D02*
X018775Y018660D01*
X018725Y018350D02*
X018335Y018350D01*
X018225Y018240D01*
X018725Y018250D02*
X018725Y018350D01*
X019115Y018350D01*
X019225Y018240D01*
X018725Y017450D02*
X018725Y017250D01*
X018725Y016450D02*
X018725Y016250D01*
X018725Y015450D02*
X018725Y015250D01*
X018725Y014450D02*
X018725Y014250D01*
X018725Y013450D02*
X018725Y013250D01*
X018725Y012450D02*
X018725Y012250D01*
X018725Y011450D02*
X018725Y011250D01*
X018725Y010450D02*
X018725Y010350D01*
X019115Y010350D01*
X019225Y010460D01*
X018725Y010350D02*
X018335Y010350D01*
X018225Y010460D01*
X018425Y009525D02*
X018625Y009375D01*
X018425Y009225D01*
X018425Y009525D01*
X018625Y009525D02*
X018625Y009375D01*
X018625Y009225D01*
X018555Y009005D02*
X018775Y008785D01*
X018635Y008855D01*
X018705Y008925D02*
X018775Y008785D01*
X018525Y008785D02*
X018385Y008855D01*
X018455Y008925D02*
X018525Y008785D01*
X018305Y009005D01*
X018335Y008475D02*
X018225Y008365D01*
X018335Y008475D02*
X018725Y008475D01*
X019115Y008475D01*
X019225Y008365D01*
X018725Y008375D02*
X018725Y008475D01*
X018725Y007575D02*
X018725Y007375D01*
X018725Y006575D02*
X018725Y006375D01*
X018725Y005575D02*
X018725Y005375D01*
X018725Y004575D02*
X018725Y004375D01*
X018725Y003575D02*
X018725Y003375D01*
X018725Y002575D02*
X018725Y002375D01*
X018725Y001575D02*
X018725Y001375D01*
X018725Y000575D02*
X018725Y000475D01*
X019115Y000475D01*
X019225Y000585D01*
X018725Y000475D02*
X018335Y000475D01*
X018225Y000585D01*
X016225Y000725D02*
X016225Y001225D01*
X015773Y003520D02*
X013773Y003520D01*
X013773Y007520D01*
X014173Y007520D01*
X014373Y007520D01*
X014173Y007520D02*
X015773Y007520D01*
X015773Y003520D01*
X014058Y004885D02*
X014060Y004900D01*
X014066Y004913D01*
X014075Y004925D01*
X014086Y004934D01*
X014100Y004940D01*
X014115Y004942D01*
X014130Y004940D01*
X014143Y004934D01*
X014155Y004925D01*
X014164Y004914D01*
X014170Y004900D01*
X014172Y004885D01*
X014170Y004870D01*
X014164Y004857D01*
X014155Y004845D01*
X014144Y004836D01*
X014130Y004830D01*
X014115Y004828D01*
X014100Y004830D01*
X014087Y004836D01*
X014075Y004845D01*
X014066Y004856D01*
X014060Y004870D01*
X014058Y004885D01*
X013225Y001225D02*
X013225Y000725D01*
X009475Y000585D02*
X009365Y000475D01*
X008975Y000475D01*
X008975Y000575D01*
X008975Y000475D02*
X008585Y000475D01*
X008475Y000585D01*
X008975Y001375D02*
X008975Y001575D01*
X008975Y002375D02*
X008975Y002575D01*
X008975Y003375D02*
X008975Y003575D01*
X008975Y004375D02*
X008975Y004575D01*
X008975Y005375D02*
X008975Y005575D01*
X008975Y006375D02*
X008975Y006575D01*
X008975Y007375D02*
X008975Y007575D01*
X008975Y008375D02*
X008975Y008475D01*
X008585Y008475D01*
X008475Y008365D01*
X008975Y008475D02*
X009365Y008475D01*
X009475Y008365D01*
X009025Y008785D02*
X008955Y008925D01*
X008885Y008855D02*
X009025Y008785D01*
X008805Y009005D01*
X008705Y008925D02*
X008775Y008785D01*
X008635Y008855D01*
X008775Y008785D02*
X008555Y009005D01*
X008675Y009225D02*
X008675Y009525D01*
X008875Y009375D01*
X008675Y009225D01*
X008875Y009225D02*
X008875Y009375D01*
X008875Y009525D01*
X008975Y010350D02*
X008585Y010350D01*
X008475Y010460D01*
X008975Y010450D02*
X008975Y010350D01*
X009365Y010350D01*
X009475Y010460D01*
X008975Y011250D02*
X008975Y011450D01*
X008975Y012250D02*
X008975Y012450D01*
X008975Y013250D02*
X008975Y013450D01*
X008975Y014250D02*
X008975Y014450D01*
X008975Y015250D02*
X008975Y015450D01*
X008975Y016250D02*
X008975Y016450D01*
X008975Y017250D02*
X008975Y017450D01*
X008975Y018250D02*
X008975Y018350D01*
X008585Y018350D01*
X008475Y018240D01*
X008975Y018350D02*
X009365Y018350D01*
X009475Y018240D01*
X009025Y018660D02*
X008885Y018730D01*
X008955Y018800D02*
X009025Y018660D01*
X008805Y018880D01*
X008705Y018800D02*
X008775Y018660D01*
X008635Y018730D01*
X008775Y018660D02*
X008555Y018880D01*
X008675Y019100D02*
X008675Y019400D01*
X008875Y019250D01*
X008675Y019100D01*
X008875Y019100D02*
X008875Y019250D01*
X008875Y019400D01*
X007875Y019300D02*
X007875Y018800D01*
X007625Y018550D01*
X007125Y018550D01*
X006875Y018800D01*
X006625Y018550D01*
X006125Y018550D01*
X005875Y018800D01*
X005625Y018550D01*
X005125Y018550D01*
X004875Y018800D01*
X004625Y018550D01*
X004125Y018550D01*
X003875Y018800D01*
X003875Y019300D01*
X004125Y019550D01*
X004625Y019550D01*
X004875Y019300D01*
X005125Y019550D01*
X005625Y019550D01*
X005875Y019300D01*
X006125Y019550D01*
X006625Y019550D01*
X006875Y019300D01*
X007125Y019550D01*
X007625Y019550D01*
X007875Y019300D01*
X006023Y017395D02*
X004423Y017395D01*
X004623Y017395D01*
X004423Y017395D02*
X004023Y017395D01*
X004023Y013395D01*
X006023Y013395D01*
X006023Y017395D01*
X004308Y014760D02*
X004310Y014775D01*
X004316Y014788D01*
X004325Y014800D01*
X004336Y014809D01*
X004350Y014815D01*
X004365Y014817D01*
X004380Y014815D01*
X004393Y014809D01*
X004405Y014800D01*
X004414Y014789D01*
X004420Y014775D01*
X004422Y014760D01*
X004420Y014745D01*
X004414Y014732D01*
X004405Y014720D01*
X004394Y014711D01*
X004380Y014705D01*
X004365Y014703D01*
X004350Y014705D01*
X004337Y014711D01*
X004325Y014720D01*
X004316Y014731D01*
X004310Y014745D01*
X004308Y014760D01*
X003475Y011100D02*
X003475Y010600D01*
X004125Y009675D02*
X004625Y009675D01*
X004875Y009425D01*
X005125Y009675D01*
X005625Y009675D01*
X005875Y009425D01*
X006125Y009675D01*
X006625Y009675D01*
X006875Y009425D01*
X007125Y009675D01*
X007625Y009675D01*
X007875Y009425D01*
X007875Y008925D01*
X007625Y008675D01*
X007125Y008675D01*
X006875Y008925D01*
X006625Y008675D01*
X006125Y008675D01*
X005875Y008925D01*
X005625Y008675D01*
X005125Y008675D01*
X004875Y008925D01*
X004625Y008675D01*
X004125Y008675D01*
X003875Y008925D01*
X003875Y009425D01*
X004125Y009675D01*
X003155Y008925D02*
X003225Y008785D01*
X003085Y008855D01*
X002975Y008785D02*
X002835Y008855D01*
X002905Y008925D02*
X002975Y008785D01*
X002755Y009005D01*
X002875Y009225D02*
X002875Y009525D01*
X003075Y009375D01*
X002875Y009225D01*
X003075Y009225D02*
X003075Y009375D01*
X003075Y009525D01*
X003005Y009005D02*
X003225Y008785D01*
X004023Y007520D02*
X004423Y007520D01*
X004623Y007520D01*
X004423Y007520D02*
X006023Y007520D01*
X006023Y003520D01*
X004023Y003520D01*
X004023Y007520D01*
X004308Y004885D02*
X004310Y004900D01*
X004316Y004913D01*
X004325Y004925D01*
X004336Y004934D01*
X004350Y004940D01*
X004365Y004942D01*
X004380Y004940D01*
X004393Y004934D01*
X004405Y004925D01*
X004414Y004914D01*
X004420Y004900D01*
X004422Y004885D01*
X004420Y004870D01*
X004414Y004857D01*
X004405Y004845D01*
X004394Y004836D01*
X004380Y004830D01*
X004365Y004828D01*
X004350Y004830D01*
X004337Y004836D01*
X004325Y004845D01*
X004316Y004856D01*
X004310Y004870D01*
X004308Y004885D01*
X003475Y001225D02*
X003475Y000725D01*
X006475Y000725D02*
X006475Y001225D01*
X012585Y008855D02*
X012725Y008785D01*
X012655Y008925D01*
X012755Y009005D02*
X012975Y008785D01*
X012835Y008855D01*
X012905Y008925D02*
X012975Y008785D01*
X012725Y008785D02*
X012505Y009005D01*
X012625Y009225D02*
X012625Y009525D01*
X012825Y009375D01*
X012625Y009225D01*
X012825Y009225D02*
X012825Y009375D01*
X012825Y009525D01*
X013625Y009425D02*
X013625Y008925D01*
X013875Y008675D01*
X014375Y008675D01*
X014625Y008925D01*
X014875Y008675D01*
X015375Y008675D01*
X015625Y008925D01*
X015875Y008675D01*
X016375Y008675D01*
X016625Y008925D01*
X016875Y008675D01*
X017375Y008675D01*
X017625Y008925D01*
X017625Y009425D01*
X017375Y009675D01*
X016875Y009675D01*
X016625Y009425D01*
X016375Y009675D01*
X015875Y009675D01*
X015625Y009425D01*
X015375Y009675D01*
X014875Y009675D01*
X014625Y009425D01*
X014375Y009675D01*
X013875Y009675D01*
X013625Y009425D01*
X013225Y010600D02*
X013225Y011100D01*
X013773Y013395D02*
X013773Y017395D01*
X014173Y017395D01*
X014373Y017395D01*
X014173Y017395D02*
X015773Y017395D01*
X015773Y013395D01*
X013773Y013395D01*
X014058Y014760D02*
X014060Y014775D01*
X014066Y014788D01*
X014075Y014800D01*
X014086Y014809D01*
X014100Y014815D01*
X014115Y014817D01*
X014130Y014815D01*
X014143Y014809D01*
X014155Y014800D01*
X014164Y014789D01*
X014170Y014775D01*
X014172Y014760D01*
X014170Y014745D01*
X014164Y014732D01*
X014155Y014720D01*
X014144Y014711D01*
X014130Y014705D01*
X014115Y014703D01*
X014100Y014705D01*
X014087Y014711D01*
X014075Y014720D01*
X014066Y014731D01*
X014060Y014745D01*
X014058Y014760D01*
X016225Y011100D02*
X016225Y010600D01*
X016375Y018550D02*
X015875Y018550D01*
X015625Y018800D01*
X015375Y018550D01*
X014875Y018550D01*
X014625Y018800D01*
X014375Y018550D01*
X013875Y018550D01*
X013625Y018800D01*
X013625Y019300D01*
X013875Y019550D01*
X014375Y019550D01*
X014625Y019300D01*
X014875Y019550D01*
X015375Y019550D01*
X015625Y019300D01*
X015875Y019550D01*
X016375Y019550D01*
X016625Y019300D01*
X016875Y019550D01*
X017375Y019550D01*
X017625Y019300D01*
X017625Y018800D01*
X017375Y018550D01*
X016875Y018550D01*
X016625Y018800D01*
X016375Y018550D01*
X012975Y018660D02*
X012835Y018730D01*
X012905Y018800D02*
X012975Y018660D01*
X012755Y018880D01*
X012655Y018800D02*
X012725Y018660D01*
X012585Y018730D01*
X012725Y018660D02*
X012505Y018880D01*
X012625Y019100D02*
X012625Y019400D01*
X012825Y019250D01*
X012625Y019100D01*
X012825Y019100D02*
X012825Y019250D01*
X012825Y019400D01*
X006475Y011100D02*
X006475Y010600D01*
X003225Y018660D02*
X003085Y018730D01*
X003155Y018800D02*
X003225Y018660D01*
X003005Y018880D01*
X002905Y018800D02*
X002975Y018660D01*
X002835Y018730D01*
X002975Y018660D02*
X002755Y018880D01*
X002875Y019100D02*
X002875Y019400D01*
X003075Y019250D01*
X002875Y019100D01*
X003075Y019100D02*
X003075Y019250D01*
X003075Y019400D01*
D18*
X002275Y019300D02*
X002275Y018800D01*
X002025Y018550D01*
X000525Y018550D01*
X000275Y018300D01*
X000275Y017800D01*
X000525Y017550D01*
X000275Y017300D01*
X000275Y016800D01*
X000525Y016550D01*
X002025Y016550D01*
X002275Y016800D01*
X002275Y017300D01*
X002025Y017550D01*
X000525Y017550D01*
X000525Y018550D02*
X000275Y018800D01*
X000275Y019300D01*
X000525Y019550D01*
X002025Y019550D01*
X002275Y019300D01*
X002025Y018550D02*
X002275Y018300D01*
X002275Y017800D01*
X002025Y017550D01*
X002025Y015350D02*
X000525Y015350D01*
X000275Y015100D01*
X000275Y014600D01*
X000525Y014350D01*
X002025Y014350D01*
X002275Y014600D01*
X002275Y015100D01*
X002025Y015350D01*
X002025Y014350D02*
X002275Y014100D01*
X002275Y013600D01*
X002025Y013350D01*
X000525Y013350D01*
X000275Y013600D01*
X000275Y014100D01*
X000525Y014350D01*
X000525Y013350D02*
X000275Y013100D01*
X000275Y012600D01*
X000525Y012350D01*
X002025Y012350D01*
X002275Y012600D01*
X002275Y013100D01*
X002025Y013350D01*
X002025Y012350D02*
X002275Y012100D01*
X002275Y011600D01*
X002025Y011350D01*
X000525Y011350D01*
X000275Y011600D01*
X000275Y012100D01*
X000525Y012350D01*
X000525Y011350D02*
X000275Y011100D01*
X000275Y010600D01*
X000525Y010350D01*
X002025Y010350D01*
X002275Y010600D01*
X002275Y011100D01*
X002025Y011350D01*
X002025Y009675D02*
X000525Y009675D01*
X000275Y009425D01*
X000275Y008925D01*
X000525Y008675D01*
X002025Y008675D01*
X002275Y008425D01*
X002275Y007925D01*
X002025Y007675D01*
X002275Y007425D01*
X002275Y006925D01*
X002025Y006675D01*
X000525Y006675D01*
X000275Y006925D01*
X000275Y007425D01*
X000525Y007675D01*
X002025Y007675D01*
X002025Y008675D02*
X002275Y008925D01*
X002275Y009425D01*
X002025Y009675D01*
X000525Y008675D02*
X000275Y008425D01*
X000275Y007925D01*
X000525Y007675D01*
X000525Y005475D02*
X002025Y005475D01*
X002275Y005225D01*
X002275Y004725D01*
X002025Y004475D01*
X000525Y004475D01*
X000275Y004725D01*
X000275Y005225D01*
X000525Y005475D01*
X000525Y004475D02*
X000275Y004225D01*
X000275Y003725D01*
X000525Y003475D01*
X002025Y003475D01*
X002275Y003725D01*
X002275Y004225D01*
X002025Y004475D01*
X002025Y003475D02*
X002275Y003225D01*
X002275Y002725D01*
X002025Y002475D01*
X000525Y002475D01*
X000275Y002725D01*
X000275Y003225D01*
X000525Y003475D01*
X000525Y002475D02*
X000275Y002225D01*
X000275Y001725D01*
X000525Y001475D01*
X002025Y001475D01*
X002275Y001725D01*
X002275Y002225D01*
X002025Y002475D01*
X002025Y001475D02*
X002275Y001225D01*
X002275Y000725D01*
X002025Y000475D01*
X000525Y000475D01*
X000275Y000725D01*
X000275Y001225D01*
X000525Y001475D01*
X004145Y004565D02*
X004145Y006575D01*
X006005Y006575D02*
X006005Y004565D01*
X010025Y004725D02*
X010025Y005225D01*
X010275Y005475D01*
X011775Y005475D01*
X012025Y005225D01*
X012025Y004725D01*
X011775Y004475D01*
X010275Y004475D01*
X010025Y004725D01*
X010275Y004475D02*
X010025Y004225D01*
X010025Y003725D01*
X010275Y003475D01*
X011775Y003475D01*
X012025Y003725D01*
X012025Y004225D01*
X011775Y004475D01*
X011775Y003475D02*
X012025Y003225D01*
X012025Y002725D01*
X011775Y002475D01*
X010275Y002475D01*
X010025Y002725D01*
X010025Y003225D01*
X010275Y003475D01*
X010275Y002475D02*
X010025Y002225D01*
X010025Y001725D01*
X010275Y001475D01*
X011775Y001475D01*
X012025Y001725D01*
X012025Y002225D01*
X011775Y002475D01*
X011775Y001475D02*
X012025Y001225D01*
X012025Y000725D01*
X011775Y000475D01*
X010275Y000475D01*
X010025Y000725D01*
X010025Y001225D01*
X010275Y001475D01*
X013895Y004565D02*
X013895Y006575D01*
X015755Y006575D02*
X015755Y004565D01*
X012025Y006925D02*
X011775Y006675D01*
X010275Y006675D01*
X010025Y006925D01*
X010025Y007425D01*
X010275Y007675D01*
X011775Y007675D01*
X012025Y007425D01*
X012025Y006925D01*
X011775Y007675D02*
X012025Y007925D01*
X012025Y008425D01*
X011775Y008675D01*
X010275Y008675D01*
X010025Y008425D01*
X010025Y007925D01*
X010275Y007675D01*
X010275Y008675D02*
X010025Y008925D01*
X010025Y009425D01*
X010275Y009675D01*
X011775Y009675D01*
X012025Y009425D01*
X012025Y008925D01*
X011775Y008675D01*
X011775Y010350D02*
X010275Y010350D01*
X010025Y010600D01*
X010025Y011100D01*
X010275Y011350D01*
X011775Y011350D01*
X012025Y011600D01*
X012025Y012100D01*
X011775Y012350D01*
X010275Y012350D01*
X010025Y012600D01*
X010025Y013100D01*
X010275Y013350D01*
X011775Y013350D01*
X012025Y013600D01*
X012025Y014100D01*
X011775Y014350D01*
X012025Y014600D01*
X012025Y015100D01*
X011775Y015350D01*
X010275Y015350D01*
X010025Y015100D01*
X010025Y014600D01*
X010275Y014350D01*
X011775Y014350D01*
X011775Y013350D02*
X012025Y013100D01*
X012025Y012600D01*
X011775Y012350D01*
X011775Y011350D02*
X012025Y011100D01*
X012025Y010600D01*
X011775Y010350D01*
X010275Y011350D02*
X010025Y011600D01*
X010025Y012100D01*
X010275Y012350D01*
X010275Y013350D02*
X010025Y013600D01*
X010025Y014100D01*
X010275Y014350D01*
X010275Y016550D02*
X011775Y016550D01*
X012025Y016800D01*
X012025Y017300D01*
X011775Y017550D01*
X010275Y017550D01*
X010025Y017300D01*
X010025Y016800D01*
X010275Y016550D01*
X010275Y017550D02*
X010025Y017800D01*
X010025Y018300D01*
X010275Y018550D01*
X011775Y018550D01*
X012025Y018300D01*
X012025Y017800D01*
X011775Y017550D01*
X011775Y018550D02*
X012025Y018800D01*
X012025Y019300D01*
X011775Y019550D01*
X010275Y019550D01*
X010025Y019300D01*
X010025Y018800D01*
X010275Y018550D01*
X013895Y016450D02*
X013895Y014440D01*
X015755Y014440D02*
X015755Y016450D01*
X006005Y016450D02*
X006005Y014440D01*
X004145Y014440D02*
X004145Y016450D01*
D19*
X001275Y015962D02*
X001275Y015938D01*
X011025Y015962D02*
X011025Y015938D01*
X011025Y006087D02*
X011025Y006063D01*
X001275Y006087D02*
X001275Y006063D01*
M02*
