%
M48
M72
T01C0.0140
T02C0.0320
T03C0.0400
T04C0.0440
%
T01
X4875Y15550
X3975Y15250
X3775Y19250
X2075Y15950
X3975Y17250
X6175Y17750
X2475Y12850
X5875Y15550
X4875Y17750
X775Y16450
X5075Y15950
X5275Y13450
X7675Y12750
X4575Y15850
X5875Y18350
X3775Y17850
X2375Y18750
X2375Y18050
X4875Y5675
X3975Y5375
X3775Y9375
X2075Y6075
X3975Y7375
X6175Y7875
X2475Y2975
X5875Y5675
X4875Y7875
X775Y6575
X5075Y6075
X5275Y3575
X7675Y2875
X4575Y5975
X5875Y8475
X3775Y7975
X2375Y8875
X2375Y8175
X14625Y15550
X13725Y15250
X13525Y19250
X11825Y15950
X13725Y17250
X15925Y17750
X12225Y12850
X15625Y15550
X14625Y17750
X10525Y16450
X14825Y15950
X15025Y13450
X17425Y12750
X14325Y15850
X15625Y18350
X13525Y17850
X12125Y18750
X12125Y18050
X14625Y5675
X13725Y5375
X13525Y9375
X11825Y6075
X13725Y7375
X15925Y7875
X12225Y2975
X15625Y5675
X14625Y7875
X10525Y6575
X14825Y6075
X15025Y3575
X17425Y2875
X14325Y5975
X15625Y8475
X13525Y7975
X12125Y8875
X12125Y8175
T02
X3523Y16895
X3523Y15895
X3523Y14895
X3523Y13895
X6523Y13895
X6523Y14895
X6523Y15895
X6523Y16895
X3523Y7020
X3523Y6020
X3523Y5020
X3523Y4020
X6523Y4020
X6523Y5020
X6523Y6020
X6523Y7020
X13273Y16895
X13273Y15895
X13273Y14895
X13273Y13895
X16273Y13895
X16273Y14895
X16273Y15895
X16273Y16895
X13273Y7020
X13273Y6020
X13273Y5020
X13273Y4020
X16273Y4020
X16273Y5020
X16273Y6020
X16273Y7020
T03
X1775Y10850
X775Y10850
X1775Y11850
X775Y11850
X1775Y12850
X775Y12850
X1775Y13850
X775Y13850
X1775Y14850
X775Y14850
X775Y19050
X1775Y19050
X775Y18050
X1775Y18050
X775Y17050
X1775Y17050
X7375Y19050
X6375Y19050
X5375Y19050
X4375Y19050
X9025Y17850
X8925Y16850
X9025Y15850
X8925Y14850
X9025Y13850
X8925Y12850
X9025Y11850
X8925Y10850
X1775Y975
X775Y975
X1775Y1975
X775Y1975
X1775Y2975
X775Y2975
X1775Y3975
X775Y3975
X1775Y4975
X775Y4975
X775Y9175
X1775Y9175
X775Y8175
X1775Y8175
X775Y7175
X1775Y7175
X7375Y9175
X6375Y9175
X5375Y9175
X4375Y9175
X9025Y7975
X8925Y6975
X9025Y5975
X8925Y4975
X9025Y3975
X8925Y2975
X9025Y1975
X8925Y975
X11525Y10850
X10525Y10850
X11525Y11850
X10525Y11850
X11525Y12850
X10525Y12850
X11525Y13850
X10525Y13850
X11525Y14850
X10525Y14850
X10525Y19050
X11525Y19050
X10525Y18050
X11525Y18050
X10525Y17050
X11525Y17050
X17125Y19050
X16125Y19050
X15125Y19050
X14125Y19050
X18775Y17850
X18675Y16850
X18775Y15850
X18675Y14850
X18775Y13850
X18675Y12850
X18775Y11850
X18675Y10850
X11525Y975
X10525Y975
X11525Y1975
X10525Y1975
X11525Y2975
X10525Y2975
X11525Y3975
X10525Y3975
X11525Y4975
X10525Y4975
X10525Y9175
X11525Y9175
X10525Y8175
X11525Y8175
X10525Y7175
X11525Y7175
X17125Y9175
X16125Y9175
X15125Y9175
X14125Y9175
X18775Y7975
X18675Y6975
X18775Y5975
X18675Y4975
X18775Y3975
X18675Y2975
X18775Y1975
X18675Y975
T04
X3975Y10850
X4975Y10850
X5975Y10850
X3975Y975
X4975Y975
X5975Y975
X13725Y10850
X14725Y10850
X15725Y10850
X13725Y975
X14725Y975
X15725Y975
M30
