G75*
G70*
%OFA0B0*%
%FSLAX24Y24*%
%IPPOS*%
%LPD*%
%AMOC8*
5,1,8,0,0,1.08239X$1,22.5*
%
%ADD10C,0.0000*%
%ADD11OC8,0.0680*%
%ADD12R,0.0400X0.0400*%
%ADD13R,0.0906X0.0630*%
%ADD14OC8,0.0600*%
%ADD15R,0.0394X0.0433*%
%ADD16R,0.0240X0.0870*%
%ADD17C,0.0740*%
%ADD18R,0.0433X0.0394*%
%ADD19R,0.0740X0.0740*%
%ADD20C,0.0740*%
%ADD21C,0.0600*%
%ADD22C,0.0100*%
%ADD23C,0.0280*%
D10*
X000100Y000100D02*
X000100Y019721D01*
X019595Y019721D01*
X019595Y000100D01*
X000100Y000100D01*
D11*
X003523Y004020D03*
X003523Y005020D03*
X003523Y006020D03*
X003523Y007020D03*
X006523Y007020D03*
X006523Y006020D03*
X006523Y005020D03*
X006523Y004020D03*
X013273Y004020D03*
X013273Y005020D03*
X013273Y006020D03*
X013273Y007020D03*
X016273Y007020D03*
X016273Y006020D03*
X016273Y005020D03*
X016273Y004020D03*
X016273Y013895D03*
X016273Y014895D03*
X016273Y015895D03*
X016273Y016895D03*
X013273Y016895D03*
X013273Y015895D03*
X013273Y014895D03*
X013273Y013895D03*
X006523Y013895D03*
X006523Y014895D03*
X006523Y015895D03*
X006523Y016895D03*
X003523Y016895D03*
X003523Y015895D03*
X003523Y014895D03*
X003523Y013895D03*
D12*
X003325Y009375D03*
X002625Y009375D03*
X008425Y009375D03*
X009125Y009375D03*
X012375Y009375D03*
X013075Y009375D03*
X018175Y009375D03*
X018875Y009375D03*
X018875Y019250D03*
X018175Y019250D03*
X013075Y019250D03*
X012375Y019250D03*
X009125Y019250D03*
X008425Y019250D03*
X003325Y019250D03*
X002625Y019250D03*
D13*
X003835Y012550D03*
X006315Y012550D03*
X013585Y012550D03*
X016065Y012550D03*
X016065Y002675D03*
X013585Y002675D03*
X006315Y002675D03*
X003835Y002675D03*
D14*
X001775Y002975D03*
X001775Y003975D03*
X001775Y004975D03*
X000775Y004975D03*
X000775Y003975D03*
X000775Y002975D03*
X000775Y001975D03*
X000775Y000975D03*
X001775Y000975D03*
X001775Y001975D03*
X001775Y007175D03*
X001775Y008175D03*
X001775Y009175D03*
X000775Y009175D03*
X000775Y008175D03*
X000775Y007175D03*
X000775Y010850D03*
X000775Y011850D03*
X000775Y012850D03*
X000775Y013850D03*
X000775Y014850D03*
X001775Y014850D03*
X001775Y013850D03*
X001775Y012850D03*
X001775Y011850D03*
X001775Y010850D03*
X001775Y017050D03*
X001775Y018050D03*
X001775Y019050D03*
X000775Y019050D03*
X000775Y018050D03*
X000775Y017050D03*
X010525Y017050D03*
X010525Y018050D03*
X010525Y019050D03*
X011525Y019050D03*
X011525Y018050D03*
X011525Y017050D03*
X011525Y014850D03*
X011525Y013850D03*
X011525Y012850D03*
X011525Y011850D03*
X011525Y010850D03*
X010525Y010850D03*
X010525Y011850D03*
X010525Y012850D03*
X010525Y013850D03*
X010525Y014850D03*
X010525Y009175D03*
X010525Y008175D03*
X010525Y007175D03*
X011525Y007175D03*
X011525Y008175D03*
X011525Y009175D03*
X011525Y004975D03*
X011525Y003975D03*
X011525Y002975D03*
X010525Y002975D03*
X010525Y003975D03*
X010525Y004975D03*
X010525Y001975D03*
X010525Y000975D03*
X011525Y000975D03*
X011525Y001975D03*
D15*
X012625Y007640D03*
X012625Y008310D03*
X017425Y008310D03*
X017425Y007640D03*
X007675Y007640D03*
X007675Y008310D03*
X002875Y008310D03*
X002875Y007640D03*
X002875Y017515D03*
X002875Y018185D03*
X007675Y018185D03*
X007675Y017515D03*
X012625Y017515D03*
X012625Y018185D03*
X017425Y018185D03*
X017425Y017515D03*
D16*
X015575Y016770D03*
X015075Y016770D03*
X014575Y016770D03*
X014075Y016770D03*
X014075Y014120D03*
X014575Y014120D03*
X015075Y014120D03*
X015575Y014120D03*
X015575Y006895D03*
X015075Y006895D03*
X014575Y006895D03*
X014075Y006895D03*
X014075Y004245D03*
X014575Y004245D03*
X015075Y004245D03*
X015575Y004245D03*
X005825Y004245D03*
X005325Y004245D03*
X004825Y004245D03*
X004325Y004245D03*
X004325Y006895D03*
X004825Y006895D03*
X005325Y006895D03*
X005825Y006895D03*
X005825Y014120D03*
X005325Y014120D03*
X004825Y014120D03*
X004325Y014120D03*
X004325Y016770D03*
X004825Y016770D03*
X005325Y016770D03*
X005825Y016770D03*
D17*
X005975Y011220D02*
X005975Y010480D01*
X004975Y010480D02*
X004975Y011220D01*
X003975Y011220D02*
X003975Y010480D01*
X003975Y001345D02*
X003975Y000605D01*
X004975Y000605D02*
X004975Y001345D01*
X005975Y001345D02*
X005975Y000605D01*
X013725Y000605D02*
X013725Y001345D01*
X014725Y001345D02*
X014725Y000605D01*
X015725Y000605D02*
X015725Y001345D01*
X015725Y010480D02*
X015725Y011220D01*
X014725Y011220D02*
X014725Y010480D01*
X013725Y010480D02*
X013725Y011220D01*
D18*
X011360Y015950D03*
X010690Y015950D03*
X001610Y015950D03*
X000940Y015950D03*
X000940Y006075D03*
X001610Y006075D03*
X010690Y006075D03*
X011360Y006075D03*
D19*
X007375Y009175D03*
X017125Y009175D03*
X017125Y019050D03*
X007375Y019050D03*
D20*
X006375Y019050D03*
X005375Y019050D03*
X004375Y019050D03*
X014125Y019050D03*
X015125Y019050D03*
X016125Y019050D03*
X016125Y009175D03*
X015125Y009175D03*
X014125Y009175D03*
X006375Y009175D03*
X005375Y009175D03*
X004375Y009175D03*
D21*
X008625Y010850D02*
X009225Y010850D01*
X009325Y011850D02*
X008725Y011850D01*
X008625Y012850D02*
X009225Y012850D01*
X009325Y013850D02*
X008725Y013850D01*
X008625Y014850D02*
X009225Y014850D01*
X009325Y015850D02*
X008725Y015850D01*
X008625Y016850D02*
X009225Y016850D01*
X009325Y017850D02*
X008725Y017850D01*
X018375Y016850D02*
X018975Y016850D01*
X019075Y017850D02*
X018475Y017850D01*
X018475Y015850D02*
X019075Y015850D01*
X018975Y014850D02*
X018375Y014850D01*
X018475Y013850D02*
X019075Y013850D01*
X018975Y012850D02*
X018375Y012850D01*
X018475Y011850D02*
X019075Y011850D01*
X018975Y010850D02*
X018375Y010850D01*
X018475Y007975D02*
X019075Y007975D01*
X018975Y006975D02*
X018375Y006975D01*
X018475Y005975D02*
X019075Y005975D01*
X018975Y004975D02*
X018375Y004975D01*
X018475Y003975D02*
X019075Y003975D01*
X018975Y002975D02*
X018375Y002975D01*
X018475Y001975D02*
X019075Y001975D01*
X018975Y000975D02*
X018375Y000975D01*
X009325Y001975D02*
X008725Y001975D01*
X008625Y000975D02*
X009225Y000975D01*
X009225Y002975D02*
X008625Y002975D01*
X008725Y003975D02*
X009325Y003975D01*
X009225Y004975D02*
X008625Y004975D01*
X008725Y005975D02*
X009325Y005975D01*
X009225Y006975D02*
X008625Y006975D01*
X008725Y007975D02*
X009325Y007975D01*
D22*
X009075Y007975D02*
X009025Y007975D01*
X008975Y007975D01*
X007275Y006275D01*
X007275Y003575D01*
X006375Y002675D01*
X006315Y002675D01*
X006275Y002675D01*
X006275Y002475D01*
X005675Y001875D01*
X003675Y001875D01*
X003275Y001475D01*
X001575Y001475D01*
X001075Y001975D01*
X000775Y001975D01*
X000775Y002975D01*
X000775Y003975D01*
X000775Y004475D01*
X001975Y004475D01*
X002375Y004075D01*
X003475Y004075D01*
X003523Y004020D01*
X003575Y004075D01*
X003575Y004275D01*
X004075Y004775D01*
X004075Y005175D01*
X003975Y005275D01*
X003975Y005375D01*
X004575Y005575D02*
X004575Y005975D01*
X004875Y006275D02*
X005075Y006075D01*
X004875Y006275D02*
X004875Y006875D01*
X004825Y006895D01*
X004875Y006975D01*
X004875Y007875D01*
X004975Y008175D02*
X004775Y008175D01*
X004275Y007675D01*
X002875Y007675D01*
X002875Y007640D01*
X002875Y006075D01*
X001775Y004975D01*
X000875Y005075D02*
X000875Y006075D01*
X000940Y006075D01*
X000975Y006075D01*
X001775Y006875D01*
X001775Y007175D01*
X001575Y007675D02*
X002875Y007675D01*
X002775Y008175D02*
X002375Y008175D01*
X002375Y008575D02*
X002475Y008575D01*
X002675Y008775D01*
X003975Y008775D01*
X004175Y008575D01*
X004775Y008575D01*
X005375Y009175D01*
X005575Y009175D01*
X006175Y008575D01*
X006175Y008375D01*
X005875Y008075D01*
X005875Y006975D01*
X005825Y006895D01*
X005875Y006875D01*
X005875Y005675D01*
X005375Y005775D02*
X006075Y005075D01*
X006475Y005075D01*
X006523Y005020D01*
X007075Y005475D02*
X006575Y005975D01*
X006523Y006020D01*
X007075Y005475D02*
X007075Y003875D01*
X006575Y003375D01*
X005975Y003375D01*
X004775Y002175D01*
X003275Y002175D01*
X002975Y002475D01*
X001575Y002475D01*
X001275Y002775D01*
X001275Y003175D01*
X001775Y003675D01*
X001775Y003975D01*
X002475Y003475D02*
X003675Y003475D01*
X004375Y004175D01*
X004325Y004245D01*
X004275Y004275D01*
X004275Y006175D01*
X003475Y006975D01*
X003523Y007020D01*
X003975Y007275D02*
X003975Y007375D01*
X003975Y007275D02*
X004275Y006975D01*
X004325Y006895D01*
X005275Y006975D02*
X005275Y007875D01*
X004975Y008175D01*
X004875Y008375D02*
X004175Y008375D01*
X003775Y007975D01*
X002875Y008275D02*
X002875Y008310D01*
X002875Y008275D02*
X002775Y008175D01*
X002375Y008575D02*
X001975Y008175D01*
X001775Y008175D01*
X001575Y007675D02*
X001275Y007975D01*
X001275Y008375D01*
X000775Y008875D01*
X000775Y009175D01*
X000775Y008175D02*
X000775Y007875D01*
X001275Y007375D01*
X001275Y006975D01*
X000875Y006575D01*
X000775Y006575D01*
X001610Y006075D02*
X002075Y006075D01*
X000875Y005075D02*
X000775Y004975D01*
X000775Y004475D01*
X001775Y002975D02*
X001875Y002875D01*
X002475Y003475D01*
X002475Y002975D02*
X003075Y002975D01*
X003375Y003275D01*
X005575Y003275D01*
X005875Y003575D01*
X006075Y003575D01*
X006475Y003975D01*
X006523Y004020D01*
X005825Y004245D02*
X005775Y004275D01*
X005775Y004775D01*
X004875Y005675D01*
X004575Y005575D02*
X004775Y005375D01*
X004775Y004275D01*
X004825Y004245D01*
X005275Y004175D02*
X005325Y004245D01*
X005275Y004175D02*
X005275Y003575D01*
X003835Y002675D02*
X002075Y002675D01*
X001875Y002875D01*
X004975Y001175D02*
X004975Y000975D01*
X004975Y001175D02*
X005675Y001875D01*
X007675Y002875D02*
X007675Y004675D01*
X008975Y005975D01*
X009025Y005975D01*
X010625Y006075D02*
X010625Y005075D01*
X010525Y004975D01*
X010525Y004475D01*
X011725Y004475D01*
X012125Y004075D01*
X013225Y004075D01*
X013273Y004020D01*
X013325Y004075D01*
X013325Y004275D01*
X013825Y004775D01*
X013825Y005175D01*
X013725Y005275D01*
X013725Y005375D01*
X014325Y005575D02*
X014325Y005975D01*
X014025Y006175D02*
X013225Y006975D01*
X013273Y007020D01*
X013725Y007275D02*
X013725Y007375D01*
X013725Y007275D02*
X014025Y006975D01*
X014075Y006895D01*
X014575Y006895D02*
X014625Y006875D01*
X014625Y006275D01*
X014825Y006075D01*
X015125Y005775D02*
X015825Y005075D01*
X016225Y005075D01*
X016273Y005020D01*
X016825Y005475D02*
X016325Y005975D01*
X016273Y006020D01*
X015625Y005675D02*
X015625Y006875D01*
X015575Y006895D01*
X015625Y006975D01*
X015625Y008075D01*
X015925Y008375D01*
X015925Y008575D01*
X015325Y009175D01*
X015125Y009175D01*
X014525Y008575D01*
X013925Y008575D01*
X013725Y008775D01*
X012425Y008775D01*
X012225Y008575D01*
X012125Y008575D01*
X011725Y008175D01*
X011525Y008175D01*
X011325Y007675D02*
X012625Y007675D01*
X012625Y007640D01*
X012625Y006075D01*
X011525Y004975D01*
X011525Y003975D02*
X011525Y003675D01*
X011025Y003175D01*
X011025Y002775D01*
X011325Y002475D01*
X012725Y002475D01*
X013025Y002175D01*
X014525Y002175D01*
X015725Y003375D01*
X016325Y003375D01*
X016825Y003875D01*
X016825Y005475D01*
X017025Y006275D02*
X017025Y003575D01*
X016125Y002675D01*
X016065Y002675D01*
X016025Y002675D01*
X016025Y002475D01*
X015425Y001875D01*
X013425Y001875D01*
X013025Y001475D01*
X011325Y001475D01*
X010825Y001975D01*
X010525Y001975D01*
X010525Y002975D01*
X010525Y003975D01*
X010525Y004475D01*
X011525Y002975D02*
X011625Y002875D01*
X012225Y003475D01*
X013425Y003475D01*
X014125Y004175D01*
X014075Y004245D01*
X014025Y004275D01*
X014025Y006175D01*
X014325Y005575D02*
X014525Y005375D01*
X014525Y004275D01*
X014575Y004245D01*
X015025Y004175D02*
X015075Y004245D01*
X015025Y004175D02*
X015025Y003575D01*
X015325Y003275D02*
X015625Y003575D01*
X015825Y003575D01*
X016225Y003975D01*
X016273Y004020D01*
X015575Y004245D02*
X015525Y004275D01*
X015525Y004775D01*
X014625Y005675D01*
X015125Y005775D02*
X015125Y006875D01*
X015075Y006895D01*
X015025Y006975D01*
X015025Y007875D01*
X014725Y008175D01*
X014525Y008175D01*
X014025Y007675D01*
X012625Y007675D01*
X012525Y008175D02*
X012125Y008175D01*
X012525Y008175D02*
X012625Y008275D01*
X012625Y008310D01*
X012125Y008875D02*
X012325Y009075D01*
X012325Y009375D01*
X012375Y009375D01*
X012425Y009375D01*
X013075Y009375D02*
X013525Y009375D01*
X013925Y008375D02*
X013525Y007975D01*
X013925Y008375D02*
X014625Y008375D01*
X014725Y008475D01*
X015625Y008475D01*
X016125Y008275D02*
X016225Y008175D01*
X015925Y007875D01*
X016225Y008175D02*
X016825Y007575D01*
X016325Y007075D01*
X016273Y007020D01*
X016825Y007575D02*
X017425Y007575D01*
X017425Y007640D01*
X017425Y008310D02*
X017425Y008375D01*
X018125Y009075D01*
X018125Y009375D01*
X018175Y009375D01*
X018825Y009375D02*
X018875Y009375D01*
X018825Y009375D02*
X018825Y007975D01*
X018775Y007975D01*
X018725Y007975D01*
X017025Y006275D01*
X017425Y004675D02*
X017425Y002875D01*
X017425Y004675D02*
X018725Y005975D01*
X018775Y005975D01*
X016125Y008275D02*
X016125Y009175D01*
X014625Y007875D02*
X014625Y006975D01*
X014575Y006895D01*
X011825Y006075D02*
X011360Y006075D01*
X010725Y006075D02*
X010690Y006075D01*
X010625Y006075D01*
X010725Y006075D02*
X011525Y006875D01*
X011525Y007175D01*
X011325Y007675D02*
X011025Y007975D01*
X011025Y008375D01*
X010525Y008875D01*
X010525Y009175D01*
X010525Y008175D02*
X010525Y007875D01*
X011025Y007375D01*
X011025Y006975D01*
X010625Y006575D01*
X010525Y006575D01*
X009075Y007975D02*
X009075Y009375D01*
X009125Y009375D01*
X008425Y009375D02*
X008375Y009375D01*
X008375Y009075D01*
X007675Y008375D01*
X007675Y008310D01*
X007675Y007640D02*
X007675Y007575D01*
X007075Y007575D01*
X006475Y008175D01*
X006175Y007875D01*
X006475Y008175D02*
X006375Y008275D01*
X006375Y009175D01*
X005875Y008475D02*
X004975Y008475D01*
X004875Y008375D01*
X003775Y009375D02*
X003325Y009375D01*
X002675Y009375D02*
X002625Y009375D01*
X002575Y009375D01*
X002575Y009075D01*
X002375Y008875D01*
X001575Y011350D02*
X003275Y011350D01*
X003675Y011750D01*
X005675Y011750D01*
X006275Y012350D01*
X006275Y012550D01*
X006315Y012550D01*
X006375Y012550D01*
X007275Y013450D01*
X007275Y016150D01*
X008975Y017850D01*
X009025Y017850D01*
X009075Y017850D01*
X009075Y019250D01*
X009125Y019250D01*
X008425Y019250D02*
X008375Y019250D01*
X008375Y018950D01*
X007675Y018250D01*
X007675Y018185D01*
X007675Y017515D02*
X007675Y017450D01*
X007075Y017450D01*
X006475Y018050D01*
X006175Y017750D01*
X005875Y017950D02*
X006175Y018250D01*
X006175Y018450D01*
X005575Y019050D01*
X005375Y019050D01*
X004775Y018450D01*
X004175Y018450D01*
X003975Y018650D01*
X002675Y018650D01*
X002475Y018450D01*
X002375Y018450D01*
X001975Y018050D01*
X001775Y018050D01*
X001575Y017550D02*
X002875Y017550D01*
X002875Y017515D01*
X002875Y015950D01*
X001775Y014850D01*
X001975Y014350D02*
X000775Y014350D01*
X000775Y013850D01*
X000775Y012850D01*
X000775Y011850D01*
X001075Y011850D01*
X001575Y011350D01*
X001575Y012350D02*
X002975Y012350D01*
X003275Y012050D01*
X004775Y012050D01*
X005975Y013250D01*
X006575Y013250D01*
X007075Y013750D01*
X007075Y015350D01*
X006575Y015850D01*
X006523Y015895D01*
X005875Y015550D02*
X005875Y016750D01*
X005825Y016770D01*
X005875Y016850D01*
X005875Y017950D01*
X005875Y018350D02*
X004975Y018350D01*
X004875Y018250D01*
X004175Y018250D01*
X003775Y017850D01*
X004275Y017550D02*
X004775Y018050D01*
X004975Y018050D01*
X005275Y017750D01*
X005275Y016850D01*
X005325Y016770D01*
X005375Y016750D01*
X005375Y015650D01*
X006075Y014950D01*
X006475Y014950D01*
X006523Y014895D01*
X005775Y014650D02*
X005775Y014150D01*
X005825Y014120D01*
X005325Y014120D02*
X005275Y014050D01*
X005275Y013450D01*
X005575Y013150D02*
X005875Y013450D01*
X006075Y013450D01*
X006475Y013850D01*
X006523Y013895D01*
X005775Y014650D02*
X004875Y015550D01*
X004575Y015450D02*
X004575Y015850D01*
X004275Y016050D02*
X003475Y016850D01*
X003523Y016895D01*
X003975Y017150D02*
X003975Y017250D01*
X003975Y017150D02*
X004275Y016850D01*
X004325Y016770D01*
X004825Y016770D02*
X004875Y016750D01*
X004875Y016150D01*
X005075Y015950D01*
X004575Y015450D02*
X004775Y015250D01*
X004775Y014150D01*
X004825Y014120D01*
X004375Y014050D02*
X004325Y014120D01*
X004275Y014150D01*
X004275Y016050D01*
X003975Y015250D02*
X003975Y015150D01*
X004075Y015050D01*
X004075Y014650D01*
X003575Y014150D01*
X003575Y013950D01*
X003523Y013895D01*
X003475Y013950D01*
X002375Y013950D01*
X001975Y014350D01*
X001775Y013850D02*
X001775Y013550D01*
X001275Y013050D01*
X001275Y012650D01*
X001575Y012350D01*
X001875Y012750D02*
X001775Y012850D01*
X001875Y012750D02*
X002475Y013350D01*
X003675Y013350D01*
X004375Y014050D01*
X003375Y013150D02*
X005575Y013150D01*
X005675Y011750D02*
X004975Y011050D01*
X004975Y010850D01*
X003835Y012550D02*
X002075Y012550D01*
X001875Y012750D01*
X002475Y012850D02*
X003075Y012850D01*
X003375Y013150D01*
X000875Y014950D02*
X000775Y014850D01*
X000775Y014350D01*
X000875Y014950D02*
X000875Y015950D01*
X000940Y015950D01*
X000975Y015950D01*
X001775Y016750D01*
X001775Y017050D01*
X001575Y017550D02*
X001275Y017850D01*
X001275Y018250D01*
X000775Y018750D01*
X000775Y019050D01*
X000775Y018050D02*
X000775Y017750D01*
X001275Y017250D01*
X001275Y016850D01*
X000875Y016450D01*
X000775Y016450D01*
X001610Y015950D02*
X002075Y015950D01*
X002875Y017550D02*
X004275Y017550D01*
X004875Y017750D02*
X004875Y016850D01*
X004825Y016770D01*
X006375Y018150D02*
X006475Y018050D01*
X006375Y018150D02*
X006375Y019050D01*
X007075Y017450D02*
X006575Y016950D01*
X006523Y016895D01*
X007675Y014550D02*
X007675Y012750D01*
X007675Y014550D02*
X008975Y015850D01*
X009025Y015850D01*
X010625Y015950D02*
X010625Y014950D01*
X010525Y014850D01*
X010525Y014350D01*
X011725Y014350D01*
X012125Y013950D01*
X013225Y013950D01*
X013273Y013895D01*
X013325Y013950D01*
X013325Y014150D01*
X013825Y014650D01*
X013825Y015050D01*
X013725Y015150D01*
X013725Y015250D01*
X014325Y015450D02*
X014325Y015850D01*
X014025Y016050D02*
X013225Y016850D01*
X013273Y016895D01*
X013725Y017150D02*
X013725Y017250D01*
X013725Y017150D02*
X014025Y016850D01*
X014075Y016770D01*
X014575Y016770D02*
X014625Y016750D01*
X014625Y016150D01*
X014825Y015950D01*
X015125Y015650D02*
X015825Y014950D01*
X016225Y014950D01*
X016273Y014895D01*
X016825Y015350D02*
X016325Y015850D01*
X016273Y015895D01*
X015625Y015550D02*
X015625Y016750D01*
X015575Y016770D01*
X015625Y016850D01*
X015625Y017950D01*
X015925Y018250D01*
X015925Y018450D01*
X015325Y019050D01*
X015125Y019050D01*
X014525Y018450D01*
X013925Y018450D01*
X013725Y018650D01*
X012425Y018650D01*
X012225Y018450D01*
X012125Y018450D01*
X011725Y018050D01*
X011525Y018050D01*
X011325Y017550D02*
X012625Y017550D01*
X012625Y017515D01*
X012625Y015950D01*
X011525Y014850D01*
X011525Y013850D02*
X011525Y013550D01*
X011025Y013050D01*
X011025Y012650D01*
X011325Y012350D01*
X012725Y012350D01*
X013025Y012050D01*
X014525Y012050D01*
X015725Y013250D01*
X016325Y013250D01*
X016825Y013750D01*
X016825Y015350D01*
X017025Y016150D02*
X017025Y013450D01*
X016125Y012550D01*
X016065Y012550D01*
X016025Y012550D01*
X016025Y012350D01*
X015425Y011750D01*
X013425Y011750D01*
X013025Y011350D01*
X011325Y011350D01*
X010825Y011850D01*
X010525Y011850D01*
X010525Y012850D01*
X010525Y013850D01*
X010525Y014350D01*
X010625Y015950D02*
X010690Y015950D01*
X010725Y015950D01*
X011525Y016750D01*
X011525Y017050D01*
X011325Y017550D02*
X011025Y017850D01*
X011025Y018250D01*
X010525Y018750D01*
X010525Y019050D01*
X010525Y018050D02*
X010525Y017750D01*
X011025Y017250D01*
X011025Y016850D01*
X010625Y016450D01*
X010525Y016450D01*
X011360Y015950D02*
X011825Y015950D01*
X012625Y017550D02*
X014025Y017550D01*
X014525Y018050D01*
X014725Y018050D01*
X015025Y017750D01*
X015025Y016850D01*
X015075Y016770D01*
X015125Y016750D01*
X015125Y015650D01*
X014625Y015550D02*
X015525Y014650D01*
X015525Y014150D01*
X015575Y014120D01*
X015075Y014120D02*
X015025Y014050D01*
X015025Y013450D01*
X015325Y013150D02*
X015625Y013450D01*
X015825Y013450D01*
X016225Y013850D01*
X016273Y013895D01*
X015325Y013150D02*
X013125Y013150D01*
X012825Y012850D01*
X012225Y012850D01*
X011825Y012550D02*
X011625Y012750D01*
X011525Y012850D01*
X011625Y012750D02*
X012225Y013350D01*
X013425Y013350D01*
X014125Y014050D01*
X014075Y014120D01*
X014025Y014150D01*
X014025Y016050D01*
X014325Y015450D02*
X014525Y015250D01*
X014525Y014150D01*
X014575Y014120D01*
X013585Y012550D02*
X011825Y012550D01*
X014725Y011050D02*
X014725Y010850D01*
X014725Y011050D02*
X015425Y011750D01*
X017425Y012750D02*
X017425Y014550D01*
X018725Y015850D01*
X018775Y015850D01*
X017025Y016150D02*
X018725Y017850D01*
X018775Y017850D01*
X018825Y017850D01*
X018825Y019250D01*
X018875Y019250D01*
X018175Y019250D02*
X018125Y019250D01*
X018125Y018950D01*
X017425Y018250D01*
X017425Y018185D01*
X017425Y017515D02*
X017425Y017450D01*
X016825Y017450D01*
X016225Y018050D01*
X015925Y017750D01*
X016225Y018050D02*
X016125Y018150D01*
X016125Y019050D01*
X015625Y018350D02*
X014725Y018350D01*
X014625Y018250D01*
X013925Y018250D01*
X013525Y017850D01*
X012625Y018150D02*
X012625Y018185D01*
X012625Y018150D02*
X012525Y018050D01*
X012125Y018050D01*
X012125Y018750D02*
X012325Y018950D01*
X012325Y019250D01*
X012375Y019250D01*
X012425Y019250D01*
X013075Y019250D02*
X013525Y019250D01*
X014625Y017750D02*
X014625Y016850D01*
X014575Y016770D01*
X016273Y016895D02*
X016325Y016950D01*
X016825Y017450D01*
X007075Y007575D02*
X006575Y007075D01*
X006523Y007020D01*
X005375Y006875D02*
X005375Y005775D01*
X005375Y006875D02*
X005325Y006895D01*
X005275Y006975D01*
X011625Y002875D02*
X011825Y002675D01*
X013585Y002675D01*
X013125Y003275D02*
X015325Y003275D01*
X015425Y001875D02*
X014725Y001175D01*
X014725Y000975D01*
X012825Y002975D02*
X013125Y003275D01*
X012825Y002975D02*
X012225Y002975D01*
X002775Y018050D02*
X002375Y018050D01*
X002775Y018050D02*
X002875Y018150D01*
X002875Y018185D01*
X002375Y018750D02*
X002575Y018950D01*
X002575Y019250D01*
X002625Y019250D01*
X002675Y019250D01*
X003325Y019250D02*
X003775Y019250D01*
D23*
X003775Y019250D03*
X003775Y017850D03*
X003975Y017250D03*
X004875Y017750D03*
X005875Y018350D03*
X006175Y017750D03*
X005075Y015950D03*
X004875Y015550D03*
X004575Y015850D03*
X003975Y015250D03*
X005875Y015550D03*
X005275Y013450D03*
X007675Y012750D03*
X010525Y016450D03*
X011825Y015950D03*
X013725Y015250D03*
X014325Y015850D03*
X014625Y015550D03*
X014825Y015950D03*
X015625Y015550D03*
X013725Y017250D03*
X013525Y017850D03*
X014625Y017750D03*
X015625Y018350D03*
X015925Y017750D03*
X013525Y019250D03*
X012125Y018750D03*
X012125Y018050D03*
X015025Y013450D03*
X017425Y012750D03*
X013525Y009375D03*
X013525Y007975D03*
X013725Y007375D03*
X014625Y007875D03*
X015625Y008475D03*
X015925Y007875D03*
X014825Y006075D03*
X014625Y005675D03*
X014325Y005975D03*
X013725Y005375D03*
X011825Y006075D03*
X010525Y006575D03*
X012125Y008175D03*
X012125Y008875D03*
X015625Y005675D03*
X015025Y003575D03*
X017425Y002875D03*
X012225Y002975D03*
X007675Y002875D03*
X005275Y003575D03*
X003975Y005375D03*
X004575Y005975D03*
X004875Y005675D03*
X005075Y006075D03*
X005875Y005675D03*
X003975Y007375D03*
X003775Y007975D03*
X004875Y007875D03*
X005875Y008475D03*
X006175Y007875D03*
X003775Y009375D03*
X002375Y008875D03*
X002375Y008175D03*
X000775Y006575D03*
X002075Y006075D03*
X002475Y002975D03*
X002475Y012850D03*
X002075Y015950D03*
X000775Y016450D03*
X002375Y018050D03*
X002375Y018750D03*
X012225Y012850D03*
M02*
