G75*
%MOIN*%
%OFA0B0*%
%FSLAX24Y24*%
%IPPOS*%
%LPD*%
%AMOC8*
5,1,8,0,0,1.08239X$1,22.5*
%
%ADD10C,0.0000*%
%ADD11OC8,0.0680*%
%ADD12R,0.0500X0.1000*%
%ADD13C,0.0740*%
%ADD14R,0.0354X0.0315*%
%ADD15R,0.0327X0.0248*%
%ADD16R,0.0984X0.0197*%
%ADD17R,0.0984X0.0787*%
%ADD18R,0.0551X0.0138*%
%ADD19R,0.0748X0.0709*%
%ADD20R,0.0870X0.0240*%
%ADD21R,0.0551X0.0394*%
%ADD22R,0.0433X0.0394*%
%ADD23R,0.0400X0.0400*%
%ADD24R,0.0394X0.0433*%
%ADD25OC8,0.0600*%
%ADD26R,0.0256X0.0197*%
%ADD27R,0.0197X0.0256*%
%ADD28R,0.0906X0.0630*%
%ADD29R,0.1024X0.0630*%
%ADD30C,0.0080*%
%ADD31C,0.0260*%
%ADD32R,0.0356X0.0356*%
D10*
X000778Y000102D02*
X000778Y019723D01*
X020273Y019723D01*
X020273Y000102D01*
X000778Y000102D01*
X002351Y001485D02*
X002353Y001511D01*
X002359Y001537D01*
X002369Y001562D01*
X002382Y001585D01*
X002398Y001605D01*
X002418Y001623D01*
X002440Y001638D01*
X002463Y001650D01*
X002489Y001658D01*
X002515Y001662D01*
X002541Y001662D01*
X002567Y001658D01*
X002593Y001650D01*
X002617Y001638D01*
X002638Y001623D01*
X002658Y001605D01*
X002674Y001585D01*
X002687Y001562D01*
X002697Y001537D01*
X002703Y001511D01*
X002705Y001485D01*
X002703Y001459D01*
X002697Y001433D01*
X002687Y001408D01*
X002674Y001385D01*
X002658Y001365D01*
X002638Y001347D01*
X002616Y001332D01*
X002593Y001320D01*
X002567Y001312D01*
X002541Y001308D01*
X002515Y001308D01*
X002489Y001312D01*
X002463Y001320D01*
X002439Y001332D01*
X002418Y001347D01*
X002398Y001365D01*
X002382Y001385D01*
X002369Y001408D01*
X002359Y001433D01*
X002353Y001459D01*
X002351Y001485D01*
X002351Y003218D02*
X002353Y003244D01*
X002359Y003270D01*
X002369Y003295D01*
X002382Y003318D01*
X002398Y003338D01*
X002418Y003356D01*
X002440Y003371D01*
X002463Y003383D01*
X002489Y003391D01*
X002515Y003395D01*
X002541Y003395D01*
X002567Y003391D01*
X002593Y003383D01*
X002617Y003371D01*
X002638Y003356D01*
X002658Y003338D01*
X002674Y003318D01*
X002687Y003295D01*
X002697Y003270D01*
X002703Y003244D01*
X002705Y003218D01*
X002703Y003192D01*
X002697Y003166D01*
X002687Y003141D01*
X002674Y003118D01*
X002658Y003098D01*
X002638Y003080D01*
X002616Y003065D01*
X002593Y003053D01*
X002567Y003045D01*
X002541Y003041D01*
X002515Y003041D01*
X002489Y003045D01*
X002463Y003053D01*
X002439Y003065D01*
X002418Y003080D01*
X002398Y003098D01*
X002382Y003118D01*
X002369Y003141D01*
X002359Y003166D01*
X002353Y003192D01*
X002351Y003218D01*
X002351Y011485D02*
X002353Y011511D01*
X002359Y011537D01*
X002369Y011562D01*
X002382Y011585D01*
X002398Y011605D01*
X002418Y011623D01*
X002440Y011638D01*
X002463Y011650D01*
X002489Y011658D01*
X002515Y011662D01*
X002541Y011662D01*
X002567Y011658D01*
X002593Y011650D01*
X002617Y011638D01*
X002638Y011623D01*
X002658Y011605D01*
X002674Y011585D01*
X002687Y011562D01*
X002697Y011537D01*
X002703Y011511D01*
X002705Y011485D01*
X002703Y011459D01*
X002697Y011433D01*
X002687Y011408D01*
X002674Y011385D01*
X002658Y011365D01*
X002638Y011347D01*
X002616Y011332D01*
X002593Y011320D01*
X002567Y011312D01*
X002541Y011308D01*
X002515Y011308D01*
X002489Y011312D01*
X002463Y011320D01*
X002439Y011332D01*
X002418Y011347D01*
X002398Y011365D01*
X002382Y011385D01*
X002369Y011408D01*
X002359Y011433D01*
X002353Y011459D01*
X002351Y011485D01*
X002351Y013218D02*
X002353Y013244D01*
X002359Y013270D01*
X002369Y013295D01*
X002382Y013318D01*
X002398Y013338D01*
X002418Y013356D01*
X002440Y013371D01*
X002463Y013383D01*
X002489Y013391D01*
X002515Y013395D01*
X002541Y013395D01*
X002567Y013391D01*
X002593Y013383D01*
X002617Y013371D01*
X002638Y013356D01*
X002658Y013338D01*
X002674Y013318D01*
X002687Y013295D01*
X002697Y013270D01*
X002703Y013244D01*
X002705Y013218D01*
X002703Y013192D01*
X002697Y013166D01*
X002687Y013141D01*
X002674Y013118D01*
X002658Y013098D01*
X002638Y013080D01*
X002616Y013065D01*
X002593Y013053D01*
X002567Y013045D01*
X002541Y013041D01*
X002515Y013041D01*
X002489Y013045D01*
X002463Y013053D01*
X002439Y013065D01*
X002418Y013080D01*
X002398Y013098D01*
X002382Y013118D01*
X002369Y013141D01*
X002359Y013166D01*
X002353Y013192D01*
X002351Y013218D01*
X012251Y013218D02*
X012253Y013244D01*
X012259Y013270D01*
X012269Y013295D01*
X012282Y013318D01*
X012298Y013338D01*
X012318Y013356D01*
X012340Y013371D01*
X012363Y013383D01*
X012389Y013391D01*
X012415Y013395D01*
X012441Y013395D01*
X012467Y013391D01*
X012493Y013383D01*
X012517Y013371D01*
X012538Y013356D01*
X012558Y013338D01*
X012574Y013318D01*
X012587Y013295D01*
X012597Y013270D01*
X012603Y013244D01*
X012605Y013218D01*
X012603Y013192D01*
X012597Y013166D01*
X012587Y013141D01*
X012574Y013118D01*
X012558Y013098D01*
X012538Y013080D01*
X012516Y013065D01*
X012493Y013053D01*
X012467Y013045D01*
X012441Y013041D01*
X012415Y013041D01*
X012389Y013045D01*
X012363Y013053D01*
X012339Y013065D01*
X012318Y013080D01*
X012298Y013098D01*
X012282Y013118D01*
X012269Y013141D01*
X012259Y013166D01*
X012253Y013192D01*
X012251Y013218D01*
X012251Y011485D02*
X012253Y011511D01*
X012259Y011537D01*
X012269Y011562D01*
X012282Y011585D01*
X012298Y011605D01*
X012318Y011623D01*
X012340Y011638D01*
X012363Y011650D01*
X012389Y011658D01*
X012415Y011662D01*
X012441Y011662D01*
X012467Y011658D01*
X012493Y011650D01*
X012517Y011638D01*
X012538Y011623D01*
X012558Y011605D01*
X012574Y011585D01*
X012587Y011562D01*
X012597Y011537D01*
X012603Y011511D01*
X012605Y011485D01*
X012603Y011459D01*
X012597Y011433D01*
X012587Y011408D01*
X012574Y011385D01*
X012558Y011365D01*
X012538Y011347D01*
X012516Y011332D01*
X012493Y011320D01*
X012467Y011312D01*
X012441Y011308D01*
X012415Y011308D01*
X012389Y011312D01*
X012363Y011320D01*
X012339Y011332D01*
X012318Y011347D01*
X012298Y011365D01*
X012282Y011385D01*
X012269Y011408D01*
X012259Y011433D01*
X012253Y011459D01*
X012251Y011485D01*
X012251Y003218D02*
X012253Y003244D01*
X012259Y003270D01*
X012269Y003295D01*
X012282Y003318D01*
X012298Y003338D01*
X012318Y003356D01*
X012340Y003371D01*
X012363Y003383D01*
X012389Y003391D01*
X012415Y003395D01*
X012441Y003395D01*
X012467Y003391D01*
X012493Y003383D01*
X012517Y003371D01*
X012538Y003356D01*
X012558Y003338D01*
X012574Y003318D01*
X012587Y003295D01*
X012597Y003270D01*
X012603Y003244D01*
X012605Y003218D01*
X012603Y003192D01*
X012597Y003166D01*
X012587Y003141D01*
X012574Y003118D01*
X012558Y003098D01*
X012538Y003080D01*
X012516Y003065D01*
X012493Y003053D01*
X012467Y003045D01*
X012441Y003041D01*
X012415Y003041D01*
X012389Y003045D01*
X012363Y003053D01*
X012339Y003065D01*
X012318Y003080D01*
X012298Y003098D01*
X012282Y003118D01*
X012269Y003141D01*
X012259Y003166D01*
X012253Y003192D01*
X012251Y003218D01*
X012251Y001485D02*
X012253Y001511D01*
X012259Y001537D01*
X012269Y001562D01*
X012282Y001585D01*
X012298Y001605D01*
X012318Y001623D01*
X012340Y001638D01*
X012363Y001650D01*
X012389Y001658D01*
X012415Y001662D01*
X012441Y001662D01*
X012467Y001658D01*
X012493Y001650D01*
X012517Y001638D01*
X012538Y001623D01*
X012558Y001605D01*
X012574Y001585D01*
X012587Y001562D01*
X012597Y001537D01*
X012603Y001511D01*
X012605Y001485D01*
X012603Y001459D01*
X012597Y001433D01*
X012587Y001408D01*
X012574Y001385D01*
X012558Y001365D01*
X012538Y001347D01*
X012516Y001332D01*
X012493Y001320D01*
X012467Y001312D01*
X012441Y001308D01*
X012415Y001308D01*
X012389Y001312D01*
X012363Y001320D01*
X012339Y001332D01*
X012318Y001347D01*
X012298Y001365D01*
X012282Y001385D01*
X012269Y001408D01*
X012259Y001433D01*
X012253Y001459D01*
X012251Y001485D01*
D11*
X015083Y003500D03*
X016083Y003500D03*
X017083Y003500D03*
X018083Y003500D03*
X018083Y006500D03*
X017083Y006500D03*
X016083Y006500D03*
X015083Y006500D03*
X015083Y013500D03*
X016083Y013500D03*
X017083Y013500D03*
X018083Y013500D03*
X018083Y016500D03*
X017083Y016500D03*
X016083Y016500D03*
X015083Y016500D03*
X008183Y016500D03*
X007183Y016500D03*
X006183Y016500D03*
X005183Y016500D03*
X005183Y013500D03*
X006183Y013500D03*
X007183Y013500D03*
X008183Y013500D03*
X008183Y006500D03*
X007183Y006500D03*
X006183Y006500D03*
X005183Y006500D03*
X005183Y003500D03*
X006183Y003500D03*
X007183Y003500D03*
X008183Y003500D03*
D12*
X008428Y009052D03*
X007428Y009052D03*
X006428Y009052D03*
X005428Y009052D03*
X004428Y009052D03*
X004428Y019052D03*
X005428Y019052D03*
X006428Y019052D03*
X007428Y019052D03*
X008428Y019052D03*
X014328Y019052D03*
X015328Y019052D03*
X016328Y019052D03*
X017328Y019052D03*
X018328Y019052D03*
X018328Y009052D03*
X017328Y009052D03*
X016328Y009052D03*
X015328Y009052D03*
X014328Y009052D03*
D13*
X014728Y010702D03*
X015728Y010802D03*
X016728Y010702D03*
X019678Y010752D03*
X019778Y011752D03*
X019678Y012752D03*
X019778Y013752D03*
X019678Y014752D03*
X019778Y015752D03*
X019678Y016752D03*
X019778Y017752D03*
X019678Y018752D03*
X019678Y008752D03*
X019778Y007752D03*
X019678Y006752D03*
X019778Y005752D03*
X019678Y004752D03*
X019778Y003752D03*
X019678Y002752D03*
X019778Y001752D03*
X019678Y000752D03*
X016728Y000702D03*
X015728Y000802D03*
X014728Y000702D03*
X009878Y001752D03*
X009778Y000752D03*
X009778Y002752D03*
X009878Y003752D03*
X009778Y004752D03*
X009878Y005752D03*
X009778Y006752D03*
X009878Y007752D03*
X009778Y008752D03*
X009778Y010752D03*
X009878Y011752D03*
X009778Y012752D03*
X009878Y013752D03*
X009778Y014752D03*
X009878Y015752D03*
X009778Y016752D03*
X009878Y017752D03*
X009778Y018752D03*
X005828Y010802D03*
X006828Y010702D03*
X004828Y010702D03*
X005828Y000802D03*
X006828Y000702D03*
X004828Y000702D03*
D14*
X006934Y007278D03*
X006934Y008026D03*
X007761Y007652D03*
X006934Y017278D03*
X006934Y018026D03*
X007761Y017652D03*
X016834Y018026D03*
X016834Y017278D03*
X017661Y017652D03*
X016834Y008026D03*
X016834Y007278D03*
X017661Y007652D03*
D15*
X018328Y008104D03*
X018328Y007199D03*
X018328Y017199D03*
X018328Y018104D03*
X008428Y018104D03*
X008428Y017199D03*
X008428Y008104D03*
X008428Y007199D03*
D16*
X003512Y002981D03*
X003512Y002667D03*
X003512Y002352D03*
X003512Y002037D03*
X003512Y001722D03*
X003512Y011722D03*
X003512Y012037D03*
X003512Y012352D03*
X003512Y012667D03*
X003512Y012981D03*
X013412Y012981D03*
X013412Y012667D03*
X013412Y012352D03*
X013412Y012037D03*
X013412Y011722D03*
X013412Y002981D03*
X013412Y002667D03*
X013412Y002352D03*
X013412Y002037D03*
X013412Y001722D03*
D17*
X013412Y000580D03*
X011246Y000580D03*
X011246Y004123D03*
X013412Y004123D03*
X013412Y010580D03*
X011246Y010580D03*
X011246Y014123D03*
X013412Y014123D03*
X003512Y014123D03*
X001346Y014123D03*
X001346Y010580D03*
X003512Y010580D03*
X003512Y004123D03*
X001346Y004123D03*
X001346Y000580D03*
X003512Y000580D03*
D18*
X002271Y001840D03*
X002271Y002096D03*
X002271Y002352D03*
X002271Y002607D03*
X002271Y002863D03*
X002271Y011840D03*
X002271Y012096D03*
X002271Y012352D03*
X002271Y012607D03*
X002271Y012863D03*
X012171Y012863D03*
X012171Y012607D03*
X012171Y012352D03*
X012171Y012096D03*
X012171Y011840D03*
X012171Y002863D03*
X012171Y002607D03*
X012171Y002352D03*
X012171Y002096D03*
X012171Y001840D03*
D19*
X011128Y000777D03*
X011128Y003926D03*
X011128Y010777D03*
X011128Y013926D03*
X001228Y013926D03*
X001228Y010777D03*
X001228Y003926D03*
X001228Y000777D03*
D20*
X005498Y004302D03*
X005498Y004802D03*
X005498Y005302D03*
X005498Y005802D03*
X008148Y005802D03*
X008148Y005302D03*
X008148Y004802D03*
X008148Y004302D03*
X015398Y004302D03*
X015398Y004802D03*
X015398Y005302D03*
X015398Y005802D03*
X018048Y005802D03*
X018048Y005302D03*
X018048Y004802D03*
X018048Y004302D03*
X018048Y014302D03*
X018048Y014802D03*
X018048Y015302D03*
X018048Y015802D03*
X015398Y015802D03*
X015398Y015302D03*
X015398Y014802D03*
X015398Y014302D03*
X008148Y014302D03*
X008148Y014802D03*
X008148Y015302D03*
X008148Y015802D03*
X005498Y015802D03*
X005498Y015302D03*
X005498Y014802D03*
X005498Y014302D03*
D21*
X005761Y012626D03*
X005761Y011878D03*
X004894Y012252D03*
X005761Y002626D03*
X005761Y001878D03*
X004894Y002252D03*
X014794Y002252D03*
X015661Y002626D03*
X015661Y001878D03*
X015661Y011878D03*
X015661Y012626D03*
X014794Y012252D03*
D22*
X014628Y011917D03*
X014628Y012586D03*
X015528Y012586D03*
X015528Y011917D03*
X015528Y002586D03*
X015528Y001917D03*
X014628Y001917D03*
X014628Y002586D03*
X005628Y002586D03*
X005628Y001917D03*
X004728Y001917D03*
X004728Y002586D03*
X004728Y011917D03*
X004728Y012586D03*
X005628Y012586D03*
X005628Y011917D03*
D23*
X007928Y011302D03*
X007928Y010602D03*
X008828Y010602D03*
X008828Y011302D03*
X017828Y011302D03*
X017828Y010602D03*
X018728Y010602D03*
X018728Y011302D03*
X018728Y001302D03*
X018728Y000602D03*
X017828Y000602D03*
X017828Y001302D03*
X008828Y001302D03*
X008828Y000602D03*
X007928Y000602D03*
X007928Y001302D03*
D24*
X003228Y008617D03*
X003228Y009286D03*
X003228Y018617D03*
X003228Y019286D03*
X013128Y019286D03*
X013128Y018617D03*
X013128Y009286D03*
X013128Y008617D03*
D25*
X012328Y009052D03*
X012328Y008052D03*
X012328Y007052D03*
X011328Y007052D03*
X011328Y008052D03*
X011328Y009052D03*
X011328Y017052D03*
X011328Y018052D03*
X011328Y019052D03*
X012328Y019052D03*
X012328Y018052D03*
X012328Y017052D03*
X002428Y017052D03*
X002428Y018052D03*
X002428Y019052D03*
X001428Y019052D03*
X001428Y018052D03*
X001428Y017052D03*
X001428Y009052D03*
X002428Y009052D03*
X002428Y008052D03*
X002428Y007052D03*
X001428Y007052D03*
X001428Y008052D03*
D26*
X003781Y005924D03*
X003781Y005609D03*
X003781Y005294D03*
X003781Y004979D03*
X004274Y004979D03*
X004274Y005294D03*
X004274Y005609D03*
X004274Y005924D03*
X006481Y002724D03*
X006481Y002409D03*
X006481Y002094D03*
X006481Y001779D03*
X006974Y001779D03*
X006974Y002094D03*
X006974Y002409D03*
X006974Y002724D03*
X013681Y004979D03*
X013681Y005294D03*
X013681Y005609D03*
X013681Y005924D03*
X014174Y005924D03*
X014174Y005609D03*
X014174Y005294D03*
X014174Y004979D03*
X016381Y002724D03*
X016381Y002409D03*
X016381Y002094D03*
X016381Y001779D03*
X016874Y001779D03*
X016874Y002094D03*
X016874Y002409D03*
X016874Y002724D03*
X016874Y011779D03*
X016874Y012094D03*
X016874Y012409D03*
X016874Y012724D03*
X016381Y012724D03*
X016381Y012409D03*
X016381Y012094D03*
X016381Y011779D03*
X014174Y014979D03*
X014174Y015294D03*
X014174Y015609D03*
X014174Y015924D03*
X013681Y015924D03*
X013681Y015609D03*
X013681Y015294D03*
X013681Y014979D03*
X006974Y012724D03*
X006974Y012409D03*
X006974Y012094D03*
X006974Y011779D03*
X006481Y011779D03*
X006481Y012094D03*
X006481Y012409D03*
X006481Y012724D03*
X004274Y014979D03*
X004274Y015294D03*
X004274Y015609D03*
X004274Y015924D03*
X003781Y015924D03*
X003781Y015609D03*
X003781Y015294D03*
X003781Y014979D03*
D27*
X007655Y012798D03*
X007970Y012798D03*
X008285Y012798D03*
X008600Y012798D03*
X008600Y012306D03*
X008285Y012306D03*
X007970Y012306D03*
X007655Y012306D03*
X007655Y002798D03*
X007970Y002798D03*
X008285Y002798D03*
X008600Y002798D03*
X008600Y002306D03*
X008285Y002306D03*
X007970Y002306D03*
X007655Y002306D03*
X017555Y002306D03*
X017870Y002306D03*
X018185Y002306D03*
X018500Y002306D03*
X018500Y002798D03*
X018185Y002798D03*
X017870Y002798D03*
X017555Y002798D03*
X017555Y012306D03*
X017870Y012306D03*
X018185Y012306D03*
X018500Y012306D03*
X018500Y012798D03*
X018185Y012798D03*
X017870Y012798D03*
X017555Y012798D03*
D28*
X015868Y017652D03*
X013387Y017652D03*
X005968Y017652D03*
X003487Y017652D03*
X003487Y007652D03*
X005968Y007652D03*
X013387Y007652D03*
X015868Y007652D03*
D29*
X012736Y005552D03*
X011319Y005552D03*
X002836Y005552D03*
X001419Y005552D03*
X001419Y015552D03*
X002836Y015552D03*
X011319Y015552D03*
X012736Y015552D03*
D30*
X012718Y015582D01*
X012348Y015952D01*
X012348Y017022D01*
X012328Y017052D01*
X013128Y017852D01*
X013387Y017652D01*
X013378Y017652D01*
X013128Y017902D01*
X013128Y018617D01*
X013148Y019252D02*
X013128Y019286D01*
X013128Y019282D01*
X012558Y019282D01*
X012328Y019052D01*
X011908Y018372D02*
X011908Y016762D01*
X012168Y016502D01*
X012168Y015982D01*
X011958Y015772D01*
X011958Y013172D01*
X011768Y012982D01*
X011768Y011622D01*
X012278Y011112D01*
X014438Y011112D01*
X014568Y011242D01*
X015038Y011242D01*
X015348Y011552D01*
X016558Y011552D01*
X016778Y011772D01*
X016838Y011772D01*
X016874Y011779D01*
X016878Y011772D01*
X017148Y011772D01*
X017158Y011762D01*
X017518Y011762D01*
X017538Y011782D01*
X017268Y012022D02*
X017548Y012302D01*
X017555Y012306D01*
X017868Y012302D02*
X017870Y012306D01*
X017868Y012302D02*
X017868Y011342D01*
X017828Y011302D01*
X017578Y010982D02*
X017098Y011462D01*
X017168Y011492D01*
X016728Y011492D01*
X016588Y011352D01*
X015378Y011352D01*
X014728Y010702D01*
X014698Y011402D02*
X013088Y011402D01*
X012948Y011732D02*
X012818Y011862D01*
X012668Y011862D01*
X012348Y011862D01*
X012328Y011842D01*
X012178Y011842D01*
X012171Y011840D01*
X012171Y012352D02*
X012698Y012352D01*
X012698Y012322D01*
X012698Y012352D02*
X013412Y012352D01*
X013358Y012612D02*
X013408Y012662D01*
X013412Y012667D01*
X013448Y012682D01*
X013878Y012682D01*
X014108Y012912D01*
X014888Y012912D01*
X015188Y012612D01*
X015498Y012612D01*
X015528Y012586D01*
X015528Y012592D01*
X015638Y012592D01*
X015661Y012626D01*
X015668Y012632D01*
X015758Y012722D01*
X016378Y012722D01*
X016381Y012724D01*
X016418Y012742D01*
X016628Y012952D01*
X017208Y012952D01*
X017358Y012802D01*
X017548Y012802D01*
X017555Y012798D01*
X017868Y012802D02*
X017868Y013062D01*
X017548Y013382D01*
X017548Y014072D01*
X017488Y014132D01*
X017488Y014472D01*
X017818Y014802D01*
X018048Y014802D01*
X018278Y014802D01*
X018608Y014472D01*
X018608Y014222D01*
X019678Y013152D01*
X019678Y012752D01*
X019188Y013052D02*
X019188Y012342D01*
X019778Y011752D01*
X019048Y011552D02*
X019048Y011052D01*
X018978Y010982D01*
X017578Y010982D01*
X017708Y010622D02*
X017798Y010622D01*
X017828Y010602D01*
X018728Y010602D01*
X018758Y010622D01*
X019548Y010622D01*
X019678Y010752D01*
X019048Y011552D02*
X019028Y011572D01*
X019028Y012672D01*
X018648Y013052D01*
X018358Y013052D01*
X018188Y012882D01*
X018188Y012802D01*
X018185Y012798D01*
X017870Y012798D02*
X017868Y012802D01*
X018185Y012306D02*
X018188Y012302D01*
X018188Y011842D01*
X018728Y011302D01*
X017708Y010622D02*
X017138Y011192D01*
X016518Y011192D01*
X016128Y010802D01*
X015728Y010802D01*
X015758Y011782D02*
X015668Y011872D01*
X015528Y011917D01*
X015658Y011882D01*
X015661Y011878D01*
X015488Y011912D01*
X015208Y011912D01*
X014698Y011402D01*
X014598Y011892D02*
X014628Y011917D01*
X014628Y012092D01*
X014788Y012252D01*
X014794Y012252D01*
X014628Y012142D01*
X014628Y012586D01*
X014598Y013172D02*
X013608Y013172D01*
X013418Y012982D01*
X013412Y012981D01*
X013378Y012962D01*
X012938Y012962D01*
X012818Y012842D01*
X012348Y012842D01*
X012328Y012862D01*
X012178Y012862D01*
X012171Y012863D01*
X012178Y012612D02*
X012171Y012607D01*
X012178Y012612D02*
X013358Y012612D01*
X014028Y011892D02*
X013898Y011762D01*
X013438Y011762D01*
X013412Y011722D01*
X013408Y011732D01*
X012948Y011732D01*
X014028Y011892D02*
X014598Y011892D01*
X015758Y011782D02*
X016378Y011782D01*
X016381Y011779D01*
X016878Y012722D02*
X016874Y012724D01*
X016878Y012722D02*
X017078Y012722D01*
X017228Y012572D01*
X017083Y013500D02*
X017078Y013502D01*
X016778Y013802D01*
X016778Y014402D01*
X016438Y013852D02*
X016088Y013502D01*
X016083Y013500D01*
X016438Y013852D02*
X016438Y015112D01*
X016343Y015207D01*
X016713Y015577D01*
X016828Y015462D01*
X016713Y015577D02*
X016748Y015612D01*
X016748Y016062D01*
X016618Y016192D01*
X016618Y016692D01*
X016888Y016962D01*
X017028Y016962D01*
X017148Y017082D01*
X017238Y017082D01*
X017548Y017142D02*
X017003Y017687D01*
X016838Y017522D01*
X016838Y017282D01*
X016834Y017278D01*
X016798Y017262D01*
X016748Y017212D01*
X016138Y017212D01*
X015428Y016502D01*
X015088Y016502D01*
X015083Y016500D01*
X015178Y016022D02*
X014748Y016022D01*
X014838Y015992D01*
X014838Y014632D01*
X014908Y014562D01*
X015868Y014562D01*
X015958Y014472D01*
X015958Y014132D01*
X015328Y013502D01*
X015088Y013502D01*
X015083Y013500D01*
X015398Y014302D02*
X014758Y014302D01*
X014153Y013697D01*
X014128Y013722D01*
X014153Y013697D02*
X014058Y013602D01*
X012878Y013602D01*
X012738Y013742D01*
X012738Y015552D01*
X012736Y015552D01*
X013428Y015752D02*
X013428Y015152D01*
X013598Y014982D01*
X013678Y014982D01*
X013681Y014979D01*
X013718Y014972D01*
X014388Y014302D01*
X014488Y014662D02*
X014178Y014972D01*
X014174Y014979D01*
X014528Y015182D02*
X014528Y015652D01*
X014258Y015922D01*
X014178Y015922D01*
X014174Y015924D01*
X013688Y015962D02*
X013688Y016482D01*
X013808Y016482D01*
X013688Y016482D02*
X013688Y017012D01*
X013968Y017292D01*
X013968Y018432D01*
X013148Y019252D01*
X013858Y019312D02*
X014058Y019312D01*
X014298Y019072D01*
X014328Y019052D01*
X014858Y018522D01*
X014998Y018232D02*
X014998Y017592D01*
X015258Y018122D02*
X015318Y018122D01*
X016248Y019052D01*
X016328Y019052D01*
X016428Y018182D02*
X015908Y017662D01*
X015868Y017652D01*
X015578Y017652D01*
X014618Y016692D01*
X014618Y016162D01*
X014728Y016052D01*
X014748Y016022D01*
X015178Y016022D02*
X015398Y015802D01*
X015398Y015302D02*
X016248Y015302D01*
X016343Y015207D01*
X016178Y015002D02*
X015978Y014802D01*
X015398Y014802D01*
X016488Y015722D02*
X016488Y016092D01*
X016088Y016492D01*
X016083Y016500D01*
X017083Y016500D02*
X017088Y016492D01*
X017088Y015522D01*
X017788Y014822D01*
X018048Y014802D01*
X018048Y015302D02*
X018278Y015302D01*
X018638Y015662D01*
X018638Y016082D01*
X018898Y015642D02*
X018668Y015412D01*
X018668Y015052D01*
X018898Y015192D02*
X018898Y015412D01*
X019238Y015752D01*
X019778Y015752D01*
X019158Y015302D02*
X019678Y014782D01*
X019678Y014752D01*
X018928Y014802D02*
X018928Y015162D01*
X018898Y015192D01*
X018898Y015642D02*
X018898Y018082D01*
X018358Y018082D01*
X018328Y018104D01*
X018328Y019052D01*
X017748Y018532D02*
X017328Y018532D01*
X017328Y018012D01*
X017003Y017687D01*
X016828Y017922D02*
X016558Y017652D01*
X016828Y017922D02*
X016828Y018022D01*
X016834Y018026D01*
X017328Y018532D02*
X017328Y019052D01*
X017748Y018532D02*
X017898Y018382D01*
X017898Y018072D01*
X018158Y017812D01*
X018638Y017812D01*
X018898Y018082D02*
X019448Y018082D01*
X019778Y017752D01*
X018328Y017202D02*
X018328Y017199D01*
X018328Y017202D02*
X018118Y017202D01*
X017668Y017652D01*
X017661Y017652D01*
X017638Y017682D01*
X017638Y018272D01*
X017548Y017142D02*
X017548Y016382D01*
X018048Y015882D01*
X018048Y015802D01*
X018048Y014302D02*
X018048Y014192D01*
X018353Y013887D01*
X018418Y013952D01*
X018418Y013962D01*
X018353Y013887D02*
X019188Y013052D01*
X018328Y009052D02*
X018328Y008104D01*
X018358Y008082D01*
X018898Y008082D01*
X018898Y005642D01*
X018668Y005412D01*
X018668Y005052D01*
X018898Y005192D02*
X018928Y005162D01*
X018928Y004802D01*
X018898Y005192D02*
X018898Y005412D01*
X019238Y005752D01*
X019778Y005752D01*
X019158Y005302D02*
X019678Y004782D01*
X019678Y004752D01*
X018608Y004472D02*
X018608Y004222D01*
X019678Y003152D01*
X019678Y002752D01*
X019188Y003052D02*
X019188Y002342D01*
X019778Y001752D01*
X019048Y001552D02*
X019048Y001052D01*
X018978Y000982D01*
X017578Y000982D01*
X017098Y001462D01*
X017168Y001492D01*
X016728Y001492D01*
X016588Y001352D01*
X015378Y001352D01*
X014728Y000702D01*
X014438Y001112D02*
X014568Y001242D01*
X015038Y001242D01*
X015348Y001552D01*
X016558Y001552D01*
X016778Y001772D01*
X016838Y001772D01*
X016874Y001779D01*
X016878Y001772D01*
X017148Y001772D01*
X017158Y001762D01*
X017518Y001762D01*
X017538Y001782D01*
X017268Y002022D02*
X017548Y002302D01*
X017555Y002306D01*
X017868Y002302D02*
X017870Y002306D01*
X017868Y002302D02*
X017868Y001342D01*
X017828Y001302D01*
X018188Y001842D02*
X018728Y001302D01*
X019028Y001572D02*
X019048Y001552D01*
X019028Y001572D02*
X019028Y002672D01*
X018648Y003052D01*
X018358Y003052D01*
X018188Y002882D01*
X018188Y002802D01*
X018185Y002798D01*
X017870Y002798D02*
X017868Y002802D01*
X017868Y003062D01*
X017548Y003382D01*
X017548Y004072D01*
X017488Y004132D01*
X017488Y004472D01*
X017818Y004802D01*
X018048Y004802D01*
X018278Y004802D01*
X018608Y004472D01*
X018418Y003962D02*
X018418Y003952D01*
X018353Y003887D01*
X018048Y004192D01*
X018048Y004302D01*
X018048Y004802D02*
X017788Y004822D01*
X017088Y005522D01*
X017088Y006492D01*
X017083Y006500D01*
X016748Y006062D02*
X016748Y005612D01*
X016713Y005577D01*
X016828Y005462D01*
X016713Y005577D02*
X016343Y005207D01*
X016248Y005302D01*
X015398Y005302D01*
X015398Y005802D02*
X015178Y006022D01*
X014748Y006022D01*
X014838Y005992D01*
X014838Y004632D01*
X014908Y004562D01*
X015868Y004562D01*
X015958Y004472D01*
X015958Y004132D01*
X015328Y003502D01*
X015088Y003502D01*
X015083Y003500D01*
X014598Y003172D02*
X013608Y003172D01*
X013418Y002982D01*
X013412Y002981D01*
X013378Y002962D01*
X012938Y002962D01*
X012818Y002842D01*
X012348Y002842D01*
X012328Y002862D01*
X012178Y002862D01*
X012171Y002863D01*
X012178Y002612D02*
X012171Y002607D01*
X012178Y002612D02*
X013358Y002612D01*
X013408Y002662D01*
X013412Y002667D01*
X013448Y002682D01*
X013878Y002682D01*
X014108Y002912D01*
X014888Y002912D01*
X015188Y002612D01*
X015498Y002612D01*
X015528Y002586D01*
X015528Y002592D01*
X015638Y002592D01*
X015661Y002626D01*
X015668Y002632D01*
X015758Y002722D01*
X016378Y002722D01*
X016381Y002724D01*
X016418Y002742D01*
X016628Y002952D01*
X017208Y002952D01*
X017358Y002802D01*
X017548Y002802D01*
X017555Y002798D01*
X017228Y002572D02*
X017078Y002722D01*
X016878Y002722D01*
X016874Y002724D01*
X017083Y003500D02*
X017078Y003502D01*
X016778Y003802D01*
X016778Y004402D01*
X016438Y003852D02*
X016088Y003502D01*
X016083Y003500D01*
X016438Y003852D02*
X016438Y005112D01*
X016343Y005207D01*
X016178Y005002D02*
X015978Y004802D01*
X015398Y004802D01*
X015398Y004302D02*
X014758Y004302D01*
X014153Y003697D01*
X014128Y003722D01*
X014153Y003697D02*
X014058Y003602D01*
X012878Y003602D01*
X012738Y003742D01*
X012738Y005552D01*
X012736Y005552D01*
X012718Y005582D01*
X012348Y005952D01*
X012348Y007022D01*
X012328Y007052D01*
X013128Y007852D01*
X013387Y007652D01*
X013378Y007652D01*
X013128Y007902D01*
X013128Y008617D01*
X013148Y009252D02*
X013128Y009286D01*
X013128Y009282D01*
X012558Y009282D01*
X012328Y009052D01*
X011908Y008372D02*
X011908Y006762D01*
X012168Y006502D01*
X012168Y005982D01*
X011958Y005772D01*
X011958Y003172D01*
X011768Y002982D01*
X011768Y001622D01*
X012278Y001112D01*
X014438Y001112D01*
X014698Y001402D02*
X013088Y001402D01*
X012948Y001732D02*
X013408Y001732D01*
X013412Y001722D01*
X013438Y001762D01*
X013898Y001762D01*
X014028Y001892D01*
X014598Y001892D01*
X014628Y001917D01*
X014628Y002092D01*
X014788Y002252D01*
X014794Y002252D01*
X014628Y002142D01*
X014628Y002586D01*
X015208Y001912D02*
X014698Y001402D01*
X015208Y001912D02*
X015488Y001912D01*
X015661Y001878D01*
X015658Y001882D01*
X015528Y001917D01*
X015668Y001872D01*
X015758Y001782D01*
X016378Y001782D01*
X016381Y001779D01*
X016518Y001192D02*
X017138Y001192D01*
X017708Y000622D01*
X017798Y000622D01*
X017828Y000602D01*
X018728Y000602D01*
X018758Y000622D01*
X019548Y000622D01*
X019678Y000752D01*
X018188Y001842D02*
X018188Y002302D01*
X018185Y002306D01*
X019188Y003052D02*
X018353Y003887D01*
X018278Y005302D02*
X018048Y005302D01*
X018278Y005302D02*
X018638Y005662D01*
X018638Y006082D01*
X018048Y005882D02*
X018048Y005802D01*
X018048Y005882D02*
X017548Y006382D01*
X017548Y007142D01*
X017003Y007687D01*
X016838Y007522D01*
X016838Y007282D01*
X016834Y007278D01*
X016798Y007262D01*
X016748Y007212D01*
X016138Y007212D01*
X015428Y006502D01*
X015088Y006502D01*
X015083Y006500D01*
X014618Y006692D02*
X014618Y006162D01*
X014728Y006052D01*
X014748Y006022D01*
X014528Y005652D02*
X014528Y005182D01*
X014178Y004972D02*
X014174Y004979D01*
X014178Y004972D02*
X014488Y004662D01*
X014388Y004302D02*
X013718Y004972D01*
X013681Y004979D01*
X013678Y004982D01*
X013598Y004982D01*
X013428Y005152D01*
X013428Y005752D01*
X013598Y005922D01*
X013678Y005922D01*
X013681Y005924D01*
X013688Y005962D01*
X013688Y006482D01*
X013808Y006482D01*
X013688Y006482D02*
X013688Y007012D01*
X013968Y007292D01*
X013968Y008432D01*
X013148Y009252D01*
X013858Y009312D02*
X014058Y009312D01*
X014298Y009072D01*
X014328Y009052D01*
X014858Y008522D01*
X014998Y008232D02*
X014998Y007592D01*
X015578Y007652D02*
X014618Y006692D01*
X014258Y005922D02*
X014528Y005652D01*
X014258Y005922D02*
X014178Y005922D01*
X014174Y005924D01*
X015578Y007652D02*
X015868Y007652D01*
X015908Y007662D01*
X016428Y008182D01*
X016828Y008022D02*
X016834Y008026D01*
X016828Y008022D02*
X016828Y007922D01*
X016558Y007652D01*
X017003Y007687D02*
X017328Y008012D01*
X017328Y008532D01*
X017748Y008532D01*
X017898Y008382D01*
X017898Y008072D01*
X018158Y007812D01*
X018638Y007812D01*
X018898Y008082D02*
X019448Y008082D01*
X019778Y007752D01*
X018328Y007202D02*
X018328Y007199D01*
X018328Y007202D02*
X018118Y007202D01*
X017668Y007652D01*
X017661Y007652D01*
X017638Y007682D01*
X017638Y008272D01*
X017328Y008532D02*
X017328Y009052D01*
X016328Y009052D02*
X016248Y009052D01*
X015318Y008122D01*
X015258Y008122D01*
X014998Y008232D02*
X015328Y008562D01*
X015328Y009052D01*
X016888Y006962D02*
X016618Y006692D01*
X016618Y006192D01*
X016748Y006062D01*
X016488Y006092D02*
X016488Y005722D01*
X016488Y006092D02*
X016088Y006492D01*
X016083Y006500D01*
X016888Y006962D02*
X017028Y006962D01*
X017148Y007082D01*
X017238Y007082D01*
X013412Y002352D02*
X012698Y002352D01*
X012698Y002322D01*
X012698Y002352D02*
X012171Y002352D01*
X012178Y001842D02*
X012171Y001840D01*
X012178Y001842D02*
X012328Y001842D01*
X012348Y001862D01*
X012668Y001862D01*
X012818Y001862D01*
X012948Y001732D01*
X015728Y000802D02*
X016128Y000802D01*
X016518Y001192D01*
X011908Y006132D02*
X011908Y006392D01*
X011908Y006132D02*
X011328Y005552D01*
X011319Y005552D01*
X009878Y005752D02*
X009338Y005752D01*
X008998Y005412D01*
X008998Y005192D01*
X009028Y005162D01*
X009028Y004802D01*
X008768Y005052D02*
X008768Y005412D01*
X008998Y005642D01*
X008998Y008082D01*
X008458Y008082D01*
X008428Y008104D01*
X008428Y009052D01*
X007848Y008532D02*
X007998Y008382D01*
X007998Y008072D01*
X008258Y007812D01*
X008738Y007812D01*
X008998Y008082D02*
X009548Y008082D01*
X009878Y007752D01*
X008428Y007202D02*
X008428Y007199D01*
X008428Y007202D02*
X008218Y007202D01*
X007768Y007652D01*
X007761Y007652D01*
X007738Y007682D01*
X007738Y008272D01*
X007428Y008532D02*
X007428Y008012D01*
X007103Y007687D01*
X007648Y007142D01*
X007648Y006382D01*
X008148Y005882D01*
X008148Y005802D01*
X008148Y005302D02*
X008378Y005302D01*
X008738Y005662D01*
X008738Y006082D01*
X009258Y005302D02*
X009778Y004782D01*
X009778Y004752D01*
X008708Y004472D02*
X008708Y004222D01*
X009778Y003152D01*
X009778Y002752D01*
X009288Y003052D02*
X009288Y002342D01*
X009878Y001752D01*
X009148Y001552D02*
X009148Y001052D01*
X009078Y000982D01*
X007678Y000982D01*
X007198Y001462D01*
X007268Y001492D01*
X006828Y001492D01*
X006688Y001352D01*
X005478Y001352D01*
X004828Y000702D01*
X004538Y001112D02*
X004668Y001242D01*
X005138Y001242D01*
X005448Y001552D01*
X006658Y001552D01*
X006878Y001772D01*
X006938Y001772D01*
X006974Y001779D01*
X006978Y001772D01*
X007248Y001772D01*
X007258Y001762D01*
X007618Y001762D01*
X007638Y001782D01*
X007368Y002022D02*
X007648Y002302D01*
X007655Y002306D01*
X007968Y002302D02*
X007970Y002306D01*
X007968Y002302D02*
X007968Y001342D01*
X007928Y001302D01*
X008288Y001842D02*
X008828Y001302D01*
X009128Y001572D02*
X009148Y001552D01*
X009128Y001572D02*
X009128Y002672D01*
X008748Y003052D01*
X008458Y003052D01*
X008288Y002882D01*
X008288Y002802D01*
X008285Y002798D01*
X007970Y002798D02*
X007968Y002802D01*
X007968Y003062D01*
X007648Y003382D01*
X007648Y004072D01*
X007588Y004132D01*
X007588Y004472D01*
X007918Y004802D01*
X008148Y004802D01*
X008378Y004802D01*
X008708Y004472D01*
X008518Y003962D02*
X008518Y003952D01*
X008453Y003887D01*
X008148Y004192D01*
X008148Y004302D01*
X008148Y004802D02*
X007888Y004822D01*
X007188Y005522D01*
X007188Y006492D01*
X007183Y006500D01*
X006848Y006062D02*
X006848Y005612D01*
X006813Y005577D01*
X006928Y005462D01*
X006813Y005577D02*
X006443Y005207D01*
X006348Y005302D01*
X005498Y005302D01*
X005498Y005802D02*
X005278Y006022D01*
X004848Y006022D01*
X004938Y005992D01*
X004938Y004632D01*
X005008Y004562D01*
X005968Y004562D01*
X006058Y004472D01*
X006058Y004132D01*
X005428Y003502D01*
X005188Y003502D01*
X005183Y003500D01*
X004698Y003172D02*
X003708Y003172D01*
X003518Y002982D01*
X003512Y002981D01*
X003478Y002962D01*
X003038Y002962D01*
X002918Y002842D01*
X002448Y002842D01*
X002428Y002862D01*
X002278Y002862D01*
X002271Y002863D01*
X002278Y002612D02*
X002271Y002607D01*
X002278Y002612D02*
X003458Y002612D01*
X003508Y002662D01*
X003512Y002667D01*
X003548Y002682D01*
X003978Y002682D01*
X004208Y002912D01*
X004988Y002912D01*
X005288Y002612D01*
X005598Y002612D01*
X005628Y002586D01*
X005628Y002592D01*
X005738Y002592D01*
X005761Y002626D01*
X005768Y002632D01*
X005858Y002722D01*
X006478Y002722D01*
X006481Y002724D01*
X006518Y002742D01*
X006728Y002952D01*
X007308Y002952D01*
X007458Y002802D01*
X007648Y002802D01*
X007655Y002798D01*
X007328Y002572D02*
X007178Y002722D01*
X006978Y002722D01*
X006974Y002724D01*
X007183Y003500D02*
X007178Y003502D01*
X006878Y003802D01*
X006878Y004402D01*
X006538Y003852D02*
X006188Y003502D01*
X006183Y003500D01*
X006538Y003852D02*
X006538Y005112D01*
X006443Y005207D01*
X006278Y005002D02*
X006078Y004802D01*
X005498Y004802D01*
X005498Y004302D02*
X004858Y004302D01*
X004253Y003697D01*
X004228Y003722D01*
X004253Y003697D02*
X004158Y003602D01*
X002978Y003602D01*
X002838Y003742D01*
X002838Y005552D01*
X002836Y005552D01*
X002818Y005582D01*
X002448Y005952D01*
X002448Y007022D01*
X002428Y007052D01*
X003228Y007852D01*
X003487Y007652D01*
X003478Y007652D01*
X003228Y007902D01*
X003228Y008617D01*
X003248Y009252D02*
X003228Y009286D01*
X003228Y009282D01*
X002658Y009282D01*
X002428Y009052D01*
X002008Y008372D02*
X002008Y006762D01*
X002268Y006502D01*
X002268Y005982D01*
X002058Y005772D01*
X002058Y003172D01*
X001868Y002982D01*
X001868Y001622D01*
X002378Y001112D01*
X004538Y001112D01*
X004798Y001402D02*
X003188Y001402D01*
X003048Y001732D02*
X003508Y001732D01*
X003512Y001722D01*
X003538Y001762D01*
X003998Y001762D01*
X004128Y001892D01*
X004698Y001892D01*
X004728Y001917D01*
X004728Y002092D01*
X004888Y002252D01*
X004894Y002252D01*
X004728Y002142D01*
X004728Y002586D01*
X005308Y001912D02*
X004798Y001402D01*
X005308Y001912D02*
X005588Y001912D01*
X005761Y001878D01*
X005758Y001882D01*
X005628Y001917D01*
X005768Y001872D01*
X005858Y001782D01*
X006478Y001782D01*
X006481Y001779D01*
X006618Y001192D02*
X007238Y001192D01*
X007808Y000622D01*
X007898Y000622D01*
X007928Y000602D01*
X008828Y000602D01*
X008858Y000622D01*
X009648Y000622D01*
X009778Y000752D01*
X008288Y001842D02*
X008288Y002302D01*
X008285Y002306D01*
X009288Y003052D02*
X008453Y003887D01*
X006588Y005722D02*
X006588Y006092D01*
X006188Y006492D01*
X006183Y006500D01*
X006718Y006692D02*
X006718Y006192D01*
X006848Y006062D01*
X006718Y006692D02*
X006988Y006962D01*
X007128Y006962D01*
X007248Y007082D01*
X007338Y007082D01*
X006938Y007282D02*
X006934Y007278D01*
X006898Y007262D01*
X006848Y007212D01*
X006238Y007212D01*
X005528Y006502D01*
X005188Y006502D01*
X005183Y006500D01*
X004718Y006692D02*
X004718Y006162D01*
X004828Y006052D01*
X004848Y006022D01*
X004628Y005652D02*
X004628Y005182D01*
X004278Y004972D02*
X004274Y004979D01*
X004278Y004972D02*
X004588Y004662D01*
X004488Y004302D02*
X003818Y004972D01*
X003781Y004979D01*
X003778Y004982D01*
X003698Y004982D01*
X003528Y005152D01*
X003528Y005752D01*
X003698Y005922D01*
X003778Y005922D01*
X003781Y005924D01*
X003788Y005962D01*
X003788Y006482D01*
X003908Y006482D01*
X003788Y006482D02*
X003788Y007012D01*
X004068Y007292D01*
X004068Y008432D01*
X003248Y009252D01*
X003958Y009312D02*
X004158Y009312D01*
X004398Y009072D01*
X004428Y009052D01*
X004958Y008522D01*
X005098Y008232D02*
X005098Y007592D01*
X005678Y007652D02*
X004718Y006692D01*
X004358Y005922D02*
X004278Y005922D01*
X004274Y005924D01*
X004358Y005922D02*
X004628Y005652D01*
X005678Y007652D02*
X005968Y007652D01*
X006008Y007662D01*
X006528Y008182D01*
X006928Y008022D02*
X006934Y008026D01*
X006928Y008022D02*
X006928Y007922D01*
X006658Y007652D01*
X006938Y007522D02*
X006938Y007282D01*
X006938Y007522D02*
X007103Y007687D01*
X007428Y008532D02*
X007848Y008532D01*
X007428Y008532D02*
X007428Y009052D01*
X006428Y009052D02*
X006348Y009052D01*
X005418Y008122D01*
X005358Y008122D01*
X005098Y008232D02*
X005428Y008562D01*
X005428Y009052D01*
X004828Y010702D02*
X005478Y011352D01*
X006688Y011352D01*
X006828Y011492D01*
X007268Y011492D01*
X007198Y011462D01*
X007678Y010982D01*
X009078Y010982D01*
X009148Y011052D01*
X009148Y011552D01*
X009128Y011572D01*
X009128Y012672D01*
X008748Y013052D01*
X008458Y013052D01*
X008288Y012882D01*
X008288Y012802D01*
X008285Y012798D01*
X007970Y012798D02*
X007968Y012802D01*
X007968Y013062D01*
X007648Y013382D01*
X007648Y014072D01*
X007588Y014132D01*
X007588Y014472D01*
X007918Y014802D01*
X008148Y014802D01*
X008378Y014802D01*
X008708Y014472D01*
X008708Y014222D01*
X009778Y013152D01*
X009778Y012752D01*
X009288Y013052D02*
X009288Y012342D01*
X009878Y011752D01*
X009778Y010752D02*
X009648Y010622D01*
X008858Y010622D01*
X008828Y010602D01*
X007928Y010602D01*
X007898Y010622D01*
X007808Y010622D01*
X007238Y011192D01*
X006618Y011192D01*
X006228Y010802D01*
X005828Y010802D01*
X005138Y011242D02*
X005448Y011552D01*
X006658Y011552D01*
X006878Y011772D01*
X006938Y011772D01*
X006974Y011779D01*
X006978Y011772D01*
X007248Y011772D01*
X007258Y011762D01*
X007618Y011762D01*
X007638Y011782D01*
X007368Y012022D02*
X007648Y012302D01*
X007655Y012306D01*
X007968Y012302D02*
X007970Y012306D01*
X007968Y012302D02*
X007968Y011342D01*
X007928Y011302D01*
X008288Y011842D02*
X008828Y011302D01*
X008288Y011842D02*
X008288Y012302D01*
X008285Y012306D01*
X007655Y012798D02*
X007648Y012802D01*
X007458Y012802D01*
X007308Y012952D01*
X006728Y012952D01*
X006518Y012742D01*
X006481Y012724D01*
X006478Y012722D01*
X005858Y012722D01*
X005768Y012632D01*
X005761Y012626D01*
X005738Y012592D01*
X005628Y012592D01*
X005628Y012586D01*
X005598Y012612D01*
X005288Y012612D01*
X004988Y012912D01*
X004208Y012912D01*
X003978Y012682D01*
X003548Y012682D01*
X003512Y012667D01*
X003508Y012662D01*
X003458Y012612D01*
X002278Y012612D01*
X002271Y012607D01*
X002278Y012862D02*
X002271Y012863D01*
X002278Y012862D02*
X002428Y012862D01*
X002448Y012842D01*
X002918Y012842D01*
X003038Y012962D01*
X003478Y012962D01*
X003512Y012981D01*
X003518Y012982D01*
X003708Y013172D01*
X004698Y013172D01*
X005183Y013500D02*
X005188Y013502D01*
X005428Y013502D01*
X006058Y014132D01*
X006058Y014472D01*
X005968Y014562D01*
X005008Y014562D01*
X004938Y014632D01*
X004938Y015992D01*
X004848Y016022D01*
X004828Y016052D01*
X004718Y016162D01*
X004718Y016692D01*
X005678Y017652D01*
X005968Y017652D01*
X006008Y017662D01*
X006528Y018182D01*
X006928Y018022D02*
X006934Y018026D01*
X006928Y018022D02*
X006928Y017922D01*
X006658Y017652D01*
X006938Y017522D02*
X006938Y017282D01*
X006934Y017278D01*
X006898Y017262D01*
X006848Y017212D01*
X006238Y017212D01*
X005528Y016502D01*
X005188Y016502D01*
X005183Y016500D01*
X005278Y016022D02*
X004848Y016022D01*
X005278Y016022D02*
X005498Y015802D01*
X005498Y015302D02*
X006348Y015302D01*
X006443Y015207D01*
X006813Y015577D01*
X006928Y015462D01*
X006813Y015577D02*
X006848Y015612D01*
X006848Y016062D01*
X006718Y016192D01*
X006718Y016692D01*
X006988Y016962D01*
X007128Y016962D01*
X007248Y017082D01*
X007338Y017082D01*
X007648Y017142D02*
X007103Y017687D01*
X006938Y017522D01*
X007103Y017687D02*
X007428Y018012D01*
X007428Y018532D01*
X007848Y018532D01*
X007998Y018382D01*
X007998Y018072D01*
X008258Y017812D01*
X008738Y017812D01*
X008998Y018082D02*
X008458Y018082D01*
X008428Y018104D01*
X008428Y019052D01*
X007738Y018272D02*
X007738Y017682D01*
X007761Y017652D01*
X007768Y017652D01*
X008218Y017202D01*
X008428Y017202D01*
X008428Y017199D01*
X007648Y017142D02*
X007648Y016382D01*
X008148Y015882D01*
X008148Y015802D01*
X008148Y015302D02*
X008378Y015302D01*
X008738Y015662D01*
X008738Y016082D01*
X008998Y015642D02*
X008768Y015412D01*
X008768Y015052D01*
X008998Y015192D02*
X008998Y015412D01*
X009338Y015752D01*
X009878Y015752D01*
X009258Y015302D02*
X009778Y014782D01*
X009778Y014752D01*
X009028Y014802D02*
X009028Y015162D01*
X008998Y015192D01*
X008998Y015642D02*
X008998Y018082D01*
X009548Y018082D01*
X009878Y017752D01*
X011908Y016392D02*
X011908Y016132D01*
X011328Y015552D01*
X011319Y015552D01*
X013428Y015752D02*
X013598Y015922D01*
X013678Y015922D01*
X013681Y015924D01*
X013688Y015962D01*
X014998Y018232D02*
X015328Y018562D01*
X015328Y019052D01*
X009288Y013052D02*
X008453Y013887D01*
X008518Y013952D01*
X008518Y013962D01*
X008453Y013887D02*
X008148Y014192D01*
X008148Y014302D01*
X008148Y014802D02*
X007888Y014822D01*
X007188Y015522D01*
X007188Y016492D01*
X007183Y016500D01*
X006588Y016092D02*
X006588Y015722D01*
X006588Y016092D02*
X006188Y016492D01*
X006183Y016500D01*
X005098Y017592D02*
X005098Y018232D01*
X005428Y018562D01*
X005428Y019052D01*
X004958Y018522D02*
X004428Y019052D01*
X004398Y019072D01*
X004158Y019312D01*
X003958Y019312D01*
X003248Y019252D02*
X004068Y018432D01*
X004068Y017292D01*
X003788Y017012D01*
X003788Y016482D01*
X003908Y016482D01*
X003788Y016482D02*
X003788Y015962D01*
X003781Y015924D01*
X003778Y015922D01*
X003698Y015922D01*
X003528Y015752D01*
X003528Y015152D01*
X003698Y014982D01*
X003778Y014982D01*
X003781Y014979D01*
X003818Y014972D01*
X004488Y014302D01*
X004858Y014302D02*
X004253Y013697D01*
X004228Y013722D01*
X004253Y013697D02*
X004158Y013602D01*
X002978Y013602D01*
X002838Y013742D01*
X002838Y015552D01*
X002836Y015552D01*
X002818Y015582D01*
X002448Y015952D01*
X002448Y017022D01*
X002428Y017052D01*
X003228Y017852D01*
X003487Y017652D01*
X003478Y017652D01*
X003228Y017902D01*
X003228Y018617D01*
X003248Y019252D02*
X003228Y019286D01*
X003228Y019282D01*
X002658Y019282D01*
X002428Y019052D01*
X002008Y018372D02*
X002008Y016762D01*
X002268Y016502D01*
X002268Y015982D01*
X002058Y015772D01*
X002058Y013172D01*
X001868Y012982D01*
X001868Y011622D01*
X002378Y011112D01*
X004538Y011112D01*
X004668Y011242D01*
X005138Y011242D01*
X004798Y011402D02*
X003188Y011402D01*
X003048Y011732D02*
X003508Y011732D01*
X003512Y011722D01*
X003538Y011762D01*
X003998Y011762D01*
X004128Y011892D01*
X004698Y011892D01*
X004728Y011917D01*
X004728Y012092D01*
X004888Y012252D01*
X004894Y012252D01*
X004728Y012142D01*
X004728Y012586D01*
X005308Y011912D02*
X004798Y011402D01*
X005308Y011912D02*
X005588Y011912D01*
X005761Y011878D01*
X005758Y011882D01*
X005628Y011917D01*
X005768Y011872D01*
X005858Y011782D01*
X006478Y011782D01*
X006481Y011779D01*
X006978Y012722D02*
X006974Y012724D01*
X006978Y012722D02*
X007178Y012722D01*
X007328Y012572D01*
X007183Y013500D02*
X007178Y013502D01*
X006878Y013802D01*
X006878Y014402D01*
X006538Y013852D02*
X006188Y013502D01*
X006183Y013500D01*
X006538Y013852D02*
X006538Y015112D01*
X006443Y015207D01*
X006278Y015002D02*
X006078Y014802D01*
X005498Y014802D01*
X005498Y014302D02*
X004858Y014302D01*
X004588Y014662D02*
X004278Y014972D01*
X004274Y014979D01*
X004628Y015182D02*
X004628Y015652D01*
X004358Y015922D01*
X004278Y015922D01*
X004274Y015924D01*
X005358Y018122D02*
X005418Y018122D01*
X006348Y019052D01*
X006428Y019052D01*
X007428Y019052D02*
X007428Y018532D01*
X002008Y016392D02*
X002008Y016132D01*
X001428Y015552D01*
X001419Y015552D01*
X002271Y012352D02*
X002798Y012352D01*
X002798Y012322D01*
X002798Y012352D02*
X003512Y012352D01*
X002918Y011862D02*
X003048Y011732D01*
X002918Y011862D02*
X002768Y011862D01*
X002448Y011862D01*
X002428Y011842D01*
X002278Y011842D01*
X002271Y011840D01*
X002008Y006392D02*
X002008Y006132D01*
X001428Y005552D01*
X001419Y005552D01*
X002271Y002352D02*
X002798Y002352D01*
X002798Y002322D01*
X002798Y002352D02*
X003512Y002352D01*
X002918Y001862D02*
X003048Y001732D01*
X002918Y001862D02*
X002768Y001862D01*
X002448Y001862D01*
X002428Y001842D01*
X002278Y001842D01*
X002271Y001840D01*
X005828Y000802D02*
X006228Y000802D01*
X006618Y001192D01*
D31*
X007268Y001492D03*
X007638Y001782D03*
X007368Y002022D03*
X007328Y002572D03*
X008518Y003962D03*
X009028Y004802D03*
X008768Y005052D03*
X009258Y005302D03*
X008738Y006082D03*
X007338Y007082D03*
X006658Y007652D03*
X006528Y008182D03*
X007738Y008272D03*
X008738Y007812D03*
X006928Y005462D03*
X006588Y005722D03*
X006278Y005002D03*
X006878Y004402D03*
X004698Y003172D03*
X004228Y003722D03*
X004488Y004302D03*
X004588Y004662D03*
X004628Y005182D03*
X004848Y006022D03*
X003908Y006482D03*
X005098Y007592D03*
X005358Y008122D03*
X004958Y008522D03*
X003958Y009312D03*
X003188Y011402D03*
X002768Y011862D03*
X002798Y012322D03*
X004228Y013722D03*
X004488Y014302D03*
X004588Y014662D03*
X004628Y015182D03*
X004848Y016022D03*
X003908Y016482D03*
X005098Y017592D03*
X005358Y018122D03*
X004958Y018522D03*
X003958Y019312D03*
X002008Y018372D03*
X002008Y016392D03*
X004698Y013172D03*
X006278Y015002D03*
X006928Y015462D03*
X006588Y015722D03*
X006878Y014402D03*
X008518Y013962D03*
X009028Y014802D03*
X008768Y015052D03*
X009258Y015302D03*
X008738Y016082D03*
X007338Y017082D03*
X006658Y017652D03*
X006528Y018182D03*
X007738Y018272D03*
X008738Y017812D03*
X011908Y018372D03*
X011908Y016392D03*
X013808Y016482D03*
X014748Y016022D03*
X014528Y015182D03*
X014488Y014662D03*
X014388Y014302D03*
X014128Y013722D03*
X014598Y013172D03*
X013088Y011402D03*
X012668Y011862D03*
X012698Y012322D03*
X013858Y009312D03*
X014858Y008522D03*
X015258Y008122D03*
X014998Y007592D03*
X013808Y006482D03*
X014748Y006022D03*
X014528Y005182D03*
X014488Y004662D03*
X014388Y004302D03*
X014128Y003722D03*
X014598Y003172D03*
X013088Y001402D03*
X012668Y001862D03*
X012698Y002322D03*
X016178Y005002D03*
X016488Y005722D03*
X016828Y005462D03*
X016778Y004402D03*
X018418Y003962D03*
X018928Y004802D03*
X018668Y005052D03*
X019158Y005302D03*
X018638Y006082D03*
X017238Y007082D03*
X016558Y007652D03*
X016428Y008182D03*
X017638Y008272D03*
X018638Y007812D03*
X017168Y011492D03*
X017538Y011782D03*
X017268Y012022D03*
X017228Y012572D03*
X018418Y013962D03*
X018928Y014802D03*
X018668Y015052D03*
X019158Y015302D03*
X018638Y016082D03*
X017238Y017082D03*
X016558Y017652D03*
X016428Y018182D03*
X015258Y018122D03*
X014858Y018522D03*
X014998Y017592D03*
X013858Y019312D03*
X016488Y015722D03*
X016828Y015462D03*
X016178Y015002D03*
X016778Y014402D03*
X018638Y017812D03*
X017638Y018272D03*
X011908Y008372D03*
X011908Y006392D03*
X007268Y011492D03*
X007638Y011782D03*
X007368Y012022D03*
X007328Y012572D03*
X002008Y008372D03*
X002008Y006392D03*
X002798Y002322D03*
X002768Y001862D03*
X003188Y001402D03*
X017168Y001492D03*
X017538Y001782D03*
X017268Y002022D03*
X017228Y002572D03*
D32*
X011028Y004852D03*
X011028Y014852D03*
X001128Y014852D03*
X001128Y004852D03*
M02*
