G75*
%MOIN*%
%OFA0B0*%
%FSLAX24Y24*%
%IPPOS*%
%LPD*%
%AMOC8*
5,1,8,0,0,1.08239X$1,22.5*
%
%ADD10C,0.0000*%
%ADD11OC8,0.0720*%
%ADD12R,0.0540X0.1040*%
%ADD13C,0.0780*%
%ADD14R,0.0394X0.0355*%
%ADD15R,0.0367X0.0288*%
%ADD16R,0.1024X0.0237*%
%ADD17R,0.1024X0.0827*%
%ADD18C,0.0394*%
%ADD19R,0.0591X0.0178*%
%ADD20R,0.0788X0.0749*%
%ADD21R,0.0910X0.0280*%
%ADD22R,0.0591X0.0434*%
%ADD23R,0.0473X0.0434*%
%ADD24R,0.0440X0.0440*%
%ADD25R,0.0434X0.0473*%
%ADD26OC8,0.0640*%
%ADD27R,0.0296X0.0237*%
%ADD28R,0.0237X0.0296*%
%ADD29R,0.0946X0.0670*%
%ADD30R,0.1064X0.0670*%
D10*
X000778Y000102D02*
X000778Y019723D01*
X020273Y019723D01*
X020273Y000102D01*
X000778Y000102D01*
X002351Y001485D02*
X002353Y001511D01*
X002359Y001537D01*
X002369Y001562D01*
X002382Y001585D01*
X002398Y001605D01*
X002418Y001623D01*
X002440Y001638D01*
X002463Y001650D01*
X002489Y001658D01*
X002515Y001662D01*
X002541Y001662D01*
X002567Y001658D01*
X002593Y001650D01*
X002617Y001638D01*
X002638Y001623D01*
X002658Y001605D01*
X002674Y001585D01*
X002687Y001562D01*
X002697Y001537D01*
X002703Y001511D01*
X002705Y001485D01*
X002703Y001459D01*
X002697Y001433D01*
X002687Y001408D01*
X002674Y001385D01*
X002658Y001365D01*
X002638Y001347D01*
X002616Y001332D01*
X002593Y001320D01*
X002567Y001312D01*
X002541Y001308D01*
X002515Y001308D01*
X002489Y001312D01*
X002463Y001320D01*
X002439Y001332D01*
X002418Y001347D01*
X002398Y001365D01*
X002382Y001385D01*
X002369Y001408D01*
X002359Y001433D01*
X002353Y001459D01*
X002351Y001485D01*
X002351Y003218D02*
X002353Y003244D01*
X002359Y003270D01*
X002369Y003295D01*
X002382Y003318D01*
X002398Y003338D01*
X002418Y003356D01*
X002440Y003371D01*
X002463Y003383D01*
X002489Y003391D01*
X002515Y003395D01*
X002541Y003395D01*
X002567Y003391D01*
X002593Y003383D01*
X002617Y003371D01*
X002638Y003356D01*
X002658Y003338D01*
X002674Y003318D01*
X002687Y003295D01*
X002697Y003270D01*
X002703Y003244D01*
X002705Y003218D01*
X002703Y003192D01*
X002697Y003166D01*
X002687Y003141D01*
X002674Y003118D01*
X002658Y003098D01*
X002638Y003080D01*
X002616Y003065D01*
X002593Y003053D01*
X002567Y003045D01*
X002541Y003041D01*
X002515Y003041D01*
X002489Y003045D01*
X002463Y003053D01*
X002439Y003065D01*
X002418Y003080D01*
X002398Y003098D01*
X002382Y003118D01*
X002369Y003141D01*
X002359Y003166D01*
X002353Y003192D01*
X002351Y003218D01*
X002351Y011485D02*
X002353Y011511D01*
X002359Y011537D01*
X002369Y011562D01*
X002382Y011585D01*
X002398Y011605D01*
X002418Y011623D01*
X002440Y011638D01*
X002463Y011650D01*
X002489Y011658D01*
X002515Y011662D01*
X002541Y011662D01*
X002567Y011658D01*
X002593Y011650D01*
X002617Y011638D01*
X002638Y011623D01*
X002658Y011605D01*
X002674Y011585D01*
X002687Y011562D01*
X002697Y011537D01*
X002703Y011511D01*
X002705Y011485D01*
X002703Y011459D01*
X002697Y011433D01*
X002687Y011408D01*
X002674Y011385D01*
X002658Y011365D01*
X002638Y011347D01*
X002616Y011332D01*
X002593Y011320D01*
X002567Y011312D01*
X002541Y011308D01*
X002515Y011308D01*
X002489Y011312D01*
X002463Y011320D01*
X002439Y011332D01*
X002418Y011347D01*
X002398Y011365D01*
X002382Y011385D01*
X002369Y011408D01*
X002359Y011433D01*
X002353Y011459D01*
X002351Y011485D01*
X002351Y013218D02*
X002353Y013244D01*
X002359Y013270D01*
X002369Y013295D01*
X002382Y013318D01*
X002398Y013338D01*
X002418Y013356D01*
X002440Y013371D01*
X002463Y013383D01*
X002489Y013391D01*
X002515Y013395D01*
X002541Y013395D01*
X002567Y013391D01*
X002593Y013383D01*
X002617Y013371D01*
X002638Y013356D01*
X002658Y013338D01*
X002674Y013318D01*
X002687Y013295D01*
X002697Y013270D01*
X002703Y013244D01*
X002705Y013218D01*
X002703Y013192D01*
X002697Y013166D01*
X002687Y013141D01*
X002674Y013118D01*
X002658Y013098D01*
X002638Y013080D01*
X002616Y013065D01*
X002593Y013053D01*
X002567Y013045D01*
X002541Y013041D01*
X002515Y013041D01*
X002489Y013045D01*
X002463Y013053D01*
X002439Y013065D01*
X002418Y013080D01*
X002398Y013098D01*
X002382Y013118D01*
X002369Y013141D01*
X002359Y013166D01*
X002353Y013192D01*
X002351Y013218D01*
X012251Y013218D02*
X012253Y013244D01*
X012259Y013270D01*
X012269Y013295D01*
X012282Y013318D01*
X012298Y013338D01*
X012318Y013356D01*
X012340Y013371D01*
X012363Y013383D01*
X012389Y013391D01*
X012415Y013395D01*
X012441Y013395D01*
X012467Y013391D01*
X012493Y013383D01*
X012517Y013371D01*
X012538Y013356D01*
X012558Y013338D01*
X012574Y013318D01*
X012587Y013295D01*
X012597Y013270D01*
X012603Y013244D01*
X012605Y013218D01*
X012603Y013192D01*
X012597Y013166D01*
X012587Y013141D01*
X012574Y013118D01*
X012558Y013098D01*
X012538Y013080D01*
X012516Y013065D01*
X012493Y013053D01*
X012467Y013045D01*
X012441Y013041D01*
X012415Y013041D01*
X012389Y013045D01*
X012363Y013053D01*
X012339Y013065D01*
X012318Y013080D01*
X012298Y013098D01*
X012282Y013118D01*
X012269Y013141D01*
X012259Y013166D01*
X012253Y013192D01*
X012251Y013218D01*
X012251Y011485D02*
X012253Y011511D01*
X012259Y011537D01*
X012269Y011562D01*
X012282Y011585D01*
X012298Y011605D01*
X012318Y011623D01*
X012340Y011638D01*
X012363Y011650D01*
X012389Y011658D01*
X012415Y011662D01*
X012441Y011662D01*
X012467Y011658D01*
X012493Y011650D01*
X012517Y011638D01*
X012538Y011623D01*
X012558Y011605D01*
X012574Y011585D01*
X012587Y011562D01*
X012597Y011537D01*
X012603Y011511D01*
X012605Y011485D01*
X012603Y011459D01*
X012597Y011433D01*
X012587Y011408D01*
X012574Y011385D01*
X012558Y011365D01*
X012538Y011347D01*
X012516Y011332D01*
X012493Y011320D01*
X012467Y011312D01*
X012441Y011308D01*
X012415Y011308D01*
X012389Y011312D01*
X012363Y011320D01*
X012339Y011332D01*
X012318Y011347D01*
X012298Y011365D01*
X012282Y011385D01*
X012269Y011408D01*
X012259Y011433D01*
X012253Y011459D01*
X012251Y011485D01*
X012251Y003218D02*
X012253Y003244D01*
X012259Y003270D01*
X012269Y003295D01*
X012282Y003318D01*
X012298Y003338D01*
X012318Y003356D01*
X012340Y003371D01*
X012363Y003383D01*
X012389Y003391D01*
X012415Y003395D01*
X012441Y003395D01*
X012467Y003391D01*
X012493Y003383D01*
X012517Y003371D01*
X012538Y003356D01*
X012558Y003338D01*
X012574Y003318D01*
X012587Y003295D01*
X012597Y003270D01*
X012603Y003244D01*
X012605Y003218D01*
X012603Y003192D01*
X012597Y003166D01*
X012587Y003141D01*
X012574Y003118D01*
X012558Y003098D01*
X012538Y003080D01*
X012516Y003065D01*
X012493Y003053D01*
X012467Y003045D01*
X012441Y003041D01*
X012415Y003041D01*
X012389Y003045D01*
X012363Y003053D01*
X012339Y003065D01*
X012318Y003080D01*
X012298Y003098D01*
X012282Y003118D01*
X012269Y003141D01*
X012259Y003166D01*
X012253Y003192D01*
X012251Y003218D01*
X012251Y001485D02*
X012253Y001511D01*
X012259Y001537D01*
X012269Y001562D01*
X012282Y001585D01*
X012298Y001605D01*
X012318Y001623D01*
X012340Y001638D01*
X012363Y001650D01*
X012389Y001658D01*
X012415Y001662D01*
X012441Y001662D01*
X012467Y001658D01*
X012493Y001650D01*
X012517Y001638D01*
X012538Y001623D01*
X012558Y001605D01*
X012574Y001585D01*
X012587Y001562D01*
X012597Y001537D01*
X012603Y001511D01*
X012605Y001485D01*
X012603Y001459D01*
X012597Y001433D01*
X012587Y001408D01*
X012574Y001385D01*
X012558Y001365D01*
X012538Y001347D01*
X012516Y001332D01*
X012493Y001320D01*
X012467Y001312D01*
X012441Y001308D01*
X012415Y001308D01*
X012389Y001312D01*
X012363Y001320D01*
X012339Y001332D01*
X012318Y001347D01*
X012298Y001365D01*
X012282Y001385D01*
X012269Y001408D01*
X012259Y001433D01*
X012253Y001459D01*
X012251Y001485D01*
D11*
X015083Y003500D03*
X016083Y003500D03*
X017083Y003500D03*
X018083Y003500D03*
X018083Y006500D03*
X017083Y006500D03*
X016083Y006500D03*
X015083Y006500D03*
X015083Y013500D03*
X016083Y013500D03*
X017083Y013500D03*
X018083Y013500D03*
X018083Y016500D03*
X017083Y016500D03*
X016083Y016500D03*
X015083Y016500D03*
X008183Y016500D03*
X007183Y016500D03*
X006183Y016500D03*
X005183Y016500D03*
X005183Y013500D03*
X006183Y013500D03*
X007183Y013500D03*
X008183Y013500D03*
X008183Y006500D03*
X007183Y006500D03*
X006183Y006500D03*
X005183Y006500D03*
X005183Y003500D03*
X006183Y003500D03*
X007183Y003500D03*
X008183Y003500D03*
D12*
X008428Y009052D03*
X007428Y009052D03*
X006428Y009052D03*
X005428Y009052D03*
X004428Y009052D03*
X004428Y019052D03*
X005428Y019052D03*
X006428Y019052D03*
X007428Y019052D03*
X008428Y019052D03*
X014328Y019052D03*
X015328Y019052D03*
X016328Y019052D03*
X017328Y019052D03*
X018328Y019052D03*
X018328Y009052D03*
X017328Y009052D03*
X016328Y009052D03*
X015328Y009052D03*
X014328Y009052D03*
D13*
X014728Y010702D03*
X015728Y010802D03*
X016728Y010702D03*
X019678Y010752D03*
X019778Y011752D03*
X019678Y012752D03*
X019778Y013752D03*
X019678Y014752D03*
X019778Y015752D03*
X019678Y016752D03*
X019778Y017752D03*
X019678Y018752D03*
X019678Y008752D03*
X019778Y007752D03*
X019678Y006752D03*
X019778Y005752D03*
X019678Y004752D03*
X019778Y003752D03*
X019678Y002752D03*
X019778Y001752D03*
X019678Y000752D03*
X016728Y000702D03*
X015728Y000802D03*
X014728Y000702D03*
X009878Y001752D03*
X009778Y000752D03*
X009778Y002752D03*
X009878Y003752D03*
X009778Y004752D03*
X009878Y005752D03*
X009778Y006752D03*
X009878Y007752D03*
X009778Y008752D03*
X009778Y010752D03*
X009878Y011752D03*
X009778Y012752D03*
X009878Y013752D03*
X009778Y014752D03*
X009878Y015752D03*
X009778Y016752D03*
X009878Y017752D03*
X009778Y018752D03*
X005828Y010802D03*
X006828Y010702D03*
X004828Y010702D03*
X005828Y000802D03*
X006828Y000702D03*
X004828Y000702D03*
D14*
X006934Y007278D03*
X006934Y008026D03*
X007761Y007652D03*
X006934Y017278D03*
X006934Y018026D03*
X007761Y017652D03*
X016834Y018026D03*
X016834Y017278D03*
X017661Y017652D03*
X016834Y008026D03*
X016834Y007278D03*
X017661Y007652D03*
D15*
X018328Y008104D03*
X018328Y007199D03*
X018328Y017199D03*
X018328Y018104D03*
X008428Y018104D03*
X008428Y017199D03*
X008428Y008104D03*
X008428Y007199D03*
D16*
X003512Y002981D03*
X003512Y002667D03*
X003512Y002352D03*
X003512Y002037D03*
X003512Y001722D03*
X003512Y011722D03*
X003512Y012037D03*
X003512Y012352D03*
X003512Y012667D03*
X003512Y012981D03*
X013412Y012981D03*
X013412Y012667D03*
X013412Y012352D03*
X013412Y012037D03*
X013412Y011722D03*
X013412Y002981D03*
X013412Y002667D03*
X013412Y002352D03*
X013412Y002037D03*
X013412Y001722D03*
D17*
X013412Y000580D03*
X011246Y000580D03*
X011246Y004123D03*
X013412Y004123D03*
X013412Y010580D03*
X011246Y010580D03*
X011246Y014123D03*
X013412Y014123D03*
X003512Y014123D03*
X001346Y014123D03*
X001346Y010580D03*
X003512Y010580D03*
X003512Y004123D03*
X001346Y004123D03*
X001346Y000580D03*
X003512Y000580D03*
D18*
X002528Y001485D03*
X002528Y003218D03*
X002528Y011485D03*
X002528Y013218D03*
X012428Y013218D03*
X012428Y011485D03*
X012428Y003218D03*
X012428Y001485D03*
D19*
X012171Y001840D03*
X012171Y002096D03*
X012171Y002352D03*
X012171Y002607D03*
X012171Y002863D03*
X012171Y011840D03*
X012171Y012096D03*
X012171Y012352D03*
X012171Y012607D03*
X012171Y012863D03*
X002271Y012863D03*
X002271Y012607D03*
X002271Y012352D03*
X002271Y012096D03*
X002271Y011840D03*
X002271Y002863D03*
X002271Y002607D03*
X002271Y002352D03*
X002271Y002096D03*
X002271Y001840D03*
D20*
X001228Y000777D03*
X001228Y003926D03*
X001228Y010777D03*
X001228Y013926D03*
X011128Y013926D03*
X011128Y010777D03*
X011128Y003926D03*
X011128Y000777D03*
D21*
X008148Y004302D03*
X008148Y004802D03*
X008148Y005302D03*
X008148Y005802D03*
X005498Y005802D03*
X005498Y005302D03*
X005498Y004802D03*
X005498Y004302D03*
X005498Y014302D03*
X005498Y014802D03*
X005498Y015302D03*
X005498Y015802D03*
X008148Y015802D03*
X008148Y015302D03*
X008148Y014802D03*
X008148Y014302D03*
X015398Y014302D03*
X015398Y014802D03*
X015398Y015302D03*
X015398Y015802D03*
X018048Y015802D03*
X018048Y015302D03*
X018048Y014802D03*
X018048Y014302D03*
X018048Y005802D03*
X018048Y005302D03*
X018048Y004802D03*
X018048Y004302D03*
X015398Y004302D03*
X015398Y004802D03*
X015398Y005302D03*
X015398Y005802D03*
D22*
X015661Y002626D03*
X015661Y001878D03*
X014794Y002252D03*
X015661Y011878D03*
X015661Y012626D03*
X014794Y012252D03*
X005761Y012626D03*
X005761Y011878D03*
X004894Y012252D03*
X005761Y002626D03*
X005761Y001878D03*
X004894Y002252D03*
D23*
X004728Y002586D03*
X004728Y001917D03*
X005628Y001917D03*
X005628Y002586D03*
X005628Y011917D03*
X005628Y012586D03*
X004728Y012586D03*
X004728Y011917D03*
X014628Y011917D03*
X014628Y012586D03*
X015528Y012586D03*
X015528Y011917D03*
X015528Y002586D03*
X015528Y001917D03*
X014628Y001917D03*
X014628Y002586D03*
D24*
X017828Y001302D03*
X017828Y000602D03*
X018728Y000602D03*
X018728Y001302D03*
X018728Y010602D03*
X018728Y011302D03*
X017828Y011302D03*
X017828Y010602D03*
X008828Y010602D03*
X008828Y011302D03*
X007928Y011302D03*
X007928Y010602D03*
X007928Y001302D03*
X007928Y000602D03*
X008828Y000602D03*
X008828Y001302D03*
D25*
X013128Y008617D03*
X013128Y009286D03*
X013128Y018617D03*
X013128Y019286D03*
X003228Y019286D03*
X003228Y018617D03*
X003228Y009286D03*
X003228Y008617D03*
D26*
X002428Y009052D03*
X001428Y009052D03*
X001428Y008052D03*
X002428Y008052D03*
X002428Y007052D03*
X001428Y007052D03*
X001428Y017052D03*
X002428Y017052D03*
X002428Y018052D03*
X002428Y019052D03*
X001428Y019052D03*
X001428Y018052D03*
X011328Y018052D03*
X011328Y019052D03*
X012328Y019052D03*
X012328Y018052D03*
X012328Y017052D03*
X011328Y017052D03*
X011328Y009052D03*
X012328Y009052D03*
X012328Y008052D03*
X012328Y007052D03*
X011328Y007052D03*
X011328Y008052D03*
D27*
X013681Y005924D03*
X013681Y005609D03*
X013681Y005294D03*
X013681Y004979D03*
X014174Y004979D03*
X014174Y005294D03*
X014174Y005609D03*
X014174Y005924D03*
X016381Y002724D03*
X016381Y002409D03*
X016381Y002094D03*
X016381Y001779D03*
X016874Y001779D03*
X016874Y002094D03*
X016874Y002409D03*
X016874Y002724D03*
X016874Y011779D03*
X016874Y012094D03*
X016874Y012409D03*
X016874Y012724D03*
X016381Y012724D03*
X016381Y012409D03*
X016381Y012094D03*
X016381Y011779D03*
X014174Y014979D03*
X014174Y015294D03*
X014174Y015609D03*
X014174Y015924D03*
X013681Y015924D03*
X013681Y015609D03*
X013681Y015294D03*
X013681Y014979D03*
X006974Y012724D03*
X006974Y012409D03*
X006974Y012094D03*
X006974Y011779D03*
X006481Y011779D03*
X006481Y012094D03*
X006481Y012409D03*
X006481Y012724D03*
X004274Y014979D03*
X004274Y015294D03*
X004274Y015609D03*
X004274Y015924D03*
X003781Y015924D03*
X003781Y015609D03*
X003781Y015294D03*
X003781Y014979D03*
X003781Y005924D03*
X003781Y005609D03*
X003781Y005294D03*
X003781Y004979D03*
X004274Y004979D03*
X004274Y005294D03*
X004274Y005609D03*
X004274Y005924D03*
X006481Y002724D03*
X006481Y002409D03*
X006481Y002094D03*
X006481Y001779D03*
X006974Y001779D03*
X006974Y002094D03*
X006974Y002409D03*
X006974Y002724D03*
D28*
X007655Y002798D03*
X007970Y002798D03*
X008285Y002798D03*
X008600Y002798D03*
X008600Y002306D03*
X008285Y002306D03*
X007970Y002306D03*
X007655Y002306D03*
X007655Y012306D03*
X007970Y012306D03*
X008285Y012306D03*
X008600Y012306D03*
X008600Y012798D03*
X008285Y012798D03*
X007970Y012798D03*
X007655Y012798D03*
X017555Y012798D03*
X017870Y012798D03*
X018185Y012798D03*
X018500Y012798D03*
X018500Y012306D03*
X018185Y012306D03*
X017870Y012306D03*
X017555Y012306D03*
X017555Y002798D03*
X017870Y002798D03*
X018185Y002798D03*
X018500Y002798D03*
X018500Y002306D03*
X018185Y002306D03*
X017870Y002306D03*
X017555Y002306D03*
D29*
X015868Y007652D03*
X013387Y007652D03*
X005968Y007652D03*
X003487Y007652D03*
X003487Y017652D03*
X005968Y017652D03*
X013387Y017652D03*
X015868Y017652D03*
D30*
X012736Y015552D03*
X011319Y015552D03*
X002836Y015552D03*
X001419Y015552D03*
X001419Y005552D03*
X002836Y005552D03*
X011319Y005552D03*
X012736Y005552D03*
M02*
