%
M48
M72
T01C0.0140
T02C0.0236
T03C0.0320
T04C0.0354
T05C0.0400
%
T01
X14128Y13722
X12668Y11862
X18668Y15052
X18638Y17812
X17268Y12022
X17168Y11492
X14388Y14302
X13808Y16482
X15258Y18122
X18418Y13962
X18638Y16082
X14998Y17592
X16488Y15722
X17538Y11782
X16178Y15002
X16778Y14402
X11908Y18372
X18928Y14802
X17228Y12572
X17238Y17082
X19158Y15302
X16828Y15462
X14748Y16022
X16428Y18182
X17638Y18272
X13088Y11402
X12698Y12322
X14598Y13172
X16558Y17652
X14858Y18522
X13858Y19312
X14528Y15182
X14488Y14662
X11908Y16392
X4228Y13722
X2768Y11862
X8768Y15052
X8738Y17812
X7368Y12022
X7268Y11492
X4488Y14302
X3908Y16482
X5358Y18122
X8518Y13962
X8738Y16082
X5098Y17592
X6588Y15722
X7638Y11782
X6278Y15002
X6878Y14402
X2008Y18372
X9028Y14802
X7328Y12572
X7338Y17082
X9258Y15302
X6928Y15462
X4848Y16022
X6528Y18182
X7738Y18272
X3188Y11402
X2798Y12322
X4698Y13172
X6658Y17652
X4958Y18522
X3958Y19312
X4628Y15182
X4588Y14662
X2008Y16392
X4228Y3722
X2768Y1862
X8768Y5052
X8738Y7812
X7368Y2022
X7268Y1492
X4488Y4302
X3908Y6482
X5358Y8122
X8518Y3962
X8738Y6082
X5098Y7592
X6588Y5722
X7638Y1782
X6278Y5002
X6878Y4402
X2008Y8372
X9028Y4802
X7328Y2572
X7338Y7082
X9258Y5302
X6928Y5462
X4848Y6022
X6528Y8182
X7738Y8272
X3188Y1402
X2798Y2322
X4698Y3172
X6658Y7652
X4958Y8522
X3958Y9312
X4628Y5182
X4588Y4662
X2008Y6392
X14128Y3722
X12668Y1862
X18668Y5052
X18638Y7812
X17268Y2022
X17168Y1492
X14388Y4302
X13808Y6482
X15258Y8122
X18418Y3962
X18638Y6082
X14998Y7592
X16488Y5722
X17538Y1782
X16178Y5002
X16778Y4402
X11908Y8372
X18928Y4802
X17228Y2572
X17238Y7082
X19158Y5302
X16828Y5462
X14748Y6022
X16428Y8182
X17638Y8272
X13088Y1402
X12698Y2322
X14598Y3172
X16558Y7652
X14858Y8522
X13858Y9312
X14528Y5182
X14488Y4662
X11908Y6392
T02
X11028Y14852
X1128Y14852
X1128Y4852
X11028Y4852
T03
X15083Y13500
X16083Y13500
X17083Y13500
X18083Y13500
X18083Y16500
X17083Y16500
X16083Y16500
X15083Y16500
X5183Y13500
X6183Y13500
X7183Y13500
X8183Y13500
X8183Y16500
X7183Y16500
X6183Y16500
X5183Y16500
X5183Y3500
X6183Y3500
X7183Y3500
X8183Y3500
X8183Y6500
X7183Y6500
X6183Y6500
X5183Y6500
X15083Y3500
X16083Y3500
X17083Y3500
X18083Y3500
X18083Y6500
X17083Y6500
X16083Y6500
X15083Y6500
T04
X12428Y13218
X12428Y11485
X2528Y13218
X2528Y11485
X2528Y3218
X2528Y1485
X12428Y3218
X12428Y1485
T05
X16728Y10702
X15728Y10802
X14728Y10702
X19678Y10752
X19778Y11752
X19678Y12752
X19778Y13752
X19678Y14752
X19778Y15752
X19678Y16752
X19778Y17752
X19678Y18752
X11328Y19052
X12328Y19052
X11328Y18052
X12328Y18052
X11328Y17052
X12328Y17052
X6828Y10702
X5828Y10802
X4828Y10702
X9778Y10752
X9878Y11752
X9778Y12752
X9878Y13752
X9778Y14752
X9878Y15752
X9778Y16752
X9878Y17752
X9778Y18752
X1428Y19052
X2428Y19052
X1428Y18052
X2428Y18052
X1428Y17052
X2428Y17052
X6828Y702
X5828Y802
X4828Y702
X9778Y752
X9878Y1752
X9778Y2752
X9878Y3752
X9778Y4752
X9878Y5752
X9778Y6752
X9878Y7752
X9778Y8752
X1428Y9052
X2428Y9052
X1428Y8052
X2428Y8052
X1428Y7052
X2428Y7052
X16728Y702
X15728Y802
X14728Y702
X19678Y752
X19778Y1752
X19678Y2752
X19778Y3752
X19678Y4752
X19778Y5752
X19678Y6752
X19778Y7752
X19678Y8752
X11328Y9052
X12328Y9052
X11328Y8052
X12328Y8052
X11328Y7052
X12328Y7052
M30
