G75*
%MOIN*%
%OFA0B0*%
%FSLAX24Y24*%
%IPPOS*%
%LPD*%
%AMOC8*
5,1,8,0,0,1.08239X$1,22.5*
%
%ADD10C,0.0100*%
%ADD11C,0.0040*%
%ADD12C,0.0050*%
%ADD13C,0.0030*%
%ADD14C,0.0120*%
%ADD15C,0.0000*%
%ADD16C,0.0080*%
%ADD17C,0.0060*%
%ADD18C,0.0220*%
D10*
X000828Y000150D02*
X010320Y000150D01*
X010320Y009627D01*
X000828Y009627D01*
X000828Y000150D01*
X004900Y004500D02*
X004902Y004533D01*
X004908Y004566D01*
X004918Y004599D01*
X004931Y004629D01*
X004948Y004658D01*
X004969Y004685D01*
X004992Y004709D01*
X005018Y004730D01*
X005046Y004748D01*
X005077Y004762D01*
X005108Y004773D01*
X005141Y004780D01*
X005175Y004783D01*
X005208Y004782D01*
X005241Y004777D01*
X005274Y004768D01*
X005305Y004755D01*
X005334Y004739D01*
X005361Y004720D01*
X005386Y004697D01*
X005408Y004672D01*
X005427Y004644D01*
X005442Y004614D01*
X005454Y004583D01*
X005462Y004550D01*
X005466Y004517D01*
X005466Y004483D01*
X005462Y004450D01*
X005454Y004417D01*
X005442Y004386D01*
X005427Y004356D01*
X005408Y004328D01*
X005386Y004303D01*
X005361Y004280D01*
X005334Y004261D01*
X005305Y004245D01*
X005274Y004232D01*
X005241Y004223D01*
X005208Y004218D01*
X005175Y004217D01*
X005141Y004220D01*
X005108Y004227D01*
X005077Y004238D01*
X005046Y004252D01*
X005018Y004270D01*
X004992Y004291D01*
X004969Y004315D01*
X004948Y004342D01*
X004931Y004371D01*
X004918Y004401D01*
X004908Y004434D01*
X004902Y004467D01*
X004900Y004500D01*
X007203Y007092D02*
X007588Y007092D01*
X007588Y007403D01*
X007588Y007910D02*
X007588Y008212D01*
X007203Y008212D01*
X007728Y010252D02*
X008128Y010252D01*
X008178Y010302D01*
X008228Y010352D01*
X007628Y010352D01*
X007678Y010302D01*
X007728Y010252D01*
X007678Y010302D02*
X008178Y010302D01*
X008228Y010352D02*
X008228Y010802D01*
X008528Y010802D02*
X008528Y010352D01*
X009128Y010352D01*
X009128Y010802D01*
X009128Y011102D02*
X009128Y011602D01*
X008528Y011602D01*
X008528Y011102D01*
X008228Y011102D02*
X008228Y011602D01*
X007628Y011602D01*
X007628Y011102D01*
X007628Y010802D02*
X007628Y010352D01*
X008528Y010352D02*
X008578Y010302D01*
X008628Y010252D01*
X009028Y010252D01*
X009078Y010302D01*
X009128Y010352D01*
X009078Y010302D02*
X008578Y010302D01*
X010320Y010150D02*
X010320Y019627D01*
X000828Y019627D01*
X000828Y010150D01*
X010320Y010150D01*
X010728Y010150D02*
X020220Y010150D01*
X020220Y019627D01*
X010728Y019627D01*
X010728Y010150D01*
X010728Y009627D02*
X020220Y009627D01*
X020220Y000150D01*
X010728Y000150D01*
X010728Y009627D01*
X014800Y014500D02*
X014802Y014533D01*
X014808Y014566D01*
X014818Y014599D01*
X014831Y014629D01*
X014848Y014658D01*
X014869Y014685D01*
X014892Y014709D01*
X014918Y014730D01*
X014946Y014748D01*
X014977Y014762D01*
X015008Y014773D01*
X015041Y014780D01*
X015075Y014783D01*
X015108Y014782D01*
X015141Y014777D01*
X015174Y014768D01*
X015205Y014755D01*
X015234Y014739D01*
X015261Y014720D01*
X015286Y014697D01*
X015308Y014672D01*
X015327Y014644D01*
X015342Y014614D01*
X015354Y014583D01*
X015362Y014550D01*
X015366Y014517D01*
X015366Y014483D01*
X015362Y014450D01*
X015354Y014417D01*
X015342Y014386D01*
X015327Y014356D01*
X015308Y014328D01*
X015286Y014303D01*
X015261Y014280D01*
X015234Y014261D01*
X015205Y014245D01*
X015174Y014232D01*
X015141Y014223D01*
X015108Y014218D01*
X015075Y014217D01*
X015041Y014220D01*
X015008Y014227D01*
X014977Y014238D01*
X014946Y014252D01*
X014918Y014270D01*
X014892Y014291D01*
X014869Y014315D01*
X014848Y014342D01*
X014831Y014371D01*
X014818Y014401D01*
X014808Y014434D01*
X014802Y014467D01*
X014800Y014500D01*
X017103Y017092D02*
X017488Y017092D01*
X017488Y017403D01*
X017488Y017910D02*
X017488Y018212D01*
X017103Y018212D01*
X017528Y011602D02*
X017528Y011102D01*
X017528Y010802D02*
X017528Y010352D01*
X018128Y010352D01*
X018128Y010802D01*
X018128Y011102D02*
X018128Y011602D01*
X017528Y011602D01*
X018428Y011602D02*
X018428Y011102D01*
X018428Y010802D02*
X018428Y010352D01*
X019028Y010352D01*
X019028Y010802D01*
X019028Y011102D02*
X019028Y011602D01*
X018428Y011602D01*
X018428Y010352D02*
X018478Y010302D01*
X018528Y010252D01*
X018928Y010252D01*
X018978Y010302D01*
X019028Y010352D01*
X018978Y010302D02*
X018478Y010302D01*
X018128Y010352D02*
X018078Y010302D01*
X018028Y010252D01*
X017628Y010252D01*
X017578Y010302D01*
X017528Y010352D01*
X017578Y010302D02*
X018078Y010302D01*
X017488Y008212D02*
X017103Y008212D01*
X017488Y008212D02*
X017488Y007910D01*
X017488Y007403D02*
X017488Y007092D01*
X017103Y007092D01*
X014800Y004500D02*
X014802Y004533D01*
X014808Y004566D01*
X014818Y004599D01*
X014831Y004629D01*
X014848Y004658D01*
X014869Y004685D01*
X014892Y004709D01*
X014918Y004730D01*
X014946Y004748D01*
X014977Y004762D01*
X015008Y004773D01*
X015041Y004780D01*
X015075Y004783D01*
X015108Y004782D01*
X015141Y004777D01*
X015174Y004768D01*
X015205Y004755D01*
X015234Y004739D01*
X015261Y004720D01*
X015286Y004697D01*
X015308Y004672D01*
X015327Y004644D01*
X015342Y004614D01*
X015354Y004583D01*
X015362Y004550D01*
X015366Y004517D01*
X015366Y004483D01*
X015362Y004450D01*
X015354Y004417D01*
X015342Y004386D01*
X015327Y004356D01*
X015308Y004328D01*
X015286Y004303D01*
X015261Y004280D01*
X015234Y004261D01*
X015205Y004245D01*
X015174Y004232D01*
X015141Y004223D01*
X015108Y004218D01*
X015075Y004217D01*
X015041Y004220D01*
X015008Y004227D01*
X014977Y004238D01*
X014946Y004252D01*
X014918Y004270D01*
X014892Y004291D01*
X014869Y004315D01*
X014848Y004342D01*
X014831Y004371D01*
X014818Y004401D01*
X014808Y004434D01*
X014802Y004467D01*
X014800Y004500D01*
X017528Y001602D02*
X017528Y001102D01*
X017528Y000802D02*
X017528Y000352D01*
X018128Y000352D01*
X018128Y000802D01*
X018128Y001102D02*
X018128Y001602D01*
X017528Y001602D01*
X018428Y001602D02*
X018428Y001102D01*
X018428Y000802D02*
X018428Y000352D01*
X019028Y000352D01*
X019028Y000802D01*
X019028Y001102D02*
X019028Y001602D01*
X018428Y001602D01*
X018428Y000352D02*
X018478Y000302D01*
X018528Y000252D01*
X018928Y000252D01*
X018978Y000302D01*
X019028Y000352D01*
X018978Y000302D02*
X018478Y000302D01*
X018128Y000352D02*
X018078Y000302D01*
X018028Y000252D01*
X017628Y000252D01*
X017578Y000302D01*
X017528Y000352D01*
X017578Y000302D02*
X018078Y000302D01*
X010528Y000252D02*
X010528Y019552D01*
X010328Y019652D02*
X010728Y019652D01*
X007588Y018212D02*
X007588Y017910D01*
X007588Y018212D02*
X007203Y018212D01*
X007588Y017403D02*
X007588Y017092D01*
X007203Y017092D01*
X004900Y014500D02*
X004902Y014533D01*
X004908Y014566D01*
X004918Y014599D01*
X004931Y014629D01*
X004948Y014658D01*
X004969Y014685D01*
X004992Y014709D01*
X005018Y014730D01*
X005046Y014748D01*
X005077Y014762D01*
X005108Y014773D01*
X005141Y014780D01*
X005175Y014783D01*
X005208Y014782D01*
X005241Y014777D01*
X005274Y014768D01*
X005305Y014755D01*
X005334Y014739D01*
X005361Y014720D01*
X005386Y014697D01*
X005408Y014672D01*
X005427Y014644D01*
X005442Y014614D01*
X005454Y014583D01*
X005462Y014550D01*
X005466Y014517D01*
X005466Y014483D01*
X005462Y014450D01*
X005454Y014417D01*
X005442Y014386D01*
X005427Y014356D01*
X005408Y014328D01*
X005386Y014303D01*
X005361Y014280D01*
X005334Y014261D01*
X005305Y014245D01*
X005274Y014232D01*
X005241Y014223D01*
X005208Y014218D01*
X005175Y014217D01*
X005141Y014220D01*
X005108Y014227D01*
X005077Y014238D01*
X005046Y014252D01*
X005018Y014270D01*
X004992Y014291D01*
X004969Y014315D01*
X004948Y014342D01*
X004931Y014371D01*
X004918Y014401D01*
X004908Y014434D01*
X004902Y014467D01*
X004900Y014500D01*
X000828Y009852D02*
X020128Y009852D01*
X009128Y001602D02*
X009128Y001102D01*
X009128Y000802D02*
X009128Y000352D01*
X008528Y000352D01*
X008578Y000302D01*
X008628Y000252D01*
X009028Y000252D01*
X009078Y000302D01*
X009128Y000352D01*
X009078Y000302D02*
X008578Y000302D01*
X008528Y000352D02*
X008528Y000802D01*
X008528Y001102D02*
X008528Y001602D01*
X009128Y001602D01*
X008228Y001602D02*
X008228Y001102D01*
X008228Y000802D02*
X008228Y000352D01*
X007628Y000352D01*
X007678Y000302D01*
X007728Y000252D01*
X008128Y000252D01*
X008178Y000302D01*
X008228Y000352D01*
X008178Y000302D02*
X007678Y000302D01*
X007628Y000352D02*
X007628Y000802D01*
X007628Y001102D02*
X007628Y001602D01*
X008228Y001602D01*
D11*
X007205Y001462D02*
X007205Y001322D01*
X007205Y001462D02*
X007158Y001509D01*
X007018Y001509D01*
X007018Y001322D01*
X006915Y001322D02*
X006822Y001322D01*
X006869Y001322D02*
X006869Y001509D01*
X006822Y001509D01*
X006869Y001602D02*
X006869Y001649D01*
X006714Y001602D02*
X006714Y001415D01*
X006621Y001322D01*
X006527Y001415D01*
X006527Y001602D01*
X006203Y001556D02*
X006157Y001602D01*
X006016Y001602D01*
X006016Y001322D01*
X006157Y001322D01*
X006203Y001369D01*
X006203Y001556D01*
X005909Y001602D02*
X005909Y001322D01*
X005722Y001602D01*
X005722Y001322D01*
X005614Y001369D02*
X005614Y001462D01*
X005521Y001462D01*
X005614Y001369D02*
X005567Y001322D01*
X005474Y001322D01*
X005427Y001369D01*
X005427Y001556D01*
X005474Y001602D01*
X005567Y001602D01*
X005614Y001556D01*
X004995Y001502D02*
X004995Y001409D01*
X004948Y001362D01*
X004854Y001362D01*
X004808Y001409D01*
X004808Y001502D02*
X004901Y001549D01*
X004948Y001549D01*
X004995Y001502D01*
X004995Y001642D02*
X004808Y001642D01*
X004808Y001502D01*
X004700Y001502D02*
X004513Y001502D01*
X004607Y001596D02*
X004607Y001409D01*
X004237Y003137D02*
X004237Y003324D01*
X004237Y003231D02*
X004517Y003231D01*
X004517Y003432D02*
X004517Y003525D01*
X004517Y003478D02*
X004330Y003478D01*
X004330Y003432D01*
X004237Y003478D02*
X004190Y003478D01*
X004330Y003628D02*
X004330Y003768D01*
X004377Y003815D01*
X004517Y003815D01*
X004470Y003923D02*
X004517Y003970D01*
X004517Y004110D01*
X004564Y004110D02*
X004610Y004063D01*
X004610Y004016D01*
X004564Y004110D02*
X004330Y004110D01*
X004330Y004218D02*
X004283Y004218D01*
X004237Y004264D01*
X004237Y004358D01*
X004283Y004404D01*
X004330Y004404D01*
X004377Y004358D01*
X004377Y004264D01*
X004330Y004218D01*
X004377Y004264D02*
X004424Y004218D01*
X004470Y004218D01*
X004517Y004264D01*
X004517Y004358D01*
X004470Y004404D01*
X004424Y004404D01*
X004377Y004358D01*
X004377Y004512D02*
X004237Y004512D01*
X004237Y004699D01*
X004330Y004652D02*
X004377Y004699D01*
X004470Y004699D01*
X004517Y004652D01*
X004517Y004559D01*
X004470Y004512D01*
X004377Y004512D02*
X004330Y004606D01*
X004330Y004652D01*
X004330Y003923D02*
X004470Y003923D01*
X004517Y003628D02*
X004330Y003628D01*
X002689Y004309D02*
X002643Y004262D01*
X002549Y004262D01*
X002502Y004309D01*
X002689Y004496D01*
X002689Y004309D01*
X002502Y004309D02*
X002502Y004496D01*
X002549Y004542D01*
X002643Y004542D01*
X002689Y004496D01*
X002395Y004262D02*
X002208Y004262D01*
X002301Y004262D02*
X002301Y004542D01*
X002208Y004449D01*
X002100Y004496D02*
X002100Y004309D01*
X002053Y004262D01*
X001913Y004262D01*
X001913Y004542D01*
X002053Y004542D01*
X002100Y004496D01*
X003213Y006662D02*
X003213Y006942D01*
X003353Y006942D01*
X003400Y006896D01*
X003400Y006802D01*
X003353Y006756D01*
X003213Y006756D01*
X003307Y006756D02*
X003400Y006662D01*
X003508Y006709D02*
X003508Y006802D01*
X003554Y006849D01*
X003648Y006849D01*
X003695Y006802D01*
X003695Y006756D01*
X003508Y006756D01*
X003508Y006709D02*
X003554Y006662D01*
X003648Y006662D01*
X003802Y006662D02*
X003943Y006662D01*
X003989Y006709D01*
X003943Y006756D01*
X003849Y006756D01*
X003802Y006802D01*
X003849Y006849D01*
X003989Y006849D01*
X004097Y006802D02*
X004097Y006709D01*
X004144Y006662D01*
X004237Y006662D01*
X004284Y006756D02*
X004097Y006756D01*
X004097Y006802D02*
X004144Y006849D01*
X004237Y006849D01*
X004284Y006802D01*
X004284Y006756D01*
X004392Y006849D02*
X004485Y006849D01*
X004438Y006896D02*
X004438Y006709D01*
X004485Y006662D01*
X004837Y008676D02*
X004884Y008676D01*
X004930Y008723D01*
X004930Y008816D01*
X004977Y008863D01*
X005024Y008863D01*
X005071Y008816D01*
X005071Y008723D01*
X005024Y008676D01*
X004837Y008676D02*
X004790Y008723D01*
X004790Y008816D01*
X004837Y008863D01*
X004837Y008971D02*
X005024Y008971D01*
X005071Y009018D01*
X005071Y009111D01*
X005024Y009158D01*
X005071Y009266D02*
X004790Y009266D01*
X004837Y009158D02*
X004790Y009111D01*
X004790Y009018D01*
X004837Y008971D01*
X005071Y009266D02*
X005071Y009452D01*
X005790Y009334D02*
X005884Y009427D01*
X006071Y009427D01*
X005930Y009427D02*
X005930Y009241D01*
X005884Y009241D02*
X006071Y009241D01*
X006024Y009133D02*
X005837Y009133D01*
X005790Y009086D01*
X005790Y008946D01*
X006071Y008946D01*
X006071Y009086D01*
X006024Y009133D01*
X005884Y009241D02*
X005790Y009334D01*
X005837Y008838D02*
X005790Y008791D01*
X005790Y008698D01*
X005837Y008651D01*
X005884Y008651D01*
X005930Y008698D01*
X005930Y008791D01*
X005977Y008838D01*
X006024Y008838D01*
X006071Y008791D01*
X006071Y008698D01*
X006024Y008651D01*
X006837Y009032D02*
X007024Y009032D01*
X006930Y008939D02*
X006930Y009126D01*
X006930Y009233D02*
X006884Y009327D01*
X006884Y009373D01*
X006930Y009420D01*
X007024Y009420D01*
X007071Y009373D01*
X007071Y009280D01*
X007024Y009233D01*
X006930Y009233D02*
X006790Y009233D01*
X006790Y009420D01*
X007790Y009381D02*
X007790Y009241D01*
X008071Y009241D01*
X008071Y009381D01*
X008024Y009427D01*
X007837Y009427D01*
X007790Y009381D01*
X007790Y009133D02*
X008071Y009133D01*
X007790Y008946D01*
X008071Y008946D01*
X008024Y008838D02*
X007930Y008838D01*
X007930Y008745D01*
X007837Y008838D02*
X007790Y008791D01*
X007790Y008698D01*
X007837Y008651D01*
X008024Y008651D01*
X008071Y008698D01*
X008071Y008791D01*
X008024Y008838D01*
X007205Y011322D02*
X007205Y011462D01*
X007158Y011509D01*
X007018Y011509D01*
X007018Y011322D01*
X006915Y011322D02*
X006822Y011322D01*
X006869Y011322D02*
X006869Y011509D01*
X006822Y011509D01*
X006869Y011602D02*
X006869Y011649D01*
X006714Y011602D02*
X006714Y011415D01*
X006621Y011322D01*
X006527Y011415D01*
X006527Y011602D01*
X006203Y011556D02*
X006203Y011369D01*
X006157Y011322D01*
X006016Y011322D01*
X006016Y011602D01*
X006157Y011602D01*
X006203Y011556D01*
X005909Y011602D02*
X005909Y011322D01*
X005722Y011602D01*
X005722Y011322D01*
X005614Y011369D02*
X005614Y011462D01*
X005521Y011462D01*
X005614Y011369D02*
X005567Y011322D01*
X005474Y011322D01*
X005427Y011369D01*
X005427Y011556D01*
X005474Y011602D01*
X005567Y011602D01*
X005614Y011556D01*
X004995Y011502D02*
X004995Y011409D01*
X004948Y011362D01*
X004854Y011362D01*
X004808Y011409D01*
X004808Y011502D02*
X004901Y011549D01*
X004948Y011549D01*
X004995Y011502D01*
X004995Y011642D02*
X004808Y011642D01*
X004808Y011502D01*
X004700Y011502D02*
X004513Y011502D01*
X004607Y011596D02*
X004607Y011409D01*
X004237Y013137D02*
X004237Y013324D01*
X004237Y013231D02*
X004517Y013231D01*
X004517Y013432D02*
X004517Y013525D01*
X004517Y013478D02*
X004330Y013478D01*
X004330Y013432D01*
X004237Y013478D02*
X004190Y013478D01*
X004330Y013628D02*
X004330Y013768D01*
X004377Y013815D01*
X004517Y013815D01*
X004470Y013923D02*
X004517Y013970D01*
X004517Y014110D01*
X004564Y014110D02*
X004610Y014063D01*
X004610Y014016D01*
X004564Y014110D02*
X004330Y014110D01*
X004330Y014218D02*
X004283Y014218D01*
X004237Y014264D01*
X004237Y014358D01*
X004283Y014404D01*
X004330Y014404D01*
X004377Y014358D01*
X004377Y014264D01*
X004330Y014218D01*
X004377Y014264D02*
X004424Y014218D01*
X004470Y014218D01*
X004517Y014264D01*
X004517Y014358D01*
X004470Y014404D01*
X004424Y014404D01*
X004377Y014358D01*
X004377Y014512D02*
X004330Y014606D01*
X004330Y014652D01*
X004377Y014699D01*
X004470Y014699D01*
X004517Y014652D01*
X004517Y014559D01*
X004470Y014512D01*
X004377Y014512D02*
X004237Y014512D01*
X004237Y014699D01*
X004330Y013923D02*
X004470Y013923D01*
X004517Y013628D02*
X004330Y013628D01*
X002689Y014309D02*
X002643Y014262D01*
X002549Y014262D01*
X002502Y014309D01*
X002689Y014496D01*
X002689Y014309D01*
X002502Y014309D02*
X002502Y014496D01*
X002549Y014542D01*
X002643Y014542D01*
X002689Y014496D01*
X002395Y014262D02*
X002208Y014262D01*
X002301Y014262D02*
X002301Y014542D01*
X002208Y014449D01*
X002100Y014496D02*
X002053Y014542D01*
X001913Y014542D01*
X001913Y014262D01*
X002053Y014262D01*
X002100Y014309D01*
X002100Y014496D01*
X003213Y016662D02*
X003213Y016942D01*
X003353Y016942D01*
X003400Y016896D01*
X003400Y016802D01*
X003353Y016756D01*
X003213Y016756D01*
X003307Y016756D02*
X003400Y016662D01*
X003508Y016709D02*
X003508Y016802D01*
X003554Y016849D01*
X003648Y016849D01*
X003695Y016802D01*
X003695Y016756D01*
X003508Y016756D01*
X003508Y016709D02*
X003554Y016662D01*
X003648Y016662D01*
X003802Y016662D02*
X003943Y016662D01*
X003989Y016709D01*
X003943Y016756D01*
X003849Y016756D01*
X003802Y016802D01*
X003849Y016849D01*
X003989Y016849D01*
X004097Y016802D02*
X004144Y016849D01*
X004237Y016849D01*
X004284Y016802D01*
X004284Y016756D01*
X004097Y016756D01*
X004097Y016802D02*
X004097Y016709D01*
X004144Y016662D01*
X004237Y016662D01*
X004438Y016709D02*
X004438Y016896D01*
X004392Y016849D02*
X004485Y016849D01*
X004438Y016709D02*
X004485Y016662D01*
X004837Y018676D02*
X004884Y018676D01*
X004930Y018723D01*
X004930Y018816D01*
X004977Y018863D01*
X005024Y018863D01*
X005071Y018816D01*
X005071Y018723D01*
X005024Y018676D01*
X004837Y018676D02*
X004790Y018723D01*
X004790Y018816D01*
X004837Y018863D01*
X004837Y018971D02*
X005024Y018971D01*
X005071Y019018D01*
X005071Y019111D01*
X005024Y019158D01*
X005071Y019266D02*
X005071Y019452D01*
X005071Y019266D02*
X004790Y019266D01*
X004837Y019158D02*
X004790Y019111D01*
X004790Y019018D01*
X004837Y018971D01*
X003960Y018987D02*
X003680Y018987D01*
X003773Y018894D01*
X003960Y018894D02*
X003960Y019080D01*
X005790Y019086D02*
X005790Y018946D01*
X006071Y018946D01*
X006071Y019086D01*
X006024Y019133D01*
X005837Y019133D01*
X005790Y019086D01*
X005884Y019241D02*
X005790Y019334D01*
X005884Y019427D01*
X006071Y019427D01*
X005930Y019427D02*
X005930Y019241D01*
X005884Y019241D02*
X006071Y019241D01*
X006024Y018838D02*
X006071Y018791D01*
X006071Y018698D01*
X006024Y018651D01*
X005930Y018698D02*
X005930Y018791D01*
X005977Y018838D01*
X006024Y018838D01*
X005930Y018698D02*
X005884Y018651D01*
X005837Y018651D01*
X005790Y018698D01*
X005790Y018791D01*
X005837Y018838D01*
X006837Y019032D02*
X007024Y019032D01*
X006930Y018939D02*
X006930Y019126D01*
X006930Y019233D02*
X006884Y019327D01*
X006884Y019373D01*
X006930Y019420D01*
X007024Y019420D01*
X007071Y019373D01*
X007071Y019280D01*
X007024Y019233D01*
X006930Y019233D02*
X006790Y019233D01*
X006790Y019420D01*
X007790Y019381D02*
X007790Y019241D01*
X008071Y019241D01*
X008071Y019381D01*
X008024Y019427D01*
X007837Y019427D01*
X007790Y019381D01*
X007790Y019133D02*
X008071Y019133D01*
X007790Y018946D01*
X008071Y018946D01*
X008024Y018838D02*
X007930Y018838D01*
X007930Y018745D01*
X007837Y018838D02*
X007790Y018791D01*
X007790Y018698D01*
X007837Y018651D01*
X008024Y018651D01*
X008071Y018698D01*
X008071Y018791D01*
X008024Y018838D01*
X011813Y014542D02*
X011953Y014542D01*
X012000Y014496D01*
X012000Y014309D01*
X011953Y014262D01*
X011813Y014262D01*
X011813Y014542D01*
X012108Y014449D02*
X012201Y014542D01*
X012201Y014262D01*
X012108Y014262D02*
X012295Y014262D01*
X012402Y014309D02*
X012589Y014496D01*
X012589Y014309D01*
X012543Y014262D01*
X012449Y014262D01*
X012402Y014309D01*
X012402Y014496D01*
X012449Y014542D01*
X012543Y014542D01*
X012589Y014496D01*
X014137Y014512D02*
X014277Y014512D01*
X014230Y014606D01*
X014230Y014652D01*
X014277Y014699D01*
X014370Y014699D01*
X014417Y014652D01*
X014417Y014559D01*
X014370Y014512D01*
X014370Y014404D02*
X014417Y014358D01*
X014417Y014264D01*
X014370Y014218D01*
X014324Y014218D01*
X014277Y014264D01*
X014277Y014358D01*
X014324Y014404D01*
X014370Y014404D01*
X014277Y014358D02*
X014230Y014404D01*
X014183Y014404D01*
X014137Y014358D01*
X014137Y014264D01*
X014183Y014218D01*
X014230Y014218D01*
X014277Y014264D01*
X014230Y014110D02*
X014464Y014110D01*
X014510Y014063D01*
X014510Y014016D01*
X014417Y013970D02*
X014417Y014110D01*
X014417Y013970D02*
X014370Y013923D01*
X014230Y013923D01*
X014277Y013815D02*
X014230Y013768D01*
X014230Y013628D01*
X014417Y013628D01*
X014417Y013525D02*
X014417Y013432D01*
X014417Y013478D02*
X014230Y013478D01*
X014230Y013432D01*
X014137Y013478D02*
X014090Y013478D01*
X014137Y013324D02*
X014137Y013137D01*
X014137Y013231D02*
X014417Y013231D01*
X014417Y013815D02*
X014277Y013815D01*
X014137Y014512D02*
X014137Y014699D01*
X014137Y016662D02*
X014044Y016662D01*
X013997Y016709D01*
X013997Y016802D01*
X014044Y016849D01*
X014137Y016849D01*
X014184Y016802D01*
X014184Y016756D01*
X013997Y016756D01*
X013889Y016709D02*
X013843Y016756D01*
X013749Y016756D01*
X013702Y016802D01*
X013749Y016849D01*
X013889Y016849D01*
X013889Y016709D02*
X013843Y016662D01*
X013702Y016662D01*
X013595Y016756D02*
X013408Y016756D01*
X013408Y016802D02*
X013454Y016849D01*
X013548Y016849D01*
X013595Y016802D01*
X013595Y016756D01*
X013548Y016662D02*
X013454Y016662D01*
X013408Y016709D01*
X013408Y016802D01*
X013300Y016802D02*
X013253Y016756D01*
X013113Y016756D01*
X013207Y016756D02*
X013300Y016662D01*
X013300Y016802D02*
X013300Y016896D01*
X013253Y016942D01*
X013113Y016942D01*
X013113Y016662D01*
X014292Y016849D02*
X014385Y016849D01*
X014338Y016896D02*
X014338Y016709D01*
X014385Y016662D01*
X014737Y018676D02*
X014784Y018676D01*
X014830Y018723D01*
X014830Y018816D01*
X014877Y018863D01*
X014924Y018863D01*
X014971Y018816D01*
X014971Y018723D01*
X014924Y018676D01*
X014737Y018676D02*
X014690Y018723D01*
X014690Y018816D01*
X014737Y018863D01*
X014737Y018971D02*
X014924Y018971D01*
X014971Y019018D01*
X014971Y019111D01*
X014924Y019158D01*
X014971Y019266D02*
X014971Y019452D01*
X014971Y019266D02*
X014690Y019266D01*
X014737Y019158D02*
X014690Y019111D01*
X014690Y019018D01*
X014737Y018971D01*
X015690Y018946D02*
X015690Y019086D01*
X015737Y019133D01*
X015924Y019133D01*
X015971Y019086D01*
X015971Y018946D01*
X015690Y018946D01*
X015737Y018838D02*
X015690Y018791D01*
X015690Y018698D01*
X015737Y018651D01*
X015784Y018651D01*
X015830Y018698D01*
X015830Y018791D01*
X015877Y018838D01*
X015924Y018838D01*
X015971Y018791D01*
X015971Y018698D01*
X015924Y018651D01*
X015971Y019241D02*
X015784Y019241D01*
X015690Y019334D01*
X015784Y019427D01*
X015971Y019427D01*
X015830Y019427D02*
X015830Y019241D01*
X016690Y019233D02*
X016830Y019233D01*
X016784Y019327D01*
X016784Y019373D01*
X016830Y019420D01*
X016924Y019420D01*
X016971Y019373D01*
X016971Y019280D01*
X016924Y019233D01*
X016830Y019126D02*
X016830Y018939D01*
X016737Y019032D02*
X016924Y019032D01*
X016690Y019233D02*
X016690Y019420D01*
X017690Y019381D02*
X017690Y019241D01*
X017971Y019241D01*
X017971Y019381D01*
X017924Y019427D01*
X017737Y019427D01*
X017690Y019381D01*
X017690Y019133D02*
X017971Y019133D01*
X017690Y018946D01*
X017971Y018946D01*
X017924Y018838D02*
X017830Y018838D01*
X017830Y018745D01*
X017737Y018838D02*
X017690Y018791D01*
X017690Y018698D01*
X017737Y018651D01*
X017924Y018651D01*
X017971Y018698D01*
X017971Y018791D01*
X017924Y018838D01*
X013860Y018894D02*
X013860Y019080D01*
X013860Y018987D02*
X013580Y018987D01*
X013673Y018894D01*
X014708Y011642D02*
X014708Y011502D01*
X014801Y011549D01*
X014848Y011549D01*
X014895Y011502D01*
X014895Y011409D01*
X014848Y011362D01*
X014754Y011362D01*
X014708Y011409D01*
X014600Y011502D02*
X014413Y011502D01*
X014507Y011596D02*
X014507Y011409D01*
X014708Y011642D02*
X014895Y011642D01*
X015327Y011556D02*
X015327Y011369D01*
X015374Y011322D01*
X015467Y011322D01*
X015514Y011369D01*
X015514Y011462D01*
X015421Y011462D01*
X015514Y011556D02*
X015467Y011602D01*
X015374Y011602D01*
X015327Y011556D01*
X015622Y011602D02*
X015622Y011322D01*
X015809Y011322D02*
X015622Y011602D01*
X015809Y011602D02*
X015809Y011322D01*
X015916Y011322D02*
X015916Y011602D01*
X016057Y011602D01*
X016103Y011556D01*
X016103Y011369D01*
X016057Y011322D01*
X015916Y011322D01*
X016427Y011415D02*
X016521Y011322D01*
X016614Y011415D01*
X016614Y011602D01*
X016722Y011509D02*
X016769Y011509D01*
X016769Y011322D01*
X016815Y011322D02*
X016722Y011322D01*
X016918Y011322D02*
X016918Y011509D01*
X017058Y011509D01*
X017105Y011462D01*
X017105Y011322D01*
X016769Y011602D02*
X016769Y011649D01*
X016427Y011602D02*
X016427Y011415D01*
X016690Y009420D02*
X016690Y009233D01*
X016830Y009233D01*
X016784Y009327D01*
X016784Y009373D01*
X016830Y009420D01*
X016924Y009420D01*
X016971Y009373D01*
X016971Y009280D01*
X016924Y009233D01*
X016830Y009126D02*
X016830Y008939D01*
X016737Y009032D02*
X016924Y009032D01*
X017690Y008946D02*
X017971Y009133D01*
X017690Y009133D01*
X017690Y009241D02*
X017690Y009381D01*
X017737Y009427D01*
X017924Y009427D01*
X017971Y009381D01*
X017971Y009241D01*
X017690Y009241D01*
X017690Y008946D02*
X017971Y008946D01*
X017924Y008838D02*
X017971Y008791D01*
X017971Y008698D01*
X017924Y008651D01*
X017737Y008651D01*
X017690Y008698D01*
X017690Y008791D01*
X017737Y008838D01*
X017830Y008838D02*
X017830Y008745D01*
X017830Y008838D02*
X017924Y008838D01*
X015971Y008791D02*
X015971Y008698D01*
X015924Y008651D01*
X015830Y008698D02*
X015830Y008791D01*
X015877Y008838D01*
X015924Y008838D01*
X015971Y008791D01*
X015971Y008946D02*
X015971Y009086D01*
X015924Y009133D01*
X015737Y009133D01*
X015690Y009086D01*
X015690Y008946D01*
X015971Y008946D01*
X015737Y008838D02*
X015690Y008791D01*
X015690Y008698D01*
X015737Y008651D01*
X015784Y008651D01*
X015830Y008698D01*
X015830Y009241D02*
X015830Y009427D01*
X015784Y009427D02*
X015971Y009427D01*
X015971Y009241D02*
X015784Y009241D01*
X015690Y009334D01*
X015784Y009427D01*
X014971Y009452D02*
X014971Y009266D01*
X014690Y009266D01*
X014737Y009158D02*
X014690Y009111D01*
X014690Y009018D01*
X014737Y008971D01*
X014924Y008971D01*
X014971Y009018D01*
X014971Y009111D01*
X014924Y009158D01*
X014924Y008863D02*
X014877Y008863D01*
X014830Y008816D01*
X014830Y008723D01*
X014784Y008676D01*
X014737Y008676D01*
X014690Y008723D01*
X014690Y008816D01*
X014737Y008863D01*
X014924Y008863D02*
X014971Y008816D01*
X014971Y008723D01*
X014924Y008676D01*
X013860Y008894D02*
X013860Y009080D01*
X013860Y008987D02*
X013580Y008987D01*
X013673Y008894D01*
X013253Y006942D02*
X013113Y006942D01*
X013113Y006662D01*
X013113Y006756D02*
X013253Y006756D01*
X013300Y006802D01*
X013300Y006896D01*
X013253Y006942D01*
X013207Y006756D02*
X013300Y006662D01*
X013408Y006709D02*
X013408Y006802D01*
X013454Y006849D01*
X013548Y006849D01*
X013595Y006802D01*
X013595Y006756D01*
X013408Y006756D01*
X013408Y006709D02*
X013454Y006662D01*
X013548Y006662D01*
X013702Y006662D02*
X013843Y006662D01*
X013889Y006709D01*
X013843Y006756D01*
X013749Y006756D01*
X013702Y006802D01*
X013749Y006849D01*
X013889Y006849D01*
X013997Y006802D02*
X014044Y006849D01*
X014137Y006849D01*
X014184Y006802D01*
X014184Y006756D01*
X013997Y006756D01*
X013997Y006802D02*
X013997Y006709D01*
X014044Y006662D01*
X014137Y006662D01*
X014338Y006709D02*
X014338Y006896D01*
X014292Y006849D02*
X014385Y006849D01*
X014338Y006709D02*
X014385Y006662D01*
X014370Y004699D02*
X014417Y004652D01*
X014417Y004559D01*
X014370Y004512D01*
X014277Y004512D02*
X014230Y004606D01*
X014230Y004652D01*
X014277Y004699D01*
X014370Y004699D01*
X014277Y004512D02*
X014137Y004512D01*
X014137Y004699D01*
X014183Y004404D02*
X014230Y004404D01*
X014277Y004358D01*
X014277Y004264D01*
X014230Y004218D01*
X014183Y004218D01*
X014137Y004264D01*
X014137Y004358D01*
X014183Y004404D01*
X014277Y004358D02*
X014324Y004404D01*
X014370Y004404D01*
X014417Y004358D01*
X014417Y004264D01*
X014370Y004218D01*
X014324Y004218D01*
X014277Y004264D01*
X014230Y004110D02*
X014464Y004110D01*
X014510Y004063D01*
X014510Y004016D01*
X014417Y003970D02*
X014417Y004110D01*
X014417Y003970D02*
X014370Y003923D01*
X014230Y003923D01*
X014277Y003815D02*
X014230Y003768D01*
X014230Y003628D01*
X014417Y003628D01*
X014417Y003525D02*
X014417Y003432D01*
X014417Y003478D02*
X014230Y003478D01*
X014230Y003432D01*
X014137Y003478D02*
X014090Y003478D01*
X014137Y003324D02*
X014137Y003137D01*
X014137Y003231D02*
X014417Y003231D01*
X014417Y003815D02*
X014277Y003815D01*
X012589Y004309D02*
X012543Y004262D01*
X012449Y004262D01*
X012402Y004309D01*
X012589Y004496D01*
X012589Y004309D01*
X012402Y004309D02*
X012402Y004496D01*
X012449Y004542D01*
X012543Y004542D01*
X012589Y004496D01*
X012295Y004262D02*
X012108Y004262D01*
X012201Y004262D02*
X012201Y004542D01*
X012108Y004449D01*
X012000Y004496D02*
X011953Y004542D01*
X011813Y004542D01*
X011813Y004262D01*
X011953Y004262D01*
X012000Y004309D01*
X012000Y004496D01*
X014507Y001596D02*
X014507Y001409D01*
X014600Y001502D02*
X014413Y001502D01*
X014708Y001502D02*
X014801Y001549D01*
X014848Y001549D01*
X014895Y001502D01*
X014895Y001409D01*
X014848Y001362D01*
X014754Y001362D01*
X014708Y001409D01*
X014708Y001502D02*
X014708Y001642D01*
X014895Y001642D01*
X015327Y001556D02*
X015327Y001369D01*
X015374Y001322D01*
X015467Y001322D01*
X015514Y001369D01*
X015514Y001462D01*
X015421Y001462D01*
X015514Y001556D02*
X015467Y001602D01*
X015374Y001602D01*
X015327Y001556D01*
X015622Y001602D02*
X015622Y001322D01*
X015809Y001322D02*
X015809Y001602D01*
X015916Y001602D02*
X016057Y001602D01*
X016103Y001556D01*
X016103Y001369D01*
X016057Y001322D01*
X015916Y001322D01*
X015916Y001602D01*
X015622Y001602D02*
X015809Y001322D01*
X016427Y001415D02*
X016521Y001322D01*
X016614Y001415D01*
X016614Y001602D01*
X016722Y001509D02*
X016769Y001509D01*
X016769Y001322D01*
X016815Y001322D02*
X016722Y001322D01*
X016918Y001322D02*
X016918Y001509D01*
X017058Y001509D01*
X017105Y001462D01*
X017105Y001322D01*
X016769Y001602D02*
X016769Y001649D01*
X016427Y001602D02*
X016427Y001415D01*
X003960Y008894D02*
X003960Y009080D01*
X003960Y008987D02*
X003680Y008987D01*
X003773Y008894D01*
D12*
X003645Y008341D02*
X005810Y008341D01*
X005810Y008340D02*
X005827Y008339D01*
X005844Y008334D01*
X005859Y008327D01*
X005873Y008317D01*
X005885Y008305D01*
X005895Y008291D01*
X005902Y008276D01*
X005907Y008259D01*
X005908Y008242D01*
X005909Y008242D02*
X005909Y008085D01*
X005318Y007947D02*
X005318Y007356D01*
X004137Y007356D01*
X004137Y007947D01*
X005318Y007947D01*
X005909Y007219D02*
X005909Y007061D01*
X005904Y007041D01*
X005895Y007022D01*
X005884Y007005D01*
X005869Y006990D01*
X005852Y006978D01*
X005833Y006969D01*
X005813Y006963D01*
X005792Y006961D01*
X005771Y006963D01*
X003645Y006963D01*
X003628Y006964D01*
X003611Y006969D01*
X003596Y006976D01*
X003582Y006986D01*
X003570Y006998D01*
X003560Y007012D01*
X003553Y007027D01*
X003548Y007044D01*
X003547Y007061D01*
X003546Y007061D02*
X003546Y007219D01*
X003546Y008085D02*
X003546Y008242D01*
X003547Y008242D02*
X003548Y008259D01*
X003553Y008276D01*
X003560Y008291D01*
X003570Y008305D01*
X003582Y008317D01*
X003596Y008327D01*
X003611Y008334D01*
X003628Y008339D01*
X003645Y008340D01*
X008802Y008168D02*
X008802Y007993D01*
X009152Y007993D01*
X009152Y008168D01*
X009094Y008226D01*
X008860Y008226D01*
X008802Y008168D01*
X008802Y007858D02*
X009152Y007858D01*
X008802Y007625D01*
X009152Y007625D01*
X009094Y007490D02*
X008977Y007490D01*
X008977Y007373D01*
X009094Y007490D02*
X009152Y007431D01*
X009152Y007315D01*
X009094Y007256D01*
X008860Y007256D01*
X008802Y007315D01*
X008802Y007431D01*
X008860Y007490D01*
X008918Y006917D02*
X008918Y006742D01*
X009035Y006801D01*
X009093Y006801D01*
X009152Y006742D01*
X009152Y006626D01*
X009093Y006567D01*
X008976Y006567D01*
X008918Y006626D01*
X008918Y006917D02*
X009152Y006917D01*
X009093Y005917D02*
X008918Y005742D01*
X009152Y005742D01*
X009093Y005567D02*
X009093Y005917D01*
X009093Y004917D02*
X009152Y004859D01*
X009152Y004801D01*
X009093Y004742D01*
X009152Y004684D01*
X009152Y004626D01*
X009093Y004567D01*
X008976Y004567D01*
X008918Y004626D01*
X009035Y004742D02*
X009093Y004742D01*
X009093Y004917D02*
X008976Y004917D01*
X008918Y004859D01*
X008976Y004017D02*
X008918Y003959D01*
X008976Y004017D02*
X009093Y004017D01*
X009152Y003959D01*
X009152Y003901D01*
X008918Y003667D01*
X009152Y003667D01*
X009035Y003117D02*
X008918Y003001D01*
X009035Y003117D02*
X009035Y002767D01*
X008918Y002767D02*
X009152Y002767D01*
X009093Y002417D02*
X009152Y002359D01*
X008918Y002126D01*
X008976Y002067D01*
X009093Y002067D01*
X009152Y002126D01*
X009152Y002359D01*
X009093Y002417D02*
X008976Y002417D01*
X008918Y002359D01*
X008918Y002126D01*
X013446Y007061D02*
X013446Y007219D01*
X013447Y007061D02*
X013448Y007044D01*
X013453Y007027D01*
X013460Y007012D01*
X013470Y006998D01*
X013482Y006986D01*
X013496Y006976D01*
X013511Y006969D01*
X013528Y006964D01*
X013545Y006963D01*
X015671Y006963D01*
X015692Y006961D01*
X015713Y006963D01*
X015733Y006969D01*
X015752Y006978D01*
X015769Y006990D01*
X015784Y007005D01*
X015795Y007022D01*
X015804Y007041D01*
X015809Y007061D01*
X015809Y007219D01*
X015218Y007356D02*
X015218Y007947D01*
X014037Y007947D01*
X014037Y007356D01*
X015218Y007356D01*
X015809Y008085D02*
X015809Y008242D01*
X015808Y008242D02*
X015807Y008259D01*
X015802Y008276D01*
X015795Y008291D01*
X015785Y008305D01*
X015773Y008317D01*
X015759Y008327D01*
X015744Y008334D01*
X015727Y008339D01*
X015710Y008340D01*
X015710Y008341D02*
X013545Y008341D01*
X013545Y008340D02*
X013528Y008339D01*
X013511Y008334D01*
X013496Y008327D01*
X013482Y008317D01*
X013470Y008305D01*
X013460Y008291D01*
X013453Y008276D01*
X013448Y008259D01*
X013447Y008242D01*
X013446Y008242D02*
X013446Y008085D01*
X009212Y008869D02*
X009154Y008810D01*
X009212Y008869D02*
X009212Y008986D01*
X009154Y009044D01*
X009037Y009044D01*
X008978Y008986D01*
X008978Y008927D01*
X009037Y008810D01*
X008862Y008810D01*
X008862Y009044D01*
X008862Y009179D02*
X009095Y009179D01*
X009212Y009296D01*
X009095Y009412D01*
X008862Y009412D01*
X009037Y008676D02*
X009037Y008442D01*
X008920Y008559D02*
X009154Y008559D01*
X009093Y012067D02*
X008976Y012067D01*
X008918Y012126D01*
X009152Y012359D01*
X009152Y012126D01*
X009093Y012067D01*
X008918Y012126D02*
X008918Y012359D01*
X008976Y012417D01*
X009093Y012417D01*
X009152Y012359D01*
X009152Y012767D02*
X008918Y012767D01*
X009035Y012767D02*
X009035Y013117D01*
X008918Y013001D01*
X008918Y013667D02*
X009152Y013901D01*
X009152Y013959D01*
X009093Y014017D01*
X008976Y014017D01*
X008918Y013959D01*
X008918Y013667D02*
X009152Y013667D01*
X009093Y014567D02*
X008976Y014567D01*
X008918Y014626D01*
X009035Y014742D02*
X009093Y014742D01*
X009152Y014684D01*
X009152Y014626D01*
X009093Y014567D01*
X009093Y014742D02*
X009152Y014801D01*
X009152Y014859D01*
X009093Y014917D01*
X008976Y014917D01*
X008918Y014859D01*
X009093Y015567D02*
X009093Y015917D01*
X008918Y015742D01*
X009152Y015742D01*
X009093Y016567D02*
X008976Y016567D01*
X008918Y016626D01*
X008918Y016742D02*
X009035Y016801D01*
X009093Y016801D01*
X009152Y016742D01*
X009152Y016626D01*
X009093Y016567D01*
X008918Y016742D02*
X008918Y016917D01*
X009152Y016917D01*
X009094Y017256D02*
X008860Y017256D01*
X008802Y017315D01*
X008802Y017431D01*
X008860Y017490D01*
X008977Y017490D02*
X008977Y017373D01*
X008977Y017490D02*
X009094Y017490D01*
X009152Y017431D01*
X009152Y017315D01*
X009094Y017256D01*
X009152Y017625D02*
X008802Y017625D01*
X009152Y017858D01*
X008802Y017858D01*
X008802Y017993D02*
X008802Y018168D01*
X008860Y018226D01*
X009094Y018226D01*
X009152Y018168D01*
X009152Y017993D01*
X008802Y017993D01*
X009037Y018442D02*
X009037Y018676D01*
X009037Y018810D02*
X008978Y018927D01*
X008978Y018986D01*
X009037Y019044D01*
X009154Y019044D01*
X009212Y018986D01*
X009212Y018869D01*
X009154Y018810D01*
X009037Y018810D02*
X008862Y018810D01*
X008862Y019044D01*
X008862Y019179D02*
X009095Y019179D01*
X009212Y019296D01*
X009095Y019412D01*
X008862Y019412D01*
X008920Y018559D02*
X009154Y018559D01*
X005909Y018242D02*
X005909Y018085D01*
X005908Y018242D02*
X005907Y018259D01*
X005902Y018276D01*
X005895Y018291D01*
X005885Y018305D01*
X005873Y018317D01*
X005859Y018327D01*
X005844Y018334D01*
X005827Y018339D01*
X005810Y018340D01*
X005810Y018341D02*
X003645Y018341D01*
X003645Y018340D02*
X003628Y018339D01*
X003611Y018334D01*
X003596Y018327D01*
X003582Y018317D01*
X003570Y018305D01*
X003560Y018291D01*
X003553Y018276D01*
X003548Y018259D01*
X003547Y018242D01*
X003546Y018242D02*
X003546Y018085D01*
X004137Y017947D02*
X004137Y017356D01*
X005318Y017356D01*
X005318Y017947D01*
X004137Y017947D01*
X003546Y017219D02*
X003546Y017061D01*
X003547Y017061D02*
X003548Y017044D01*
X003553Y017027D01*
X003560Y017012D01*
X003570Y016998D01*
X003582Y016986D01*
X003596Y016976D01*
X003611Y016969D01*
X003628Y016964D01*
X003645Y016963D01*
X005771Y016963D01*
X005792Y016961D01*
X005813Y016963D01*
X005833Y016969D01*
X005852Y016978D01*
X005869Y016990D01*
X005884Y017005D01*
X005895Y017022D01*
X005904Y017041D01*
X005909Y017061D01*
X005909Y017219D01*
X013446Y017219D02*
X013446Y017061D01*
X013447Y017061D02*
X013448Y017044D01*
X013453Y017027D01*
X013460Y017012D01*
X013470Y016998D01*
X013482Y016986D01*
X013496Y016976D01*
X013511Y016969D01*
X013528Y016964D01*
X013545Y016963D01*
X015671Y016963D01*
X015692Y016961D01*
X015713Y016963D01*
X015733Y016969D01*
X015752Y016978D01*
X015769Y016990D01*
X015784Y017005D01*
X015795Y017022D01*
X015804Y017041D01*
X015809Y017061D01*
X015809Y017219D01*
X015218Y017356D02*
X015218Y017947D01*
X014037Y017947D01*
X014037Y017356D01*
X015218Y017356D01*
X015809Y018085D02*
X015809Y018242D01*
X015808Y018242D02*
X015807Y018259D01*
X015802Y018276D01*
X015795Y018291D01*
X015785Y018305D01*
X015773Y018317D01*
X015759Y018327D01*
X015744Y018334D01*
X015727Y018339D01*
X015710Y018340D01*
X015710Y018341D02*
X013545Y018341D01*
X013545Y018340D02*
X013528Y018339D01*
X013511Y018334D01*
X013496Y018327D01*
X013482Y018317D01*
X013470Y018305D01*
X013460Y018291D01*
X013453Y018276D01*
X013448Y018259D01*
X013447Y018242D01*
X013446Y018242D02*
X013446Y018085D01*
X018702Y018168D02*
X018702Y017993D01*
X019052Y017993D01*
X019052Y018168D01*
X018994Y018226D01*
X018760Y018226D01*
X018702Y018168D01*
X018937Y018442D02*
X018937Y018676D01*
X018937Y018810D02*
X018878Y018927D01*
X018878Y018986D01*
X018937Y019044D01*
X019054Y019044D01*
X019112Y018986D01*
X019112Y018869D01*
X019054Y018810D01*
X018937Y018810D02*
X018762Y018810D01*
X018762Y019044D01*
X018762Y019179D02*
X018995Y019179D01*
X019112Y019296D01*
X018995Y019412D01*
X018762Y019412D01*
X018820Y018559D02*
X019054Y018559D01*
X019052Y017858D02*
X018702Y017858D01*
X018702Y017625D02*
X019052Y017858D01*
X019052Y017625D02*
X018702Y017625D01*
X018760Y017490D02*
X018702Y017431D01*
X018702Y017315D01*
X018760Y017256D01*
X018994Y017256D01*
X019052Y017315D01*
X019052Y017431D01*
X018994Y017490D01*
X018877Y017490D01*
X018877Y017373D01*
X018818Y016917D02*
X018818Y016742D01*
X018935Y016801D01*
X018993Y016801D01*
X019052Y016742D01*
X019052Y016626D01*
X018993Y016567D01*
X018876Y016567D01*
X018818Y016626D01*
X018818Y016917D02*
X019052Y016917D01*
X018993Y015917D02*
X018818Y015742D01*
X019052Y015742D01*
X018993Y015567D02*
X018993Y015917D01*
X018993Y014917D02*
X018876Y014917D01*
X018818Y014859D01*
X018935Y014742D02*
X018993Y014742D01*
X019052Y014684D01*
X019052Y014626D01*
X018993Y014567D01*
X018876Y014567D01*
X018818Y014626D01*
X018993Y014742D02*
X019052Y014801D01*
X019052Y014859D01*
X018993Y014917D01*
X018993Y014017D02*
X018876Y014017D01*
X018818Y013959D01*
X018993Y014017D02*
X019052Y013959D01*
X019052Y013901D01*
X018818Y013667D01*
X019052Y013667D01*
X018935Y013117D02*
X018935Y012767D01*
X018818Y012767D02*
X019052Y012767D01*
X018818Y013001D02*
X018935Y013117D01*
X018876Y012417D02*
X018993Y012417D01*
X019052Y012359D01*
X018818Y012126D01*
X018876Y012067D01*
X018993Y012067D01*
X019052Y012126D01*
X019052Y012359D01*
X018876Y012417D02*
X018818Y012359D01*
X018818Y012126D01*
X018762Y009412D02*
X018995Y009412D01*
X019112Y009296D01*
X018995Y009179D01*
X018762Y009179D01*
X018762Y009044D02*
X018762Y008810D01*
X018937Y008810D01*
X018878Y008927D01*
X018878Y008986D01*
X018937Y009044D01*
X019054Y009044D01*
X019112Y008986D01*
X019112Y008869D01*
X019054Y008810D01*
X018937Y008676D02*
X018937Y008442D01*
X018820Y008559D02*
X019054Y008559D01*
X018994Y008226D02*
X018760Y008226D01*
X018702Y008168D01*
X018702Y007993D01*
X019052Y007993D01*
X019052Y008168D01*
X018994Y008226D01*
X019052Y007858D02*
X018702Y007858D01*
X018702Y007625D02*
X019052Y007858D01*
X019052Y007625D02*
X018702Y007625D01*
X018760Y007490D02*
X018702Y007431D01*
X018702Y007315D01*
X018760Y007256D01*
X018994Y007256D01*
X019052Y007315D01*
X019052Y007431D01*
X018994Y007490D01*
X018877Y007490D01*
X018877Y007373D01*
X018818Y006917D02*
X018818Y006742D01*
X018935Y006801D01*
X018993Y006801D01*
X019052Y006742D01*
X019052Y006626D01*
X018993Y006567D01*
X018876Y006567D01*
X018818Y006626D01*
X018818Y006917D02*
X019052Y006917D01*
X018993Y005917D02*
X018818Y005742D01*
X019052Y005742D01*
X018993Y005567D02*
X018993Y005917D01*
X018993Y004917D02*
X018876Y004917D01*
X018818Y004859D01*
X018935Y004742D02*
X018993Y004742D01*
X019052Y004684D01*
X019052Y004626D01*
X018993Y004567D01*
X018876Y004567D01*
X018818Y004626D01*
X018993Y004742D02*
X019052Y004801D01*
X019052Y004859D01*
X018993Y004917D01*
X018993Y004017D02*
X018876Y004017D01*
X018818Y003959D01*
X018993Y004017D02*
X019052Y003959D01*
X019052Y003901D01*
X018818Y003667D01*
X019052Y003667D01*
X018935Y003117D02*
X018935Y002767D01*
X018818Y002767D02*
X019052Y002767D01*
X018818Y003001D02*
X018935Y003117D01*
X018876Y002417D02*
X018993Y002417D01*
X019052Y002359D01*
X018818Y002126D01*
X018876Y002067D01*
X018993Y002067D01*
X019052Y002126D01*
X019052Y002359D01*
X018876Y002417D02*
X018818Y002359D01*
X018818Y002126D01*
D13*
X018869Y001897D02*
X018869Y001792D01*
X018834Y001757D01*
X018799Y001792D01*
X018764Y001757D01*
X018729Y001792D01*
X018729Y001897D01*
X018648Y001862D02*
X018613Y001827D01*
X018508Y001827D01*
X018508Y001757D02*
X018508Y001967D01*
X018613Y001967D01*
X018648Y001932D01*
X018648Y001862D01*
X018950Y001827D02*
X019020Y001897D01*
X019055Y001897D01*
X018950Y001897D02*
X018950Y001757D01*
X018290Y001757D02*
X018150Y001757D01*
X018220Y001757D02*
X018220Y001967D01*
X018150Y001897D01*
X018069Y001897D02*
X018034Y001862D01*
X017929Y001862D01*
X017848Y001862D02*
X017813Y001827D01*
X017708Y001827D01*
X017708Y001757D02*
X017708Y001967D01*
X017813Y001967D01*
X017848Y001932D01*
X017848Y001862D01*
X017929Y001757D02*
X017929Y001967D01*
X018034Y001967D01*
X018069Y001932D01*
X018069Y001897D01*
X018034Y001862D02*
X018069Y001827D01*
X018069Y001792D01*
X018034Y001757D01*
X017929Y001757D01*
X009155Y001897D02*
X009120Y001897D01*
X009050Y001827D01*
X009050Y001757D02*
X009050Y001897D01*
X008969Y001897D02*
X008969Y001792D01*
X008934Y001757D01*
X008899Y001792D01*
X008864Y001757D01*
X008829Y001792D01*
X008829Y001897D01*
X008748Y001862D02*
X008713Y001827D01*
X008608Y001827D01*
X008608Y001757D02*
X008608Y001967D01*
X008713Y001967D01*
X008748Y001932D01*
X008748Y001862D01*
X008390Y001757D02*
X008250Y001757D01*
X008320Y001757D02*
X008320Y001967D01*
X008250Y001897D01*
X008169Y001897D02*
X008134Y001862D01*
X008029Y001862D01*
X007948Y001862D02*
X007913Y001827D01*
X007808Y001827D01*
X007808Y001757D02*
X007808Y001967D01*
X007913Y001967D01*
X007948Y001932D01*
X007948Y001862D01*
X008029Y001757D02*
X008134Y001757D01*
X008169Y001792D01*
X008169Y001827D01*
X008134Y001862D01*
X008169Y001897D02*
X008169Y001932D01*
X008134Y001967D01*
X008029Y001967D01*
X008029Y001757D01*
X008134Y011757D02*
X008029Y011757D01*
X008029Y011967D01*
X008134Y011967D01*
X008169Y011932D01*
X008169Y011897D01*
X008134Y011862D01*
X008029Y011862D01*
X007948Y011862D02*
X007948Y011932D01*
X007913Y011967D01*
X007808Y011967D01*
X007808Y011757D01*
X007808Y011827D02*
X007913Y011827D01*
X007948Y011862D01*
X008134Y011862D02*
X008169Y011827D01*
X008169Y011792D01*
X008134Y011757D01*
X008250Y011757D02*
X008390Y011757D01*
X008320Y011757D02*
X008320Y011967D01*
X008250Y011897D01*
X008608Y011827D02*
X008713Y011827D01*
X008748Y011862D01*
X008748Y011932D01*
X008713Y011967D01*
X008608Y011967D01*
X008608Y011757D01*
X008829Y011792D02*
X008829Y011897D01*
X008829Y011792D02*
X008864Y011757D01*
X008899Y011792D01*
X008934Y011757D01*
X008969Y011792D01*
X008969Y011897D01*
X009050Y011897D02*
X009050Y011757D01*
X009050Y011827D02*
X009120Y011897D01*
X009155Y011897D01*
X017708Y011827D02*
X017813Y011827D01*
X017848Y011862D01*
X017848Y011932D01*
X017813Y011967D01*
X017708Y011967D01*
X017708Y011757D01*
X017929Y011757D02*
X017929Y011967D01*
X018034Y011967D01*
X018069Y011932D01*
X018069Y011897D01*
X018034Y011862D01*
X017929Y011862D01*
X017929Y011757D02*
X018034Y011757D01*
X018069Y011792D01*
X018069Y011827D01*
X018034Y011862D01*
X018150Y011897D02*
X018220Y011967D01*
X018220Y011757D01*
X018150Y011757D02*
X018290Y011757D01*
X018508Y011757D02*
X018508Y011967D01*
X018613Y011967D01*
X018648Y011932D01*
X018648Y011862D01*
X018613Y011827D01*
X018508Y011827D01*
X018729Y011792D02*
X018729Y011897D01*
X018729Y011792D02*
X018764Y011757D01*
X018799Y011792D01*
X018834Y011757D01*
X018869Y011792D01*
X018869Y011897D01*
X018950Y011897D02*
X018950Y011757D01*
X018950Y011827D02*
X019020Y011897D01*
X019055Y011897D01*
D14*
X019228Y011252D02*
X019228Y010252D01*
X020228Y010252D01*
X020228Y011252D01*
X019228Y011252D01*
X019228Y008252D02*
X020228Y008252D01*
X020228Y007252D01*
X019228Y007252D01*
X019228Y008252D01*
X016228Y010252D02*
X015228Y010252D01*
X015228Y011252D01*
X016228Y011252D01*
X016228Y010252D01*
X015228Y011752D02*
X015228Y012752D01*
X015328Y012352D02*
X015328Y012152D01*
X015428Y013152D02*
X014728Y013152D01*
X014728Y013852D01*
X015428Y013852D01*
X015428Y013152D01*
X015928Y015552D02*
X014828Y015552D01*
X014828Y015952D01*
X015928Y015952D02*
X015928Y015552D01*
X019228Y017252D02*
X020228Y017252D01*
X020228Y018252D01*
X019228Y018252D01*
X019228Y017252D01*
X011828Y018552D02*
X011828Y019552D01*
X010828Y019552D01*
X010828Y018552D01*
X011828Y018552D01*
X010328Y018252D02*
X010328Y017252D01*
X009328Y017252D01*
X009328Y018252D01*
X010328Y018252D01*
X006028Y015952D02*
X006028Y015552D01*
X004928Y015552D01*
X004928Y015952D01*
X004828Y013852D02*
X004828Y013152D01*
X005528Y013152D01*
X005528Y013852D01*
X004828Y013852D01*
X005328Y012752D02*
X005328Y011752D01*
X005428Y012152D02*
X005428Y012352D01*
X005328Y011252D02*
X005328Y010252D01*
X006328Y010252D01*
X006328Y011252D01*
X005328Y011252D01*
X001928Y009552D02*
X001928Y008552D01*
X000928Y008552D01*
X000928Y009552D01*
X001928Y009552D01*
X004928Y005952D02*
X004928Y005552D01*
X006028Y005552D01*
X006028Y005952D01*
X005528Y003852D02*
X004828Y003852D01*
X004828Y003152D01*
X005528Y003152D01*
X005528Y003852D01*
X005328Y002752D02*
X005328Y001752D01*
X005428Y002152D02*
X005428Y002352D01*
X005328Y001252D02*
X005328Y000252D01*
X006328Y000252D01*
X006328Y001252D01*
X005328Y001252D01*
X009328Y001252D02*
X009328Y000252D01*
X010328Y000252D01*
X010328Y001252D01*
X009328Y001252D01*
X014728Y003152D02*
X014728Y003852D01*
X015428Y003852D01*
X015428Y003152D01*
X014728Y003152D01*
X015228Y002752D02*
X015228Y001752D01*
X015328Y002152D02*
X015328Y002352D01*
X015228Y001252D02*
X015228Y000252D01*
X016228Y000252D01*
X016228Y001252D01*
X015228Y001252D01*
X014828Y005552D02*
X015928Y005552D01*
X015928Y005952D01*
X014828Y005952D02*
X014828Y005552D01*
X011828Y008552D02*
X011828Y009552D01*
X010828Y009552D01*
X010828Y008552D01*
X011828Y008552D01*
X010328Y008252D02*
X010328Y007252D01*
X009328Y007252D01*
X009328Y008252D01*
X010328Y008252D01*
X010328Y010252D02*
X009328Y010252D01*
X009328Y011252D01*
X010328Y011252D01*
X010328Y010252D01*
X001928Y018552D02*
X001928Y019552D01*
X000928Y019552D01*
X000928Y018552D01*
X001928Y018552D01*
X019228Y001252D02*
X019228Y000252D01*
X020228Y000252D01*
X020228Y001252D01*
X019228Y001252D01*
D15*
X000778Y000102D02*
X000778Y019723D01*
X020273Y019723D01*
X020273Y000102D01*
X000778Y000102D01*
X002351Y001485D02*
X002353Y001511D01*
X002359Y001537D01*
X002369Y001562D01*
X002382Y001585D01*
X002398Y001605D01*
X002418Y001623D01*
X002440Y001638D01*
X002463Y001650D01*
X002489Y001658D01*
X002515Y001662D01*
X002541Y001662D01*
X002567Y001658D01*
X002593Y001650D01*
X002617Y001638D01*
X002638Y001623D01*
X002658Y001605D01*
X002674Y001585D01*
X002687Y001562D01*
X002697Y001537D01*
X002703Y001511D01*
X002705Y001485D01*
X002703Y001459D01*
X002697Y001433D01*
X002687Y001408D01*
X002674Y001385D01*
X002658Y001365D01*
X002638Y001347D01*
X002616Y001332D01*
X002593Y001320D01*
X002567Y001312D01*
X002541Y001308D01*
X002515Y001308D01*
X002489Y001312D01*
X002463Y001320D01*
X002439Y001332D01*
X002418Y001347D01*
X002398Y001365D01*
X002382Y001385D01*
X002369Y001408D01*
X002359Y001433D01*
X002353Y001459D01*
X002351Y001485D01*
X002351Y003218D02*
X002353Y003244D01*
X002359Y003270D01*
X002369Y003295D01*
X002382Y003318D01*
X002398Y003338D01*
X002418Y003356D01*
X002440Y003371D01*
X002463Y003383D01*
X002489Y003391D01*
X002515Y003395D01*
X002541Y003395D01*
X002567Y003391D01*
X002593Y003383D01*
X002617Y003371D01*
X002638Y003356D01*
X002658Y003338D01*
X002674Y003318D01*
X002687Y003295D01*
X002697Y003270D01*
X002703Y003244D01*
X002705Y003218D01*
X002703Y003192D01*
X002697Y003166D01*
X002687Y003141D01*
X002674Y003118D01*
X002658Y003098D01*
X002638Y003080D01*
X002616Y003065D01*
X002593Y003053D01*
X002567Y003045D01*
X002541Y003041D01*
X002515Y003041D01*
X002489Y003045D01*
X002463Y003053D01*
X002439Y003065D01*
X002418Y003080D01*
X002398Y003098D01*
X002382Y003118D01*
X002369Y003141D01*
X002359Y003166D01*
X002353Y003192D01*
X002351Y003218D01*
X002351Y011485D02*
X002353Y011511D01*
X002359Y011537D01*
X002369Y011562D01*
X002382Y011585D01*
X002398Y011605D01*
X002418Y011623D01*
X002440Y011638D01*
X002463Y011650D01*
X002489Y011658D01*
X002515Y011662D01*
X002541Y011662D01*
X002567Y011658D01*
X002593Y011650D01*
X002617Y011638D01*
X002638Y011623D01*
X002658Y011605D01*
X002674Y011585D01*
X002687Y011562D01*
X002697Y011537D01*
X002703Y011511D01*
X002705Y011485D01*
X002703Y011459D01*
X002697Y011433D01*
X002687Y011408D01*
X002674Y011385D01*
X002658Y011365D01*
X002638Y011347D01*
X002616Y011332D01*
X002593Y011320D01*
X002567Y011312D01*
X002541Y011308D01*
X002515Y011308D01*
X002489Y011312D01*
X002463Y011320D01*
X002439Y011332D01*
X002418Y011347D01*
X002398Y011365D01*
X002382Y011385D01*
X002369Y011408D01*
X002359Y011433D01*
X002353Y011459D01*
X002351Y011485D01*
X002351Y013218D02*
X002353Y013244D01*
X002359Y013270D01*
X002369Y013295D01*
X002382Y013318D01*
X002398Y013338D01*
X002418Y013356D01*
X002440Y013371D01*
X002463Y013383D01*
X002489Y013391D01*
X002515Y013395D01*
X002541Y013395D01*
X002567Y013391D01*
X002593Y013383D01*
X002617Y013371D01*
X002638Y013356D01*
X002658Y013338D01*
X002674Y013318D01*
X002687Y013295D01*
X002697Y013270D01*
X002703Y013244D01*
X002705Y013218D01*
X002703Y013192D01*
X002697Y013166D01*
X002687Y013141D01*
X002674Y013118D01*
X002658Y013098D01*
X002638Y013080D01*
X002616Y013065D01*
X002593Y013053D01*
X002567Y013045D01*
X002541Y013041D01*
X002515Y013041D01*
X002489Y013045D01*
X002463Y013053D01*
X002439Y013065D01*
X002418Y013080D01*
X002398Y013098D01*
X002382Y013118D01*
X002369Y013141D01*
X002359Y013166D01*
X002353Y013192D01*
X002351Y013218D01*
X012251Y013218D02*
X012253Y013244D01*
X012259Y013270D01*
X012269Y013295D01*
X012282Y013318D01*
X012298Y013338D01*
X012318Y013356D01*
X012340Y013371D01*
X012363Y013383D01*
X012389Y013391D01*
X012415Y013395D01*
X012441Y013395D01*
X012467Y013391D01*
X012493Y013383D01*
X012517Y013371D01*
X012538Y013356D01*
X012558Y013338D01*
X012574Y013318D01*
X012587Y013295D01*
X012597Y013270D01*
X012603Y013244D01*
X012605Y013218D01*
X012603Y013192D01*
X012597Y013166D01*
X012587Y013141D01*
X012574Y013118D01*
X012558Y013098D01*
X012538Y013080D01*
X012516Y013065D01*
X012493Y013053D01*
X012467Y013045D01*
X012441Y013041D01*
X012415Y013041D01*
X012389Y013045D01*
X012363Y013053D01*
X012339Y013065D01*
X012318Y013080D01*
X012298Y013098D01*
X012282Y013118D01*
X012269Y013141D01*
X012259Y013166D01*
X012253Y013192D01*
X012251Y013218D01*
X012251Y011485D02*
X012253Y011511D01*
X012259Y011537D01*
X012269Y011562D01*
X012282Y011585D01*
X012298Y011605D01*
X012318Y011623D01*
X012340Y011638D01*
X012363Y011650D01*
X012389Y011658D01*
X012415Y011662D01*
X012441Y011662D01*
X012467Y011658D01*
X012493Y011650D01*
X012517Y011638D01*
X012538Y011623D01*
X012558Y011605D01*
X012574Y011585D01*
X012587Y011562D01*
X012597Y011537D01*
X012603Y011511D01*
X012605Y011485D01*
X012603Y011459D01*
X012597Y011433D01*
X012587Y011408D01*
X012574Y011385D01*
X012558Y011365D01*
X012538Y011347D01*
X012516Y011332D01*
X012493Y011320D01*
X012467Y011312D01*
X012441Y011308D01*
X012415Y011308D01*
X012389Y011312D01*
X012363Y011320D01*
X012339Y011332D01*
X012318Y011347D01*
X012298Y011365D01*
X012282Y011385D01*
X012269Y011408D01*
X012259Y011433D01*
X012253Y011459D01*
X012251Y011485D01*
X012251Y003218D02*
X012253Y003244D01*
X012259Y003270D01*
X012269Y003295D01*
X012282Y003318D01*
X012298Y003338D01*
X012318Y003356D01*
X012340Y003371D01*
X012363Y003383D01*
X012389Y003391D01*
X012415Y003395D01*
X012441Y003395D01*
X012467Y003391D01*
X012493Y003383D01*
X012517Y003371D01*
X012538Y003356D01*
X012558Y003338D01*
X012574Y003318D01*
X012587Y003295D01*
X012597Y003270D01*
X012603Y003244D01*
X012605Y003218D01*
X012603Y003192D01*
X012597Y003166D01*
X012587Y003141D01*
X012574Y003118D01*
X012558Y003098D01*
X012538Y003080D01*
X012516Y003065D01*
X012493Y003053D01*
X012467Y003045D01*
X012441Y003041D01*
X012415Y003041D01*
X012389Y003045D01*
X012363Y003053D01*
X012339Y003065D01*
X012318Y003080D01*
X012298Y003098D01*
X012282Y003118D01*
X012269Y003141D01*
X012259Y003166D01*
X012253Y003192D01*
X012251Y003218D01*
X012251Y001485D02*
X012253Y001511D01*
X012259Y001537D01*
X012269Y001562D01*
X012282Y001585D01*
X012298Y001605D01*
X012318Y001623D01*
X012340Y001638D01*
X012363Y001650D01*
X012389Y001658D01*
X012415Y001662D01*
X012441Y001662D01*
X012467Y001658D01*
X012493Y001650D01*
X012517Y001638D01*
X012538Y001623D01*
X012558Y001605D01*
X012574Y001585D01*
X012587Y001562D01*
X012597Y001537D01*
X012603Y001511D01*
X012605Y001485D01*
X012603Y001459D01*
X012597Y001433D01*
X012587Y001408D01*
X012574Y001385D01*
X012558Y001365D01*
X012538Y001347D01*
X012516Y001332D01*
X012493Y001320D01*
X012467Y001312D01*
X012441Y001308D01*
X012415Y001308D01*
X012389Y001312D01*
X012363Y001320D01*
X012339Y001332D01*
X012318Y001347D01*
X012298Y001365D01*
X012282Y001385D01*
X012269Y001408D01*
X012259Y001433D01*
X012253Y001459D01*
X012251Y001485D01*
D16*
X012250Y001485D02*
X011698Y001485D01*
X011698Y003218D01*
X012250Y003218D01*
X012250Y003690D01*
X011620Y003690D01*
X011916Y003848D02*
X012743Y003848D01*
X012874Y004705D02*
X011535Y004705D01*
X011181Y005059D01*
X011181Y005119D01*
X011181Y005965D02*
X011181Y006044D01*
X011535Y006398D01*
X012874Y006398D01*
X012874Y005985D01*
X012874Y005119D02*
X012874Y004705D01*
X012678Y005178D02*
X012650Y005133D01*
X012619Y005091D01*
X012586Y005051D01*
X012549Y005013D01*
X012511Y004978D01*
X012469Y004946D01*
X012426Y004916D01*
X012380Y004890D01*
X012333Y004867D01*
X012285Y004847D01*
X012235Y004831D01*
X012184Y004818D01*
X012132Y004809D01*
X012080Y004804D01*
X012028Y004802D01*
X011976Y004804D01*
X011924Y004809D01*
X011872Y004818D01*
X011821Y004831D01*
X011771Y004847D01*
X011723Y004867D01*
X011676Y004890D01*
X011630Y004916D01*
X011587Y004946D01*
X011545Y004978D01*
X011507Y005013D01*
X011470Y005051D01*
X011437Y005091D01*
X011406Y005133D01*
X011378Y005178D01*
X011378Y005926D02*
X011406Y005971D01*
X011437Y006013D01*
X011470Y006053D01*
X011507Y006091D01*
X011545Y006126D01*
X011587Y006158D01*
X011630Y006188D01*
X011676Y006214D01*
X011723Y006237D01*
X011771Y006257D01*
X011821Y006273D01*
X011872Y006286D01*
X011924Y006295D01*
X011976Y006300D01*
X012028Y006302D01*
X012080Y006300D01*
X012132Y006295D01*
X012184Y006286D01*
X012235Y006273D01*
X012285Y006257D01*
X012333Y006237D01*
X012380Y006214D01*
X012426Y006188D01*
X012469Y006158D01*
X012511Y006126D01*
X012549Y006091D01*
X012586Y006053D01*
X012619Y006013D01*
X012650Y005971D01*
X012678Y005926D01*
X014583Y006000D02*
X014583Y004400D01*
X014583Y004600D01*
X014583Y004400D02*
X014583Y004000D01*
X018583Y004000D01*
X018583Y006000D01*
X014583Y006000D01*
X015981Y005762D02*
X015983Y005777D01*
X015989Y005790D01*
X015998Y005802D01*
X016009Y005811D01*
X016023Y005817D01*
X016038Y005819D01*
X016053Y005817D01*
X016066Y005811D01*
X016078Y005802D01*
X016087Y005791D01*
X016093Y005777D01*
X016095Y005762D01*
X016093Y005747D01*
X016087Y005734D01*
X016078Y005722D01*
X016067Y005713D01*
X016053Y005707D01*
X016038Y005705D01*
X016023Y005707D01*
X016010Y005713D01*
X015998Y005722D01*
X015989Y005733D01*
X015983Y005747D01*
X015981Y005762D01*
X018072Y007297D02*
X018072Y007455D01*
X018583Y007455D01*
X018583Y008006D01*
X018583Y007455D02*
X018583Y007297D01*
X018072Y007455D02*
X018072Y008006D01*
X019228Y008002D02*
X019228Y007502D01*
X019478Y007252D01*
X019228Y007002D01*
X019228Y006502D01*
X019478Y006252D01*
X019228Y006002D01*
X019228Y005502D01*
X019478Y005252D01*
X019228Y005002D01*
X019228Y004502D01*
X019478Y004252D01*
X019228Y004002D01*
X019228Y003502D01*
X019478Y003252D01*
X019228Y003002D01*
X019228Y002502D01*
X019478Y002252D01*
X019228Y002002D01*
X019228Y001502D01*
X019478Y001252D01*
X019228Y001002D01*
X019228Y000502D01*
X019478Y000252D01*
X019978Y000252D01*
X020228Y000502D01*
X020228Y001002D01*
X019978Y001252D01*
X020228Y001502D01*
X020228Y002002D01*
X019978Y002252D01*
X020228Y002502D01*
X020228Y003002D01*
X019978Y003252D01*
X020228Y003502D01*
X020228Y004002D01*
X019978Y004252D01*
X020228Y004502D01*
X020228Y005002D01*
X019978Y005252D01*
X020228Y005502D01*
X020228Y006002D01*
X019978Y006252D01*
X020228Y006502D01*
X020228Y007002D01*
X019978Y007252D01*
X020228Y007502D01*
X020228Y008002D01*
X019978Y008252D01*
X020228Y008502D01*
X020228Y009002D01*
X019978Y009252D01*
X019478Y009252D01*
X019228Y009002D01*
X019228Y008502D01*
X019478Y008252D01*
X019228Y008002D01*
X019478Y010252D02*
X019228Y010502D01*
X019228Y011002D01*
X019478Y011252D01*
X019228Y011502D01*
X019228Y012002D01*
X019478Y012252D01*
X019228Y012502D01*
X019228Y013002D01*
X019478Y013252D01*
X019228Y013502D01*
X019228Y014002D01*
X019478Y014252D01*
X019228Y014502D01*
X019228Y015002D01*
X019478Y015252D01*
X019228Y015502D01*
X019228Y016002D01*
X019478Y016252D01*
X019228Y016502D01*
X019228Y017002D01*
X019478Y017252D01*
X019228Y017502D01*
X019228Y018002D01*
X019478Y018252D01*
X019228Y018502D01*
X019228Y019002D01*
X019478Y019252D01*
X019978Y019252D01*
X020228Y019002D01*
X020228Y018502D01*
X019978Y018252D01*
X020228Y018002D01*
X020228Y017502D01*
X019978Y017252D01*
X020228Y017002D01*
X020228Y016502D01*
X019978Y016252D01*
X020228Y016002D01*
X020228Y015502D01*
X019978Y015252D01*
X020228Y015002D01*
X020228Y014502D01*
X019978Y014252D01*
X020228Y014002D01*
X020228Y013502D01*
X019978Y013252D01*
X020228Y013002D01*
X020228Y012502D01*
X019978Y012252D01*
X020228Y012002D01*
X020228Y011502D01*
X019978Y011252D01*
X020228Y011002D01*
X020228Y010502D01*
X019978Y010252D01*
X019478Y010252D01*
X018878Y010852D02*
X018728Y010852D01*
X018878Y011052D01*
X018578Y011052D01*
X018728Y010852D01*
X018578Y010852D01*
X018358Y010922D02*
X018138Y010702D01*
X018208Y010842D01*
X018278Y010772D02*
X018138Y010702D01*
X017978Y010852D02*
X017828Y010852D01*
X017978Y011052D01*
X017678Y011052D01*
X017828Y010852D01*
X017678Y010852D01*
X017458Y010922D02*
X017238Y010702D01*
X017308Y010842D01*
X017378Y010772D02*
X017238Y010702D01*
X017228Y010502D02*
X016978Y010252D01*
X016478Y010252D01*
X016228Y010502D01*
X015978Y010252D01*
X015478Y010252D01*
X015228Y010502D01*
X014978Y010252D01*
X014478Y010252D01*
X014228Y010502D01*
X014228Y011002D01*
X014478Y011252D01*
X014978Y011252D01*
X015228Y011002D01*
X015478Y011252D01*
X015978Y011252D01*
X016228Y011002D01*
X016478Y011252D01*
X016978Y011252D01*
X017228Y011002D01*
X017228Y010502D01*
X017238Y010952D02*
X017308Y011092D01*
X017378Y011022D02*
X017238Y010952D01*
X017458Y011172D01*
X018138Y010952D02*
X018208Y011092D01*
X018278Y011022D02*
X018138Y010952D01*
X018358Y011172D01*
X018583Y014000D02*
X014583Y014000D01*
X014583Y014400D01*
X014583Y014600D01*
X014583Y014400D02*
X014583Y016000D01*
X018583Y016000D01*
X018583Y014000D01*
X015981Y015762D02*
X015983Y015777D01*
X015989Y015790D01*
X015998Y015802D01*
X016009Y015811D01*
X016023Y015817D01*
X016038Y015819D01*
X016053Y015817D01*
X016066Y015811D01*
X016078Y015802D01*
X016087Y015791D01*
X016093Y015777D01*
X016095Y015762D01*
X016093Y015747D01*
X016087Y015734D01*
X016078Y015722D01*
X016067Y015713D01*
X016053Y015707D01*
X016038Y015705D01*
X016023Y015707D01*
X016010Y015713D01*
X015998Y015722D01*
X015989Y015733D01*
X015983Y015747D01*
X015981Y015762D01*
X018072Y017297D02*
X018072Y017455D01*
X018583Y017455D01*
X018583Y018006D01*
X018072Y018006D02*
X018072Y017455D01*
X018583Y017455D02*
X018583Y017297D01*
X013727Y013572D02*
X013727Y013218D01*
X012743Y013848D02*
X011916Y013848D01*
X011620Y013690D02*
X012250Y013690D01*
X012250Y013218D01*
X011698Y013218D01*
X011698Y011485D01*
X012250Y011485D01*
X012250Y011013D01*
X011620Y011013D01*
X011916Y010856D02*
X012743Y010856D01*
X013727Y011131D02*
X013727Y011485D01*
X012874Y014705D02*
X011535Y014705D01*
X011181Y015059D01*
X011181Y015119D01*
X011181Y015965D02*
X011181Y016044D01*
X011535Y016398D01*
X012874Y016398D01*
X012874Y015985D01*
X012874Y015119D02*
X012874Y014705D01*
X012678Y015178D02*
X012650Y015133D01*
X012619Y015091D01*
X012586Y015051D01*
X012549Y015013D01*
X012511Y014978D01*
X012469Y014946D01*
X012426Y014916D01*
X012380Y014890D01*
X012333Y014867D01*
X012285Y014847D01*
X012235Y014831D01*
X012184Y014818D01*
X012132Y014809D01*
X012080Y014804D01*
X012028Y014802D01*
X011976Y014804D01*
X011924Y014809D01*
X011872Y014818D01*
X011821Y014831D01*
X011771Y014847D01*
X011723Y014867D01*
X011676Y014890D01*
X011630Y014916D01*
X011587Y014946D01*
X011545Y014978D01*
X011507Y015013D01*
X011470Y015051D01*
X011437Y015091D01*
X011406Y015133D01*
X011378Y015178D01*
X011378Y015926D02*
X011406Y015971D01*
X011437Y016013D01*
X011470Y016053D01*
X011507Y016091D01*
X011545Y016126D01*
X011587Y016158D01*
X011630Y016188D01*
X011676Y016214D01*
X011723Y016237D01*
X011771Y016257D01*
X011821Y016273D01*
X011872Y016286D01*
X011924Y016295D01*
X011976Y016300D01*
X012028Y016302D01*
X012080Y016300D01*
X012132Y016295D01*
X012184Y016286D01*
X012235Y016273D01*
X012285Y016257D01*
X012333Y016237D01*
X012380Y016214D01*
X012426Y016188D01*
X012469Y016158D01*
X012511Y016126D01*
X012549Y016091D01*
X012586Y016053D01*
X012619Y016013D01*
X012650Y015971D01*
X012678Y015926D01*
X010557Y013690D02*
X010557Y011013D01*
X010328Y011002D02*
X010328Y010502D01*
X010078Y010252D01*
X009578Y010252D01*
X009328Y010502D01*
X009328Y011002D01*
X009578Y011252D01*
X009328Y011502D01*
X009328Y012002D01*
X009578Y012252D01*
X009328Y012502D01*
X009328Y013002D01*
X009578Y013252D01*
X009328Y013502D01*
X009328Y014002D01*
X009578Y014252D01*
X009328Y014502D01*
X009328Y015002D01*
X009578Y015252D01*
X009328Y015502D01*
X009328Y016002D01*
X009578Y016252D01*
X009328Y016502D01*
X009328Y017002D01*
X009578Y017252D01*
X009328Y017502D01*
X009328Y018002D01*
X009578Y018252D01*
X009328Y018502D01*
X009328Y019002D01*
X009578Y019252D01*
X010078Y019252D01*
X010328Y019002D01*
X010328Y018502D01*
X010078Y018252D01*
X010328Y018002D01*
X010328Y017502D01*
X010078Y017252D01*
X010328Y017002D01*
X010328Y016502D01*
X010078Y016252D01*
X010328Y016002D01*
X010328Y015502D01*
X010078Y015252D01*
X010328Y015002D01*
X010328Y014502D01*
X010078Y014252D01*
X010328Y014002D01*
X010328Y013502D01*
X010078Y013252D01*
X010328Y013002D01*
X010328Y012502D01*
X010078Y012252D01*
X010328Y012002D01*
X010328Y011502D01*
X010078Y011252D01*
X010328Y011002D01*
X008978Y011052D02*
X008828Y010852D01*
X008678Y011052D01*
X008978Y011052D01*
X008978Y010852D02*
X008828Y010852D01*
X008678Y010852D01*
X008458Y010922D02*
X008238Y010702D01*
X008308Y010842D01*
X008378Y010772D02*
X008238Y010702D01*
X008078Y010852D02*
X007928Y010852D01*
X008078Y011052D01*
X007778Y011052D01*
X007928Y010852D01*
X007778Y010852D01*
X007558Y010922D02*
X007338Y010702D01*
X007408Y010842D01*
X007478Y010772D02*
X007338Y010702D01*
X007328Y010502D02*
X007078Y010252D01*
X006578Y010252D01*
X006328Y010502D01*
X006078Y010252D01*
X005578Y010252D01*
X005328Y010502D01*
X005078Y010252D01*
X004578Y010252D01*
X004328Y010502D01*
X004328Y011002D01*
X004578Y011252D01*
X005078Y011252D01*
X005328Y011002D01*
X005578Y011252D01*
X006078Y011252D01*
X006328Y011002D01*
X006578Y011252D01*
X007078Y011252D01*
X007328Y011002D01*
X007328Y010502D01*
X007338Y010952D02*
X007408Y011092D01*
X007478Y011022D02*
X007338Y010952D01*
X007558Y011172D01*
X008238Y010952D02*
X008308Y011092D01*
X008378Y011022D02*
X008238Y010952D01*
X008458Y011172D01*
X009578Y009252D02*
X010078Y009252D01*
X010328Y009002D01*
X010328Y008502D01*
X010078Y008252D01*
X010328Y008002D01*
X010328Y007502D01*
X010078Y007252D01*
X010328Y007002D01*
X010328Y006502D01*
X010078Y006252D01*
X010328Y006002D01*
X010328Y005502D01*
X010078Y005252D01*
X010328Y005002D01*
X010328Y004502D01*
X010078Y004252D01*
X010328Y004002D01*
X010328Y003502D01*
X010078Y003252D01*
X010328Y003002D01*
X010328Y002502D01*
X010078Y002252D01*
X010328Y002002D01*
X010328Y001502D01*
X010078Y001252D01*
X010328Y001002D01*
X010328Y000502D01*
X010078Y000252D01*
X009578Y000252D01*
X009328Y000502D01*
X009328Y001002D01*
X009578Y001252D01*
X009328Y001502D01*
X009328Y002002D01*
X009578Y002252D01*
X009328Y002502D01*
X009328Y003002D01*
X009578Y003252D01*
X009328Y003502D01*
X009328Y004002D01*
X009578Y004252D01*
X009328Y004502D01*
X009328Y005002D01*
X009578Y005252D01*
X009328Y005502D01*
X009328Y006002D01*
X009578Y006252D01*
X009328Y006502D01*
X009328Y007002D01*
X009578Y007252D01*
X009328Y007502D01*
X009328Y008002D01*
X009578Y008252D01*
X009328Y008502D01*
X009328Y009002D01*
X009578Y009252D01*
X008683Y008006D02*
X008683Y007455D01*
X008172Y007455D01*
X008172Y008006D01*
X008172Y007455D02*
X008172Y007297D01*
X008683Y007297D02*
X008683Y007455D01*
X008683Y006000D02*
X008683Y004000D01*
X004683Y004000D01*
X004683Y004400D01*
X004683Y004600D01*
X004683Y004400D02*
X004683Y006000D01*
X008683Y006000D01*
X010557Y003690D02*
X010557Y001013D01*
X011620Y001013D02*
X012250Y001013D01*
X012250Y001485D01*
X011916Y000856D02*
X012743Y000856D01*
X013727Y001131D02*
X013727Y001485D01*
X014228Y001002D02*
X014228Y000502D01*
X014478Y000252D01*
X014978Y000252D01*
X015228Y000502D01*
X015478Y000252D01*
X015978Y000252D01*
X016228Y000502D01*
X016478Y000252D01*
X016978Y000252D01*
X017228Y000502D01*
X017228Y001002D01*
X016978Y001252D01*
X016478Y001252D01*
X016228Y001002D01*
X015978Y001252D01*
X015478Y001252D01*
X015228Y001002D01*
X014978Y001252D01*
X014478Y001252D01*
X014228Y001002D01*
X013727Y003218D02*
X013727Y003572D01*
X017308Y001092D02*
X017238Y000952D01*
X017378Y001022D01*
X017458Y000922D02*
X017238Y000702D01*
X017308Y000842D01*
X017378Y000772D02*
X017238Y000702D01*
X017238Y000952D02*
X017458Y001172D01*
X017678Y001052D02*
X017978Y001052D01*
X017828Y000852D01*
X017678Y001052D01*
X017678Y000852D02*
X017828Y000852D01*
X017978Y000852D01*
X018138Y000952D02*
X018208Y001092D01*
X018278Y001022D02*
X018138Y000952D01*
X018358Y001172D01*
X018578Y001052D02*
X018878Y001052D01*
X018728Y000852D01*
X018578Y001052D01*
X018578Y000852D02*
X018728Y000852D01*
X018878Y000852D01*
X018358Y000922D02*
X018138Y000702D01*
X018208Y000842D01*
X018278Y000772D02*
X018138Y000702D01*
X008978Y000852D02*
X008828Y000852D01*
X008978Y001052D01*
X008678Y001052D01*
X008828Y000852D01*
X008678Y000852D01*
X008458Y000922D02*
X008238Y000702D01*
X008308Y000842D01*
X008378Y000772D02*
X008238Y000702D01*
X008078Y000852D02*
X007928Y000852D01*
X008078Y001052D01*
X007778Y001052D01*
X007928Y000852D01*
X007778Y000852D01*
X007558Y000922D02*
X007338Y000702D01*
X007408Y000842D01*
X007478Y000772D02*
X007338Y000702D01*
X007328Y000502D02*
X007078Y000252D01*
X006578Y000252D01*
X006328Y000502D01*
X006078Y000252D01*
X005578Y000252D01*
X005328Y000502D01*
X005078Y000252D01*
X004578Y000252D01*
X004328Y000502D01*
X004328Y001002D01*
X004578Y001252D01*
X005078Y001252D01*
X005328Y001002D01*
X005578Y001252D01*
X006078Y001252D01*
X006328Y001002D01*
X006578Y001252D01*
X007078Y001252D01*
X007328Y001002D01*
X007328Y000502D01*
X007338Y000952D02*
X007408Y001092D01*
X007478Y001022D02*
X007338Y000952D01*
X007558Y001172D01*
X008238Y000952D02*
X008308Y001092D01*
X008378Y001022D02*
X008238Y000952D01*
X008458Y001172D01*
X006081Y005762D02*
X006083Y005777D01*
X006089Y005790D01*
X006098Y005802D01*
X006109Y005811D01*
X006123Y005817D01*
X006138Y005819D01*
X006153Y005817D01*
X006166Y005811D01*
X006178Y005802D01*
X006187Y005791D01*
X006193Y005777D01*
X006195Y005762D01*
X006193Y005747D01*
X006187Y005734D01*
X006178Y005722D01*
X006167Y005713D01*
X006153Y005707D01*
X006138Y005705D01*
X006123Y005707D01*
X006110Y005713D01*
X006098Y005722D01*
X006089Y005733D01*
X006083Y005747D01*
X006081Y005762D01*
X003827Y003572D02*
X003827Y003218D01*
X002843Y003848D02*
X002016Y003848D01*
X001720Y003690D02*
X002350Y003690D01*
X002350Y003218D01*
X001798Y003218D01*
X001798Y001485D01*
X002350Y001485D01*
X002350Y001013D01*
X001720Y001013D01*
X002016Y000856D02*
X002843Y000856D01*
X003827Y001131D02*
X003827Y001485D01*
X002974Y004705D02*
X001635Y004705D01*
X001281Y005059D01*
X001281Y005119D01*
X001281Y005965D02*
X001281Y006044D01*
X001635Y006398D01*
X002974Y006398D01*
X002974Y005985D01*
X002974Y005119D02*
X002974Y004705D01*
X002778Y005178D02*
X002750Y005133D01*
X002719Y005091D01*
X002686Y005051D01*
X002649Y005013D01*
X002611Y004978D01*
X002569Y004946D01*
X002526Y004916D01*
X002480Y004890D01*
X002433Y004867D01*
X002385Y004847D01*
X002335Y004831D01*
X002284Y004818D01*
X002232Y004809D01*
X002180Y004804D01*
X002128Y004802D01*
X002076Y004804D01*
X002024Y004809D01*
X001972Y004818D01*
X001921Y004831D01*
X001871Y004847D01*
X001823Y004867D01*
X001776Y004890D01*
X001730Y004916D01*
X001687Y004946D01*
X001645Y004978D01*
X001607Y005013D01*
X001570Y005051D01*
X001537Y005091D01*
X001506Y005133D01*
X001478Y005178D01*
X001478Y005926D02*
X001506Y005971D01*
X001537Y006013D01*
X001570Y006053D01*
X001607Y006091D01*
X001645Y006126D01*
X001687Y006158D01*
X001730Y006188D01*
X001776Y006214D01*
X001823Y006237D01*
X001871Y006257D01*
X001921Y006273D01*
X001972Y006286D01*
X002024Y006295D01*
X002076Y006300D01*
X002128Y006302D01*
X002180Y006300D01*
X002232Y006295D01*
X002284Y006286D01*
X002335Y006273D01*
X002385Y006257D01*
X002433Y006237D01*
X002480Y006214D01*
X002526Y006188D01*
X002569Y006158D01*
X002611Y006126D01*
X002649Y006091D01*
X002686Y006053D01*
X002719Y006013D01*
X002750Y005971D01*
X002778Y005926D01*
X000657Y003690D02*
X000657Y001013D01*
X002016Y010856D02*
X002843Y010856D01*
X002350Y011013D02*
X001720Y011013D01*
X001798Y011485D02*
X002350Y011485D01*
X002350Y011013D01*
X001798Y011485D02*
X001798Y013218D01*
X002350Y013218D01*
X002350Y013690D01*
X001720Y013690D01*
X002016Y013848D02*
X002843Y013848D01*
X002974Y014705D02*
X001635Y014705D01*
X001281Y015059D01*
X001281Y015119D01*
X001281Y015965D02*
X001281Y016044D01*
X001635Y016398D01*
X002974Y016398D01*
X002974Y015985D01*
X002974Y015119D02*
X002974Y014705D01*
X002778Y015178D02*
X002750Y015133D01*
X002719Y015091D01*
X002686Y015051D01*
X002649Y015013D01*
X002611Y014978D01*
X002569Y014946D01*
X002526Y014916D01*
X002480Y014890D01*
X002433Y014867D01*
X002385Y014847D01*
X002335Y014831D01*
X002284Y014818D01*
X002232Y014809D01*
X002180Y014804D01*
X002128Y014802D01*
X002076Y014804D01*
X002024Y014809D01*
X001972Y014818D01*
X001921Y014831D01*
X001871Y014847D01*
X001823Y014867D01*
X001776Y014890D01*
X001730Y014916D01*
X001687Y014946D01*
X001645Y014978D01*
X001607Y015013D01*
X001570Y015051D01*
X001537Y015091D01*
X001506Y015133D01*
X001478Y015178D01*
X001478Y015926D02*
X001506Y015971D01*
X001537Y016013D01*
X001570Y016053D01*
X001607Y016091D01*
X001645Y016126D01*
X001687Y016158D01*
X001730Y016188D01*
X001776Y016214D01*
X001823Y016237D01*
X001871Y016257D01*
X001921Y016273D01*
X001972Y016286D01*
X002024Y016295D01*
X002076Y016300D01*
X002128Y016302D01*
X002180Y016300D01*
X002232Y016295D01*
X002284Y016286D01*
X002335Y016273D01*
X002385Y016257D01*
X002433Y016237D01*
X002480Y016214D01*
X002526Y016188D01*
X002569Y016158D01*
X002611Y016126D01*
X002649Y016091D01*
X002686Y016053D01*
X002719Y016013D01*
X002750Y015971D01*
X002778Y015926D01*
X004683Y016000D02*
X004683Y014400D01*
X004683Y014600D01*
X004683Y014400D02*
X004683Y014000D01*
X008683Y014000D01*
X008683Y016000D01*
X004683Y016000D01*
X006081Y015762D02*
X006083Y015777D01*
X006089Y015790D01*
X006098Y015802D01*
X006109Y015811D01*
X006123Y015817D01*
X006138Y015819D01*
X006153Y015817D01*
X006166Y015811D01*
X006178Y015802D01*
X006187Y015791D01*
X006193Y015777D01*
X006195Y015762D01*
X006193Y015747D01*
X006187Y015734D01*
X006178Y015722D01*
X006167Y015713D01*
X006153Y015707D01*
X006138Y015705D01*
X006123Y015707D01*
X006110Y015713D01*
X006098Y015722D01*
X006089Y015733D01*
X006083Y015747D01*
X006081Y015762D01*
X008172Y017297D02*
X008172Y017455D01*
X008683Y017455D01*
X008683Y018006D01*
X008172Y018006D02*
X008172Y017455D01*
X008683Y017455D02*
X008683Y017297D01*
X003827Y013572D02*
X003827Y013218D01*
X003827Y011485D02*
X003827Y011131D01*
X000657Y011013D02*
X000657Y013690D01*
D17*
X001178Y016552D02*
X002678Y016552D01*
X002928Y016802D01*
X002928Y017302D01*
X002678Y017552D01*
X001178Y017552D01*
X000928Y017302D01*
X000928Y016802D01*
X001178Y016552D01*
X001178Y017552D02*
X000928Y017802D01*
X000928Y018302D01*
X001178Y018552D01*
X002678Y018552D01*
X002928Y018302D01*
X002928Y017802D01*
X002678Y017552D01*
X002678Y018552D02*
X002928Y018802D01*
X002928Y019302D01*
X002678Y019552D01*
X001178Y019552D01*
X000928Y019302D01*
X000928Y018802D01*
X001178Y018552D01*
X005818Y015981D02*
X007827Y015981D01*
X007827Y014122D02*
X005818Y014122D01*
X005388Y012812D02*
X005068Y012812D01*
X005068Y012592D01*
X005068Y011912D02*
X005068Y011692D01*
X005388Y011692D01*
X002928Y009302D02*
X002928Y008802D01*
X002678Y008552D01*
X001178Y008552D01*
X000928Y008302D01*
X000928Y007802D01*
X001178Y007552D01*
X000928Y007302D01*
X000928Y006802D01*
X001178Y006552D01*
X002678Y006552D01*
X002928Y006802D01*
X002928Y007302D01*
X002678Y007552D01*
X001178Y007552D01*
X001178Y008552D02*
X000928Y008802D01*
X000928Y009302D01*
X001178Y009552D01*
X002678Y009552D01*
X002928Y009302D01*
X002678Y008552D02*
X002928Y008302D01*
X002928Y007802D01*
X002678Y007552D01*
X005818Y005981D02*
X007827Y005981D01*
X007827Y004122D02*
X005818Y004122D01*
X005388Y002812D02*
X005068Y002812D01*
X005068Y002592D01*
X005068Y001912D02*
X005068Y001692D01*
X005388Y001692D01*
X010828Y006802D02*
X010828Y007302D01*
X011078Y007552D01*
X012578Y007552D01*
X012828Y007302D01*
X012828Y006802D01*
X012578Y006552D01*
X011078Y006552D01*
X010828Y006802D01*
X011078Y007552D02*
X010828Y007802D01*
X010828Y008302D01*
X011078Y008552D01*
X012578Y008552D01*
X012828Y008302D01*
X012828Y007802D01*
X012578Y007552D01*
X012578Y008552D02*
X012828Y008802D01*
X012828Y009302D01*
X012578Y009552D01*
X011078Y009552D01*
X010828Y009302D01*
X010828Y008802D01*
X011078Y008552D01*
X014968Y011692D02*
X014968Y011912D01*
X014968Y011692D02*
X015288Y011692D01*
X014968Y012592D02*
X014968Y012812D01*
X015288Y012812D01*
X015718Y014122D02*
X017727Y014122D01*
X017727Y015981D02*
X015718Y015981D01*
X012828Y016802D02*
X012578Y016552D01*
X011078Y016552D01*
X010828Y016802D01*
X010828Y017302D01*
X011078Y017552D01*
X012578Y017552D01*
X012828Y017302D01*
X012828Y016802D01*
X012578Y017552D02*
X012828Y017802D01*
X012828Y018302D01*
X012578Y018552D01*
X011078Y018552D01*
X010828Y018302D01*
X010828Y017802D01*
X011078Y017552D01*
X011078Y018552D02*
X010828Y018802D01*
X010828Y019302D01*
X011078Y019552D01*
X012578Y019552D01*
X012828Y019302D01*
X012828Y018802D01*
X012578Y018552D01*
X015718Y005981D02*
X017727Y005981D01*
X017727Y004122D02*
X015718Y004122D01*
X015288Y002812D02*
X014968Y002812D01*
X014968Y002592D01*
X014968Y001912D02*
X014968Y001692D01*
X015288Y001692D01*
D18*
X013140Y008952D02*
X013116Y008952D01*
X013116Y018952D02*
X013140Y018952D01*
X003240Y018952D02*
X003216Y018952D01*
X003216Y008952D02*
X003240Y008952D01*
M02*
