G75*
%MOIN*%
%OFA0B0*%
%FSLAX24Y24*%
%IPPOS*%
%LPD*%
%AMOC8*
5,1,8,0,0,1.08239X$1,22.5*
%
%ADD10C,0.0000*%
%ADD11R,0.0433X0.0394*%
%ADD12R,0.0500X0.1000*%
%ADD13R,0.0880X0.0480*%
%ADD14R,0.0866X0.1417*%
D10*
X000778Y000102D02*
X000778Y019723D01*
X020273Y019723D01*
X020273Y000102D01*
X000778Y000102D01*
X002351Y001485D02*
X002353Y001511D01*
X002359Y001537D01*
X002369Y001562D01*
X002382Y001585D01*
X002398Y001605D01*
X002418Y001623D01*
X002440Y001638D01*
X002463Y001650D01*
X002489Y001658D01*
X002515Y001662D01*
X002541Y001662D01*
X002567Y001658D01*
X002593Y001650D01*
X002617Y001638D01*
X002638Y001623D01*
X002658Y001605D01*
X002674Y001585D01*
X002687Y001562D01*
X002697Y001537D01*
X002703Y001511D01*
X002705Y001485D01*
X002703Y001459D01*
X002697Y001433D01*
X002687Y001408D01*
X002674Y001385D01*
X002658Y001365D01*
X002638Y001347D01*
X002616Y001332D01*
X002593Y001320D01*
X002567Y001312D01*
X002541Y001308D01*
X002515Y001308D01*
X002489Y001312D01*
X002463Y001320D01*
X002439Y001332D01*
X002418Y001347D01*
X002398Y001365D01*
X002382Y001385D01*
X002369Y001408D01*
X002359Y001433D01*
X002353Y001459D01*
X002351Y001485D01*
X002351Y003218D02*
X002353Y003244D01*
X002359Y003270D01*
X002369Y003295D01*
X002382Y003318D01*
X002398Y003338D01*
X002418Y003356D01*
X002440Y003371D01*
X002463Y003383D01*
X002489Y003391D01*
X002515Y003395D01*
X002541Y003395D01*
X002567Y003391D01*
X002593Y003383D01*
X002617Y003371D01*
X002638Y003356D01*
X002658Y003338D01*
X002674Y003318D01*
X002687Y003295D01*
X002697Y003270D01*
X002703Y003244D01*
X002705Y003218D01*
X002703Y003192D01*
X002697Y003166D01*
X002687Y003141D01*
X002674Y003118D01*
X002658Y003098D01*
X002638Y003080D01*
X002616Y003065D01*
X002593Y003053D01*
X002567Y003045D01*
X002541Y003041D01*
X002515Y003041D01*
X002489Y003045D01*
X002463Y003053D01*
X002439Y003065D01*
X002418Y003080D01*
X002398Y003098D01*
X002382Y003118D01*
X002369Y003141D01*
X002359Y003166D01*
X002353Y003192D01*
X002351Y003218D01*
X002351Y011485D02*
X002353Y011511D01*
X002359Y011537D01*
X002369Y011562D01*
X002382Y011585D01*
X002398Y011605D01*
X002418Y011623D01*
X002440Y011638D01*
X002463Y011650D01*
X002489Y011658D01*
X002515Y011662D01*
X002541Y011662D01*
X002567Y011658D01*
X002593Y011650D01*
X002617Y011638D01*
X002638Y011623D01*
X002658Y011605D01*
X002674Y011585D01*
X002687Y011562D01*
X002697Y011537D01*
X002703Y011511D01*
X002705Y011485D01*
X002703Y011459D01*
X002697Y011433D01*
X002687Y011408D01*
X002674Y011385D01*
X002658Y011365D01*
X002638Y011347D01*
X002616Y011332D01*
X002593Y011320D01*
X002567Y011312D01*
X002541Y011308D01*
X002515Y011308D01*
X002489Y011312D01*
X002463Y011320D01*
X002439Y011332D01*
X002418Y011347D01*
X002398Y011365D01*
X002382Y011385D01*
X002369Y011408D01*
X002359Y011433D01*
X002353Y011459D01*
X002351Y011485D01*
X002351Y013218D02*
X002353Y013244D01*
X002359Y013270D01*
X002369Y013295D01*
X002382Y013318D01*
X002398Y013338D01*
X002418Y013356D01*
X002440Y013371D01*
X002463Y013383D01*
X002489Y013391D01*
X002515Y013395D01*
X002541Y013395D01*
X002567Y013391D01*
X002593Y013383D01*
X002617Y013371D01*
X002638Y013356D01*
X002658Y013338D01*
X002674Y013318D01*
X002687Y013295D01*
X002697Y013270D01*
X002703Y013244D01*
X002705Y013218D01*
X002703Y013192D01*
X002697Y013166D01*
X002687Y013141D01*
X002674Y013118D01*
X002658Y013098D01*
X002638Y013080D01*
X002616Y013065D01*
X002593Y013053D01*
X002567Y013045D01*
X002541Y013041D01*
X002515Y013041D01*
X002489Y013045D01*
X002463Y013053D01*
X002439Y013065D01*
X002418Y013080D01*
X002398Y013098D01*
X002382Y013118D01*
X002369Y013141D01*
X002359Y013166D01*
X002353Y013192D01*
X002351Y013218D01*
X012251Y013218D02*
X012253Y013244D01*
X012259Y013270D01*
X012269Y013295D01*
X012282Y013318D01*
X012298Y013338D01*
X012318Y013356D01*
X012340Y013371D01*
X012363Y013383D01*
X012389Y013391D01*
X012415Y013395D01*
X012441Y013395D01*
X012467Y013391D01*
X012493Y013383D01*
X012517Y013371D01*
X012538Y013356D01*
X012558Y013338D01*
X012574Y013318D01*
X012587Y013295D01*
X012597Y013270D01*
X012603Y013244D01*
X012605Y013218D01*
X012603Y013192D01*
X012597Y013166D01*
X012587Y013141D01*
X012574Y013118D01*
X012558Y013098D01*
X012538Y013080D01*
X012516Y013065D01*
X012493Y013053D01*
X012467Y013045D01*
X012441Y013041D01*
X012415Y013041D01*
X012389Y013045D01*
X012363Y013053D01*
X012339Y013065D01*
X012318Y013080D01*
X012298Y013098D01*
X012282Y013118D01*
X012269Y013141D01*
X012259Y013166D01*
X012253Y013192D01*
X012251Y013218D01*
X012251Y011485D02*
X012253Y011511D01*
X012259Y011537D01*
X012269Y011562D01*
X012282Y011585D01*
X012298Y011605D01*
X012318Y011623D01*
X012340Y011638D01*
X012363Y011650D01*
X012389Y011658D01*
X012415Y011662D01*
X012441Y011662D01*
X012467Y011658D01*
X012493Y011650D01*
X012517Y011638D01*
X012538Y011623D01*
X012558Y011605D01*
X012574Y011585D01*
X012587Y011562D01*
X012597Y011537D01*
X012603Y011511D01*
X012605Y011485D01*
X012603Y011459D01*
X012597Y011433D01*
X012587Y011408D01*
X012574Y011385D01*
X012558Y011365D01*
X012538Y011347D01*
X012516Y011332D01*
X012493Y011320D01*
X012467Y011312D01*
X012441Y011308D01*
X012415Y011308D01*
X012389Y011312D01*
X012363Y011320D01*
X012339Y011332D01*
X012318Y011347D01*
X012298Y011365D01*
X012282Y011385D01*
X012269Y011408D01*
X012259Y011433D01*
X012253Y011459D01*
X012251Y011485D01*
X012251Y003218D02*
X012253Y003244D01*
X012259Y003270D01*
X012269Y003295D01*
X012282Y003318D01*
X012298Y003338D01*
X012318Y003356D01*
X012340Y003371D01*
X012363Y003383D01*
X012389Y003391D01*
X012415Y003395D01*
X012441Y003395D01*
X012467Y003391D01*
X012493Y003383D01*
X012517Y003371D01*
X012538Y003356D01*
X012558Y003338D01*
X012574Y003318D01*
X012587Y003295D01*
X012597Y003270D01*
X012603Y003244D01*
X012605Y003218D01*
X012603Y003192D01*
X012597Y003166D01*
X012587Y003141D01*
X012574Y003118D01*
X012558Y003098D01*
X012538Y003080D01*
X012516Y003065D01*
X012493Y003053D01*
X012467Y003045D01*
X012441Y003041D01*
X012415Y003041D01*
X012389Y003045D01*
X012363Y003053D01*
X012339Y003065D01*
X012318Y003080D01*
X012298Y003098D01*
X012282Y003118D01*
X012269Y003141D01*
X012259Y003166D01*
X012253Y003192D01*
X012251Y003218D01*
X012251Y001485D02*
X012253Y001511D01*
X012259Y001537D01*
X012269Y001562D01*
X012282Y001585D01*
X012298Y001605D01*
X012318Y001623D01*
X012340Y001638D01*
X012363Y001650D01*
X012389Y001658D01*
X012415Y001662D01*
X012441Y001662D01*
X012467Y001658D01*
X012493Y001650D01*
X012517Y001638D01*
X012538Y001623D01*
X012558Y001605D01*
X012574Y001585D01*
X012587Y001562D01*
X012597Y001537D01*
X012603Y001511D01*
X012605Y001485D01*
X012603Y001459D01*
X012597Y001433D01*
X012587Y001408D01*
X012574Y001385D01*
X012558Y001365D01*
X012538Y001347D01*
X012516Y001332D01*
X012493Y001320D01*
X012467Y001312D01*
X012441Y001308D01*
X012415Y001308D01*
X012389Y001312D01*
X012363Y001320D01*
X012339Y001332D01*
X012318Y001347D01*
X012298Y001365D01*
X012282Y001385D01*
X012269Y001408D01*
X012259Y001433D01*
X012253Y001459D01*
X012251Y001485D01*
D11*
X014657Y001513D03*
X015326Y001513D03*
X016057Y001494D03*
X016726Y001494D03*
X016762Y002352D03*
X016093Y002352D03*
X016057Y011494D03*
X015326Y011513D03*
X014657Y011513D03*
X016093Y012352D03*
X016762Y012352D03*
X016726Y011494D03*
X006826Y011494D03*
X006157Y011494D03*
X005426Y011513D03*
X004757Y011513D03*
X006193Y012352D03*
X006862Y012352D03*
X006862Y002352D03*
X006193Y002352D03*
X006157Y001494D03*
X006826Y001494D03*
X005426Y001513D03*
X004757Y001513D03*
D12*
X004428Y009052D03*
X005428Y009052D03*
X006428Y009052D03*
X007428Y009052D03*
X008428Y009052D03*
X014328Y009052D03*
X015328Y009052D03*
X016328Y009052D03*
X017328Y009052D03*
X018328Y009052D03*
X018328Y019052D03*
X017328Y019052D03*
X016328Y019052D03*
X015328Y019052D03*
X014328Y019052D03*
X008428Y019052D03*
X007428Y019052D03*
X006428Y019052D03*
X005428Y019052D03*
X004428Y019052D03*
D13*
X003848Y013262D03*
X003848Y012352D03*
X003848Y011442D03*
X003848Y003262D03*
X003848Y002352D03*
X003848Y001442D03*
X013748Y001442D03*
X013748Y002352D03*
X013748Y003262D03*
X013748Y011442D03*
X013748Y012352D03*
X013748Y013262D03*
D14*
X011307Y012352D03*
X011307Y002352D03*
X001407Y002352D03*
X001407Y012352D03*
M02*
