G75*
%MOIN*%
%OFA0B0*%
%FSLAX24Y24*%
%IPPOS*%
%LPD*%
%AMOC8*
5,1,8,0,0,1.08239X$1,22.5*
%
%ADD10C,0.0040*%
%ADD11C,0.0030*%
%ADD12C,0.0000*%
%ADD13C,0.0220*%
%ADD14R,0.0180X0.0300*%
%ADD15C,0.0080*%
D10*
X001142Y004101D02*
X001235Y004101D01*
X001282Y004148D01*
X001095Y004335D01*
X001095Y004148D01*
X001142Y004101D01*
X001282Y004148D02*
X001282Y004335D01*
X001235Y004381D01*
X001142Y004381D01*
X001095Y004335D01*
X001390Y004101D02*
X001576Y004101D01*
X001483Y004101D02*
X001483Y004381D01*
X001576Y004288D01*
X001684Y004335D02*
X001684Y004148D01*
X001731Y004101D01*
X001871Y004101D01*
X001871Y004381D01*
X001731Y004381D01*
X001684Y004335D01*
X001724Y005201D02*
X001771Y005248D01*
X001724Y005201D02*
X001631Y005201D01*
X001584Y005248D01*
X001584Y005294D01*
X001631Y005341D01*
X001724Y005341D01*
X001771Y005388D01*
X001771Y005435D01*
X001724Y005481D01*
X001631Y005481D01*
X001584Y005435D01*
X001383Y005481D02*
X001290Y005481D01*
X001336Y005481D02*
X001336Y005248D01*
X001383Y005201D01*
X001430Y005201D01*
X001476Y005248D01*
X001182Y005201D02*
X000995Y005201D01*
X001088Y005201D02*
X001088Y005481D01*
X001182Y005388D01*
X002295Y005388D02*
X002295Y005435D01*
X002342Y005481D01*
X002435Y005481D01*
X002482Y005435D01*
X002590Y005481D02*
X002683Y005481D01*
X002636Y005481D02*
X002636Y005248D01*
X002683Y005201D01*
X002730Y005201D01*
X002776Y005248D01*
X002884Y005248D02*
X002931Y005201D01*
X003024Y005201D01*
X003071Y005248D01*
X003024Y005341D02*
X003071Y005388D01*
X003071Y005435D01*
X003024Y005481D01*
X002931Y005481D01*
X002884Y005435D01*
X002931Y005341D02*
X002884Y005294D01*
X002884Y005248D01*
X002931Y005341D02*
X003024Y005341D01*
X002482Y005201D02*
X002295Y005388D01*
X002295Y005201D02*
X002482Y005201D01*
X003595Y005248D02*
X003642Y005201D01*
X003735Y005201D01*
X003782Y005248D01*
X003688Y005341D02*
X003642Y005341D01*
X003595Y005294D01*
X003595Y005248D01*
X003642Y005341D02*
X003595Y005388D01*
X003595Y005435D01*
X003642Y005481D01*
X003735Y005481D01*
X003782Y005435D01*
X003890Y005481D02*
X003983Y005481D01*
X003936Y005481D02*
X003936Y005248D01*
X003983Y005201D01*
X004030Y005201D01*
X004076Y005248D01*
X004184Y005248D02*
X004231Y005201D01*
X004324Y005201D01*
X004371Y005248D01*
X004324Y005341D02*
X004231Y005341D01*
X004184Y005294D01*
X004184Y005248D01*
X004324Y005341D02*
X004371Y005388D01*
X004371Y005435D01*
X004324Y005481D01*
X004231Y005481D01*
X004184Y005435D01*
X005695Y005401D02*
X005882Y005401D01*
X005882Y005681D01*
X005990Y005635D02*
X006036Y005681D01*
X006130Y005681D01*
X006176Y005635D01*
X006176Y005448D01*
X006130Y005401D01*
X006036Y005401D01*
X005990Y005448D01*
X006284Y005448D02*
X006331Y005401D01*
X006424Y005401D01*
X006471Y005448D01*
X006424Y005541D02*
X006331Y005541D01*
X006284Y005494D01*
X006284Y005448D01*
X006424Y005541D02*
X006471Y005588D01*
X006471Y005635D01*
X006424Y005681D01*
X006331Y005681D01*
X006284Y005635D01*
X006331Y004681D02*
X006284Y004635D01*
X006331Y004681D02*
X006424Y004681D01*
X006471Y004635D01*
X006471Y004588D01*
X006424Y004541D01*
X006331Y004541D01*
X006284Y004494D01*
X006284Y004448D01*
X006331Y004401D01*
X006424Y004401D01*
X006471Y004448D01*
X006176Y004401D02*
X006176Y004681D01*
X006036Y004681D01*
X005990Y004635D01*
X005990Y004448D01*
X006036Y004401D01*
X006176Y004401D01*
X005882Y004401D02*
X005882Y004588D01*
X005788Y004681D01*
X005695Y004588D01*
X005695Y004401D01*
X005695Y004541D02*
X005882Y004541D01*
X006598Y002102D02*
X006552Y002056D01*
X006739Y001869D01*
X006692Y001822D01*
X006598Y001822D01*
X006552Y001869D01*
X006552Y002056D01*
X006598Y002102D02*
X006692Y002102D01*
X006739Y002056D01*
X006739Y001869D01*
X006846Y001869D02*
X006893Y001822D01*
X006987Y001822D01*
X007033Y001869D01*
X006846Y002056D01*
X006846Y001869D01*
X006846Y002056D02*
X006893Y002102D01*
X006987Y002102D01*
X007033Y002056D01*
X007033Y001869D01*
X007141Y001822D02*
X007328Y001822D01*
X007235Y001822D02*
X007235Y002102D01*
X007328Y002009D01*
X006444Y002009D02*
X006304Y002009D01*
X006257Y001962D01*
X006257Y001822D01*
X006444Y001822D02*
X006444Y002009D01*
X008898Y001181D02*
X008898Y001041D01*
X009178Y001041D01*
X009178Y001181D01*
X009132Y001227D01*
X008945Y001227D01*
X008898Y001181D01*
X008898Y000933D02*
X009178Y000933D01*
X009178Y000746D02*
X008898Y000933D01*
X008898Y000746D02*
X009178Y000746D01*
X009132Y000638D02*
X009178Y000591D01*
X009178Y000498D01*
X009132Y000451D01*
X008945Y000451D01*
X008898Y000498D01*
X008898Y000591D01*
X008945Y000638D01*
X009038Y000638D01*
X009038Y000545D01*
X011042Y004101D02*
X010995Y004148D01*
X010995Y004335D01*
X011182Y004148D01*
X011135Y004101D01*
X011042Y004101D01*
X011182Y004148D02*
X011182Y004335D01*
X011135Y004381D01*
X011042Y004381D01*
X010995Y004335D01*
X011290Y004101D02*
X011476Y004101D01*
X011383Y004101D02*
X011383Y004381D01*
X011476Y004288D01*
X011584Y004335D02*
X011631Y004381D01*
X011771Y004381D01*
X011771Y004101D01*
X011631Y004101D01*
X011584Y004148D01*
X011584Y004335D01*
X011624Y005201D02*
X011531Y005201D01*
X011484Y005248D01*
X011484Y005294D01*
X011531Y005341D01*
X011624Y005341D01*
X011671Y005388D01*
X011671Y005435D01*
X011624Y005481D01*
X011531Y005481D01*
X011484Y005435D01*
X011283Y005481D02*
X011190Y005481D01*
X011236Y005481D02*
X011236Y005248D01*
X011283Y005201D01*
X011330Y005201D01*
X011376Y005248D01*
X011082Y005201D02*
X010895Y005201D01*
X010988Y005201D02*
X010988Y005481D01*
X011082Y005388D01*
X011624Y005201D02*
X011671Y005248D01*
X012195Y005201D02*
X012382Y005201D01*
X012195Y005388D01*
X012195Y005435D01*
X012242Y005481D01*
X012335Y005481D01*
X012382Y005435D01*
X012490Y005481D02*
X012583Y005481D01*
X012536Y005481D02*
X012536Y005248D01*
X012583Y005201D01*
X012630Y005201D01*
X012676Y005248D01*
X012784Y005248D02*
X012831Y005201D01*
X012924Y005201D01*
X012971Y005248D01*
X012924Y005341D02*
X012831Y005341D01*
X012784Y005294D01*
X012784Y005248D01*
X012924Y005341D02*
X012971Y005388D01*
X012971Y005435D01*
X012924Y005481D01*
X012831Y005481D01*
X012784Y005435D01*
X013495Y005435D02*
X013495Y005388D01*
X013542Y005341D01*
X013495Y005294D01*
X013495Y005248D01*
X013542Y005201D01*
X013635Y005201D01*
X013682Y005248D01*
X013588Y005341D02*
X013542Y005341D01*
X013495Y005435D02*
X013542Y005481D01*
X013635Y005481D01*
X013682Y005435D01*
X013790Y005481D02*
X013883Y005481D01*
X013836Y005481D02*
X013836Y005248D01*
X013883Y005201D01*
X013930Y005201D01*
X013976Y005248D01*
X014084Y005248D02*
X014131Y005201D01*
X014224Y005201D01*
X014271Y005248D01*
X014224Y005341D02*
X014131Y005341D01*
X014084Y005294D01*
X014084Y005248D01*
X014224Y005341D02*
X014271Y005388D01*
X014271Y005435D01*
X014224Y005481D01*
X014131Y005481D01*
X014084Y005435D01*
X015595Y005401D02*
X015782Y005401D01*
X015782Y005681D01*
X015890Y005635D02*
X015936Y005681D01*
X016030Y005681D01*
X016076Y005635D01*
X016076Y005448D01*
X016030Y005401D01*
X015936Y005401D01*
X015890Y005448D01*
X016184Y005448D02*
X016231Y005401D01*
X016324Y005401D01*
X016371Y005448D01*
X016324Y005541D02*
X016231Y005541D01*
X016184Y005494D01*
X016184Y005448D01*
X016324Y005541D02*
X016371Y005588D01*
X016371Y005635D01*
X016324Y005681D01*
X016231Y005681D01*
X016184Y005635D01*
X016231Y004681D02*
X016324Y004681D01*
X016371Y004635D01*
X016371Y004588D01*
X016324Y004541D01*
X016231Y004541D01*
X016184Y004494D01*
X016184Y004448D01*
X016231Y004401D01*
X016324Y004401D01*
X016371Y004448D01*
X016184Y004635D02*
X016231Y004681D01*
X016076Y004681D02*
X016076Y004401D01*
X015936Y004401D01*
X015890Y004448D01*
X015890Y004635D01*
X015936Y004681D01*
X016076Y004681D01*
X015782Y004588D02*
X015782Y004401D01*
X015782Y004541D02*
X015595Y004541D01*
X015595Y004588D02*
X015595Y004401D01*
X015595Y004588D02*
X015688Y004681D01*
X015782Y004588D01*
X016498Y002102D02*
X016452Y002056D01*
X016639Y001869D01*
X016592Y001822D01*
X016498Y001822D01*
X016452Y001869D01*
X016452Y002056D01*
X016498Y002102D02*
X016592Y002102D01*
X016639Y002056D01*
X016639Y001869D01*
X016746Y001869D02*
X016746Y002056D01*
X016933Y001869D01*
X016887Y001822D01*
X016793Y001822D01*
X016746Y001869D01*
X016746Y002056D02*
X016793Y002102D01*
X016887Y002102D01*
X016933Y002056D01*
X016933Y001869D01*
X017041Y001822D02*
X017228Y001822D01*
X017135Y001822D02*
X017135Y002102D01*
X017228Y002009D01*
X016344Y002009D02*
X016204Y002009D01*
X016157Y001962D01*
X016157Y001822D01*
X016344Y001822D02*
X016344Y002009D01*
X018798Y001181D02*
X018798Y001041D01*
X019078Y001041D01*
X019078Y001181D01*
X019032Y001227D01*
X018845Y001227D01*
X018798Y001181D01*
X018798Y000933D02*
X019078Y000933D01*
X019078Y000746D02*
X018798Y000746D01*
X018845Y000638D02*
X018938Y000638D01*
X018938Y000545D01*
X018845Y000638D02*
X018798Y000591D01*
X018798Y000498D01*
X018845Y000451D01*
X019032Y000451D01*
X019078Y000498D01*
X019078Y000591D01*
X019032Y000638D01*
X019078Y000746D02*
X018798Y000933D01*
X018247Y007621D02*
X018017Y007621D01*
X017940Y007698D01*
X017940Y007775D01*
X018017Y007851D01*
X018247Y007851D01*
X018247Y007621D02*
X018247Y008081D01*
X018017Y008081D01*
X017940Y008005D01*
X017940Y007928D01*
X018017Y007851D01*
X017787Y007851D02*
X017787Y007698D01*
X017710Y007621D01*
X017556Y007621D01*
X017480Y007698D01*
X017480Y007851D01*
X017556Y007928D01*
X017710Y007928D01*
X017787Y007851D01*
X017326Y007928D02*
X017096Y007928D01*
X017019Y007851D01*
X017019Y007698D01*
X017096Y007621D01*
X017326Y007621D01*
X017326Y008081D01*
X016866Y007928D02*
X016866Y007621D01*
X016866Y007775D02*
X016712Y007928D01*
X016636Y007928D01*
X016482Y007928D02*
X016405Y007928D01*
X016405Y007621D01*
X016329Y007621D02*
X016482Y007621D01*
X016175Y007698D02*
X016099Y007621D01*
X015868Y007621D01*
X015715Y007621D02*
X015561Y007621D01*
X015638Y007621D02*
X015638Y007928D01*
X015715Y007928D01*
X015868Y007928D02*
X016099Y007928D01*
X016175Y007851D01*
X016175Y007698D01*
X016405Y008081D02*
X016405Y008158D01*
X016698Y008676D02*
X016978Y008676D01*
X016978Y008816D01*
X016932Y008863D01*
X016838Y008863D01*
X016791Y008816D01*
X016791Y008676D01*
X016791Y008770D02*
X016698Y008863D01*
X016745Y008971D02*
X016698Y009018D01*
X016698Y009111D01*
X016791Y009158D02*
X016791Y008971D01*
X016745Y008971D02*
X016838Y008971D01*
X016885Y009018D01*
X016885Y009111D01*
X016838Y009158D01*
X016791Y009158D01*
X016698Y009266D02*
X016698Y009359D01*
X016698Y009312D02*
X016978Y009312D01*
X016978Y009266D01*
X017698Y009241D02*
X017698Y009381D01*
X017745Y009427D01*
X017932Y009427D01*
X017978Y009381D01*
X017978Y009241D01*
X017698Y009241D01*
X017698Y009133D02*
X017978Y009133D01*
X017978Y008946D02*
X017698Y009133D01*
X017698Y008946D02*
X017978Y008946D01*
X017932Y008838D02*
X017978Y008791D01*
X017978Y008698D01*
X017932Y008651D01*
X017745Y008651D01*
X017698Y008698D01*
X017698Y008791D01*
X017745Y008838D01*
X017838Y008838D01*
X017838Y008745D01*
X018838Y008772D02*
X018838Y008678D01*
X018885Y008632D01*
X018978Y008632D02*
X019025Y008725D01*
X019025Y008772D01*
X018978Y008819D01*
X018885Y008819D01*
X018838Y008772D01*
X018932Y008926D02*
X018838Y009020D01*
X018932Y009113D01*
X019118Y009113D01*
X019118Y008926D02*
X018932Y008926D01*
X019118Y008819D02*
X019118Y008632D01*
X018978Y008632D01*
X018978Y008524D02*
X018978Y008337D01*
X019072Y008431D02*
X018885Y008431D01*
X018845Y010451D02*
X018798Y010498D01*
X018798Y010591D01*
X018845Y010638D01*
X018938Y010638D01*
X018938Y010545D01*
X019032Y010638D02*
X019078Y010591D01*
X019078Y010498D01*
X019032Y010451D01*
X018845Y010451D01*
X018798Y010746D02*
X019078Y010746D01*
X018798Y010933D01*
X019078Y010933D01*
X019078Y011041D02*
X018798Y011041D01*
X018798Y011181D01*
X018845Y011227D01*
X019032Y011227D01*
X019078Y011181D01*
X019078Y011041D01*
X017228Y011822D02*
X017041Y011822D01*
X017135Y011822D02*
X017135Y012102D01*
X017228Y012009D01*
X016933Y012056D02*
X016933Y011869D01*
X016746Y012056D01*
X016746Y011869D01*
X016793Y011822D01*
X016887Y011822D01*
X016933Y011869D01*
X016933Y012056D02*
X016887Y012102D01*
X016793Y012102D01*
X016746Y012056D01*
X016639Y012056D02*
X016639Y011869D01*
X016452Y012056D01*
X016452Y011869D01*
X016498Y011822D01*
X016592Y011822D01*
X016639Y011869D01*
X016639Y012056D02*
X016592Y012102D01*
X016498Y012102D01*
X016452Y012056D01*
X016344Y012009D02*
X016204Y012009D01*
X016157Y011962D01*
X016157Y011822D01*
X016344Y011822D02*
X016344Y012009D01*
X016324Y014401D02*
X016231Y014401D01*
X016184Y014448D01*
X016184Y014494D01*
X016231Y014541D01*
X016324Y014541D01*
X016371Y014588D01*
X016371Y014635D01*
X016324Y014681D01*
X016231Y014681D01*
X016184Y014635D01*
X016076Y014681D02*
X016076Y014401D01*
X015936Y014401D01*
X015890Y014448D01*
X015890Y014635D01*
X015936Y014681D01*
X016076Y014681D01*
X015782Y014588D02*
X015782Y014401D01*
X015782Y014541D02*
X015595Y014541D01*
X015595Y014588D02*
X015595Y014401D01*
X015595Y014588D02*
X015688Y014681D01*
X015782Y014588D01*
X016324Y014401D02*
X016371Y014448D01*
X016324Y015401D02*
X016231Y015401D01*
X016184Y015448D01*
X016184Y015494D01*
X016231Y015541D01*
X016324Y015541D01*
X016371Y015588D01*
X016371Y015635D01*
X016324Y015681D01*
X016231Y015681D01*
X016184Y015635D01*
X016076Y015635D02*
X016076Y015448D01*
X016030Y015401D01*
X015936Y015401D01*
X015890Y015448D01*
X015782Y015401D02*
X015595Y015401D01*
X015782Y015401D02*
X015782Y015681D01*
X015890Y015635D02*
X015936Y015681D01*
X016030Y015681D01*
X016076Y015635D01*
X016324Y015401D02*
X016371Y015448D01*
X016405Y017621D02*
X016405Y017928D01*
X016482Y017928D01*
X016636Y017928D02*
X016712Y017928D01*
X016866Y017775D01*
X016866Y017928D02*
X016866Y017621D01*
X017019Y017698D02*
X017019Y017851D01*
X017096Y017928D01*
X017326Y017928D01*
X017326Y018081D02*
X017326Y017621D01*
X017096Y017621D01*
X017019Y017698D01*
X017480Y017698D02*
X017480Y017851D01*
X017556Y017928D01*
X017710Y017928D01*
X017787Y017851D01*
X017787Y017698D01*
X017710Y017621D01*
X017556Y017621D01*
X017480Y017698D01*
X017940Y017698D02*
X018017Y017621D01*
X018247Y017621D01*
X018247Y018081D01*
X018017Y018081D01*
X017940Y018005D01*
X017940Y017928D01*
X018017Y017851D01*
X018247Y017851D01*
X018017Y017851D02*
X017940Y017775D01*
X017940Y017698D01*
X017932Y018651D02*
X017745Y018651D01*
X017698Y018698D01*
X017698Y018791D01*
X017745Y018838D01*
X017838Y018838D01*
X017838Y018745D01*
X017932Y018838D02*
X017978Y018791D01*
X017978Y018698D01*
X017932Y018651D01*
X017978Y018946D02*
X017698Y018946D01*
X017698Y019133D02*
X017978Y019133D01*
X017978Y019241D02*
X017978Y019381D01*
X017932Y019427D01*
X017745Y019427D01*
X017698Y019381D01*
X017698Y019241D01*
X017978Y019241D01*
X017978Y018946D02*
X017698Y019133D01*
X016978Y019266D02*
X016978Y019312D01*
X016698Y019312D01*
X016698Y019266D02*
X016698Y019359D01*
X016791Y019158D02*
X016791Y018971D01*
X016745Y018971D02*
X016838Y018971D01*
X016885Y019018D01*
X016885Y019111D01*
X016838Y019158D01*
X016791Y019158D01*
X016698Y019111D02*
X016698Y019018D01*
X016745Y018971D01*
X016698Y018863D02*
X016791Y018770D01*
X016791Y018816D02*
X016791Y018676D01*
X016698Y018676D02*
X016978Y018676D01*
X016978Y018816D01*
X016932Y018863D01*
X016838Y018863D01*
X016791Y018816D01*
X016405Y018158D02*
X016405Y018081D01*
X016175Y017851D02*
X016175Y017698D01*
X016099Y017621D01*
X015868Y017621D01*
X015715Y017621D02*
X015561Y017621D01*
X015638Y017621D02*
X015638Y017928D01*
X015715Y017928D01*
X015868Y017928D02*
X016099Y017928D01*
X016175Y017851D01*
X016329Y017621D02*
X016482Y017621D01*
X015638Y018081D02*
X015638Y018158D01*
X015408Y017928D02*
X015408Y017698D01*
X015331Y017621D01*
X015101Y017621D01*
X015101Y017928D01*
X014948Y017851D02*
X014871Y017928D01*
X014641Y017928D01*
X014717Y017775D02*
X014641Y017698D01*
X014717Y017621D01*
X014948Y017621D01*
X014871Y017775D02*
X014948Y017851D01*
X014871Y017775D02*
X014717Y017775D01*
X015698Y018651D02*
X015978Y018651D01*
X015978Y018791D01*
X015932Y018838D01*
X015838Y018838D01*
X015791Y018791D01*
X015791Y018651D01*
X015791Y018745D02*
X015698Y018838D01*
X015698Y018946D02*
X015698Y019133D01*
X015745Y019241D02*
X015698Y019287D01*
X015698Y019381D01*
X015745Y019427D01*
X015791Y019427D01*
X015838Y019381D01*
X015838Y019287D01*
X015885Y019241D01*
X015932Y019241D01*
X015978Y019287D01*
X015978Y019381D01*
X015932Y019427D01*
X015978Y019133D02*
X015978Y018946D01*
X015698Y018946D01*
X015838Y018946D02*
X015838Y019039D01*
X014933Y019144D02*
X014933Y019237D01*
X014886Y019284D01*
X014839Y019284D01*
X014793Y019237D01*
X014746Y019284D01*
X014699Y019284D01*
X014652Y019237D01*
X014652Y019144D01*
X014699Y019097D01*
X014793Y019190D02*
X014793Y019237D01*
X014886Y019097D02*
X014933Y019144D01*
X013903Y019192D02*
X013763Y019051D01*
X013763Y019238D01*
X013623Y019192D02*
X013903Y019192D01*
X013883Y015481D02*
X013790Y015481D01*
X013836Y015481D02*
X013836Y015248D01*
X013883Y015201D01*
X013930Y015201D01*
X013976Y015248D01*
X014084Y015248D02*
X014084Y015294D01*
X014131Y015341D01*
X014224Y015341D01*
X014271Y015388D01*
X014271Y015435D01*
X014224Y015481D01*
X014131Y015481D01*
X014084Y015435D01*
X014084Y015248D02*
X014131Y015201D01*
X014224Y015201D01*
X014271Y015248D01*
X013682Y015248D02*
X013635Y015201D01*
X013542Y015201D01*
X013495Y015248D01*
X013495Y015294D01*
X013542Y015341D01*
X013588Y015341D01*
X013542Y015341D02*
X013495Y015388D01*
X013495Y015435D01*
X013542Y015481D01*
X013635Y015481D01*
X013682Y015435D01*
X012971Y015435D02*
X012971Y015388D01*
X012924Y015341D01*
X012831Y015341D01*
X012784Y015294D01*
X012784Y015248D01*
X012831Y015201D01*
X012924Y015201D01*
X012971Y015248D01*
X012971Y015435D02*
X012924Y015481D01*
X012831Y015481D01*
X012784Y015435D01*
X012583Y015481D02*
X012490Y015481D01*
X012536Y015481D02*
X012536Y015248D01*
X012583Y015201D01*
X012630Y015201D01*
X012676Y015248D01*
X012382Y015201D02*
X012195Y015388D01*
X012195Y015435D01*
X012242Y015481D01*
X012335Y015481D01*
X012382Y015435D01*
X012382Y015201D02*
X012195Y015201D01*
X011671Y015248D02*
X011624Y015201D01*
X011531Y015201D01*
X011484Y015248D01*
X011484Y015294D01*
X011531Y015341D01*
X011624Y015341D01*
X011671Y015388D01*
X011671Y015435D01*
X011624Y015481D01*
X011531Y015481D01*
X011484Y015435D01*
X011283Y015481D02*
X011190Y015481D01*
X011236Y015481D02*
X011236Y015248D01*
X011283Y015201D01*
X011330Y015201D01*
X011376Y015248D01*
X011082Y015201D02*
X010895Y015201D01*
X010988Y015201D02*
X010988Y015481D01*
X011082Y015388D01*
X011042Y014381D02*
X010995Y014335D01*
X011182Y014148D01*
X011135Y014101D01*
X011042Y014101D01*
X010995Y014148D01*
X010995Y014335D01*
X011042Y014381D02*
X011135Y014381D01*
X011182Y014335D01*
X011182Y014148D01*
X011290Y014101D02*
X011476Y014101D01*
X011383Y014101D02*
X011383Y014381D01*
X011476Y014288D01*
X011584Y014335D02*
X011631Y014381D01*
X011771Y014381D01*
X011771Y014101D01*
X011631Y014101D01*
X011584Y014148D01*
X011584Y014335D01*
X009132Y011227D02*
X008945Y011227D01*
X008898Y011181D01*
X008898Y011041D01*
X009178Y011041D01*
X009178Y011181D01*
X009132Y011227D01*
X009178Y010933D02*
X008898Y010933D01*
X009178Y010746D01*
X008898Y010746D01*
X008945Y010638D02*
X009038Y010638D01*
X009038Y010545D01*
X008945Y010638D02*
X008898Y010591D01*
X008898Y010498D01*
X008945Y010451D01*
X009132Y010451D01*
X009178Y010498D01*
X009178Y010591D01*
X009132Y010638D01*
X008032Y009427D02*
X008078Y009381D01*
X008078Y009241D01*
X007798Y009241D01*
X007798Y009381D01*
X007845Y009427D01*
X008032Y009427D01*
X008078Y009133D02*
X007798Y009133D01*
X008078Y008946D01*
X007798Y008946D01*
X007845Y008838D02*
X007938Y008838D01*
X007938Y008745D01*
X007845Y008838D02*
X007798Y008791D01*
X007798Y008698D01*
X007845Y008651D01*
X008032Y008651D01*
X008078Y008698D01*
X008078Y008791D01*
X008032Y008838D01*
X008117Y008081D02*
X008040Y008005D01*
X008040Y007928D01*
X008117Y007851D01*
X008347Y007851D01*
X008347Y007621D02*
X008347Y008081D01*
X008117Y008081D01*
X008117Y007851D02*
X008040Y007775D01*
X008040Y007698D01*
X008117Y007621D01*
X008347Y007621D01*
X007887Y007698D02*
X007887Y007851D01*
X007810Y007928D01*
X007656Y007928D01*
X007580Y007851D01*
X007580Y007698D01*
X007656Y007621D01*
X007810Y007621D01*
X007887Y007698D01*
X007426Y007621D02*
X007426Y008081D01*
X007426Y007928D02*
X007196Y007928D01*
X007119Y007851D01*
X007119Y007698D01*
X007196Y007621D01*
X007426Y007621D01*
X006966Y007621D02*
X006966Y007928D01*
X006966Y007775D02*
X006812Y007928D01*
X006736Y007928D01*
X006582Y007928D02*
X006505Y007928D01*
X006505Y007621D01*
X006429Y007621D02*
X006582Y007621D01*
X006275Y007698D02*
X006275Y007851D01*
X006199Y007928D01*
X005968Y007928D01*
X005815Y007928D02*
X005738Y007928D01*
X005738Y007621D01*
X005815Y007621D02*
X005661Y007621D01*
X005508Y007698D02*
X005431Y007621D01*
X005201Y007621D01*
X005201Y007928D01*
X005048Y007851D02*
X004971Y007775D01*
X004817Y007775D01*
X004741Y007698D01*
X004817Y007621D01*
X005048Y007621D01*
X005048Y007851D02*
X004971Y007928D01*
X004741Y007928D01*
X005508Y007928D02*
X005508Y007698D01*
X005738Y008081D02*
X005738Y008158D01*
X005798Y008651D02*
X006078Y008651D01*
X006078Y008791D01*
X006032Y008838D01*
X005938Y008838D01*
X005891Y008791D01*
X005891Y008651D01*
X005891Y008745D02*
X005798Y008838D01*
X005798Y008946D02*
X005798Y009133D01*
X005845Y009241D02*
X005798Y009287D01*
X005798Y009381D01*
X005845Y009427D01*
X005891Y009427D01*
X005938Y009381D01*
X005938Y009287D01*
X005985Y009241D01*
X006032Y009241D01*
X006078Y009287D01*
X006078Y009381D01*
X006032Y009427D01*
X006078Y009133D02*
X006078Y008946D01*
X005798Y008946D01*
X005938Y008946D02*
X005938Y009039D01*
X006798Y009018D02*
X006845Y008971D01*
X006938Y008971D01*
X006985Y009018D01*
X006985Y009111D01*
X006938Y009158D01*
X006891Y009158D01*
X006891Y008971D01*
X006798Y009018D02*
X006798Y009111D01*
X006798Y009266D02*
X006798Y009359D01*
X006798Y009312D02*
X007078Y009312D01*
X007078Y009266D01*
X007032Y008863D02*
X006938Y008863D01*
X006891Y008816D01*
X006891Y008676D01*
X006798Y008676D02*
X007078Y008676D01*
X007078Y008816D01*
X007032Y008863D01*
X006891Y008770D02*
X006798Y008863D01*
X006505Y008158D02*
X006505Y008081D01*
X006275Y007698D02*
X006199Y007621D01*
X005968Y007621D01*
X004986Y009097D02*
X005033Y009144D01*
X005033Y009237D01*
X004986Y009284D01*
X004939Y009284D01*
X004893Y009237D01*
X004893Y009190D01*
X004893Y009237D02*
X004846Y009284D01*
X004799Y009284D01*
X004752Y009237D01*
X004752Y009144D01*
X004799Y009097D01*
X004003Y009192D02*
X003863Y009051D01*
X003863Y009238D01*
X003723Y009192D02*
X004003Y009192D01*
X006257Y011822D02*
X006257Y011962D01*
X006304Y012009D01*
X006444Y012009D01*
X006444Y011822D01*
X006552Y011869D02*
X006552Y012056D01*
X006739Y011869D01*
X006692Y011822D01*
X006598Y011822D01*
X006552Y011869D01*
X006552Y012056D02*
X006598Y012102D01*
X006692Y012102D01*
X006739Y012056D01*
X006739Y011869D01*
X006846Y011869D02*
X006893Y011822D01*
X006987Y011822D01*
X007033Y011869D01*
X006846Y012056D01*
X006846Y011869D01*
X006846Y012056D02*
X006893Y012102D01*
X006987Y012102D01*
X007033Y012056D01*
X007033Y011869D01*
X007141Y011822D02*
X007328Y011822D01*
X007235Y011822D02*
X007235Y012102D01*
X007328Y012009D01*
X006424Y014401D02*
X006471Y014448D01*
X006424Y014401D02*
X006331Y014401D01*
X006284Y014448D01*
X006284Y014494D01*
X006331Y014541D01*
X006424Y014541D01*
X006471Y014588D01*
X006471Y014635D01*
X006424Y014681D01*
X006331Y014681D01*
X006284Y014635D01*
X006176Y014681D02*
X006036Y014681D01*
X005990Y014635D01*
X005990Y014448D01*
X006036Y014401D01*
X006176Y014401D01*
X006176Y014681D01*
X005882Y014588D02*
X005882Y014401D01*
X005882Y014541D02*
X005695Y014541D01*
X005695Y014588D02*
X005695Y014401D01*
X005695Y014588D02*
X005788Y014681D01*
X005882Y014588D01*
X005882Y015401D02*
X005695Y015401D01*
X005882Y015401D02*
X005882Y015681D01*
X005990Y015635D02*
X006036Y015681D01*
X006130Y015681D01*
X006176Y015635D01*
X006176Y015448D01*
X006130Y015401D01*
X006036Y015401D01*
X005990Y015448D01*
X006284Y015448D02*
X006284Y015494D01*
X006331Y015541D01*
X006424Y015541D01*
X006471Y015588D01*
X006471Y015635D01*
X006424Y015681D01*
X006331Y015681D01*
X006284Y015635D01*
X006284Y015448D02*
X006331Y015401D01*
X006424Y015401D01*
X006471Y015448D01*
X004371Y015435D02*
X004371Y015388D01*
X004324Y015341D01*
X004231Y015341D01*
X004184Y015294D01*
X004184Y015248D01*
X004231Y015201D01*
X004324Y015201D01*
X004371Y015248D01*
X004371Y015435D02*
X004324Y015481D01*
X004231Y015481D01*
X004184Y015435D01*
X003983Y015481D02*
X003890Y015481D01*
X003936Y015481D02*
X003936Y015248D01*
X003983Y015201D01*
X004030Y015201D01*
X004076Y015248D01*
X003782Y015248D02*
X003735Y015201D01*
X003642Y015201D01*
X003595Y015248D01*
X003595Y015294D01*
X003642Y015341D01*
X003688Y015341D01*
X003642Y015341D02*
X003595Y015388D01*
X003595Y015435D01*
X003642Y015481D01*
X003735Y015481D01*
X003782Y015435D01*
X003071Y015435D02*
X003071Y015388D01*
X003024Y015341D01*
X002931Y015341D01*
X002884Y015294D01*
X002884Y015248D01*
X002931Y015201D01*
X003024Y015201D01*
X003071Y015248D01*
X003071Y015435D02*
X003024Y015481D01*
X002931Y015481D01*
X002884Y015435D01*
X002683Y015481D02*
X002590Y015481D01*
X002636Y015481D02*
X002636Y015248D01*
X002683Y015201D01*
X002730Y015201D01*
X002776Y015248D01*
X002482Y015201D02*
X002295Y015388D01*
X002295Y015435D01*
X002342Y015481D01*
X002435Y015481D01*
X002482Y015435D01*
X002482Y015201D02*
X002295Y015201D01*
X001771Y015248D02*
X001724Y015201D01*
X001631Y015201D01*
X001584Y015248D01*
X001584Y015294D01*
X001631Y015341D01*
X001724Y015341D01*
X001771Y015388D01*
X001771Y015435D01*
X001724Y015481D01*
X001631Y015481D01*
X001584Y015435D01*
X001383Y015481D02*
X001290Y015481D01*
X001336Y015481D02*
X001336Y015248D01*
X001383Y015201D01*
X001430Y015201D01*
X001476Y015248D01*
X001182Y015201D02*
X000995Y015201D01*
X001088Y015201D02*
X001088Y015481D01*
X001182Y015388D01*
X001142Y014381D02*
X001095Y014335D01*
X001282Y014148D01*
X001235Y014101D01*
X001142Y014101D01*
X001095Y014148D01*
X001095Y014335D01*
X001142Y014381D02*
X001235Y014381D01*
X001282Y014335D01*
X001282Y014148D01*
X001390Y014101D02*
X001576Y014101D01*
X001483Y014101D02*
X001483Y014381D01*
X001576Y014288D01*
X001684Y014335D02*
X001731Y014381D01*
X001871Y014381D01*
X001871Y014101D01*
X001731Y014101D01*
X001684Y014148D01*
X001684Y014335D01*
X004817Y017621D02*
X004741Y017698D01*
X004817Y017775D01*
X004971Y017775D01*
X005048Y017851D01*
X004971Y017928D01*
X004741Y017928D01*
X004817Y017621D02*
X005048Y017621D01*
X005201Y017621D02*
X005201Y017928D01*
X005201Y017621D02*
X005431Y017621D01*
X005508Y017698D01*
X005508Y017928D01*
X005738Y017928D02*
X005738Y017621D01*
X005815Y017621D02*
X005661Y017621D01*
X005738Y017928D02*
X005815Y017928D01*
X005968Y017928D02*
X006199Y017928D01*
X006275Y017851D01*
X006275Y017698D01*
X006199Y017621D01*
X005968Y017621D01*
X006429Y017621D02*
X006582Y017621D01*
X006505Y017621D02*
X006505Y017928D01*
X006582Y017928D01*
X006736Y017928D02*
X006812Y017928D01*
X006966Y017775D01*
X006966Y017928D02*
X006966Y017621D01*
X007119Y017698D02*
X007119Y017851D01*
X007196Y017928D01*
X007426Y017928D01*
X007426Y018081D02*
X007426Y017621D01*
X007196Y017621D01*
X007119Y017698D01*
X007580Y017698D02*
X007580Y017851D01*
X007656Y017928D01*
X007810Y017928D01*
X007887Y017851D01*
X007887Y017698D01*
X007810Y017621D01*
X007656Y017621D01*
X007580Y017698D01*
X008040Y017698D02*
X008117Y017621D01*
X008347Y017621D01*
X008347Y018081D01*
X008117Y018081D01*
X008040Y018005D01*
X008040Y017928D01*
X008117Y017851D01*
X008347Y017851D01*
X008117Y017851D02*
X008040Y017775D01*
X008040Y017698D01*
X008032Y018651D02*
X007845Y018651D01*
X007798Y018698D01*
X007798Y018791D01*
X007845Y018838D01*
X007938Y018838D01*
X007938Y018745D01*
X008032Y018838D02*
X008078Y018791D01*
X008078Y018698D01*
X008032Y018651D01*
X008078Y018946D02*
X007798Y018946D01*
X007798Y019133D02*
X008078Y019133D01*
X008078Y019241D02*
X008078Y019381D01*
X008032Y019427D01*
X007845Y019427D01*
X007798Y019381D01*
X007798Y019241D01*
X008078Y019241D01*
X008078Y018946D02*
X007798Y019133D01*
X007078Y019266D02*
X007078Y019312D01*
X006798Y019312D01*
X006798Y019266D02*
X006798Y019359D01*
X006891Y019158D02*
X006891Y018971D01*
X006845Y018971D02*
X006938Y018971D01*
X006985Y019018D01*
X006985Y019111D01*
X006938Y019158D01*
X006891Y019158D01*
X006798Y019111D02*
X006798Y019018D01*
X006845Y018971D01*
X006798Y018863D02*
X006891Y018770D01*
X006891Y018816D02*
X006891Y018676D01*
X006798Y018676D02*
X007078Y018676D01*
X007078Y018816D01*
X007032Y018863D01*
X006938Y018863D01*
X006891Y018816D01*
X006505Y018158D02*
X006505Y018081D01*
X006078Y018651D02*
X005798Y018651D01*
X005891Y018651D02*
X005891Y018791D01*
X005938Y018838D01*
X006032Y018838D01*
X006078Y018791D01*
X006078Y018651D01*
X005891Y018745D02*
X005798Y018838D01*
X005798Y018946D02*
X005798Y019133D01*
X005845Y019241D02*
X005798Y019287D01*
X005798Y019381D01*
X005845Y019427D01*
X005891Y019427D01*
X005938Y019381D01*
X005938Y019287D01*
X005985Y019241D01*
X006032Y019241D01*
X006078Y019287D01*
X006078Y019381D01*
X006032Y019427D01*
X006078Y019133D02*
X006078Y018946D01*
X005798Y018946D01*
X005938Y018946D02*
X005938Y019039D01*
X005738Y018158D02*
X005738Y018081D01*
X004986Y019097D02*
X005033Y019144D01*
X005033Y019237D01*
X004986Y019284D01*
X004939Y019284D01*
X004893Y019237D01*
X004846Y019284D01*
X004799Y019284D01*
X004752Y019237D01*
X004752Y019144D01*
X004799Y019097D01*
X004893Y019190D02*
X004893Y019237D01*
X004003Y019192D02*
X003863Y019051D01*
X003863Y019238D01*
X003723Y019192D02*
X004003Y019192D01*
X008938Y019020D02*
X009032Y019113D01*
X009218Y019113D01*
X009218Y018926D02*
X009032Y018926D01*
X008938Y019020D01*
X008985Y018819D02*
X008938Y018772D01*
X008938Y018678D01*
X008985Y018632D01*
X009078Y018632D02*
X009125Y018725D01*
X009125Y018772D01*
X009078Y018819D01*
X008985Y018819D01*
X009078Y018632D02*
X009218Y018632D01*
X009218Y018819D01*
X009078Y018524D02*
X009078Y018337D01*
X009172Y018431D02*
X008985Y018431D01*
X015745Y009427D02*
X015698Y009381D01*
X015698Y009287D01*
X015745Y009241D01*
X015838Y009287D02*
X015838Y009381D01*
X015791Y009427D01*
X015745Y009427D01*
X015838Y009287D02*
X015885Y009241D01*
X015932Y009241D01*
X015978Y009287D01*
X015978Y009381D01*
X015932Y009427D01*
X015978Y009133D02*
X015978Y008946D01*
X015698Y008946D01*
X015698Y009133D01*
X015838Y009039D02*
X015838Y008946D01*
X015838Y008838D02*
X015791Y008791D01*
X015791Y008651D01*
X015698Y008651D02*
X015978Y008651D01*
X015978Y008791D01*
X015932Y008838D01*
X015838Y008838D01*
X015791Y008745D02*
X015698Y008838D01*
X015638Y008158D02*
X015638Y008081D01*
X015408Y007928D02*
X015408Y007698D01*
X015331Y007621D01*
X015101Y007621D01*
X015101Y007928D01*
X014948Y007851D02*
X014871Y007928D01*
X014641Y007928D01*
X014717Y007775D02*
X014641Y007698D01*
X014717Y007621D01*
X014948Y007621D01*
X014871Y007775D02*
X014948Y007851D01*
X014871Y007775D02*
X014717Y007775D01*
X014699Y009097D02*
X014652Y009144D01*
X014652Y009237D01*
X014699Y009284D01*
X014746Y009284D01*
X014793Y009237D01*
X014793Y009190D01*
X014793Y009237D02*
X014839Y009284D01*
X014886Y009284D01*
X014933Y009237D01*
X014933Y009144D01*
X014886Y009097D01*
X013903Y009192D02*
X013763Y009051D01*
X013763Y009238D01*
X013623Y009192D02*
X013903Y009192D01*
X009218Y009113D02*
X009032Y009113D01*
X008938Y009020D01*
X009032Y008926D01*
X009218Y008926D01*
X009218Y008819D02*
X009218Y008632D01*
X009078Y008632D01*
X009125Y008725D01*
X009125Y008772D01*
X009078Y008819D01*
X008985Y008819D01*
X008938Y008772D01*
X008938Y008678D01*
X008985Y008632D01*
X009078Y008524D02*
X009078Y008337D01*
X009172Y008431D02*
X008985Y008431D01*
X018885Y018431D02*
X019072Y018431D01*
X018978Y018337D02*
X018978Y018524D01*
X018978Y018632D02*
X019025Y018725D01*
X019025Y018772D01*
X018978Y018819D01*
X018885Y018819D01*
X018838Y018772D01*
X018838Y018678D01*
X018885Y018632D01*
X018978Y018632D02*
X019118Y018632D01*
X019118Y018819D01*
X019118Y018926D02*
X018932Y018926D01*
X018838Y019020D01*
X018932Y019113D01*
X019118Y019113D01*
D11*
X019068Y018028D02*
X018928Y018028D01*
X018893Y017993D01*
X018893Y017888D01*
X019103Y017888D01*
X019103Y017993D01*
X019068Y018028D01*
X019103Y017807D02*
X018893Y017807D01*
X019103Y017667D01*
X018893Y017667D01*
X018928Y017586D02*
X018998Y017586D01*
X018998Y017516D01*
X018928Y017446D02*
X018893Y017481D01*
X018893Y017551D01*
X018928Y017586D01*
X018928Y017446D02*
X019068Y017446D01*
X019103Y017481D01*
X019103Y017551D01*
X019068Y017586D01*
X019047Y016847D02*
X018853Y016847D01*
X018902Y016751D02*
X018853Y016702D01*
X018853Y016605D01*
X018902Y016557D01*
X018999Y016557D01*
X019047Y016605D01*
X019047Y016702D02*
X018950Y016751D01*
X018902Y016751D01*
X019047Y016702D02*
X019047Y016847D01*
X018902Y015847D02*
X019047Y015702D01*
X018853Y015702D01*
X018902Y015557D02*
X018902Y015847D01*
X018902Y014847D02*
X018853Y014799D01*
X018853Y014751D01*
X018902Y014702D01*
X018853Y014654D01*
X018853Y014605D01*
X018902Y014557D01*
X018999Y014557D01*
X019047Y014605D01*
X018950Y014702D02*
X018902Y014702D01*
X018902Y014847D02*
X018999Y014847D01*
X019047Y014799D01*
X018999Y013947D02*
X018902Y013947D01*
X018853Y013899D01*
X018853Y013851D01*
X019047Y013657D01*
X018853Y013657D01*
X019047Y013899D02*
X018999Y013947D01*
X018633Y013127D02*
X018563Y013057D01*
X018493Y013127D01*
X018493Y012917D01*
X018412Y012952D02*
X018377Y012987D01*
X018272Y012987D01*
X018272Y013022D02*
X018272Y012917D01*
X018377Y012917D01*
X018412Y012952D01*
X018377Y013057D02*
X018307Y013057D01*
X018272Y013022D01*
X018191Y013022D02*
X018156Y013057D01*
X018051Y013057D01*
X018051Y013127D02*
X018051Y012917D01*
X018156Y012917D01*
X018191Y012952D01*
X018191Y013022D01*
X017970Y013022D02*
X017970Y012952D01*
X017935Y012917D01*
X017865Y012917D01*
X017830Y012987D02*
X017970Y012987D01*
X017970Y013022D02*
X017935Y013057D01*
X017865Y013057D01*
X017830Y013022D01*
X017830Y012987D01*
X017528Y012917D02*
X017458Y012917D01*
X017493Y012917D02*
X017493Y013057D01*
X017528Y013057D01*
X017493Y013127D02*
X017493Y013162D01*
X017381Y013057D02*
X017276Y013057D01*
X017241Y013022D01*
X017241Y012917D01*
X017381Y012917D02*
X017381Y013057D01*
X016939Y013057D02*
X016904Y013022D01*
X016834Y013022D01*
X016799Y012987D01*
X016799Y012952D01*
X016834Y012917D01*
X016904Y012917D01*
X016939Y012952D01*
X016939Y013057D02*
X016939Y013092D01*
X016904Y013127D01*
X016834Y013127D01*
X016799Y013092D01*
X016718Y013127D02*
X016683Y013127D01*
X016683Y012917D01*
X016718Y012917D02*
X016648Y012917D01*
X016570Y012952D02*
X016535Y012917D01*
X016465Y012917D01*
X016430Y012952D01*
X016430Y013022D01*
X016465Y013057D01*
X016535Y013057D01*
X016570Y013022D01*
X016570Y012952D01*
X016349Y013057D02*
X016279Y012917D01*
X016209Y013057D01*
X016093Y013057D02*
X016023Y013057D01*
X015988Y013022D01*
X015988Y012917D01*
X016093Y012917D01*
X016128Y012952D01*
X016093Y012987D01*
X015988Y012987D01*
X015907Y012987D02*
X015802Y013057D01*
X015723Y013057D02*
X015688Y013057D01*
X015688Y012917D01*
X015723Y012917D02*
X015653Y012917D01*
X015576Y012952D02*
X015541Y012987D01*
X015436Y012987D01*
X015436Y013022D02*
X015436Y012917D01*
X015541Y012917D01*
X015576Y012952D01*
X015541Y013057D02*
X015471Y013057D01*
X015436Y013022D01*
X015688Y013127D02*
X015688Y013162D01*
X015802Y012917D02*
X015907Y012987D01*
X015907Y012917D02*
X015907Y013127D01*
X018633Y013127D02*
X018633Y012917D01*
X018950Y012847D02*
X018950Y012557D01*
X019047Y012557D02*
X018853Y012557D01*
X019047Y012751D02*
X018950Y012847D01*
X018902Y012047D02*
X018853Y011999D01*
X019047Y011805D01*
X018999Y011757D01*
X018902Y011757D01*
X018853Y011805D01*
X018853Y011999D01*
X018902Y012047D02*
X018999Y012047D01*
X019047Y011999D01*
X019047Y011805D01*
X019068Y008028D02*
X018928Y008028D01*
X018893Y007993D01*
X018893Y007888D01*
X019103Y007888D01*
X019103Y007993D01*
X019068Y008028D01*
X019103Y007807D02*
X018893Y007807D01*
X019103Y007667D01*
X018893Y007667D01*
X018928Y007586D02*
X018998Y007586D01*
X018998Y007516D01*
X019068Y007446D02*
X018928Y007446D01*
X018893Y007481D01*
X018893Y007551D01*
X018928Y007586D01*
X019068Y007586D02*
X019103Y007551D01*
X019103Y007481D01*
X019068Y007446D01*
X019047Y006847D02*
X018853Y006847D01*
X018902Y006751D02*
X018853Y006702D01*
X018853Y006605D01*
X018902Y006557D01*
X018999Y006557D01*
X019047Y006605D01*
X019047Y006702D02*
X018950Y006751D01*
X018902Y006751D01*
X019047Y006702D02*
X019047Y006847D01*
X018902Y005847D02*
X019047Y005702D01*
X018853Y005702D01*
X018902Y005557D02*
X018902Y005847D01*
X018902Y004847D02*
X018853Y004799D01*
X018853Y004751D01*
X018902Y004702D01*
X018853Y004654D01*
X018853Y004605D01*
X018902Y004557D01*
X018999Y004557D01*
X019047Y004605D01*
X018950Y004702D02*
X018902Y004702D01*
X018902Y004847D02*
X018999Y004847D01*
X019047Y004799D01*
X018999Y003947D02*
X018902Y003947D01*
X018853Y003899D01*
X018853Y003851D01*
X019047Y003657D01*
X018853Y003657D01*
X019047Y003899D02*
X018999Y003947D01*
X018633Y003127D02*
X018563Y003057D01*
X018493Y003127D01*
X018493Y002917D01*
X018412Y002952D02*
X018377Y002987D01*
X018272Y002987D01*
X018272Y003022D02*
X018272Y002917D01*
X018377Y002917D01*
X018412Y002952D01*
X018377Y003057D02*
X018307Y003057D01*
X018272Y003022D01*
X018191Y003022D02*
X018156Y003057D01*
X018051Y003057D01*
X018051Y003127D02*
X018051Y002917D01*
X018156Y002917D01*
X018191Y002952D01*
X018191Y003022D01*
X017970Y003022D02*
X017935Y003057D01*
X017865Y003057D01*
X017830Y003022D01*
X017830Y002987D01*
X017970Y002987D01*
X017970Y002952D02*
X017970Y003022D01*
X017970Y002952D02*
X017935Y002917D01*
X017865Y002917D01*
X017528Y002917D02*
X017458Y002917D01*
X017493Y002917D02*
X017493Y003057D01*
X017528Y003057D01*
X017493Y003127D02*
X017493Y003162D01*
X017381Y003057D02*
X017276Y003057D01*
X017241Y003022D01*
X017241Y002917D01*
X017381Y002917D02*
X017381Y003057D01*
X016939Y003057D02*
X016904Y003022D01*
X016834Y003022D01*
X016799Y002987D01*
X016799Y002952D01*
X016834Y002917D01*
X016904Y002917D01*
X016939Y002952D01*
X016939Y003057D02*
X016939Y003092D01*
X016904Y003127D01*
X016834Y003127D01*
X016799Y003092D01*
X016718Y003127D02*
X016683Y003127D01*
X016683Y002917D01*
X016718Y002917D02*
X016648Y002917D01*
X016570Y002952D02*
X016535Y002917D01*
X016465Y002917D01*
X016430Y002952D01*
X016430Y003022D01*
X016465Y003057D01*
X016535Y003057D01*
X016570Y003022D01*
X016570Y002952D01*
X016349Y003057D02*
X016279Y002917D01*
X016209Y003057D01*
X016093Y003057D02*
X016023Y003057D01*
X015988Y003022D01*
X015988Y002917D01*
X016093Y002917D01*
X016128Y002952D01*
X016093Y002987D01*
X015988Y002987D01*
X015907Y002987D02*
X015802Y003057D01*
X015723Y003057D02*
X015688Y003057D01*
X015688Y002917D01*
X015723Y002917D02*
X015653Y002917D01*
X015576Y002952D02*
X015541Y002987D01*
X015436Y002987D01*
X015436Y003022D02*
X015436Y002917D01*
X015541Y002917D01*
X015576Y002952D01*
X015541Y003057D02*
X015471Y003057D01*
X015436Y003022D01*
X015688Y003127D02*
X015688Y003162D01*
X015802Y002917D02*
X015907Y002987D01*
X015907Y002917D02*
X015907Y003127D01*
X018633Y003127D02*
X018633Y002917D01*
X018950Y002847D02*
X018950Y002557D01*
X019047Y002557D02*
X018853Y002557D01*
X019047Y002751D02*
X018950Y002847D01*
X018902Y002047D02*
X018853Y001999D01*
X019047Y001805D01*
X018999Y001757D01*
X018902Y001757D01*
X018853Y001805D01*
X018853Y001999D01*
X018902Y002047D02*
X018999Y002047D01*
X019047Y001999D01*
X019047Y001805D01*
X016833Y007117D02*
X016833Y007257D01*
X016763Y007327D01*
X016693Y007257D01*
X016693Y007117D01*
X016693Y007222D02*
X016833Y007222D01*
X016612Y007327D02*
X016472Y007327D01*
X016542Y007327D02*
X016542Y007117D01*
X016321Y007117D02*
X016321Y007327D01*
X016391Y007327D02*
X016251Y007327D01*
X016170Y007327D02*
X016100Y007327D01*
X016135Y007327D02*
X016135Y007117D01*
X016170Y007117D02*
X016100Y007117D01*
X016023Y007117D02*
X016023Y007327D01*
X015883Y007117D01*
X015883Y007327D01*
X015802Y007327D02*
X015802Y007292D01*
X015732Y007222D01*
X015732Y007117D01*
X015732Y007222D02*
X015662Y007292D01*
X015662Y007327D01*
X015581Y007292D02*
X015581Y007257D01*
X015546Y007222D01*
X015476Y007222D01*
X015441Y007187D01*
X015441Y007152D01*
X015476Y007117D01*
X015546Y007117D01*
X015581Y007152D01*
X015581Y007187D01*
X015546Y007222D01*
X015476Y007222D02*
X015441Y007257D01*
X015441Y007292D01*
X015476Y007327D01*
X015546Y007327D01*
X015581Y007292D01*
X015360Y007327D02*
X015360Y007222D01*
X015290Y007257D01*
X015255Y007257D01*
X015220Y007222D01*
X015220Y007152D01*
X015255Y007117D01*
X015325Y007117D01*
X015360Y007152D01*
X015360Y007327D02*
X015220Y007327D01*
X009203Y007481D02*
X009168Y007446D01*
X009028Y007446D01*
X008993Y007481D01*
X008993Y007551D01*
X009028Y007586D01*
X009098Y007586D01*
X009098Y007516D01*
X009168Y007586D02*
X009203Y007551D01*
X009203Y007481D01*
X009203Y007667D02*
X008993Y007807D01*
X009203Y007807D01*
X009203Y007888D02*
X008993Y007888D01*
X008993Y007993D01*
X009028Y008028D01*
X009168Y008028D01*
X009203Y007993D01*
X009203Y007888D01*
X009203Y007667D02*
X008993Y007667D01*
X008953Y006847D02*
X009147Y006847D01*
X009147Y006702D01*
X009050Y006751D01*
X009002Y006751D01*
X008953Y006702D01*
X008953Y006605D01*
X009002Y006557D01*
X009099Y006557D01*
X009147Y006605D01*
X009002Y005847D02*
X009147Y005702D01*
X008953Y005702D01*
X009002Y005557D02*
X009002Y005847D01*
X009002Y004847D02*
X008953Y004799D01*
X008953Y004751D01*
X009002Y004702D01*
X008953Y004654D01*
X008953Y004605D01*
X009002Y004557D01*
X009099Y004557D01*
X009147Y004605D01*
X009050Y004702D02*
X009002Y004702D01*
X009002Y004847D02*
X009099Y004847D01*
X009147Y004799D01*
X009099Y003947D02*
X009147Y003899D01*
X009099Y003947D02*
X009002Y003947D01*
X008953Y003899D01*
X008953Y003851D01*
X009147Y003657D01*
X008953Y003657D01*
X008733Y003127D02*
X008663Y003057D01*
X008593Y003127D01*
X008593Y002917D01*
X008512Y002952D02*
X008477Y002987D01*
X008372Y002987D01*
X008372Y003022D02*
X008372Y002917D01*
X008477Y002917D01*
X008512Y002952D01*
X008477Y003057D02*
X008407Y003057D01*
X008372Y003022D01*
X008291Y003022D02*
X008256Y003057D01*
X008151Y003057D01*
X008151Y003127D02*
X008151Y002917D01*
X008256Y002917D01*
X008291Y002952D01*
X008291Y003022D01*
X008070Y003022D02*
X008035Y003057D01*
X007965Y003057D01*
X007930Y003022D01*
X007930Y002987D01*
X008070Y002987D01*
X008070Y002952D02*
X008070Y003022D01*
X008070Y002952D02*
X008035Y002917D01*
X007965Y002917D01*
X007628Y002917D02*
X007558Y002917D01*
X007593Y002917D02*
X007593Y003057D01*
X007628Y003057D01*
X007593Y003127D02*
X007593Y003162D01*
X007481Y003057D02*
X007376Y003057D01*
X007341Y003022D01*
X007341Y002917D01*
X007481Y002917D02*
X007481Y003057D01*
X007039Y003057D02*
X007004Y003022D01*
X006934Y003022D01*
X006899Y002987D01*
X006899Y002952D01*
X006934Y002917D01*
X007004Y002917D01*
X007039Y002952D01*
X007039Y003057D02*
X007039Y003092D01*
X007004Y003127D01*
X006934Y003127D01*
X006899Y003092D01*
X006818Y003127D02*
X006783Y003127D01*
X006783Y002917D01*
X006818Y002917D02*
X006748Y002917D01*
X006670Y002952D02*
X006635Y002917D01*
X006565Y002917D01*
X006530Y002952D01*
X006530Y003022D01*
X006565Y003057D01*
X006635Y003057D01*
X006670Y003022D01*
X006670Y002952D01*
X006449Y003057D02*
X006379Y002917D01*
X006309Y003057D01*
X006193Y003057D02*
X006123Y003057D01*
X006088Y003022D01*
X006088Y002917D01*
X006193Y002917D01*
X006228Y002952D01*
X006193Y002987D01*
X006088Y002987D01*
X006007Y002987D02*
X005902Y003057D01*
X005823Y003057D02*
X005788Y003057D01*
X005788Y002917D01*
X005823Y002917D02*
X005753Y002917D01*
X005676Y002952D02*
X005641Y002987D01*
X005536Y002987D01*
X005536Y003022D02*
X005536Y002917D01*
X005641Y002917D01*
X005676Y002952D01*
X005641Y003057D02*
X005571Y003057D01*
X005536Y003022D01*
X005788Y003127D02*
X005788Y003162D01*
X006007Y003127D02*
X006007Y002917D01*
X006007Y002987D02*
X005902Y002917D01*
X008733Y002917D02*
X008733Y003127D01*
X009050Y002847D02*
X009050Y002557D01*
X009147Y002557D02*
X008953Y002557D01*
X009147Y002751D02*
X009050Y002847D01*
X009002Y002047D02*
X008953Y001999D01*
X009147Y001805D01*
X009099Y001757D01*
X009002Y001757D01*
X008953Y001805D01*
X008953Y001999D01*
X009002Y002047D02*
X009099Y002047D01*
X009147Y001999D01*
X009147Y001805D01*
X006933Y007117D02*
X006933Y007257D01*
X006863Y007327D01*
X006793Y007257D01*
X006793Y007117D01*
X006793Y007222D02*
X006933Y007222D01*
X006712Y007327D02*
X006572Y007327D01*
X006642Y007327D02*
X006642Y007117D01*
X006421Y007117D02*
X006421Y007327D01*
X006491Y007327D02*
X006351Y007327D01*
X006270Y007327D02*
X006200Y007327D01*
X006235Y007327D02*
X006235Y007117D01*
X006270Y007117D02*
X006200Y007117D01*
X006123Y007117D02*
X006123Y007327D01*
X005983Y007117D01*
X005983Y007327D01*
X005902Y007327D02*
X005902Y007292D01*
X005832Y007222D01*
X005832Y007117D01*
X005832Y007222D02*
X005762Y007292D01*
X005762Y007327D01*
X005681Y007292D02*
X005681Y007257D01*
X005646Y007222D01*
X005576Y007222D01*
X005541Y007187D01*
X005541Y007152D01*
X005576Y007117D01*
X005646Y007117D01*
X005681Y007152D01*
X005681Y007187D01*
X005646Y007222D01*
X005576Y007222D02*
X005541Y007257D01*
X005541Y007292D01*
X005576Y007327D01*
X005646Y007327D01*
X005681Y007292D01*
X005460Y007327D02*
X005460Y007222D01*
X005390Y007257D01*
X005355Y007257D01*
X005320Y007222D01*
X005320Y007152D01*
X005355Y007117D01*
X005425Y007117D01*
X005460Y007152D01*
X005460Y007327D02*
X005320Y007327D01*
X009002Y011757D02*
X008953Y011805D01*
X008953Y011999D01*
X009147Y011805D01*
X009099Y011757D01*
X009002Y011757D01*
X009147Y011805D02*
X009147Y011999D01*
X009099Y012047D01*
X009002Y012047D01*
X008953Y011999D01*
X008953Y012557D02*
X009147Y012557D01*
X009050Y012557D02*
X009050Y012847D01*
X009147Y012751D01*
X008733Y012917D02*
X008733Y013127D01*
X008663Y013057D01*
X008593Y013127D01*
X008593Y012917D01*
X008512Y012952D02*
X008477Y012987D01*
X008372Y012987D01*
X008372Y013022D02*
X008372Y012917D01*
X008477Y012917D01*
X008512Y012952D01*
X008477Y013057D02*
X008407Y013057D01*
X008372Y013022D01*
X008291Y013022D02*
X008291Y012952D01*
X008256Y012917D01*
X008151Y012917D01*
X008151Y013127D01*
X008151Y013057D02*
X008256Y013057D01*
X008291Y013022D01*
X008070Y013022D02*
X008070Y012952D01*
X008035Y012917D01*
X007965Y012917D01*
X007930Y012987D02*
X008070Y012987D01*
X008070Y013022D02*
X008035Y013057D01*
X007965Y013057D01*
X007930Y013022D01*
X007930Y012987D01*
X007628Y012917D02*
X007558Y012917D01*
X007593Y012917D02*
X007593Y013057D01*
X007628Y013057D01*
X007593Y013127D02*
X007593Y013162D01*
X007481Y013057D02*
X007481Y012917D01*
X007481Y013057D02*
X007376Y013057D01*
X007341Y013022D01*
X007341Y012917D01*
X007039Y012952D02*
X007004Y012917D01*
X006934Y012917D01*
X006899Y012952D01*
X006899Y012987D01*
X006934Y013022D01*
X007004Y013022D01*
X007039Y013057D01*
X007039Y013092D01*
X007004Y013127D01*
X006934Y013127D01*
X006899Y013092D01*
X006818Y013127D02*
X006783Y013127D01*
X006783Y012917D01*
X006818Y012917D02*
X006748Y012917D01*
X006670Y012952D02*
X006670Y013022D01*
X006635Y013057D01*
X006565Y013057D01*
X006530Y013022D01*
X006530Y012952D01*
X006565Y012917D01*
X006635Y012917D01*
X006670Y012952D01*
X006449Y013057D02*
X006379Y012917D01*
X006309Y013057D01*
X006193Y013057D02*
X006123Y013057D01*
X006088Y013022D01*
X006088Y012917D01*
X006193Y012917D01*
X006228Y012952D01*
X006193Y012987D01*
X006088Y012987D01*
X006007Y012987D02*
X005902Y013057D01*
X005823Y013057D02*
X005788Y013057D01*
X005788Y012917D01*
X005823Y012917D02*
X005753Y012917D01*
X005676Y012952D02*
X005641Y012987D01*
X005536Y012987D01*
X005536Y013022D02*
X005536Y012917D01*
X005641Y012917D01*
X005676Y012952D01*
X005641Y013057D02*
X005571Y013057D01*
X005536Y013022D01*
X005788Y013127D02*
X005788Y013162D01*
X006007Y013127D02*
X006007Y012917D01*
X006007Y012987D02*
X005902Y012917D01*
X008953Y013657D02*
X009147Y013657D01*
X008953Y013851D01*
X008953Y013899D01*
X009002Y013947D01*
X009099Y013947D01*
X009147Y013899D01*
X009099Y014557D02*
X009147Y014605D01*
X009099Y014557D02*
X009002Y014557D01*
X008953Y014605D01*
X008953Y014654D01*
X009002Y014702D01*
X009050Y014702D01*
X009002Y014702D02*
X008953Y014751D01*
X008953Y014799D01*
X009002Y014847D01*
X009099Y014847D01*
X009147Y014799D01*
X009002Y015557D02*
X009002Y015847D01*
X009147Y015702D01*
X008953Y015702D01*
X009002Y016557D02*
X009099Y016557D01*
X009147Y016605D01*
X009147Y016702D02*
X009050Y016751D01*
X009002Y016751D01*
X008953Y016702D01*
X008953Y016605D01*
X009002Y016557D01*
X009147Y016702D02*
X009147Y016847D01*
X008953Y016847D01*
X009028Y017446D02*
X008993Y017481D01*
X008993Y017551D01*
X009028Y017586D01*
X009098Y017586D01*
X009098Y017516D01*
X009168Y017446D02*
X009028Y017446D01*
X009168Y017446D02*
X009203Y017481D01*
X009203Y017551D01*
X009168Y017586D01*
X009203Y017667D02*
X008993Y017667D01*
X008993Y017807D02*
X009203Y017807D01*
X009203Y017888D02*
X009203Y017993D01*
X009168Y018028D01*
X009028Y018028D01*
X008993Y017993D01*
X008993Y017888D01*
X009203Y017888D01*
X009203Y017667D02*
X008993Y017807D01*
X006933Y017257D02*
X006863Y017327D01*
X006793Y017257D01*
X006793Y017117D01*
X006793Y017222D02*
X006933Y017222D01*
X006933Y017257D02*
X006933Y017117D01*
X006642Y017117D02*
X006642Y017327D01*
X006712Y017327D02*
X006572Y017327D01*
X006491Y017327D02*
X006351Y017327D01*
X006421Y017327D02*
X006421Y017117D01*
X006270Y017117D02*
X006200Y017117D01*
X006235Y017117D02*
X006235Y017327D01*
X006270Y017327D02*
X006200Y017327D01*
X006123Y017327D02*
X005983Y017117D01*
X005983Y017327D01*
X005902Y017327D02*
X005902Y017292D01*
X005832Y017222D01*
X005832Y017117D01*
X005832Y017222D02*
X005762Y017292D01*
X005762Y017327D01*
X005681Y017292D02*
X005681Y017257D01*
X005646Y017222D01*
X005576Y017222D01*
X005541Y017187D01*
X005541Y017152D01*
X005576Y017117D01*
X005646Y017117D01*
X005681Y017152D01*
X005681Y017187D01*
X005646Y017222D01*
X005576Y017222D02*
X005541Y017257D01*
X005541Y017292D01*
X005576Y017327D01*
X005646Y017327D01*
X005681Y017292D01*
X005460Y017327D02*
X005460Y017222D01*
X005390Y017257D01*
X005355Y017257D01*
X005320Y017222D01*
X005320Y017152D01*
X005355Y017117D01*
X005425Y017117D01*
X005460Y017152D01*
X005460Y017327D02*
X005320Y017327D01*
X006123Y017327D02*
X006123Y017117D01*
X015220Y017152D02*
X015255Y017117D01*
X015325Y017117D01*
X015360Y017152D01*
X015360Y017222D02*
X015290Y017257D01*
X015255Y017257D01*
X015220Y017222D01*
X015220Y017152D01*
X015360Y017222D02*
X015360Y017327D01*
X015220Y017327D01*
X015441Y017292D02*
X015441Y017257D01*
X015476Y017222D01*
X015546Y017222D01*
X015581Y017257D01*
X015581Y017292D01*
X015546Y017327D01*
X015476Y017327D01*
X015441Y017292D01*
X015476Y017222D02*
X015441Y017187D01*
X015441Y017152D01*
X015476Y017117D01*
X015546Y017117D01*
X015581Y017152D01*
X015581Y017187D01*
X015546Y017222D01*
X015662Y017292D02*
X015662Y017327D01*
X015662Y017292D02*
X015732Y017222D01*
X015732Y017117D01*
X015732Y017222D02*
X015802Y017292D01*
X015802Y017327D01*
X015883Y017327D02*
X015883Y017117D01*
X016023Y017327D01*
X016023Y017117D01*
X016100Y017117D02*
X016170Y017117D01*
X016135Y017117D02*
X016135Y017327D01*
X016170Y017327D02*
X016100Y017327D01*
X016251Y017327D02*
X016391Y017327D01*
X016321Y017327D02*
X016321Y017117D01*
X016542Y017117D02*
X016542Y017327D01*
X016612Y017327D02*
X016472Y017327D01*
X016693Y017257D02*
X016693Y017117D01*
X016693Y017222D02*
X016833Y017222D01*
X016833Y017257D02*
X016763Y017327D01*
X016693Y017257D01*
X016833Y017257D02*
X016833Y017117D01*
D12*
X000778Y019723D02*
X000778Y000102D01*
X020273Y000102D01*
X020273Y019723D01*
X000778Y019723D01*
X002351Y013218D02*
X002353Y013244D01*
X002359Y013270D01*
X002369Y013295D01*
X002382Y013318D01*
X002398Y013338D01*
X002418Y013356D01*
X002440Y013371D01*
X002463Y013383D01*
X002489Y013391D01*
X002515Y013395D01*
X002541Y013395D01*
X002567Y013391D01*
X002593Y013383D01*
X002617Y013371D01*
X002638Y013356D01*
X002658Y013338D01*
X002674Y013318D01*
X002687Y013295D01*
X002697Y013270D01*
X002703Y013244D01*
X002705Y013218D01*
X002703Y013192D01*
X002697Y013166D01*
X002687Y013141D01*
X002674Y013118D01*
X002658Y013098D01*
X002638Y013080D01*
X002616Y013065D01*
X002593Y013053D01*
X002567Y013045D01*
X002541Y013041D01*
X002515Y013041D01*
X002489Y013045D01*
X002463Y013053D01*
X002439Y013065D01*
X002418Y013080D01*
X002398Y013098D01*
X002382Y013118D01*
X002369Y013141D01*
X002359Y013166D01*
X002353Y013192D01*
X002351Y013218D01*
X002351Y011485D02*
X002353Y011511D01*
X002359Y011537D01*
X002369Y011562D01*
X002382Y011585D01*
X002398Y011605D01*
X002418Y011623D01*
X002440Y011638D01*
X002463Y011650D01*
X002489Y011658D01*
X002515Y011662D01*
X002541Y011662D01*
X002567Y011658D01*
X002593Y011650D01*
X002617Y011638D01*
X002638Y011623D01*
X002658Y011605D01*
X002674Y011585D01*
X002687Y011562D01*
X002697Y011537D01*
X002703Y011511D01*
X002705Y011485D01*
X002703Y011459D01*
X002697Y011433D01*
X002687Y011408D01*
X002674Y011385D01*
X002658Y011365D01*
X002638Y011347D01*
X002616Y011332D01*
X002593Y011320D01*
X002567Y011312D01*
X002541Y011308D01*
X002515Y011308D01*
X002489Y011312D01*
X002463Y011320D01*
X002439Y011332D01*
X002418Y011347D01*
X002398Y011365D01*
X002382Y011385D01*
X002369Y011408D01*
X002359Y011433D01*
X002353Y011459D01*
X002351Y011485D01*
X002351Y003218D02*
X002353Y003244D01*
X002359Y003270D01*
X002369Y003295D01*
X002382Y003318D01*
X002398Y003338D01*
X002418Y003356D01*
X002440Y003371D01*
X002463Y003383D01*
X002489Y003391D01*
X002515Y003395D01*
X002541Y003395D01*
X002567Y003391D01*
X002593Y003383D01*
X002617Y003371D01*
X002638Y003356D01*
X002658Y003338D01*
X002674Y003318D01*
X002687Y003295D01*
X002697Y003270D01*
X002703Y003244D01*
X002705Y003218D01*
X002703Y003192D01*
X002697Y003166D01*
X002687Y003141D01*
X002674Y003118D01*
X002658Y003098D01*
X002638Y003080D01*
X002616Y003065D01*
X002593Y003053D01*
X002567Y003045D01*
X002541Y003041D01*
X002515Y003041D01*
X002489Y003045D01*
X002463Y003053D01*
X002439Y003065D01*
X002418Y003080D01*
X002398Y003098D01*
X002382Y003118D01*
X002369Y003141D01*
X002359Y003166D01*
X002353Y003192D01*
X002351Y003218D01*
X002351Y001485D02*
X002353Y001511D01*
X002359Y001537D01*
X002369Y001562D01*
X002382Y001585D01*
X002398Y001605D01*
X002418Y001623D01*
X002440Y001638D01*
X002463Y001650D01*
X002489Y001658D01*
X002515Y001662D01*
X002541Y001662D01*
X002567Y001658D01*
X002593Y001650D01*
X002617Y001638D01*
X002638Y001623D01*
X002658Y001605D01*
X002674Y001585D01*
X002687Y001562D01*
X002697Y001537D01*
X002703Y001511D01*
X002705Y001485D01*
X002703Y001459D01*
X002697Y001433D01*
X002687Y001408D01*
X002674Y001385D01*
X002658Y001365D01*
X002638Y001347D01*
X002616Y001332D01*
X002593Y001320D01*
X002567Y001312D01*
X002541Y001308D01*
X002515Y001308D01*
X002489Y001312D01*
X002463Y001320D01*
X002439Y001332D01*
X002418Y001347D01*
X002398Y001365D01*
X002382Y001385D01*
X002369Y001408D01*
X002359Y001433D01*
X002353Y001459D01*
X002351Y001485D01*
X012251Y001485D02*
X012253Y001511D01*
X012259Y001537D01*
X012269Y001562D01*
X012282Y001585D01*
X012298Y001605D01*
X012318Y001623D01*
X012340Y001638D01*
X012363Y001650D01*
X012389Y001658D01*
X012415Y001662D01*
X012441Y001662D01*
X012467Y001658D01*
X012493Y001650D01*
X012517Y001638D01*
X012538Y001623D01*
X012558Y001605D01*
X012574Y001585D01*
X012587Y001562D01*
X012597Y001537D01*
X012603Y001511D01*
X012605Y001485D01*
X012603Y001459D01*
X012597Y001433D01*
X012587Y001408D01*
X012574Y001385D01*
X012558Y001365D01*
X012538Y001347D01*
X012516Y001332D01*
X012493Y001320D01*
X012467Y001312D01*
X012441Y001308D01*
X012415Y001308D01*
X012389Y001312D01*
X012363Y001320D01*
X012339Y001332D01*
X012318Y001347D01*
X012298Y001365D01*
X012282Y001385D01*
X012269Y001408D01*
X012259Y001433D01*
X012253Y001459D01*
X012251Y001485D01*
X012251Y003218D02*
X012253Y003244D01*
X012259Y003270D01*
X012269Y003295D01*
X012282Y003318D01*
X012298Y003338D01*
X012318Y003356D01*
X012340Y003371D01*
X012363Y003383D01*
X012389Y003391D01*
X012415Y003395D01*
X012441Y003395D01*
X012467Y003391D01*
X012493Y003383D01*
X012517Y003371D01*
X012538Y003356D01*
X012558Y003338D01*
X012574Y003318D01*
X012587Y003295D01*
X012597Y003270D01*
X012603Y003244D01*
X012605Y003218D01*
X012603Y003192D01*
X012597Y003166D01*
X012587Y003141D01*
X012574Y003118D01*
X012558Y003098D01*
X012538Y003080D01*
X012516Y003065D01*
X012493Y003053D01*
X012467Y003045D01*
X012441Y003041D01*
X012415Y003041D01*
X012389Y003045D01*
X012363Y003053D01*
X012339Y003065D01*
X012318Y003080D01*
X012298Y003098D01*
X012282Y003118D01*
X012269Y003141D01*
X012259Y003166D01*
X012253Y003192D01*
X012251Y003218D01*
X012251Y011485D02*
X012253Y011511D01*
X012259Y011537D01*
X012269Y011562D01*
X012282Y011585D01*
X012298Y011605D01*
X012318Y011623D01*
X012340Y011638D01*
X012363Y011650D01*
X012389Y011658D01*
X012415Y011662D01*
X012441Y011662D01*
X012467Y011658D01*
X012493Y011650D01*
X012517Y011638D01*
X012538Y011623D01*
X012558Y011605D01*
X012574Y011585D01*
X012587Y011562D01*
X012597Y011537D01*
X012603Y011511D01*
X012605Y011485D01*
X012603Y011459D01*
X012597Y011433D01*
X012587Y011408D01*
X012574Y011385D01*
X012558Y011365D01*
X012538Y011347D01*
X012516Y011332D01*
X012493Y011320D01*
X012467Y011312D01*
X012441Y011308D01*
X012415Y011308D01*
X012389Y011312D01*
X012363Y011320D01*
X012339Y011332D01*
X012318Y011347D01*
X012298Y011365D01*
X012282Y011385D01*
X012269Y011408D01*
X012259Y011433D01*
X012253Y011459D01*
X012251Y011485D01*
X012251Y013218D02*
X012253Y013244D01*
X012259Y013270D01*
X012269Y013295D01*
X012282Y013318D01*
X012298Y013338D01*
X012318Y013356D01*
X012340Y013371D01*
X012363Y013383D01*
X012389Y013391D01*
X012415Y013395D01*
X012441Y013395D01*
X012467Y013391D01*
X012493Y013383D01*
X012517Y013371D01*
X012538Y013356D01*
X012558Y013338D01*
X012574Y013318D01*
X012587Y013295D01*
X012597Y013270D01*
X012603Y013244D01*
X012605Y013218D01*
X012603Y013192D01*
X012597Y013166D01*
X012587Y013141D01*
X012574Y013118D01*
X012558Y013098D01*
X012538Y013080D01*
X012516Y013065D01*
X012493Y013053D01*
X012467Y013045D01*
X012441Y013041D01*
X012415Y013041D01*
X012389Y013045D01*
X012363Y013053D01*
X012339Y013065D01*
X012318Y013080D01*
X012298Y013098D01*
X012282Y013118D01*
X012269Y013141D01*
X012259Y013166D01*
X012253Y013192D01*
X012251Y013218D01*
D13*
X014991Y011525D02*
X014991Y011501D01*
X016391Y011482D02*
X016391Y011506D01*
X016391Y001506D02*
X016391Y001482D01*
X014991Y001501D02*
X014991Y001525D01*
X006491Y001482D02*
X006491Y001506D01*
X005091Y001501D02*
X005091Y001525D01*
X005091Y011501D02*
X005091Y011525D01*
X006491Y011482D02*
X006491Y011506D01*
D14*
X006528Y012352D03*
X006528Y002352D03*
X016428Y002352D03*
X016428Y012352D03*
D15*
X015321Y012037D02*
X015321Y012667D01*
X015316Y012683D01*
X015308Y012699D01*
X015298Y012713D01*
X015286Y012725D01*
X015271Y012735D01*
X015255Y012742D01*
X015238Y012746D01*
X015221Y012747D01*
X015203Y012745D01*
X014652Y012745D02*
X014632Y012747D01*
X014613Y012745D01*
X014594Y012739D01*
X014577Y012730D01*
X014561Y012718D01*
X014549Y012703D01*
X014540Y012685D01*
X014534Y012667D01*
X014534Y012037D01*
X014534Y012036D02*
X014540Y012018D01*
X014549Y012000D01*
X014561Y011985D01*
X014577Y011973D01*
X014594Y011964D01*
X014613Y011958D01*
X014632Y011956D01*
X014652Y011958D01*
X015203Y011958D02*
X015221Y011956D01*
X015238Y011957D01*
X015255Y011961D01*
X015271Y011968D01*
X015286Y011978D01*
X015298Y011990D01*
X015308Y012004D01*
X015316Y012020D01*
X015321Y012036D01*
X015343Y014158D02*
X014713Y014158D01*
X014712Y014158D02*
X014696Y014163D01*
X014680Y014171D01*
X014666Y014181D01*
X014654Y014193D01*
X014644Y014208D01*
X014637Y014224D01*
X014633Y014241D01*
X014632Y014258D01*
X014634Y014276D01*
X014634Y014827D02*
X014632Y014845D01*
X014633Y014862D01*
X014637Y014879D01*
X014644Y014895D01*
X014654Y014910D01*
X014666Y014922D01*
X014680Y014932D01*
X014696Y014940D01*
X014712Y014945D01*
X014713Y014945D02*
X015343Y014945D01*
X015359Y014940D01*
X015375Y014932D01*
X015389Y014922D01*
X015401Y014910D01*
X015411Y014895D01*
X015418Y014879D01*
X015422Y014862D01*
X015423Y014845D01*
X015421Y014827D01*
X015343Y015158D02*
X014713Y015158D01*
X014712Y015158D02*
X014696Y015163D01*
X014680Y015171D01*
X014666Y015181D01*
X014654Y015193D01*
X014644Y015208D01*
X014637Y015224D01*
X014633Y015241D01*
X014632Y015258D01*
X014634Y015276D01*
X014221Y015637D02*
X014221Y016267D01*
X014216Y016283D01*
X014208Y016299D01*
X014198Y016313D01*
X014186Y016325D01*
X014171Y016335D01*
X014155Y016342D01*
X014138Y016346D01*
X014121Y016347D01*
X014103Y016345D01*
X013552Y016345D02*
X013532Y016347D01*
X013513Y016345D01*
X013494Y016339D01*
X013477Y016330D01*
X013461Y016318D01*
X013449Y016303D01*
X013440Y016285D01*
X013434Y016267D01*
X013434Y015637D01*
X013434Y015636D02*
X013440Y015618D01*
X013449Y015600D01*
X013461Y015585D01*
X013477Y015573D01*
X013494Y015564D01*
X013513Y015558D01*
X013532Y015556D01*
X013552Y015558D01*
X014103Y015558D02*
X014121Y015556D01*
X014138Y015557D01*
X014155Y015561D01*
X014171Y015568D01*
X014186Y015578D01*
X014198Y015590D01*
X014208Y015604D01*
X014216Y015620D01*
X014221Y015636D01*
X014634Y015827D02*
X014632Y015845D01*
X014633Y015862D01*
X014637Y015879D01*
X014644Y015895D01*
X014654Y015910D01*
X014666Y015922D01*
X014680Y015932D01*
X014696Y015940D01*
X014712Y015945D01*
X014713Y015945D02*
X015343Y015945D01*
X015359Y015940D01*
X015375Y015932D01*
X015389Y015922D01*
X015401Y015910D01*
X015411Y015895D01*
X015418Y015879D01*
X015422Y015862D01*
X015423Y015845D01*
X015421Y015827D01*
X015421Y015276D02*
X015423Y015258D01*
X015422Y015241D01*
X015418Y015224D01*
X015411Y015208D01*
X015401Y015193D01*
X015389Y015181D01*
X015375Y015171D01*
X015359Y015163D01*
X015343Y015158D01*
X015421Y014276D02*
X015423Y014258D01*
X015422Y014241D01*
X015418Y014224D01*
X015411Y014208D01*
X015401Y014193D01*
X015389Y014181D01*
X015375Y014171D01*
X015359Y014163D01*
X015343Y014158D01*
X013228Y013642D02*
X011828Y013642D01*
X011828Y011062D01*
X013228Y011062D01*
X013228Y013642D01*
X012921Y015637D02*
X012921Y016267D01*
X012916Y016283D01*
X012908Y016299D01*
X012898Y016313D01*
X012886Y016325D01*
X012871Y016335D01*
X012855Y016342D01*
X012838Y016346D01*
X012821Y016347D01*
X012803Y016345D01*
X012252Y016345D02*
X012232Y016347D01*
X012213Y016345D01*
X012194Y016339D01*
X012177Y016330D01*
X012161Y016318D01*
X012149Y016303D01*
X012140Y016285D01*
X012134Y016267D01*
X012134Y015637D01*
X012134Y015636D02*
X012140Y015618D01*
X012149Y015600D01*
X012161Y015585D01*
X012177Y015573D01*
X012194Y015564D01*
X012213Y015558D01*
X012232Y015556D01*
X012252Y015558D01*
X012803Y015558D02*
X012821Y015556D01*
X012838Y015557D01*
X012855Y015561D01*
X012871Y015568D01*
X012886Y015578D01*
X012898Y015590D01*
X012908Y015604D01*
X012916Y015620D01*
X012921Y015636D01*
X011621Y015637D02*
X011621Y016267D01*
X011616Y016283D01*
X011608Y016299D01*
X011598Y016313D01*
X011586Y016325D01*
X011571Y016335D01*
X011555Y016342D01*
X011538Y016346D01*
X011521Y016347D01*
X011503Y016345D01*
X010952Y016345D02*
X010932Y016347D01*
X010913Y016345D01*
X010894Y016339D01*
X010877Y016330D01*
X010861Y016318D01*
X010849Y016303D01*
X010840Y016285D01*
X010834Y016267D01*
X010834Y015637D01*
X010834Y015636D02*
X010840Y015618D01*
X010849Y015600D01*
X010861Y015585D01*
X010877Y015573D01*
X010894Y015564D01*
X010913Y015558D01*
X010932Y015556D01*
X010952Y015558D01*
X011503Y015558D02*
X011521Y015556D01*
X011538Y015557D01*
X011555Y015561D01*
X011571Y015568D01*
X011586Y015578D01*
X011598Y015590D01*
X011608Y015604D01*
X011616Y015620D01*
X011621Y015636D01*
X005443Y015945D02*
X004813Y015945D01*
X004812Y015945D02*
X004796Y015940D01*
X004780Y015932D01*
X004766Y015922D01*
X004754Y015910D01*
X004744Y015895D01*
X004737Y015879D01*
X004733Y015862D01*
X004732Y015845D01*
X004734Y015827D01*
X004321Y015637D02*
X004321Y016267D01*
X004316Y016283D01*
X004308Y016299D01*
X004298Y016313D01*
X004286Y016325D01*
X004271Y016335D01*
X004255Y016342D01*
X004238Y016346D01*
X004221Y016347D01*
X004203Y016345D01*
X003652Y016345D02*
X003632Y016347D01*
X003613Y016345D01*
X003594Y016339D01*
X003577Y016330D01*
X003561Y016318D01*
X003549Y016303D01*
X003540Y016285D01*
X003534Y016267D01*
X003534Y015637D01*
X003534Y015636D02*
X003540Y015618D01*
X003549Y015600D01*
X003561Y015585D01*
X003577Y015573D01*
X003594Y015564D01*
X003613Y015558D01*
X003632Y015556D01*
X003652Y015558D01*
X004203Y015558D02*
X004221Y015556D01*
X004238Y015557D01*
X004255Y015561D01*
X004271Y015568D01*
X004286Y015578D01*
X004298Y015590D01*
X004308Y015604D01*
X004316Y015620D01*
X004321Y015636D01*
X004734Y015276D02*
X004732Y015258D01*
X004733Y015241D01*
X004737Y015224D01*
X004744Y015208D01*
X004754Y015193D01*
X004766Y015181D01*
X004780Y015171D01*
X004796Y015163D01*
X004812Y015158D01*
X004813Y015158D02*
X005443Y015158D01*
X005459Y015163D01*
X005475Y015171D01*
X005489Y015181D01*
X005501Y015193D01*
X005511Y015208D01*
X005518Y015224D01*
X005522Y015241D01*
X005523Y015258D01*
X005521Y015276D01*
X005443Y014945D02*
X004813Y014945D01*
X004812Y014945D02*
X004796Y014940D01*
X004780Y014932D01*
X004766Y014922D01*
X004754Y014910D01*
X004744Y014895D01*
X004737Y014879D01*
X004733Y014862D01*
X004732Y014845D01*
X004734Y014827D01*
X004734Y014276D02*
X004732Y014258D01*
X004733Y014241D01*
X004737Y014224D01*
X004744Y014208D01*
X004754Y014193D01*
X004766Y014181D01*
X004780Y014171D01*
X004796Y014163D01*
X004812Y014158D01*
X004813Y014158D02*
X005443Y014158D01*
X005459Y014163D01*
X005475Y014171D01*
X005489Y014181D01*
X005501Y014193D01*
X005511Y014208D01*
X005518Y014224D01*
X005522Y014241D01*
X005523Y014258D01*
X005521Y014276D01*
X005521Y014827D02*
X005523Y014845D01*
X005522Y014862D01*
X005518Y014879D01*
X005511Y014895D01*
X005501Y014910D01*
X005489Y014922D01*
X005475Y014932D01*
X005459Y014940D01*
X005443Y014945D01*
X005521Y015827D02*
X005523Y015845D01*
X005522Y015862D01*
X005518Y015879D01*
X005511Y015895D01*
X005501Y015910D01*
X005489Y015922D01*
X005475Y015932D01*
X005459Y015940D01*
X005443Y015945D01*
X003328Y013642D02*
X001928Y013642D01*
X001928Y011062D01*
X003328Y011062D01*
X003328Y013642D01*
X004634Y012667D02*
X004634Y012037D01*
X004634Y012036D02*
X004640Y012018D01*
X004649Y012000D01*
X004661Y011985D01*
X004677Y011973D01*
X004694Y011964D01*
X004713Y011958D01*
X004732Y011956D01*
X004752Y011958D01*
X005303Y011958D02*
X005321Y011956D01*
X005338Y011957D01*
X005355Y011961D01*
X005371Y011968D01*
X005386Y011978D01*
X005398Y011990D01*
X005408Y012004D01*
X005416Y012020D01*
X005421Y012036D01*
X005421Y012037D02*
X005421Y012667D01*
X005416Y012683D01*
X005408Y012699D01*
X005398Y012713D01*
X005386Y012725D01*
X005371Y012735D01*
X005355Y012742D01*
X005338Y012746D01*
X005321Y012747D01*
X005303Y012745D01*
X004752Y012745D02*
X004732Y012747D01*
X004713Y012745D01*
X004694Y012739D01*
X004677Y012730D01*
X004661Y012718D01*
X004649Y012703D01*
X004640Y012685D01*
X004634Y012667D01*
X003021Y015637D02*
X003021Y016267D01*
X003016Y016283D01*
X003008Y016299D01*
X002998Y016313D01*
X002986Y016325D01*
X002971Y016335D01*
X002955Y016342D01*
X002938Y016346D01*
X002921Y016347D01*
X002903Y016345D01*
X002352Y016345D02*
X002332Y016347D01*
X002313Y016345D01*
X002294Y016339D01*
X002277Y016330D01*
X002261Y016318D01*
X002249Y016303D01*
X002240Y016285D01*
X002234Y016267D01*
X002234Y015637D01*
X002234Y015636D02*
X002240Y015618D01*
X002249Y015600D01*
X002261Y015585D01*
X002277Y015573D01*
X002294Y015564D01*
X002313Y015558D01*
X002332Y015556D01*
X002352Y015558D01*
X002903Y015558D02*
X002921Y015556D01*
X002938Y015557D01*
X002955Y015561D01*
X002971Y015568D01*
X002986Y015578D01*
X002998Y015590D01*
X003008Y015604D01*
X003016Y015620D01*
X003021Y015636D01*
X001721Y015637D02*
X001721Y016267D01*
X001716Y016283D01*
X001708Y016299D01*
X001698Y016313D01*
X001686Y016325D01*
X001671Y016335D01*
X001655Y016342D01*
X001638Y016346D01*
X001621Y016347D01*
X001603Y016345D01*
X001052Y016345D02*
X001032Y016347D01*
X001013Y016345D01*
X000994Y016339D01*
X000977Y016330D01*
X000961Y016318D01*
X000949Y016303D01*
X000940Y016285D01*
X000934Y016267D01*
X000934Y015637D01*
X000934Y015636D02*
X000940Y015618D01*
X000949Y015600D01*
X000961Y015585D01*
X000977Y015573D01*
X000994Y015564D01*
X001013Y015558D01*
X001032Y015556D01*
X001052Y015558D01*
X001603Y015558D02*
X001621Y015556D01*
X001638Y015557D01*
X001655Y015561D01*
X001671Y015568D01*
X001686Y015578D01*
X001698Y015590D01*
X001708Y015604D01*
X001716Y015620D01*
X001721Y015636D01*
X001721Y006267D02*
X001721Y005637D01*
X001721Y005636D02*
X001716Y005620D01*
X001708Y005604D01*
X001698Y005590D01*
X001686Y005578D01*
X001671Y005568D01*
X001655Y005561D01*
X001638Y005557D01*
X001621Y005556D01*
X001603Y005558D01*
X001052Y005558D02*
X001032Y005556D01*
X001013Y005558D01*
X000994Y005564D01*
X000977Y005573D01*
X000961Y005585D01*
X000949Y005600D01*
X000940Y005618D01*
X000934Y005636D01*
X000934Y005637D02*
X000934Y006267D01*
X000940Y006285D01*
X000949Y006303D01*
X000961Y006318D01*
X000977Y006330D01*
X000994Y006339D01*
X001013Y006345D01*
X001032Y006347D01*
X001052Y006345D01*
X001603Y006345D02*
X001621Y006347D01*
X001638Y006346D01*
X001655Y006342D01*
X001671Y006335D01*
X001686Y006325D01*
X001698Y006313D01*
X001708Y006299D01*
X001716Y006283D01*
X001721Y006267D01*
X002234Y006267D02*
X002234Y005637D01*
X002234Y005636D02*
X002240Y005618D01*
X002249Y005600D01*
X002261Y005585D01*
X002277Y005573D01*
X002294Y005564D01*
X002313Y005558D01*
X002332Y005556D01*
X002352Y005558D01*
X002903Y005558D02*
X002921Y005556D01*
X002938Y005557D01*
X002955Y005561D01*
X002971Y005568D01*
X002986Y005578D01*
X002998Y005590D01*
X003008Y005604D01*
X003016Y005620D01*
X003021Y005636D01*
X003021Y005637D02*
X003021Y006267D01*
X003016Y006283D01*
X003008Y006299D01*
X002998Y006313D01*
X002986Y006325D01*
X002971Y006335D01*
X002955Y006342D01*
X002938Y006346D01*
X002921Y006347D01*
X002903Y006345D01*
X002352Y006345D02*
X002332Y006347D01*
X002313Y006345D01*
X002294Y006339D01*
X002277Y006330D01*
X002261Y006318D01*
X002249Y006303D01*
X002240Y006285D01*
X002234Y006267D01*
X003534Y006267D02*
X003534Y005637D01*
X003534Y005636D02*
X003540Y005618D01*
X003549Y005600D01*
X003561Y005585D01*
X003577Y005573D01*
X003594Y005564D01*
X003613Y005558D01*
X003632Y005556D01*
X003652Y005558D01*
X004203Y005558D02*
X004221Y005556D01*
X004238Y005557D01*
X004255Y005561D01*
X004271Y005568D01*
X004286Y005578D01*
X004298Y005590D01*
X004308Y005604D01*
X004316Y005620D01*
X004321Y005636D01*
X004321Y005637D02*
X004321Y006267D01*
X004316Y006283D01*
X004308Y006299D01*
X004298Y006313D01*
X004286Y006325D01*
X004271Y006335D01*
X004255Y006342D01*
X004238Y006346D01*
X004221Y006347D01*
X004203Y006345D01*
X003652Y006345D02*
X003632Y006347D01*
X003613Y006345D01*
X003594Y006339D01*
X003577Y006330D01*
X003561Y006318D01*
X003549Y006303D01*
X003540Y006285D01*
X003534Y006267D01*
X004813Y005945D02*
X005443Y005945D01*
X005459Y005940D01*
X005475Y005932D01*
X005489Y005922D01*
X005501Y005910D01*
X005511Y005895D01*
X005518Y005879D01*
X005522Y005862D01*
X005523Y005845D01*
X005521Y005827D01*
X005521Y005276D02*
X005523Y005258D01*
X005522Y005241D01*
X005518Y005224D01*
X005511Y005208D01*
X005501Y005193D01*
X005489Y005181D01*
X005475Y005171D01*
X005459Y005163D01*
X005443Y005158D01*
X004813Y005158D01*
X004812Y005158D02*
X004796Y005163D01*
X004780Y005171D01*
X004766Y005181D01*
X004754Y005193D01*
X004744Y005208D01*
X004737Y005224D01*
X004733Y005241D01*
X004732Y005258D01*
X004734Y005276D01*
X004813Y004945D02*
X005443Y004945D01*
X005459Y004940D01*
X005475Y004932D01*
X005489Y004922D01*
X005501Y004910D01*
X005511Y004895D01*
X005518Y004879D01*
X005522Y004862D01*
X005523Y004845D01*
X005521Y004827D01*
X005521Y004276D02*
X005523Y004258D01*
X005522Y004241D01*
X005518Y004224D01*
X005511Y004208D01*
X005501Y004193D01*
X005489Y004181D01*
X005475Y004171D01*
X005459Y004163D01*
X005443Y004158D01*
X004813Y004158D01*
X004812Y004158D02*
X004796Y004163D01*
X004780Y004171D01*
X004766Y004181D01*
X004754Y004193D01*
X004744Y004208D01*
X004737Y004224D01*
X004733Y004241D01*
X004732Y004258D01*
X004734Y004276D01*
X004734Y004827D02*
X004732Y004845D01*
X004733Y004862D01*
X004737Y004879D01*
X004744Y004895D01*
X004754Y004910D01*
X004766Y004922D01*
X004780Y004932D01*
X004796Y004940D01*
X004812Y004945D01*
X004734Y005827D02*
X004732Y005845D01*
X004733Y005862D01*
X004737Y005879D01*
X004744Y005895D01*
X004754Y005910D01*
X004766Y005922D01*
X004780Y005932D01*
X004796Y005940D01*
X004812Y005945D01*
X003328Y003642D02*
X001928Y003642D01*
X001928Y001062D01*
X003328Y001062D01*
X003328Y003642D01*
X004634Y002667D02*
X004634Y002037D01*
X004634Y002036D02*
X004640Y002018D01*
X004649Y002000D01*
X004661Y001985D01*
X004677Y001973D01*
X004694Y001964D01*
X004713Y001958D01*
X004732Y001956D01*
X004752Y001958D01*
X005303Y001958D02*
X005321Y001956D01*
X005338Y001957D01*
X005355Y001961D01*
X005371Y001968D01*
X005386Y001978D01*
X005398Y001990D01*
X005408Y002004D01*
X005416Y002020D01*
X005421Y002036D01*
X005421Y002037D02*
X005421Y002667D01*
X005416Y002683D01*
X005408Y002699D01*
X005398Y002713D01*
X005386Y002725D01*
X005371Y002735D01*
X005355Y002742D01*
X005338Y002746D01*
X005321Y002747D01*
X005303Y002745D01*
X004752Y002745D02*
X004732Y002747D01*
X004713Y002745D01*
X004694Y002739D01*
X004677Y002730D01*
X004661Y002718D01*
X004649Y002703D01*
X004640Y002685D01*
X004634Y002667D01*
X010834Y005637D02*
X010834Y006267D01*
X010840Y006285D01*
X010849Y006303D01*
X010861Y006318D01*
X010877Y006330D01*
X010894Y006339D01*
X010913Y006345D01*
X010932Y006347D01*
X010952Y006345D01*
X011503Y006345D02*
X011521Y006347D01*
X011538Y006346D01*
X011555Y006342D01*
X011571Y006335D01*
X011586Y006325D01*
X011598Y006313D01*
X011608Y006299D01*
X011616Y006283D01*
X011621Y006267D01*
X011621Y005637D01*
X011621Y005636D02*
X011616Y005620D01*
X011608Y005604D01*
X011598Y005590D01*
X011586Y005578D01*
X011571Y005568D01*
X011555Y005561D01*
X011538Y005557D01*
X011521Y005556D01*
X011503Y005558D01*
X010952Y005558D02*
X010932Y005556D01*
X010913Y005558D01*
X010894Y005564D01*
X010877Y005573D01*
X010861Y005585D01*
X010849Y005600D01*
X010840Y005618D01*
X010834Y005636D01*
X012134Y005637D02*
X012134Y006267D01*
X012140Y006285D01*
X012149Y006303D01*
X012161Y006318D01*
X012177Y006330D01*
X012194Y006339D01*
X012213Y006345D01*
X012232Y006347D01*
X012252Y006345D01*
X012803Y006345D02*
X012821Y006347D01*
X012838Y006346D01*
X012855Y006342D01*
X012871Y006335D01*
X012886Y006325D01*
X012898Y006313D01*
X012908Y006299D01*
X012916Y006283D01*
X012921Y006267D01*
X012921Y005637D01*
X012921Y005636D02*
X012916Y005620D01*
X012908Y005604D01*
X012898Y005590D01*
X012886Y005578D01*
X012871Y005568D01*
X012855Y005561D01*
X012838Y005557D01*
X012821Y005556D01*
X012803Y005558D01*
X012252Y005558D02*
X012232Y005556D01*
X012213Y005558D01*
X012194Y005564D01*
X012177Y005573D01*
X012161Y005585D01*
X012149Y005600D01*
X012140Y005618D01*
X012134Y005636D01*
X013434Y005637D02*
X013434Y006267D01*
X013440Y006285D01*
X013449Y006303D01*
X013461Y006318D01*
X013477Y006330D01*
X013494Y006339D01*
X013513Y006345D01*
X013532Y006347D01*
X013552Y006345D01*
X014103Y006345D02*
X014121Y006347D01*
X014138Y006346D01*
X014155Y006342D01*
X014171Y006335D01*
X014186Y006325D01*
X014198Y006313D01*
X014208Y006299D01*
X014216Y006283D01*
X014221Y006267D01*
X014221Y005637D01*
X014221Y005636D02*
X014216Y005620D01*
X014208Y005604D01*
X014198Y005590D01*
X014186Y005578D01*
X014171Y005568D01*
X014155Y005561D01*
X014138Y005557D01*
X014121Y005556D01*
X014103Y005558D01*
X013552Y005558D02*
X013532Y005556D01*
X013513Y005558D01*
X013494Y005564D01*
X013477Y005573D01*
X013461Y005585D01*
X013449Y005600D01*
X013440Y005618D01*
X013434Y005636D01*
X014634Y005827D02*
X014632Y005845D01*
X014633Y005862D01*
X014637Y005879D01*
X014644Y005895D01*
X014654Y005910D01*
X014666Y005922D01*
X014680Y005932D01*
X014696Y005940D01*
X014712Y005945D01*
X014713Y005945D02*
X015343Y005945D01*
X015359Y005940D01*
X015375Y005932D01*
X015389Y005922D01*
X015401Y005910D01*
X015411Y005895D01*
X015418Y005879D01*
X015422Y005862D01*
X015423Y005845D01*
X015421Y005827D01*
X015421Y005276D02*
X015423Y005258D01*
X015422Y005241D01*
X015418Y005224D01*
X015411Y005208D01*
X015401Y005193D01*
X015389Y005181D01*
X015375Y005171D01*
X015359Y005163D01*
X015343Y005158D01*
X014713Y005158D01*
X014712Y005158D02*
X014696Y005163D01*
X014680Y005171D01*
X014666Y005181D01*
X014654Y005193D01*
X014644Y005208D01*
X014637Y005224D01*
X014633Y005241D01*
X014632Y005258D01*
X014634Y005276D01*
X014713Y004945D02*
X015343Y004945D01*
X015359Y004940D01*
X015375Y004932D01*
X015389Y004922D01*
X015401Y004910D01*
X015411Y004895D01*
X015418Y004879D01*
X015422Y004862D01*
X015423Y004845D01*
X015421Y004827D01*
X015421Y004276D02*
X015423Y004258D01*
X015422Y004241D01*
X015418Y004224D01*
X015411Y004208D01*
X015401Y004193D01*
X015389Y004181D01*
X015375Y004171D01*
X015359Y004163D01*
X015343Y004158D01*
X014713Y004158D01*
X014712Y004158D02*
X014696Y004163D01*
X014680Y004171D01*
X014666Y004181D01*
X014654Y004193D01*
X014644Y004208D01*
X014637Y004224D01*
X014633Y004241D01*
X014632Y004258D01*
X014634Y004276D01*
X014634Y004827D02*
X014632Y004845D01*
X014633Y004862D01*
X014637Y004879D01*
X014644Y004895D01*
X014654Y004910D01*
X014666Y004922D01*
X014680Y004932D01*
X014696Y004940D01*
X014712Y004945D01*
X013228Y003642D02*
X011828Y003642D01*
X011828Y001062D01*
X013228Y001062D01*
X013228Y003642D01*
X014534Y002667D02*
X014534Y002037D01*
X014534Y002036D02*
X014540Y002018D01*
X014549Y002000D01*
X014561Y001985D01*
X014577Y001973D01*
X014594Y001964D01*
X014613Y001958D01*
X014632Y001956D01*
X014652Y001958D01*
X015203Y001958D02*
X015221Y001956D01*
X015238Y001957D01*
X015255Y001961D01*
X015271Y001968D01*
X015286Y001978D01*
X015298Y001990D01*
X015308Y002004D01*
X015316Y002020D01*
X015321Y002036D01*
X015321Y002037D02*
X015321Y002667D01*
X015316Y002683D01*
X015308Y002699D01*
X015298Y002713D01*
X015286Y002725D01*
X015271Y002735D01*
X015255Y002742D01*
X015238Y002746D01*
X015221Y002747D01*
X015203Y002745D01*
X014652Y002745D02*
X014632Y002747D01*
X014613Y002745D01*
X014594Y002739D01*
X014577Y002730D01*
X014561Y002718D01*
X014549Y002703D01*
X014540Y002685D01*
X014534Y002667D01*
M02*
